<svg id="kukkuu_-_valaan_evä" data-name="kukkuu - valaan evä" xmlns="http://www.w3.org/2000/svg" viewBox="0 0 52.78 38.88"><title>eva</title><path d="M282.2,172.36c-0.64,2.82-.44,5.27-2.72,7.39-1.23,1.14-1.22,1.59-1.39,3.38a18.09,18.09,0,0,1-.25,3.51l-1.44,1.68a6.06,6.06,0,0,0-1.11-.47c-2.36.08-5.13,0.16-7.28-.86-1.75-.83-3.09,1.86-1.34,2.68,1.34,0.63,2.25,1.62,3.83,1.63a13.86,13.86,0,0,0,1.87-.35,9.4,9.4,0,0,1,3.37.33c2.32,0.51,3.92-.18,4.75-2.62,0.52-1.53.38-3.35,0.53-4.93s0.31-1.37,1.39-2.46c2.21-2.22,2.09-5.48,2.73-8.31C285.56,171.09,282.62,170.48,282.2,172.36Z" transform="translate(-262.02 -167.57)"/><path d="M274.59,183.5c-1.94,0-1.77,3,.16,3S276.51,183.5,274.59,183.5Z" transform="translate(-262.02 -167.57)"/><path d="M270.95,185c-1.29,0-1.18,2,.11,2S272.23,185,270.95,185Z" transform="translate(-262.02 -167.57)"/><path d="M271.61,182c-1.29,0-1.18,2,.11,2S272.9,182,271.61,182Z" transform="translate(-262.02 -167.57)"/><path d="M275.95,181.33c-1.29,0-1.18,2,.11,2S277.23,181.33,275.95,181.33Z" transform="translate(-262.02 -167.57)"/><path d="M279.28,173.67c-1.29,0-1.18,2,.11,2S280.56,173.67,279.28,173.67Z" transform="translate(-262.02 -167.57)"/><path d="M279.28,177c-1.29,0-1.18,2,.11,2S280.56,177,279.28,177Z" transform="translate(-262.02 -167.57)"/><path d="M304.8,192.6c3.72,0.7,7.66.58,4.11,5.62a70.24,70.24,0,0,1-4.92,6.3,2.14,2.14,0,0,0-.29.42l-0.74.3a12.29,12.29,0,0,1,3.09,1.19l0.54,0c0.36,0,.7,0,1,0.05,3.55-4,11.52-13.4,4.11-16.53a33.17,33.17,0,0,0-13.76-2c-3.32.31-6.18,1.87-9.05,3.41a16.85,16.85,0,0,0,0-12c-1.34-3.66-3.8-13.32-9.39-11.5-3.28,1.07-6.22,5.08-8.71,7.3-1.93,1.72-4,3.37-4.82,6-1,3.25-.3,7.94.1,11.24a9.07,9.07,0,0,1-1.59,6.93,8.35,8.35,0,0,0-1.68,3.59,2.12,2.12,0,0,0,0,.65,9.16,9.16,0,0,0-.81,1.35,14.59,14.59,0,0,1,3.23.41l0-.06a1.68,1.68,0,0,0,1.45-1.52c0.32-2.2,2.81-4.39,3.37-6.65,0.49-1.94.05-3.69-.14-5.64a43.44,43.44,0,0,1-.25-7.13c0.3-3.94,2.64-5.1,5.2-7.41,1.3-1.18,4.19-5.14,5.93-4.89,1.54,0.21,3,5,3.44,6.13,2.15,5.91,2.5,11.62-2.14,16.5-1.41,1.48.31,3.78,2.14,3.22a42,42,0,0,0,7.43-3.45C296.13,192,300,191.68,304.8,192.6Z" transform="translate(-262.02 -167.57)"/></svg>