<svg id="kalaparvi" xmlns="http://www.w3.org/2000/svg" viewBox="0 0 69.71 43.54"><defs><style>.cls-1{fill:#fff;}</style></defs><title>kala2</title><path class="cls-1" d="M479.39,468.85c-0.89.17-1.7,0.55-2.62,0.69a18.29,18.29,0,0,1-3.6,0c0-.46.05-0.92,0.06-1.36,0-1.93-3-1.76-3,.16,0,1.66-.12,3.22.75,4.71a14.53,14.53,0,0,0,1.88,2.07c0.84,1-.09.62-0.78,0.33a9.65,9.65,0,0,1-2.37-1.3,7.79,7.79,0,0,1-1-1.19,26.17,26.17,0,0,1,.27-4c0.05-1.29-1.95-1.17-2,.11a11.06,11.06,0,0,1-.24,1.23,4,4,0,0,0,0,.58c-0.1-.12-0.2-0.24-0.29-0.39s-0.33-.47-0.47-0.71c-0.38-.62-0.2-0.85-0.58-0.28a1.62,1.62,0,0,0-.17-2c0.67-2,1.7-3.86,2.14-6a17.58,17.58,0,0,0,.11-4.59c-0.24-3.76-1.72-6-4.56-8.36a1,1,0,0,0-1.32,1.5,10.08,10.08,0,0,1,3.91,9.09c-0.15,3.12-1.58,5.58-2.41,8.47a2.78,2.78,0,0,0-.45,1.4c-2.71-.29-5.84-2.51-8-3.81a10.07,10.07,0,0,1-3.27-2.6q-1.59-4.51,2.27-6.3a14.15,14.15,0,0,0,1.42-1.69c2.1-2.86,2.44-5.9,5.85-7.73,2.93-1.57,6.23-1.81,9.15-3.34a1.19,1.19,0,0,0,.67-1.38c0.14-2.71,9.13-2.74,11.39-3.05,1.63-.22,7.13-1.37,9-0.66,0,0.05,0,.1-0.06.16-0.12.51,0,1-.1,1.55a11,11,0,0,1-1.54,3.21,1.41,1.41,0,0,0,1.21,2.1,1.45,1.45,0,0,0,1,.32,3.68,3.68,0,0,1,2,.2,12.49,12.49,0,0,1,1.14,1.89l0.05,0a0.94,0.94,0,0,0,.29.37,7,7,0,0,1,1.66,2.47,5.9,5.9,0,0,1,.66,1.52,3.74,3.74,0,0,0,.51,1.32,1,1,0,0,0,1.66-1.11,6.47,6.47,0,0,1-.43-1.45,17.67,17.67,0,0,0-.91-1.72c-0.16-.32-0.32-0.62-0.49-0.91a24.9,24.9,0,0,1,8.67-6.75,8.83,8.83,0,0,0-.35,1.51c-0.06.45-1.4,7.94-4.15,8.14a1.7,1.7,0,0,0,.66,3.25c3.72,0,5.88,2.31,8,5a14.09,14.09,0,0,0,2.43,2.62,7.48,7.48,0,0,1-7.18,2.37c-3.07-.47-4.05-2.65-6.75-3.49a1.21,1.21,0,0,0-1.53.6l-0.16.13a3.68,3.68,0,0,0-.94,1.33,5.08,5.08,0,0,1-.72,2c-0.95,1-2.75,1.22-4,1.18a1.38,1.38,0,0,0-1.2,2.09,1.43,1.43,0,0,0,.29.49,4.22,4.22,0,0,1,.95,1.36c0.3,1-.07,1.13-0.71,1.54a4.08,4.08,0,0,1-1,.42,1,1,0,0,0-.12-0.16c-0.64-.56-3.73-0.62-3.46-0.23" transform="translate(-447.26 -435.21)"/><path d="M515.81,460.28c-2.47-.28-4.06-4.44-5.81-5.93a11.81,11.81,0,0,0-3.68-2.13,6.68,6.68,0,0,0,1.79-2.84c0.85-2.74-.35-7.32,2.48-9.13a1.64,1.64,0,0,0,.24-0.19c1.39-.66.43-3.08-1.3-2.73a24.88,24.88,0,0,0-13.2,7.82,4.22,4.22,0,0,0-1.63-1.88,4.78,4.78,0,0,0-1.82-.48,8.37,8.37,0,0,0,.85-2.48c0.09-.59,0-1,0.14-1.37a3.57,3.57,0,0,0-.19-2.16,1.3,1.3,0,0,0-1.24-1c-1.6-.94-3.22-0.47-5.26-0.27-3.07.29-6.1,0.89-9.16,1.22-4.58.49-9.83-.94-10.44,4.57-4.2,2-9.33,2-12.37,6-1.12,1.49-1.39,3.43-2.44,5-1.36,2-3.85,3.16-4.92,5.39-3.47,7.3,9.84,14.53,15.5,14.3h0.1a10.21,10.21,0,0,0,1.09,1.36c0.49,0.52,1.09.81,1.58,1.35s0.86,1.2,1.41,1.7a11.52,11.52,0,0,0,3.6,2c2.07,0.77,5,.57,5-2.31a4.74,4.74,0,0,0-1.47-3.2l-0.28-.28a15.67,15.67,0,0,0,2.34,0c1.25-.14,2.41-0.84,3.67-0.79h0c2.21,2.64,6,4.39,9.32,3.48,1.62-.45,3.63-0.9,4.49-2.49a4.2,4.2,0,0,0,0-3.75,7.73,7.73,0,0,0,2.77-1.22,5.2,5.2,0,0,0,1.51-1.75,13.61,13.61,0,0,0,.53-1.63c1,0.71,1.95,2,3,2.56,1.58,0.82,3.23.55,5,.57,4.2,0,6.12-1.77,9.38-4.26a1.46,1.46,0,0,0,.6-1.33A1.27,1.27,0,0,0,515.81,460.28Zm-3.56,2.24a9.51,9.51,0,0,1-4.75-.68,12.84,12.84,0,0,1-1.78-1.74,12.85,12.85,0,0,0-1.77-1.23c-1.1-.67-2,1.12-0.89,1.79,1.63,1,2.43,2.61,4.26,3.24a10,10,0,0,0,1.72.42,10.91,10.91,0,0,1-3.48.22c-3.1-.19-4.05-2.65-6.75-3.49a1.21,1.21,0,0,0-1.53.6l-0.16.13a3.68,3.68,0,0,0-.94,1.33,5.08,5.08,0,0,1-.72,2c-0.95,1-2.75,1.22-4,1.18a1.38,1.38,0,0,0-1.2,2.09,1.43,1.43,0,0,0,.29.49,4.22,4.22,0,0,1,.95,1.36c0.3,1-.07,1.13-0.71,1.54a4.08,4.08,0,0,1-1,.42,1,1,0,0,0-.12-0.16c-0.64-.56-1.68-0.87-2-1.72s-0.3-1.75-1-2.53c-0.87-.95-2.18.56-1.32,1.5a2.84,2.84,0,0,1,.34,1.21,3.68,3.68,0,0,0,.52,1.31,2.85,2.85,0,0,0,.57.6,8.49,8.49,0,0,1-5-4c-0.66-1.27-2.19-.67-2.58.42-0.89.17-1.7,0.55-2.62,0.69a18.29,18.29,0,0,1-3.6,0c0-.46.05-0.92,0.06-1.36,0-1.93-3-1.76-3,.16,0,1.66-.12,3.22.75,4.71a14.53,14.53,0,0,0,1.88,2.07c0.84,1-.09.62-0.78,0.33a9.65,9.65,0,0,1-2.37-1.3,7.79,7.79,0,0,1-1-1.19,26.17,26.17,0,0,1,.27-4c0.05-1.29-1.95-1.17-2,.11a11.06,11.06,0,0,1-.24,1.23,4,4,0,0,0,0,.58c-0.1-.12-0.2-0.24-0.29-0.39s-0.33-.47-0.47-0.71c-0.38-.62-0.2-0.85-0.58-0.28a1.62,1.62,0,0,0-.17-2c0.67-2,1.7-3.86,2.14-6a17.58,17.58,0,0,0,.11-4.59c-0.24-3.76-1.72-6-4.56-8.36a1,1,0,0,0-1.32,1.5,10.08,10.08,0,0,1,3.91,9.09c-0.15,3.12-1.58,5.58-2.41,8.47a2.78,2.78,0,0,0-.45,1.4c-2.71-.29-5.84-2.51-8-3.81a10.07,10.07,0,0,1-3.27-2.6q-1.59-4.51,2.27-6.3a14.15,14.15,0,0,0,1.42-1.69c2.1-2.86,2.44-5.9,5.85-7.73,2.93-1.57,6.23-1.81,9.15-3.34a1.19,1.19,0,0,0,.67-1.38c0.14-2.71,9.13-2.74,11.39-3.05,1.63-.22,7.13-1.37,9-0.66,0,0.05,0,.1-0.06.16-0.12.51,0,1-.1,1.55a11,11,0,0,1-1.54,3.21,1.41,1.41,0,0,0,1.21,2.1,1.45,1.45,0,0,0,1,.32,3.68,3.68,0,0,1,2,.2,12.49,12.49,0,0,1,1.14,1.89l0.05,0a0.94,0.94,0,0,0,.29.37,7,7,0,0,1,1.66,2.47,5.9,5.9,0,0,1,.66,1.52,3.74,3.74,0,0,0,.51,1.32,1,1,0,0,0,1.66-1.11,6.47,6.47,0,0,1-.43-1.45,17.67,17.67,0,0,0-.91-1.72c-0.16-.32-0.32-0.62-0.49-0.91a24.9,24.9,0,0,1,8.67-6.75,8.83,8.83,0,0,0-.35,1.51c-0.06.45-.1,0.94-0.14,1.45-1.76.71-3.56,1.26-4.57,3-0.65,1.11,1.14,2,1.79.89a4.53,4.53,0,0,1,2.57-1.68c-0.3,2.25-1.05,4.29-3.8,4.49a1.7,1.7,0,0,0,.66,3.25c3.72,0,5.88,2.31,8,5a14.09,14.09,0,0,0,2.43,2.62Z" transform="translate(-447.26 -435.21)"/><path d="M496.51,454c-0.14-1.83-1.49-2.16-3-2.21a6.52,6.52,0,0,0,0-.93,3.2,3.2,0,0,0-.89-2.31,3,3,0,0,0-2.14-.52,0.45,0.45,0,0,0-.25.08,2.93,2.93,0,0,0-1.06-1.5c-0.91-.61-2.2-0.42-3.28-0.35a4.74,4.74,0,0,0-.73-1.17,2.81,2.81,0,0,0-2.34-.81,4.3,4.3,0,0,0-.2-1c-0.39-1.16-1.52-2.08-2.64-1.17-0.49.4,0.06,1.24,0.56,0.83,0.7-.58,1.13.43,1.22,1a2.33,2.33,0,0,1-.35,2,2.8,2.8,0,0,0-1.67-.42,0.5,0.5,0,0,0-.22.07,2.16,2.16,0,0,0-1.15-1,5.86,5.86,0,0,0-3.33.13,2.6,2.6,0,0,0-1.8-.72,0.5,0.5,0,0,0,.05,1,1.19,1.19,0,0,1,1.27,1,1.9,1.9,0,0,1-.82,1.39,6.09,6.09,0,0,0-1.63.23,3.48,3.48,0,0,0-.29-0.41c-0.88-1-3.66-1.7-4.43-.18a0.5,0.5,0,0,0,0,.5l0.18,0.25a0.5,0.5,0,0,0,.87-0.47,2.35,2.35,0,0,1,1.12-.11,1.88,1.88,0,0,1,1.54.74,2.55,2.55,0,0,1,.17.26,0.54,0.54,0,0,0,.21.49,0.92,0.92,0,0,1-.25,1.06,3,3,0,0,1-.38.24l-0.39,0a0.45,0.45,0,0,0-.44.33c-0.24.08-.47,0.14-0.7,0.19-0.63.14-.31,1.09,0.32,0.95a7.37,7.37,0,0,0,1.52-.51,1.52,1.52,0,0,1,1.34.44,2.91,2.91,0,0,1,.48,1.71,1.59,1.59,0,0,1-.79,1.79,5.42,5.42,0,0,1-2,.6c-0.63.09-.59,1.09,0.05,1a10.17,10.17,0,0,0,1-.2,0.42,0.42,0,0,0,.33.19,1.33,1.33,0,0,1,1.36,1,1.4,1.4,0,0,1-.54,1.62,6,6,0,0,1-3.5.61c-0.64,0-.59,1,0.05,1s1.14,0,1.77-.06a0.41,0.41,0,0,0,.48.31c0.94-.13,1.11,1.45.88,2.06-0.48,1.28-2.54,1.68-3.69,1.24-0.6-.23-1,0.66-0.45.89a4.3,4.3,0,0,0,4.73-1.17,2.55,2.55,0,0,1,1.25,1,0.56,0.56,0,0,0,.21.37,0.86,0.86,0,0,1-.09,1c-0.47.44,0.28,1.1,0.75,0.66a1.71,1.71,0,0,0,.31-1.93,5.55,5.55,0,0,0,2.55-3.15h0.39l0.52,0a1.31,1.31,0,0,1,1.58.79,2.43,2.43,0,0,1-.35,2.41c-0.48.43,0.28,1.09,0.75,0.66a2.59,2.59,0,0,0,.74-1.8,0.47,0.47,0,0,0,.41.21c1.68,0,3.87-.57,4-2.55a1.55,1.55,0,0,1,.4,0,3.32,3.32,0,0,1,.88.67,1.49,1.49,0,0,1,.74.5,3.6,3.6,0,0,1,0,1.39c0,0.64,1,.59,1-0.05a4.48,4.48,0,0,0-.09-1.75,1.51,1.51,0,0,0-.94-0.84,8.36,8.36,0,0,1-.9-0.7,1.81,1.81,0,0,0,.68-0.68,15.64,15.64,0,0,0,.77-1.51h0a2.83,2.83,0,0,1,2.26,1.47c0.31,0.53.87,1.68,0.34,2.2s0.29,1.11.75,0.66a1.79,1.79,0,0,0,.43-1.58,2.78,2.78,0,0,0,3-2.74,3.57,3.57,0,0,0-.46-1.43,4.53,4.53,0,0,0,1.06-1.11,3.27,3.27,0,0,0,.84-1A3,3,0,0,0,496.51,454Zm-6.06-5h0.07a1.62,1.62,0,0,1,1.82.87,3,3,0,0,1-.05,2.35,6,6,0,0,1-1.51.83,3.89,3.89,0,0,0-1.8-.55,1.76,1.76,0,0,0,0-.26,1.36,1.36,0,0,0-.16-0.34A2.61,2.61,0,0,0,490.45,449Zm-4.24-1.6c0-.05,0-0.11,0-0.17a9.15,9.15,0,0,1,1.7,0,1.7,1.7,0,0,1,1.47,1.42,1.83,1.83,0,0,1-1.56,2.56,7.79,7.79,0,0,0-2.32-.19,0.44,0.44,0,0,0-.35.16,2,2,0,0,0-.76-0.58,3.9,3.9,0,0,0-1.65-.2,2.86,2.86,0,0,0,.48-1.14l0.09,0C484.51,449.25,486.39,449.08,486.21,447.39Zm1.17,6.2a2.44,2.44,0,0,1-1.12.37,3.25,3.25,0,0,0-.11-0.73,6.94,6.94,0,0,0-.49-1.24,8.39,8.39,0,0,1,1.4,0,0.42,0.42,0,0,0,.45.24l0.2,0a0.69,0.69,0,0,1,.21.19A1,1,0,0,1,487.39,453.59Zm-5.41-2a3.14,3.14,0,0,1,1.88-.08,3.27,3.27,0,0,1,1.35,2.15A3.41,3.41,0,0,1,482,457.5l-0.07,0a2.69,2.69,0,0,0-1.36-2.08,2.81,2.81,0,0,1,.3-0.22,2.38,2.38,0,0,0,1.39-2.18A3.67,3.67,0,0,0,482,451.56Zm0.78-6.31a1.88,1.88,0,0,1,1.81.71,4.49,4.49,0,0,1,.44.82,0.55,0.55,0,0,0,.1.27,2.37,2.37,0,0,1,.08.34c0.16,1-1.33.87-2,.87l-0.08,0a2.92,2.92,0,0,0-.19-0.54,4.66,4.66,0,0,0-.79-1.16A2.73,2.73,0,0,0,482.76,445.25Zm-3,3.82a2.34,2.34,0,0,0,.19-2.5l0-.06a2.46,2.46,0,0,1,2,1.49c0.53,1,.13,1.69-0.6,2.42v0a4,4,0,0,0-.3-0.37,2.65,2.65,0,0,0-1.54-.74A3.16,3.16,0,0,0,479.8,449.07Zm0.7,1.87a2.75,2.75,0,0,1,.66,2.41c-0.23.86-.82,1-1.46,1.48a2.62,2.62,0,0,1-2.06.68,2.89,2.89,0,0,0-.36-0.57,2.34,2.34,0,0,0-.43-0.39,5.94,5.94,0,0,0,1.2-4.4l0.12,0a0.49,0.49,0,0,0,.36.15A2.34,2.34,0,0,1,480.5,450.94Zm-5-5.31a6,6,0,0,1,1.81-.16,1.58,1.58,0,0,1,1.63,1.17,1.76,1.76,0,0,1,.1,1.77,2.53,2.53,0,0,1-1.39.8,2.77,2.77,0,0,0-.26-0.4A4.28,4.28,0,0,0,475,447.5,2.38,2.38,0,0,0,475.51,445.62Zm-3.21,4.46a1.47,1.47,0,0,0,.17-0.33,2.1,2.1,0,0,0,0-1.22,5.22,5.22,0,0,1,1-.15,0.44,0.44,0,0,0,.57,0l0,0a3.91,3.91,0,0,1,2.28.81c1.45,1.2.58,3.61-.39,4.86a7.67,7.67,0,0,1-1.39-.68,0.52,0.52,0,0,0-.57,0c0-.1,0-0.2,0-0.3a3.7,3.7,0,0,0-.87-2.47A1.9,1.9,0,0,0,472.3,450.09Zm0.4,5.69a3.77,3.77,0,0,0,.55-0.35,2,2,0,0,0,.71-1.28c0.9,0.6,2.32.79,2.81,1.83,0.37,0.79.44,2.9-.71,3.23a7,7,0,0,0-2-1.14A2.49,2.49,0,0,0,472.7,455.78Zm2,8.5a3.28,3.28,0,0,0-1.51-1.19,3,3,0,0,0-.79-2.73,2.48,2.48,0,0,0,1.47-1.3,6.44,6.44,0,0,1,1.74,1,0.36,0.36,0,0,0,.18.14,2.25,2.25,0,0,1,1,1.39C476.69,462.74,475.64,463.64,474.7,464.27Zm3-3.28a2,2,0,0,0-.79-1.18,3.4,3.4,0,0,0,1.13-2.78,5,5,0,0,0-.08-0.51,3,3,0,0,0,1.33-.15,1.82,1.82,0,0,0,.21-0.12h0c1.34-.1,1.59,1.59,1.47,2.63C480.78,460.67,479.2,461,477.73,461Zm4,2.26a0.43,0.43,0,0,0-.36.18,4.32,4.32,0,0,0-.24-1.15,1.82,1.82,0,0,0-.64-0.87,3.17,3.17,0,0,0,.32-0.24,3.34,3.34,0,0,0,1.15-1.95,4.55,4.55,0,0,1,1.57,0,2,2,0,0,1,1.17,1.65,0.52,0.52,0,0,0,.06.8C484.64,463.07,482.83,463.24,481.72,463.25Zm5.57-5c-0.42.8-.51,1.87-1.57,2a0.51,0.51,0,0,0-.17.05,3.09,3.09,0,0,0-1.12-1.79,2.32,2.32,0,0,0-1.05-.33,4.68,4.68,0,0,0,2.76-2.93C487.9,455.28,487.92,457.06,487.29,458.27Zm2.72,0a3.62,3.62,0,0,0-1.39-.5l0-.09a2.67,2.67,0,0,0-1.17-3,2.8,2.8,0,0,0,1.31-1.15,3,3,0,0,1,1.52.44,0.55,0.55,0,0,0,.36.3,1.94,1.94,0,0,1,.52,1A3.57,3.57,0,0,1,490,458.29Zm2,2.21a0.47,0.47,0,0,0-.19,0,6,6,0,0,0-.29-0.65,4.35,4.35,0,0,0-.71-1,5.35,5.35,0,0,0,1.13-1.69l0.11,0a1.77,1.77,0,0,1,1.5.32,2.38,2.38,0,0,1,.49,1.21C494.13,459.89,492.93,460.54,492,460.5Zm3.43-5.45a5.09,5.09,0,0,1-.48.43c-0.36.4-.54,1-1.14,1a2.91,2.91,0,0,0-1.59-.25,3.23,3.23,0,0,0-.06-1.4,3.06,3.06,0,0,0-.59-1.12A6.29,6.29,0,0,0,493,453a1.62,1.62,0,0,0,.21-0.24c1.07,0,2.2,0,2.33,1.28A1.71,1.71,0,0,1,495.41,455Z" transform="translate(-447.26 -435.21)"/><path d="M458.89,453c-2.58,0-2.35,4,.21,4S461.46,453,458.89,453Z" transform="translate(-447.26 -435.21)"/></svg>