<svg id="kalaparvi" xmlns="http://www.w3.org/2000/svg" viewBox="0 0 52.74 34.25"><defs><style>.cls-1{fill:#fff;}</style></defs><title>kala1</title><path class="cls-1" d="M382.9,465.18a4,4,0,0,1-.6,1.56c-0.68.51-1.32-1.21-1.57-2.45,1,0.14,1.74.14,2.41,0.26C383,464.76,383,465,382.9,465.18Z" transform="translate(-368.96 -437.3)"/><path class="cls-1" d="M416.4,446.66c-0.35,1.62.66,5-1.28,5.8a1.23,1.23,0,0,0-.54.17,1.21,1.21,0,0,0-.76,1.58,1.44,1.44,0,0,0,.76,1.12c1.77,1,2.7,1.78,1.85,4-0.46,1.18-1.3,2.13-1.57,3.41a7,7,0,0,0,.13,3.08,3.73,3.73,0,0,1-3.1-1.53,13.78,13.78,0,0,0-1.06-1.64c0.1-.23.19-0.45,0.3-0.67s0.34-.54.48-0.83a4.43,4.43,0,0,1,.39-1,1,1,0,0,0-1.5-1.32,4.39,4.39,0,0,0-.63,1.26c-0.17.43-.46,0.8-0.66,1.22s-0.31.58-.46,0.87c-0.31.09-.62,0.22-1,0.34a13.41,13.41,0,0,1-5.38,1,1.44,1.44,0,0,0-1,2.46,11.35,11.35,0,0,1,.23,2.24l-0.21.13q-0.73.57-1.08-.19a6.92,6.92,0,0,1-1.17-2.33c-0.5-1.13-.91-1.92-2.25-2.08-1-.11-1.92,0-2.9-0.17-0.78-.17-1.48-0.43-2.22-0.61-0.7-1.37-3.14-1.1-2.84.62,0,0.11.06,0.26,0.1,0.43a1.31,1.31,0,0,0,.43,1.49c0.43,1.47.74,2.77-.69,0.42-0.4-.66-0.63-1.33-1-2a3.83,3.83,0,0,0-2.4-2.44c-2.11-.76-4.54-0.44-6.73-1.18-2.75-.92-5-1.92-6.44-4.52,2.31-2.41,3.78-5.41,6-7.93a7.8,7.8,0,0,1,2.81-2.68c0.76-.25,1.53-0.45,2.31-0.64a1,1,0,0,0,.4.18c2.28,0.51,3.22,4,3.41,5.93,0.27,2.59-.08,5-2,6.93-0.91.91,0.6,2.23,1.5,1.32,2.52-2.53,2.9-6,2.29-9.46-0.36-2.05-1.32-4.54-3.09-5.86,0.21-.16.42-0.32,0.68-0.49,3.89-2.62,5.92-2.87,10.58-2.64,3.32,0.17,6.54.54,9.83,0.7-0.15.17-.3,0.35-0.47,0.52l0,0,0,0h-0.08a1.46,1.46,0,0,0-1.13,2.3,1.37,1.37,0,0,0,.47,1.33c1.16,1,1.91,3,3.19,3.7a0.72,0.72,0,0,0,.14.17c0.92,0.66,1,1.85,1.46,2.81a1,1,0,0,0,1.26.63,1,1,0,0,0,.63-1.26,26.4,26.4,0,0,0-1.11-2.65c1.18-.74,1.69-2.09,2.76-2.92a8.91,8.91,0,0,1,3.11-1.49A11.27,11.27,0,0,0,416.4,446.66Z" transform="translate(-368.96 -437.3)"/><path d="M420.17,440.75a1.34,1.34,0,0,0-.83.26,14,14,0,0,0-7.56,2.66,15.55,15.55,0,0,0-1.76,2.45,18.37,18.37,0,0,0-1.56-2.12,23.6,23.6,0,0,0,2.41-2.77,1.34,1.34,0,0,0,.32-1.37,1.52,1.52,0,0,0-1.52-1.62c-5.29,0-10.45-.78-15.75-0.75-3,0-5.67-1-8,1.33-0.34.33-.54,0.9-0.9,1.2-1.16,1-1.18.64-2.5,1.27a17.62,17.62,0,0,0-4.54,2.49c-3.39,3-5.1,7.37-8.32,10.47l-0.1.12a1.25,1.25,0,0,0-.44,1.59,11,11,0,0,0,6.7,6.5c1,0.39,1.9.85,2.86,1.23,0,2.24,1.26,5.19,3.54,5.17a2.39,2.39,0,0,0,2.1-1.63c0.22-.5.33-1.2,0.59-1.76a5.26,5.26,0,0,1,.42.47c1.23,1.58,2.79,4.63,5.32,4.33,2.16-.25,2.28-2.16,2-4a12.25,12.25,0,0,0,1.57.38c0.5,0.08,1,0,1.52.1,0.82,0.13.26-.26,0.75,0.22,1.33,1.28,1.12,3.62,3.15,4.4a4.66,4.66,0,0,0,4.14-.86,2.4,2.4,0,0,0,1-1.83c0-.56-0.46-1.55-0.42-2.2a10.83,10.83,0,0,0,3-.55c0.4-.14,1.76-0.37,1.77-0.78,0.28,0.45.64,1.19,0.79,1.37,2,2.39,4.32,2.32,7.13,2.24,1.51,0.76,3.25-1.32,1.75-2.39-2.74-1.95,1.08-6.25,1-8.79a4.11,4.11,0,0,0-1.76-3.64,6,6,0,0,0,1.22-2.63c0.25-1.33-.18-2.71.11-4a8.87,8.87,0,0,1,1.79-3.54,1.49,1.49,0,0,0,.34-0.57A1.58,1.58,0,0,0,420.17,440.75ZM382.9,465.18a4,4,0,0,1-.6,1.56c-0.68.51-1.32-1.21-1.57-2.45,1,0.14,1.74.14,2.41,0.26C383,464.76,383,465,382.9,465.18Zm33.5-18.51c-0.35,1.62.66,5-1.28,5.8a1.23,1.23,0,0,0-.54.17,1.21,1.21,0,0,0-.76,1.58,1.44,1.44,0,0,0,.76,1.12c1.77,1,2.7,1.78,1.85,4-0.46,1.18-1.3,2.13-1.57,3.41a7,7,0,0,0,.13,3.08,3.73,3.73,0,0,1-3.1-1.53,13.78,13.78,0,0,0-1.06-1.64c0.1-.23.19-0.45,0.3-0.67s0.34-.54.48-0.83a4.43,4.43,0,0,1,.39-1,1,1,0,0,0-1.5-1.32,4.39,4.39,0,0,0-.63,1.26c-0.17.43-.46,0.8-0.66,1.22s-0.31.58-.46,0.87c-0.31.09-.62,0.22-1,0.34a13.41,13.41,0,0,1-5.38,1,1.44,1.44,0,0,0-1,2.46,11.35,11.35,0,0,1,.23,2.24l-0.21.13q-0.73.57-1.08-.19a6.92,6.92,0,0,1-1.17-2.33c-0.5-1.13-.91-1.92-2.25-2.08-1-.11-1.92,0-2.9-0.17-0.78-.17-1.48-0.43-2.22-0.61-0.7-1.37-3.14-1.1-2.84.62,0,0.11.06,0.26,0.1,0.43a1.31,1.31,0,0,0,.43,1.49c0.43,1.47.74,2.77-.69,0.42-0.4-.66-0.63-1.33-1-2a3.83,3.83,0,0,0-2.4-2.44c-2.11-.76-4.54-0.44-6.73-1.18-2.75-.92-5-1.92-6.44-4.52,2.31-2.41,3.78-5.41,6-7.93a7.8,7.8,0,0,1,2.81-2.68c0.76-.25,1.53-0.45,2.31-0.64a1,1,0,0,0,.4.18c2.28,0.51,3.22,4,3.41,5.93,0.27,2.59-.08,5-2,6.93-0.91.91,0.6,2.23,1.5,1.32,2.52-2.53,2.9-6,2.29-9.46-0.36-2.05-1.32-4.54-3.09-5.86,0.21-.16.42-0.32,0.68-0.49,3.89-2.62,5.92-2.87,10.58-2.64,3.32,0.17,6.54.54,9.83,0.7-0.15.17-.3,0.35-0.47,0.52l0,0,0,0h-0.08a1.46,1.46,0,0,0-1.13,2.3,1.37,1.37,0,0,0,.47,1.33c1.16,1,1.91,3,3.19,3.7a0.72,0.72,0,0,0,.14.17c0.92,0.66,1,1.85,1.46,2.81a1,1,0,0,0,1.26.63,1,1,0,0,0,.63-1.26,26.4,26.4,0,0,0-1.11-2.65c1.18-.74,1.69-2.09,2.76-2.92a8.91,8.91,0,0,1,3.11-1.49A11.27,11.27,0,0,0,416.4,446.66Z" transform="translate(-368.96 -437.3)"/><path d="M408.47,455.11a3.5,3.5,0,0,0-2.2-3,6.9,6.9,0,0,0-.05-0.83c-0.19-1.38-.84-3.08-2.47-3a3.13,3.13,0,0,0,0-.64,3,3,0,0,0-1-2.31,3.29,3.29,0,0,0-2.27-.55c0-.06,0-0.12,0-0.18a1.54,1.54,0,0,0-1.14-1.09,5.8,5.8,0,0,1-1-.43,2,2,0,0,0-1.06-.3,0.5,0.5,0,0,0,.05,1,3.56,3.56,0,0,1,1.16.5,2,2,0,0,1,1,.44c0.15,0.24.14,1.32-.25,1.3a0.4,0.4,0,0,0-.44.34,4,4,0,0,0-1.56-.34,0.49,0.49,0,0,0-.21,0c-0.82-1.12-2-1.27-3.35-1.29a3.6,3.6,0,0,0-3.13-1.49h-0.31c-0.65,0-.59,1,0.05,1a2.75,2.75,0,0,1,2.48.94c0.34,0.52.34,0.84-.21,1.16l-0.27.13-0.55,0a0.44,0.44,0,0,0-.39.24H391c-0.64,0-.58,1,0.05,1a3.87,3.87,0,0,0,1.66-.33,0.66,0.66,0,0,1,.22,0,2.42,2.42,0,0,1,.73.9,2.21,2.21,0,0,1,.57,2.06c-0.42,1.27-2.17,1.08-3.23,1.09a0.5,0.5,0,0,0,.05,1c0.41,0,.84,0,1.27,0a0.44,0.44,0,0,0,.23.25c0.83,0.39,1,2.08.65,2.84-0.53,1.06-2.21,1-3.2,1-0.64,0-.59,1,0.05,1a7,7,0,0,0,2.87-.43,2.29,2.29,0,0,1,.23,3.35,0.5,0.5,0,0,0,.75.66,3.5,3.5,0,0,0,.82-1.84,3.09,3.09,0,0,0,2.89-1.74,3.67,3.67,0,0,0,1-.09,0.48,0.48,0,0,0,.23.29,1.66,1.66,0,0,1,1,1.71,2.45,2.45,0,0,1-.88,2c-0.45.46,0.3,1.12,0.75,0.66a3.44,3.44,0,0,0,1.1-2.34c1.77,0,3.08-.8,3.42-2.4a3.23,3.23,0,0,1,.77.76c0.17,0.28.34,0.57,0.49,0.86a4.55,4.55,0,0,1,.43,1.56c-0.62.17-.3,1.12,0.32,0.95,1-.27.66-1.56,0.42-2.26a5.53,5.53,0,0,0-.24-0.58c0.58-.46,1.36-0.57,1.8-1.28A3.41,3.41,0,0,0,408.47,455.11Zm-8-9.37a2.45,2.45,0,0,1,1.62.31,2,2,0,0,1,.67,1.61c0,1.19-.76,1.61-1.79,1.6a3.51,3.51,0,0,0-1.26-2.34A1.49,1.49,0,0,0,400.49,445.74ZM397.55,447a2.67,2.67,0,0,1,2.46,2.5c0,1.14-1.05,1.66-2,1.88,0-.06,0-0.11,0-0.17a3.56,3.56,0,0,0-.65-1.59A2.48,2.48,0,0,0,397.55,447Zm-3.33.43a2.46,2.46,0,0,0-.62-0.67,1.43,1.43,0,0,0,.4-1,2.41,2.41,0,0,1,2.23.89c0.42,0.59,1,1.82.28,2.4a3.43,3.43,0,0,0-1.49-.29A10,10,0,0,0,394.22,447.45Zm0.45,10.81a3.3,3.3,0,0,0-1-1.79,2.14,2.14,0,0,0,.46-0.75,3.62,3.62,0,0,0,.17-1.22,2.31,2.31,0,0,1,1.31.33,0.48,0.48,0,0,0,.24.18,2.37,2.37,0,0,1,.74,1.19A1.72,1.72,0,0,1,394.67,458.26Zm1.35-4.37a3.32,3.32,0,0,0-1.8-.39h0a2.94,2.94,0,0,0-.68-1.29,2.27,2.27,0,0,0,1.72-2,2.68,2.68,0,0,0,0-.48,1.44,1.44,0,0,1,1.37.66,3.36,3.36,0,0,1,.38,1.36c0,0.06,0,.12,0,0.19a0.57,0.57,0,0,0,0,.22,2,2,0,0,1-.17,1.11A2.21,2.21,0,0,1,396,453.89Zm1.69,2.61s0,0,0,0a3.59,3.59,0,0,0-.87-1.93,1.94,1.94,0,0,0,1-.95,3.22,3.22,0,0,0,.22-1.2,5.79,5.79,0,0,0,1.08-.34c0.75,0.69,1.61,2.15,1.17,3A3,3,0,0,1,397.71,456.5Zm3,2.24a2.45,2.45,0,0,0-1.11-1.7,3.58,3.58,0,0,0,1.79-1.88,1.82,1.82,0,0,0,.09-0.88,1.94,1.94,0,0,1,1.79,2.21C403.24,458.18,402.15,458.71,400.69,458.74ZM403.3,454a2.89,2.89,0,0,0-2.2-.7l0-.09a7.66,7.66,0,0,0-1-1.64,2.48,2.48,0,0,0,.89-1.28,2.66,2.66,0,0,0,2.49-1.14,0.47,0.47,0,0,0,.37.14c1.08,0,1.39,1.52,1.46,2.35a4.53,4.53,0,0,1,0,1.29,2.11,2.11,0,0,1-1.54,1.51A3.09,3.09,0,0,0,403.3,454Zm3.14,3.49a5.81,5.81,0,0,0-.57.31,3.38,3.38,0,0,0-.46-0.68c-0.25-.27-0.58-0.43-0.84-0.7a0.41,0.41,0,0,0-.35-0.15,4.18,4.18,0,0,0-.14-0.93,3.24,3.24,0,0,0,1.82-1.36,3,3,0,0,0,.26-0.78,2.83,2.83,0,0,1,1.35,2.58A1.74,1.74,0,0,1,406.44,457.44Z" transform="translate(-368.96 -437.3)"/><path d="M381.39,448c-2.58,0-2.35,4,.21,4S384,448,381.39,448Z" transform="translate(-368.96 -437.3)"/></svg>