<svg id="hai" xmlns="http://www.w3.org/2000/svg" viewBox="0 0 326 118.46"><title>hai</title><path d="M106.46,428.14l0-.07Z" transform="translate(71.42 -420.77)"/><path d="M253.24,469c-4-6.14-12.29-6.34-18.56-8.38-9.07-2.95-18.93-5.39-28.26-7.45a150.77,150.77,0,0,0-32.19-3.28c-6,0-12,.23-18-0.46-1-.12-13.41-1.83-13,0.06a1.65,1.65,0,0,0-2.52-1.1c-1.47-.75-2.9-2.81-3.88-3.82-2.27-2.34-4.37-4.7-6.44-7.21a55.31,55.31,0,0,0-8.45-8.61c-2.75-2.14-6.23-3.55-9.38-5-2.53-1.17-5.8-3.42-8.64-3a2,2,0,0,0-1.81,1.55c-0.74,3.7,1.62,8.08,2,11.84,0.67,7-.51,13.06-5.31,18.4-4.08,2.16-8.59,2.28-13.16,2.68-4.92.43-9.73,1.29-14.62,2-8.47,1.26-17.39,1.13-25.72,3.16-5.69,1.39-7.88,3.52-13.66,1-2.31-1-3.45-2.46-6-1.58-2.12.72-2.75,3.28-4.6,4.24a15.54,15.54,0,0,0-1.81-.21c-2.78.57-5.59,1.12-8.41,1.44-4.15.46-9.42,1.24-13.52,0.52a15.73,15.73,0,0,1-6.3-2.91c-2.42-2-4.75-4.2-7-6.3a109.59,109.59,0,0,0-11.94-9.33q-2.06-2-4.08-4c-5.78-5.81-12.66-9.79-20.12-13.17a68.55,68.55,0,0,1-11.92-6.51c-1.93-1.37-3.31-2.84-5.64-1.87a2,2,0,0,0-1.29,1.45,13.51,13.51,0,0,0,.12,3.39h0c0.1,0.79.21,1.58,0.24,2.4,0.1,2.51-1.22,5.68-.32,8a4.18,4.18,0,0,0,2.57,2.47c0.93,0.43,2,.34,2.9.71,2.6,1.05,3.1,2.27,4,4.88,2.11,6,6.39,9.23,9.71,14.67,1.81,3,3.38,6.06,5.38,8.91,1.53,2.18,3.2,4.28,4.09,6.79-2.62,3-2.57,6.43-2.74,10.77-0.32,7.9-1.86,15.1-6.57,21.52-1.72,2.34-9.63,12.15-1.21,11.06,5.47-.71,12.52-4.63,17.24-7.56a46.71,46.71,0,0,0,4.2-3A77.84,77.84,0,0,0-23.15,502c7.72-6.57,13.82-14.62,20.43-22.21C0.81,481.71,5,482.22,9,482.44c1,0.06,3.2-.33,4.11.19,1.76,1,.71.71,1.08,2.16,0.24,0.94-.23,1.82.24,2.77,1.15,2.3,3.52,2.15,5.65,1.58,2-.53,3.72-1.79,5.71-2.34,3.51-1,7.35-.18,10.82.64,3.79,0.9,11.54,2.94,13.15,6.71,0.93,2.18-.16,5.06,2.33,6.4,4.26,2.29,11.35-1.92,16.15-3.34l0.63-.12c14.39,5.89,31,10.8,46.6,11,4.38,0.07,8.89.53,13.25,0,2.8-.31,5.15-1.76,7.71-2.38a5.34,5.34,0,0,1,1.26-1,2.4,2.4,0,0,1,1.43,1c0.1,0.12.18,0.24,0.26,0.36a3.34,3.34,0,0,1,0,1.57c0.2,2.72-1.3,5.4-2.28,7.87a86.22,86.22,0,0,1-5.22,10.65c-1.64,2.91-6.47,9.48-2,12.3,3.82,2.41,11.41-2.44,14.54-4.28,11.88-7,18.71-17.69,25.33-29.13a11,11,0,0,0,1.48-2.46c3.33-1.73,9.72-1.45,13.22-1.93,4.63-.64,9.25-1.33,13.81-2.39,8.95-2.1,19.76-4.68,27.93-9,3.78-2,6.59-5.21,10.59-6.85,3.66-1.5,7.6-2.38,11.32-3.78C253,476.93,256.69,474.32,253.24,469ZM20.85,484.59c-0.67.18-1.12,0.3-1.42,0.37a15.35,15.35,0,0,1-.26-1.78,17.57,17.57,0,0,0,2.61,1.1C21.47,484.39,21.17,484.51,20.85,484.59Zm228.51-11.42c-1.06,1.82-2.79,2-4.66,2.65-3.29,1.13-6.77,2-10,3.37a21.23,21.23,0,0,0-2.08,1,79.35,79.35,0,0,0-9.64,1.65h-0.23a20.72,20.72,0,0,0-6.54,1.12,57.12,57.12,0,0,0-6.3,2.83c-1.68.79-3.56,0.88-5.27,1.52-0.43.06-.86,0.12-1.31,0.14a1.3,1.3,0,0,0,.14,2.6c4.71-.22,7.84-2.13,12.2-3.64a78.24,78.24,0,0,1,12.27-3l-0.56.44c-3.81,3-8.14,3.92-12.62,5.37-9,2.91-17.83,5.76-27.28,7.14-3.93.57-8,1.41-12,1.68-1.07.07-2,.1-2.78,0.18a5.77,5.77,0,0,0,.2-3.05l0,0a4.72,4.72,0,0,0,.73-1,1.18,1.18,0,0,0,.13-0.07l0.39-.3a1.25,1.25,0,0,0,.53-1.1l0.18-.09c0.35,0.07.72,0.17,1.1,0.27a2.81,2.81,0,0,0,2.71.74,3.19,3.19,0,0,0,.5-0.18,0.8,0.8,0,0,0,.15,0l0.59,0.07a4.22,4.22,0,0,0,2,.37,3.24,3.24,0,0,0,1.76-.47c2-1.07,2.45-3.35,2.78-5.34,1.23-7.39.4-15.16,2.42-22.44a1.32,1.32,0,0,0-1-1.54l-0.25-.06a1.25,1.25,0,0,0-1.43,1.69,74.35,74.35,0,0,0-1.82,13.18c-0.21,3.12.28,6.46-.54,9.51-0.26,1-.73,2.5-1.8,2.91a2.81,2.81,0,0,0-.94-0.37,11.51,11.51,0,0,0,.26-2c0.23-3.91,1.29-7.72,1.26-11.61a39.83,39.83,0,0,0-1.4-9.41c-0.4-1.6-2.78-.82-2.48.75a0.58,0.58,0,0,0,0,.39c0.08,0.2.14,0.41,0.21,0.62,0.82,3.45,1.5,7.16.94,10.67-0.27,1.68-.8,3.27-1,5q-0.14,1-.21,2a2.25,2.25,0,0,1-1.37,2.79,1.17,1.17,0,0,0-.74-0.78,27.88,27.88,0,0,0-.35-5.79c-0.39-3.26-1.16-6.52-1.41-9.8a14.89,14.89,0,0,0-.28-2c-0.3-2.25-.66-4.52-1.07-6.94-0.27-1.64-2.88-1.51-2.6.14,0.77,4.59,1.73,8.68,1.73,13.39,0,2.75.45,6.22,0.28,9.39-0.9-2.16-2.14-4.25-2.54-5.51-0.12-.36-0.25-0.72-0.37-1.08-0.49-1.77-.9-3.56-1.46-5.4-1.22-4-3.83-7.33-5.08-11.28a1.3,1.3,0,0,0-2.47.82c1.77,5.58,4.87,10.3,6.27,16.13,0.54,2.26,4.41,9.43,3.78,11.74a7.23,7.23,0,0,0-.78-0.33,4.78,4.78,0,0,0-1.44-.65c-3.07-.74-6.59.85-9.62,2a0.67,0.67,0,0,0-.31-0.08l-1.34-.06c-4.59-1.65-8-1.1-13.35-1-7.24.17-14.31,1.65-21.48,2.23-10.12.81-20-.41-30-0.44a1.16,1.16,0,0,0-1.16,1.43,0.73,0.73,0,0,0,.25.63,1.24,1.24,0,0,0,1,.55c3.82,0,7.46.88,11.3,0.88,5.17,0,10.26-.18,15.4-0.46,5.93-.32,11.8-1.14,17.73-1.78,1.39-.15,2.88-0.32,4.41-0.46,0.29,0,.57,0,0.86,0a24.71,24.71,0,0,0,4.15-.32,33.58,33.58,0,0,1,7.48.49,42.22,42.22,0,0,1-9.8,2.1,1.3,1.3,0,0,0,.14,2.6c5.57-.31,10.93-2.24,16.16-4.06,2.29-.8,6.93-3.11,8.72-0.68,1.47,2-1,3.27-1.8,5a1.32,1.32,0,0,0-.14.56v0c-5.2,9-10.45,17.89-18.23,24.64a44.8,44.8,0,0,1-6.32,3.82c-1.24.64-7.23,4.13-8.64,3.31s1.1-3.71,1.72-4.9a28.72,28.72,0,0,0,2.85-6.34c0.08-.32.18-0.64,0.28-1,2.37-4.69,5-10.39,4.23-15.52-0.38-2.54-2.23-5-5-5-2.37,0-4.2,2.42-6.33,3.19-4.16,1.49-9.22.75-13.55,0.65-15.06-.36-30.51-4-44.65-9.43a1.08,1.08,0,0,0-1.46-.57l-0.86-.34a1.56,1.56,0,0,0-1.81-1,41.88,41.88,0,0,0-4.87,1.1c-2.33.66-4.57,1.69-6.93,2.27-3.37.83-2.92,0.78-3.36-1.26,0-.05,0-0.1,0-0.16-0.11-2.56-1.36-5.55-3.85-6.47-0.55-.21-1.12-0.38-1.68-0.57a43.11,43.11,0,0,0-9.7-3.74c-3.93-1.18-8.66-2.2-12.77-1.45a12,12,0,0,0-2.44.78,1.09,1.09,0,0,0-.92-1.54c-1.52-.15-2.64-1.1-4.06-1.52-0.75-.23-1.53-0.23-2.3-0.4a6.66,6.66,0,0,0-2.1-1c-5.5-1.62-11.36.1-16.55-3.23a2,2,0,0,0-.45-0.21,1.79,1.79,0,0,0-2,.07l-0.38.26a1.91,1.91,0,0,0-.66.75c-2.27,2.42-5,4.4-7.29,6.79-2.89,3-5.63,6.19-8.39,9.32-6,6.76-12.55,13.33-20.73,17.36-2.63,1.29-5.77,2.11-8.3,3.53a38.33,38.33,0,0,0,4.9-8.53c1.79-3.19,2.28-6.45,3-10.07a39.24,39.24,0,0,0,.44-5.55c1.06-4,1.69-8.09,3.3-11.87l0.77,0.44c2.68,1.47,6.91.79,9.82,0.75,1.68,0,1.54-2.63-.14-2.6-2.54,0-5.91.64-8.28-.41a18,18,0,0,1-2-1.11,1.8,1.8,0,0,0-.36-0.45,27.33,27.33,0,0,0-4.06-7.11c-2.66-3.66-4.51-7.8-7.05-11.53-2.85-4.18-6.66-6.62-8.08-11.72-0.77-2.75-1-5.06-3.64-6.53-1.18-.64-2.93-0.42-4-1.08l-0.4-.27a4.24,4.24,0,0,0,.07-0.46,10.63,10.63,0,0,0-.22-2.65,9.76,9.76,0,0,0-1-2.06,17.5,17.5,0,0,1-.11-4.14c1,0.52,1.89,1.12,2.91,1.67,0.55,0.48,1,.89,1.17,1,5.93,3.67,12.73,5.87,18.81,9.29,2.1,1.43,4.18,2.9,6.27,4.35l0.25,0.21c6.93,6.19,13.25,12.73,20.45,18.59,4.44,3.61,8.75,6.71,14,7.8L-3,469.85a4.18,4.18,0,0,0,2,1.08,1.05,1.05,0,0,0,1.14-.51l0-.09c2.84,0,5.72-.63,8.58-0.72,3.15-.1,6.25-0.06,9.4-0.06a24,24,0,0,0,5.61-.52,4.56,4.56,0,0,0,2,0,7.63,7.63,0,0,0,1.89.25c1,0,1.92.42,3,.42,1.68,0,1.53-2.6-.14-2.6a6.19,6.19,0,0,1-1.38-.36,6.38,6.38,0,0,0-1.58-.06,5.46,5.46,0,0,1-.87-0.08c0.11-.25.23-0.51,0.37-0.81,0.68-1.4-.87-0.28,1-1.21l0.3-.12a17.07,17.07,0,0,1,2.52,1.41,7.58,7.58,0,0,0,4.71,1.49,14.47,14.47,0,0,0,5.11-1.19c3.15-1.08,6.18-1,9.39-1.62,2.92-.52,5.8-1.3,8.72-1.86,4.49-.46,9-0.92,13.43-1.62,9.45-1.48,21.45-.49,29.75-5.8,1.88-.38,3.93-1.24,5.72-1.19a35.12,35.12,0,0,1,6.83,1.28c1.63,0.4,2.16-2.15.54-2.55a42.5,42.5,0,0,0-7.05-1.3,10.14,10.14,0,0,0-3.46.46c0.12-.24.24-0.48,0.34-0.74s0.3-.79.45-1.19a21.55,21.55,0,0,0,2.67-9,45.32,45.32,0,0,0-.65-10.39c-0.18-1.11-.95-3.36-1.33-5.2a2.93,2.93,0,0,1,.41-0.12l1.16,0.34c0.2,0,.4.09,0.6,0.14,2.11,1,4.29,2.42,5.71,3.1a35.42,35.42,0,0,1,10.9,8.06c3.25,3.44,6,7.22,9.34,10.61,1.94,2,3.49,4.31,6.29,4.95a1.85,1.85,0,0,0,.94,0,219.19,219.19,0,0,0,22.21,1.35c10.41,0.23,20.64.1,31,1.39,1.7,0.21,3.38.48,5.05,0.78,3.56,0.82,7.15,1.5,10.69,2.41,0.41,0.11.83,0.18,1.24,0.28,3.29,0.87,6.57,1.81,9.87,2.74,3.8,1.08,7.72,1.64,11.51,2.78,1.37,0.41,2.89.75,4.43,1.1a100.53,100.53,0,0,1,12.2,5.43A2.37,2.37,0,0,1,249.37,473.17Z" transform="translate(71.42 -420.77)"/><path d="M210.38,476.56c0-1.68-2.63-1.54-2.6.14,0,0.53.2,1.5,0.15,2.29a1.23,1.23,0,0,1-.22.42c-0.69.8-1.82,0.07-2.1-.7a0.71,0.71,0,0,0-1.1-.31,1.21,1.21,0,0,0-.93.18,1.31,1.31,0,0,0-.36,1.81,6.34,6.34,0,0,0,2,2.05,4.21,4.21,0,0,0,3.54-.08C210.86,481.2,210.42,478.6,210.38,476.56Z" transform="translate(71.42 -420.77)"/></svg>