<?xml version="1.0" encoding="utf-8"?>
<!-- Generator: Adobe Illustrator 19.2.0, SVG Export Plug-In . SVG Version: 6.00 Build 0)  -->
<!DOCTYPE svg PUBLIC "-//W3C//DTD SVG 1.1//EN" "http://www.w3.org/Graphics/SVG/1.1/DTD/svg11.dtd">
<svg version="1.1" id="piilokalat" xmlns="http://www.w3.org/2000/svg" xmlns:xlink="http://www.w3.org/1999/xlink" x="0px" y="0px"
	 viewBox="0 0 128.6 129.8" style="enable-background:new 0 0 128.6 129.8;" xml:space="preserve">
<style type="text/css">
	.st0{fill:#FFFFFF;}
</style>
<title>piilokalat</title>
<path class="st0" d="M59.3,46.7c0.7,2.8,1.9,5.4,3.7,7.7c1.5,2,3.6,3.3,5.1,5s1.4,4.5,2.5,6.4s3.8,4,5.3,1c0.2-0.7,0.3-1.4,0.2-2.1
	c0-0.5-0.2-2.4,0.4-2.8c0.5,0,1.1,0.1,1.6,0.3c2.6-0.2,6.6,0.5,8.5,2.5c1.6,1.7,4.1,6.8,7.2,3.8c1.2-1.1,0.7-2.4,0.5-3.7
	c-0.5-3.4,1.1-5.8,3.5-7.8c3.3,5.3,4.8,11.7,10.4,15.3c1.2,0.8,2.9,1.7,4.2,0.7c1.9-1.4,0.5-3.7-0.1-5.3c-1.3-3.6-1.4-6.8-1.8-10.4
	s-0.7-6.6,1.2-9.9c1.5-2.8,7.7-5.8,5.5-9.5c-0.1-0.1-0.2-0.2-0.3-0.3c-0.2-0.4-0.5-0.6-0.9-0.6c-7.2-1.3-14,4.1-18.3,9.5
	c-0.6-0.7-1.3-1.4-1.9-2.2c-1.1-1.4-0.7-0.5-0.3-2.1c0.2-0.6,0.8-0.8,0.8-1.5c0.1-1.5-1.1-2.3-2.3-2.7c-1.3-0.4-2.6-0.7-4-0.9
	c-1.9-0.5-3.6-1.4-5.4-1.8c-2.5-0.6-4.2,0-6.4,1.2c-2.1,1.3-4.6,1.9-7.1,1.7c-3.1,0-11.1-0.8-12.6,3C57.8,42.6,58.9,45.1,59.3,46.7z
	"/>
<path d="M59.3,46.7c0.7,2.8,1.9,5.4,3.7,7.7c1.5,2,3.6,3.3,5.1,5s1.4,4.5,2.5,6.4s3.8,4,5.3,1c0.2-0.7,0.3-1.4,0.2-2.1
	c0-0.5-0.2-2.4,0.4-2.8c0.5,0,1.1,0.1,1.6,0.3c2.6-0.2,6.6,0.5,8.5,2.5c1.6,1.7,4.1,6.8,7.2,3.8c1.2-1.1,0.7-2.4,0.5-3.7
	c-0.5-3.4,1.1-5.8,3.5-7.8c3.3,5.3,4.8,11.7,10.4,15.3c1.2,0.8,2.9,1.7,4.2,0.7c1.9-1.4,0.5-3.7-0.1-5.3c-1.3-3.6-1.4-6.8-1.8-10.4
	s-0.7-6.6,1.2-9.9c1.5-2.8,7.7-5.8,5.5-9.5c-0.1-0.1-0.2-0.2-0.3-0.3c-0.2-0.4-0.5-0.6-0.9-0.6c-7.2-1.3-14,4.1-18.3,9.5
	c-0.6-0.7-1.3-1.4-1.9-2.2c-1.1-1.4-0.7-0.5-0.3-2.1c0.2-0.6,0.8-0.8,0.8-1.5c0.1-1.5-1.1-2.3-2.3-2.7c-1.3-0.4-2.6-0.7-4-0.9
	c-1.9-0.5-3.6-1.4-5.4-1.8c-2.5-0.6-4.2,0-6.4,1.2c-2.1,1.3-4.6,1.9-7.1,1.7c-3.1,0-11.1-0.8-12.6,3C57.8,42.6,58.9,45.1,59.3,46.7z
	 M63.4,49.9c-0.5-1-2.5-5.6-2.2-6.9c1.4-4.4,12.6-1.4,16.1-3.1c2.1-1,3.5-2.5,6.4-2.1c1.4,0.4,2.7,0.9,4.1,1.5
	c1.2,0.4,2.7,0.4,3.8,0.9c0.3,0.1,0.5,0.2,0.8,0.3c-0.2,0.2-0.3,0.4-0.3,0.6c-0.2,1-0.9,1.7-0.6,2.8c0.8,2.6,4.3,3.2,5.2,6.1
	c0.6,1.7,3.3,1,2.7-0.8c-0.1-0.2-0.1-0.3-0.2-0.5c3.3-4.3,9.4-10,15.3-9.4c-0.9,1.2-5.4,6.4-5.9,7.4c-1.5,3.2-1.5,6.2-1.3,9.8
	c0.2,2.9,0.1,5.7,1,8.5c0.3,1,1.1,2.3,1.1,3.3c0,1.8-1,0.8-2.1-0.3c-3.7-3.7-4.9-9.4-8-13.7c-0.1-0.1-0.2-0.2-0.2-0.3c0,0,0,0,0,0
	c-0.4-0.5-1.1-0.6-1.7-0.2c-3.1,2.1-7,4.7-6.6,8.9c0,0.4,1.1,3.1,0.9,3.3c-0.4,0.7-2.1-2.4-2-2.3c-1.1-1.6-2.7-2.8-4.6-3.3
	c-2.4-0.8-5.3-0.9-7.8-1.2c-1.3-0.2-2.1-0.6-3.2,0.4c-1.3,1.2,0,4.3-0.8,5c-0.5,0.4-1.4-4.8-1.7-5.4c-0.8-1.8-2.8-3-4.4-4.3
	c2.3-0.5,4.4-1.8,5.8-3.8c1.4-1.9,1.4-4.1,1.4-6.4c0-0.4-0.4-0.8-0.8-0.8c-0.5-0.1-1,0.3-1,0.8c0,1.6,0.2,3.5-0.7,4.9
	c-1.1,1.9-3.3,3.6-5.6,3.5c-0.2,0-0.4,0.1-0.6,0.2C64.8,52.2,64,51.1,63.4,49.9L63.4,49.9z"/>
<path d="M78.8,54.3c1,1.3,2.3,2.3,3.9,3c2.1,1,5.1,2.2,6.1-0.8c1-2.7-2-5.2-4.2-6.2c-1.2-0.7-2.5-1.2-3.8-1.7
	c-0.7-0.2-1.4,0-1.9,0.5c-0.1,0-0.2-0.1-0.3-0.1c-0.5-0.1-1,0.3-1.1,0.9C77.3,51.6,77.8,53.1,78.8,54.3z M81.7,54.6
	c-1.2-0.9-2-2.2-2.3-3.7c0.3,0,0.6-0.2,0.8-0.4c0.1-0.1,2.7,1.2,3,1.4c1.3,0.5,4.4,2.1,3.8,4S82.7,55.4,81.7,54.6L81.7,54.6z"/>
<path d="M101.5,51C101.5,51,101.5,51,101.5,51c0.4,0.4,1,0.4,1.3,0c0.5-0.6,1.1-1.1,1.8-1.3c0.4-0.2,0.6-0.6,0.6-1
	c-0.1-0.5-0.5-0.9-1.1-0.8c-1,0.3-1.9,1-2.6,1.8C101.2,50,101.2,50.6,101.5,51z"/>
<path d="M102.6,53.7c-0.4,0.3-0.5,0.9-0.2,1.3c0.5,0.6,0.7,1.4,0.7,2.2c-0.1,1.2,1.8,1.2,1.9,0c0.1-1.3-0.3-2.5-1.2-3.5
	C103.4,53.4,103,53.4,102.6,53.7z"/>
<path d="M68,44.1c0,0.6,0.4,1,1,1s1-0.4,1-1s-0.4-1-1-1S68,43.5,68,44.1z"/>
<path class="st0" d="M85.8,7.9c0,0.3,0,0.7,0,1c0.1,0.1,0.1,0.3,0.1,0.4c0,0.4,0.1,0.8,0.2,1.2h0.1c0,0.1,0,0.1,0,0.2
	c0.8,2.9,2.7,5.4,5.2,7.1c1.2,0.9,2.7,1.4,4.1,1.5c1.3,0.1,2.7,0.2,4,0.2c1,0.8,1.5,2.2,2.5,3.2c1,0.8,2.1,1.4,3.2,1.8
	c1.6,0.7,4.6,0.6,5.2-1.4c0-0.1,0-0.2,0.1-0.4c0.1-0.5-0.1-1-0.5-1.3c-0.1-0.2-0.2-0.4-0.3-0.6c-0.1-0.2-0.4-0.5-0.5-0.7
	c-0.1-0.3-0.2-0.6-0.2-0.9c0.6-0.1,1.1-0.3,1.7-0.5c0.7-0.2,1.3-0.6,1.9-0.8c1.7,2.8,4,4.3,6.9,5.9c1.7,1,4.8,3.6,6.5,1.1
	c1.1-1.6,0.1-4.5-0.2-6.2c-0.4-2.9-1.1-5.8-0.6-8.8c0.5-2.8,5-6.6,2.9-9.5c0,0-0.1-0.1-0.1-0.1c-0.5-0.5-1.3-0.6-1.8-0.1
	c-2.9,0-5.2,1.1-8,2.3c-2.1,0.9-3.9,2.3-5.3,4c-2.6-4-9.6-5.4-13.6-5.4C94.4,1.2,87.5,2.8,85.8,7.9z M90.8,12.1L90.8,12.1
	c-0.3-0.5-0.1-1.1,0.4-1.4c0.5-0.3,1.1-0.1,1.4,0.4c0.1-0.1,0.3-0.2,0.4-0.3c0-0.1-0.1-0.1-0.1-0.2c-0.2-0.2-0.4-0.3-0.6-0.5
	c0,0-0.1-0.1-0.1-0.1c-0.5-0.5-0.5-1.2,0-1.6c0,0,0,0.1,0,0.1c0,0.6,0.4,1,0.9,1.1c0.6,0,1-0.4,1-1s-0.4-1-1-1c-0.1,0-0.2,0-0.2,0
	c0-0.1-0.1-0.2-0.1-0.3c-1,0.5-2.2-0.8-1.2-1.5c0.2-0.1,0.3-0.2,0.5-0.3c0.1-0.2,0.4-0.4,0.6-0.5c0.3-0.1,0.6-0.2,0.9-0.3h0
	c0.3-0.1,0.5-0.2,0.8-0.3c0.4-0.1,0.8,0.1,1,0.5c0.3,0.5,0.1,1.1-0.3,1.4h0.1c0,0,0.1,0,0.1,0.1c0.4,0.3,0.5,1,0.2,1.4
	c0.2,0.4,0.2,0.8,0.2,1.2c0,0.4-0.3,0.8-0.8,1l0.3,0.2c0.2,0.2,0.4,0.4,0.4,0.7c0.2,0.2,0.4,0.4,0.6,0.5c0.2,0.1,0.3,0.3,0.4,0.4
	c0.2,0.5,0,1.1-0.5,1.3c-0.2,0.4-0.5,0.6-0.9,0.6c0,0.1,0,0.1-0.1,0.2l0.4,0.2c0.2,0.1,0.4,0.3,0.4,0.5c0.4,0,0.9,0.2,1.3,0.2
	c0.9-0.4,1.8-0.8,2.6-1.3c0.4-0.3,0.9-0.3,1.2,0c0.4,0.4,0.5,1,0.1,1.4c0.4,0.1,0.6,0.5,0.6,0.9c0,0.6-0.4,1-1,1
	c-1.1,0-2.2,0.1-3.3,0h-0.3c-0.5,0.1-1,0.2-1.5,0.1c-0.1,0-0.3,0-0.4,0c-1.3-0.3-2.5-1-3.4-2c-0.3-0.2-0.3-0.6-0.2-0.9
	c0,0,0-0.1,0-0.1C91.2,13.2,90.9,12.7,90.8,12.1L90.8,12.1z"/>
<path d="M86.2,10.7c0.8,2.9,2.7,5.4,5.2,7.1c1.2,0.9,2.7,1.4,4.1,1.5c1.3,0.1,2.7,0.2,4,0.2c1,0.8,1.5,2.2,2.5,3.2
	c1,0.8,2.1,1.4,3.2,1.8c1.6,0.7,4.6,0.6,5.2-1.4c0-0.1,0-0.2,0.1-0.4c0.1-0.5-0.1-1-0.5-1.3c-0.1-0.2-0.2-0.4-0.3-0.6
	c-0.1-0.2-0.4-0.5-0.5-0.7c-0.1-0.3-0.2-0.6-0.2-0.9c0.6-0.1,1.1-0.3,1.7-0.5c0.7-0.2,1.3-0.6,1.9-0.8c1.7,2.8,4,4.3,6.9,5.9
	c1.7,1,4.8,3.6,6.5,1.1c1.1-1.6,0.1-4.5-0.2-6.2c-0.4-2.9-1.1-5.8-0.6-8.8c0.5-2.8,5-6.6,2.9-9.5c0,0-0.1-0.1-0.1-0.1
	c-0.5-0.5-1.3-0.6-1.8-0.1c-2.9,0-5.2,1.1-8,2.3c-2.1,0.9-3.9,2.3-5.3,4c-2.6-4-9.6-5.4-13.6-5.4c-4.8,0-11.8,1.6-13.6,6.7
	c0,0.3,0,0.7,0,1c0.1,0.1,0.1,0.3,0.1,0.4c0,0.4,0.1,0.8,0.2,1.2h0.1C86.2,10.6,86.2,10.7,86.2,10.7z M88.8,9.6
	c0-0.4-0.2-0.7-0.5-0.9c0.6-1.8,2.2-3.2,4.3-4c0,0,0.1,0.1,0.1,0.1l0,0c0.3-0.1,0.6-0.2,0.9-0.3h0c0.2-0.1,0.5-0.2,0.7-0.3l0,0
	c6.2-1.5,14.8,0.2,16.4,4.5c0,0.1,0.1,0.2,0.1,0.2c-0.1,1.1,1.2,2.2,2.2,1.2c1.7-1.7,2.9-3.6,5.2-4.7c2.2-1.2,4.5-2.1,7-2.4
	c-1.1,1.9-2.1,3.9-2.9,5.9c-0.6,2.8-0.2,5.2,0.2,8c0.1,0.7,1.1,4.6,0.8,5c-1,1.2-1.7-0.5-2.7-1c-2.3-1.3-4.4-2.3-5.8-4.7
	c0-0.1,0-0.1,0-0.2c-0.1-0.8-0.8-1.4-1.6-1.3c-1.1,0.2-2.1,0.5-3,1c-1.2,0.5-2.4,0.8-3.6,0.9c-0.4,0.1-0.8,0.3-1,0.7
	c-0.4,0.7-0.2,1.6,0.5,2c0,0.7,0.2,1.4,0.5,2.1l0.3,0.5c-0.2,0-0.4,0-0.6-0.1c-0.7-0.3-1.4-0.6-2-1c-1.4-0.8-2-2.7-3.3-3.7
	c-0.1-0.1-0.3-0.2-0.5-0.3c-0.3-0.2-0.6-0.3-0.9-0.3c-0.4,0-0.8,0-1.1,0c-0.4,0-0.7,0-1.1,0h-0.3c-0.5,0.1-1,0.2-1.5,0.1
	c-0.1,0-0.3,0-0.4,0c-1.3-0.3-2.5-1-3.4-2c-0.1-0.1-0.2-0.2-0.2-0.3C90.2,13.1,89.3,11.4,88.8,9.6L88.8,9.6z"/>
<path d="M116,10.9c0,0.4,0.4,0.8,0.8,0.8c0.5,0.1,1-0.3,1-0.8l0,0c0,0,0.1-0.1,0.1-0.1c0.2-0.1,0.3-0.3,0.5-0.4
	c0.5-0.3,0.9-0.6,1.3-1c0.3-0.4,0.3-1,0-1.3c0,0,0,0,0,0c-0.4-0.4-1-0.4-1.3,0C117.7,8.9,115.9,9.4,116,10.9z"/>
<path d="M92.1,9c0,0.6,0.4,1,1,1s1-0.4,1-1s-0.4-1-1-1S92.1,8.4,92.1,9z"/>
<path class="st0" d="M1.8,49.5c1.7,2.8,5.2,4.2,6.5,7.1c0.9,2,0.6,4.1,2.7,5.4c1.5,1,3.5,0.7,4.7-0.6c1.6-1.8,0.1-3.9,3.6-0.8
	c0.9,0.8,0.8,1.2,1.9,1.7c1.5,0.7,3.6,0.7,4.6-0.8c0.5-0.8,0.6-1.7,0.3-2.5c-0.2-1.5-1.6-2.6,0-3.3c2.1-0.9,4.1,6.8,5.3,8.2
	c2.1,2.5,8.7,5.5,8.6,0.2c0-3.6-2-7.1-2.1-10.7c-0.2-4.2,2.4-6.7,5.2-9.2c1.2-1.1,2.4-1.8,2-3.7S43,38,41.4,37.8
	c-2.9-0.4-5.6,1.3-8.1,2.2c-1.4,0.4-2.8,0.9-4.1,1.7c-0.4,0.3-0.7,0.6-1,1c-1.5-5.1-4.6-11.3-10.2-11.3s-15.4,5.5-17.6,11
	C-0.7,44.8,0.6,47.5,1.8,49.5z"/>
<path d="M1.8,49.5c1.7,2.8,5.2,4.2,6.5,7.1c0.9,2,0.6,4.1,2.7,5.4c1.5,1,3.5,0.7,4.7-0.6c1.6-1.8,0.1-3.9,3.6-0.8
	c0.9,0.8,0.8,1.2,1.9,1.7c1.5,0.7,3.6,0.7,4.6-0.8c0.5-0.8,0.6-1.7,0.3-2.5c-0.2-1.5-1.6-2.6,0-3.3c2.1-0.9,4.1,6.8,5.3,8.2
	c2.1,2.5,8.7,5.5,8.6,0.2c0-3.6-2-7.1-2.1-10.7c-0.2-4.2,2.4-6.7,5.2-9.2c1.2-1.1,2.4-1.8,2-3.7S43,38,41.4,37.8
	c-2.9-0.4-5.6,1.3-8.1,2.2c-1.4,0.4-2.8,0.9-4.1,1.7c-0.4,0.3-0.7,0.6-1,1c-1.5-5.1-4.6-11.3-10.2-11.3s-15.4,5.5-17.6,11
	C-0.7,44.8,0.6,47.5,1.8,49.5z M6.9,39.3c3.5-2.8,10.4-7.2,14.5-3.6c2.1,1.8,3.8,6.4,4.5,9.3c-0.9,1.1,0.2,3,1.6,2.2
	c0.8-0.5,1.6-1.2,2.2-1.9c1.9-1.8,3.2-2.1,5.6-3c1.5-0.6,4.2-2.2,5.9-1.6c2.5,0.9,0.6,0.4,0.2,1.1c-0.8,1.7-3.3,3-4.3,4.7
	c-1.2,1.8-1.9,3.9-2,6.1c0.1,2.7,0.5,5.4,1.3,8.1c0.4,1.1,0.7,2.3,0.8,3.5c-2.3-0.4-4.2-2.1-4.9-4.3c-0.5-1.1-0.6-2.7-1.1-3.8
	c-1.3-2.7-5.2-4.6-8-2.4c-1.6,1.3-0.5,2.1-0.7,3.7c-0.2,1.1,1.4,1.8-1.2,0.8c-0.3-0.1-1.5-1.6-2-1.9c-1.2-0.7-2.7-0.6-3.9,0.3
	c-0.5,0.4-0.9,1.5-1.4,1.8c-2.6,1.5-2.7-1.8-3.2-3.3c-0.4-1.3-1.4-2.4-2.6-2.9c1-0.3,2-0.7,2.9-1.1c1.1-0.4,2.2-1,3.2-1.7
	c0.5,0.6,1.1,1.2,1.7,1.7c0.6,0.6,1.3,1.1,2.2,1.4c1.5,0.5,3.1-0.3,3.7-1.7c0.4-1.9-0.1-3.8-1.3-5.3c-1.3-1.5-3.4-1.6-5.2-1.6l0,0
	c-0.4-1.3-0.9-2.5-1.6-3.6c-0.6-1-2.3,0-1.6,1c0.6,1,1,2.2,1.3,3.3c0.4,1.5,0.8,2.6-0.6,3.6c-1.9,1.4-4.2,2.3-6.6,2.5
	c-1.3-1.3-2.3-2.9-2.9-4.6C2.4,42.8,4.8,41,6.9,39.3z M15.6,45.6c1.1-0.2,2.3,0.1,3.2,0.7c0.8,0.8,1.3,2,1.3,3.2
	c-0.1,1.3-1.3,1.3-2.2,0.7c-1-0.7-1.8-1.5-2.5-2.5C15.6,47,15.7,46.3,15.6,45.6z"/>
<path d="M29.4,51.2c0.4,0,0.8,0.3,1,0.6c0.5,0.5,0.8,1.2,0.9,1.9c-0.1,1.2,1.8,1.2,1.9,0c-0.1-1.2-0.5-2.3-1.3-3.1
	c-0.6-0.8-1.5-1.2-2.4-1.3C28.2,49.2,28.2,51.1,29.4,51.2z"/>
<path d="M9.1,43.7c0,0.6,0.4,1,1,1s1-0.4,1-1s-0.4-1-1-1S9.1,43.1,9.1,43.7z"/>
<path class="st0" d="M20,109.8c-0.1,0.1-0.2,0.2-0.3,0.3c-0.3,0.2-0.7,0.4-1,0.6c-0.1,0.2-0.3,0.3-0.4,0.5c-0.6,0.2-0.9,0.7-0.9,1.3
	c0,0.1,0,0.2,0,0.3c0,0.4,0.1,0.7,0.4,1c2.4,2.7,5,5.1,8.4,6.4c3.7,1.3,7.5,2.1,11.4,2.4c0.3,0.7,0.5,1.6,0.8,2.1
	c0.5,0.9,1.1,1.8,1.9,2.5c2.1,1.7,4.8,2.7,7.6,2.7c2-0.1,3.6-1,4.1-3c0.2-1.1,0.1-2.2-0.3-3.2c-0.4-0.8-0.9-1.6-1.4-2.3
	c2.2-0.3,4.3-0.3,6.4-1.3l0.1-0.1c0.8,1.5,1.3,3.1,2.6,4.5c1.3,1.3,2.8,2.2,4.4,2.9c3.1,1.3,5.8-1,6.4-4.1c0.1-0.5,0-0.9-0.4-1.3
	c-0.1-0.6-0.3-1.2-0.6-1.8c-0.5-0.9-0.9-1.9-1.1-2.9c1.3-0.7,2.5-1.7,3.3-2.9c1-1.3,1.3-3,2-4.4c0.6,0.9,1.2,1.9,1.9,2.7
	c1,1.3,2.2,2.6,3.6,3.6c3.1,2.1,5.8,3.9,9.6,3.9c0.2,0,0.4,0,0.6-0.1c0.2,0.1,0.4,0.1,0.6,0.1c2.3-0.1,4-2.5,5.3-4.1
	c1.1-0.1,2.1-1.4,1-2.3c-1.6-1.4-3.7-2.3-5.2-3.9c-1.6-1.9-2.8-4-3.6-6.3c-1.4-3.4-3.5-6.9-3.3-10.6c0.1-3.1,2.1-6.1,2.1-9.1
	c0.2-1.1-0.5-2.2-1.6-2.5c-0.3-0.3-0.6-0.5-1.1-0.5c-1.3-0.1-2.6-0.1-3.8,0c-1,0.2-2,0.5-2.8,1.1L76.7,82c-0.5,0-0.8,0.3-1,0.7
	c-1,2.3-2.2,4.4-3.3,6.6C72,90,71.6,91.6,71,92.1c-0.9,0.7-0.6,0.5-1.3-0.4c-1.6-2.1-3.6-5.1-6.4-6.2c0.1-0.9,0.4-1.8,0.6-2.7
	c0.2-1.1,0.3-2.3,0.3-3.4c0-0.1,0-0.3-0.1-0.4c0,0,0,0,0-0.1c0.1-0.8-0.5-1.5-1.3-1.5c-8-0.5-16.7-2.4-24.6,0
	c-5.7,1.8-5.7,8.9-4.7,13.9c-2.2,0.8-4.2,2.2-6.3,3.3c-2.7,1.3-5,3.3-6.7,5.8c-1,1.6-2,3.3-3,4.9c-0.5,0.6-0.7,1.3-0.7,2
	C17.1,108.5,18.6,109.3,20,109.8z"/>
<path d="M20,109.8c-0.1,0.1-0.2,0.2-0.3,0.3c-0.3,0.2-0.7,0.4-1,0.6c-0.1,0.2-0.3,0.3-0.4,0.5c-0.6,0.2-0.9,0.7-0.9,1.3
	c0,0.1,0,0.2,0,0.3c0,0.4,0.1,0.7,0.4,1c2.4,2.7,5,5.1,8.4,6.4c3.7,1.3,7.5,2.1,11.4,2.4c0.3,0.7,0.5,1.6,0.8,2.1
	c0.5,0.9,1.1,1.8,1.9,2.5c2.1,1.7,4.8,2.7,7.6,2.7c2-0.1,3.6-1,4.1-3c0.2-1.1,0.1-2.2-0.3-3.2c-0.4-0.8-0.9-1.6-1.4-2.3
	c2.2-0.3,4.3-0.3,6.4-1.3l0.1-0.1c0.8,1.5,1.3,3.1,2.6,4.5c1.3,1.3,2.8,2.2,4.4,2.9c3.1,1.3,5.8-1,6.4-4.1c0.1-0.5,0-0.9-0.4-1.3
	c-0.1-0.6-0.3-1.2-0.6-1.8c-0.5-0.9-0.9-1.9-1.1-2.9c1.3-0.7,2.5-1.7,3.3-2.9c1-1.3,1.3-3,2-4.4c0.6,0.9,1.2,1.9,1.9,2.7
	c1,1.3,2.2,2.6,3.6,3.6c3.1,2.1,5.8,3.9,9.6,3.9c0.2,0,0.4,0,0.6-0.1c0.2,0.1,0.4,0.1,0.6,0.1c2.3-0.1,4-2.5,5.3-4.1
	c1.1-0.1,2.1-1.4,1-2.3c-1.6-1.4-3.7-2.3-5.2-3.9c-1.6-1.9-2.8-4-3.6-6.3c-1.4-3.4-3.5-6.9-3.3-10.6c0.1-3.1,2.1-6.1,2.1-9.1
	c0.2-1.1-0.5-2.2-1.6-2.5c-0.3-0.3-0.6-0.5-1.1-0.5c-1.3-0.1-2.6-0.1-3.8,0c-1,0.2-2,0.5-2.8,1.1L76.7,82c-0.5,0-0.8,0.3-1,0.7
	c-1,2.3-2.2,4.4-3.3,6.6C72,90,71.6,91.6,71,92.1c-0.9,0.7-0.6,0.5-1.3-0.4c-1.6-2.1-3.6-5.1-6.4-6.2c0.1-0.9,0.4-1.8,0.6-2.7
	c0.2-1.1,0.3-2.3,0.3-3.4c0-0.1,0-0.3-0.1-0.4c0,0,0,0,0-0.1c0.1-0.8-0.5-1.5-1.3-1.5c-8-0.5-16.7-2.4-24.6,0
	c-5.7,1.8-5.7,8.9-4.7,13.9c-2.2,0.8-4.2,2.2-6.3,3.3c-2.7,1.3-5,3.3-6.7,5.8c-1,1.6-2,3.3-3,4.9c-0.5,0.6-0.7,1.3-0.7,2
	C17.1,108.5,18.6,109.3,20,109.8z M62,123.1c-1.4-1.2-1.9-2.6-2.6-4.1c0.7,0,1.3-0.1,2-0.3c1.2-0.3,1.4,0.6,1.8,1.6
	c0.5,1.5,1.3,2.9,1.9,4.4c-0.2,0-0.4-0.1-0.5-0.1C63.7,124.2,62.8,123.7,62,123.1L62,123.1z M41.1,123.8c-0.4-0.6-0.7-1.3-0.9-2
	c0.9-0.1,1.7-0.1,2.6,0c0.5,0.3,0.9,0.9,1.1,1.5c0.6,1.1,1.1,2.2,1.6,3.4C43.7,126.3,42.2,125.2,41.1,123.8L41.1,123.8z M19.9,106.8
	c1.4-2.8,3.4-6.1,5.7-7.9c1.6-1,3.2-2,4.9-2.8c1.6-0.9,3.3-2.2,5.1-2.4c0.4,0,0.8-0.3,1.1-0.7c0.4-0.7,0.3-1.6-0.4-2
	c-0.8-3.6-1.2-8.9,2.7-10.8c2.2-1,5.4-0.9,7.8-0.9c5,0,9.7,0.5,14.6,0.8c0,1-0.1,1.9-0.4,2.9c-0.3,1.1-0.5,2.2-0.6,3.3
	c0,0.4,0.2,0.8,0.5,1.1c0.2,0.3,0.5,0.5,0.8,0.6c2.5,0.6,4.6,3.8,5.9,5.8c0.7,1.1,1.6,2.5,3.1,2.3c1.9-0.2,2.7-2.6,3.4-4.1
	c1.2-2.5,2.6-4.9,3.8-7.4c0.1,0,0.2-0.1,0.3-0.1c1.4-0.7,2.9-0.9,4.4-0.8c0.2,0.2,0.5,0.3,0.9,0.3c-1.2-0.1-2.2,6.8-2.3,7.8
	c-0.3,2.6,0.1,5.3,1.1,7.8c1.2,3.1,2.7,6.2,4.3,9.1c1.7,2.8,3.7,4.2,6.1,6c-0.5,0.6-1,1.2-1.6,1.8c-0.3,0.4-0.8,0.8-1.3,1
	c-0.2,0-0.4,0.1-0.6,0.2c-0.2-0.1-0.4-0.2-0.6-0.2c-3.4,0-7-2.3-9.4-4.6c-2-1.9-3-4.6-5-6.3c-0.2-0.2-0.5-0.3-0.7-0.3
	c-0.8-0.1-1.6,0.4-1.7,1.3c-0.6,1-1.1,2.1-1.5,3.2c-0.3,0.9-0.9,1.8-1.5,2.5c-0.5,0.5-1.4,1.6-2.1,1.6c-0.4,0-0.8,0.2-1.1,0.5
	c-0.2,0.2-0.3,0.5-0.4,0.9c0,1.2,0.3,2.4,0.7,3.6c0.2,0.5,0.4,0.9,0.6,1.3c0.1,0.2,0.2,0.4,0.3,0.5c0.3,0.4,0,0.5,0.4,0.1
	c-0.5,0.5-0.5,1.2-0.1,1.8c-0.1,0.1-0.1,0.2-0.2,0.3c-0.3-0.7-0.6-1.3-0.9-2c-0.6-1.2-0.9-2.6-1.5-3.8c-1.3-2.4-3.8-1-5.9-1
	c-0.1,0-0.2,0-0.3,0.1c-0.6-0.3-1.3-0.2-1.7,0.3c-0.4-0.2-0.8-0.2-1.2,0c-1.9,0.9-4.2,0.8-6.2,1.1c-0.3,0-0.5,0.1-0.7,0.3
	c0,0-0.1,0-0.1,0c-0.7,0.1-1.2,0.7-1.2,1.3c0.1,1.4,0.8,2,1.5,3.1c1.2,2,0.8,3.4-0.8,3.6c-0.8-2.1-1.7-4-2.8-5.9
	c-1.1-1.5-3.2-1.1-4.9-1.1c-0.2,0-0.5,0.1-0.6,0.3c-0.5-0.1-1-0.3-1.5-0.4c-1-0.1-1.9-0.2-2.9-0.4c4.1-4.9,1.9-13.3,0.6-18.8
	c-0.1-0.5-0.6-0.8-1.1-0.7c-0.5,0.1-0.8,0.6-0.7,1.1c1.2,5.1,3.6,13.7-1.1,17.9c-1.6-0.3-3.3-0.8-4.8-1.3c-2.8-1.1-5.3-2.8-7.2-5
	l0.3-0.2c0.3-0.2,0.5-0.3,0.7-0.5c0.9-0.7,1.5-1.8,1.6-3c0-0.6-0.4-1.2-1-1.3c-0.2-0.2-0.4-0.3-0.7-0.4
	C21,107.3,20.5,107.1,19.9,106.8z"/>
<path d="M40.8,106.9c1.4,1.5,3.6,2.6,5.4,1.2c2,1.9,4,4.2,6.5,5.2c0.2,0.3,0.6,0.4,1,0.3c1.1,0.2,2.2,0.1,3.2-0.2
	c3.1-0.8,5.6-4,3.6-7c-2.8-4-8-3.9-11.9-6.4c-0.2-0.1-0.5-0.2-0.7-0.1l0,0l0,0c-0.4-0.4-1-0.4-1.3,0c-0.4,0.4-0.4,1,0,1.3l0.2,0.2
	c1.2,1.7,1.7,3.9,2.5,5.7c0.6,1.1,1.3,2.2,2,3.3c-1.1-0.9-2.2-1.9-3.1-3c-1.3-1.4-5.5-4-3.5-6.2c0.8-0.9-0.5-2.2-1.3-1.3
	c-2.5,2.7-0.6,4.9,1.4,6.9c-0.9,0.4-2-0.5-2.6-1.2C41.4,104.7,40.1,106,40.8,106.9z M58.3,108.1c-0.4-0.4-0.8-0.8-1.3-1.1
	c-1.1-0.5-2.1-1.2-3.1-1.9l-1.6-1.3l1.9,0.7c0.9,0.3,1.8,0.6,2.7,1C58.4,106.3,58.5,106.9,58.3,108.1z M56.4,111.7
	c-0.7,0.2-1.4,0.2-2.1,0.1c-0.1-0.2-0.2-0.4-0.4-0.5c-0.8-1.7-2.1-3.2-2.9-4.9c-0.3-0.5-0.5-1.1-0.7-1.7c1.1,1,2.2,1.9,3.4,2.8
	c1,0.7,2.1,0.9,3,1.7c0.5,0.4,0.9,0.8,1.5,1.1C58,111.1,57.2,111.7,56.4,111.7L56.4,111.7z"/>
<path d="M75,100.6c0.7-0.8,1.4-1.8,1.9-2.8c0.6-0.9,0.9-1.8,0.9-2.9c-0.1-1.2-2-1.2-1.9,0c0,0.8-0.3,1.6-0.8,2.2
	c-0.4,0.8-0.9,1.5-1.5,2.1C72.9,100.2,74.3,101.5,75,100.6z"/>
<path d="M73.2,102.3c-0.1,0.5,0.3,1,0.8,1.1h0.6c-0.3,0.4-0.3,0.9,0,1.3c0.7,0.7,1.4,1.3,2.2,1.8c0.7,0.6,1.2,1.4,1.9,2
	c0.9,0.8,2.2-0.5,1.3-1.3c-0.7-0.6-1.2-1.4-1.9-2c-0.7-0.5-1.4-1.1-2.1-1.7c0.4,0,0.8,0,1.2-0.1c0.9-0.2,1.8-0.6,2.6-1
	c1.1-0.5,0.1-2.1-0.9-1.6c-0.7,0.4-1.5,0.6-2.2,0.8c-0.9,0.1-1.7,0.1-2.6,0C73.7,101.6,73.3,101.9,73.2,102.3z"/>
<path d="M56.9,86.2c0.5-0.5,0.9-1,1.2-1.6c0.3-0.7,0.4-1.4,0.3-2.2c0-0.4-0.4-0.8-0.8-0.8c-0.5-0.1-1,0.3-1,0.8
	c0.1,0.5,0,0.9-0.1,1.3c-0.2,0.4-0.5,0.8-0.9,1.1C54.8,85.8,56.1,87.2,56.9,86.2z"/>
<path d="M49.1,86.8c0.3,0.4,0.9,0.6,1.3,0.3c0.3-0.3,0.7-0.5,1.1-0.6c0.4-0.2,0.8-0.6,1-1c0.3-0.5,0.5-0.9,0.8-1.3
	c0.3-0.4,0.5-0.9,0.5-1.4c0-0.4-0.4-0.8-0.8-0.8c-0.5-0.1-1,0.3-1,0.8c-0.1,0.4-0.3,0.7-0.6,1c-0.1,0.3-0.3,0.7-0.5,1
	c-0.5,0.5-1.2,0.6-1.8,1.1C48.9,86.2,48.9,86.5,49.1,86.8z"/>
<path d="M42.1,88.4c2.1-0.3,3.5-3,2-4.7c-0.8-0.9-2.1,0.4-1.3,1.3c0.5,0.6-0.6,1.5-1.1,1.6C40.5,86.8,41,88.6,42.1,88.4z"/>
<path d="M27.3,104.3c0.5,0.6,1.3,0.7,1.9,0.2c0.5-0.1,0.8-0.5,0.8-1c0-0.6-0.3-1.2-0.8-1.5c-0.7-0.4-1.6,0-2,0.7
	C26.9,103.3,26.9,103.9,27.3,104.3z"/>
</svg>
