<svg id="kalaparvi" xmlns="http://www.w3.org/2000/svg" viewBox="0 0 49.61 32.83"><defs><style>.cls-1{fill:#fff;}</style></defs><title>kala3</title><path class="cls-1" d="M428.37,499.68a1.83,1.83,0,0,0-.21.07,2.94,2.94,0,0,0-1.45,2.84,7.46,7.46,0,0,0,.27,1.46c0.06,0.23.13,0.46,0.19,0.69l0.07,0.28v0.06a1.81,1.81,0,0,0,.06.29l0,0.07a1.73,1.73,0,0,1-1.27.45,2.28,2.28,0,0,0-.61-0.11,1.37,1.37,0,0,1-1-.51,3.47,3.47,0,0,1-.93-1.82,1,1,0,0,0-2,.11,5.41,5.41,0,0,0,1.17,2.71,2.3,2.3,0,0,1-1.45-.56,7.06,7.06,0,0,0-5-1.7,2.55,2.55,0,0,0-1.89,1.44,3,3,0,0,0,.22,1.71,6.1,6.1,0,0,1,.55,1,10,10,0,0,0,.11,1.43l0,0a3.41,3.41,0,0,0-.56.18,1.51,1.51,0,0,0-.91-0.31c-1.42,0-2-1.76-2.5-2.82a4.78,4.78,0,0,0-1.35-1.76,7.16,7.16,0,0,0,1-3.82,12.17,12.17,0,0,0-.21-3.06c-0.36-1.3-1.35-2.26-1.62-3.61s-2.15-.62-1.9.63c0.32,1.6,1.59,2.74,1.7,4.39,0.09,1.38.25,3.49-.76,4.66a1.53,1.53,0,0,0-.57-0.11,18.68,18.68,0,0,1-5.77-.6,13.43,13.43,0,0,0-2.76-.48c-3.61-.39-2.34-2-0.91-4.16,2.67-4.08,4.86-8.53,10.6-8.26a1.19,1.19,0,0,0,1.27-.8,1.38,1.38,0,0,0,.15-1.78c-1.72-2.6,4.41-3.56,6-3.9,1.42-.3,3.56-1.06,5-1,1.65,0.11.79,0.47,0.59,1.89a1.55,1.55,0,0,0,.05.69,1.51,1.51,0,0,0,1.5,1.87c2.33,0,4.39,1.49,6.19,2.8a1.85,1.85,0,0,0,.81.34,5.22,5.22,0,0,1,.9,1.53c0.41,0.78.19,1.57,0.79,2.25a3.45,3.45,0,0,1-.26,1.52,9.51,9.51,0,0,1-1.49,2C429.45,498.59,428.88,499.09,428.37,499.68Z" transform="translate(-393.31 -479.88)"/><path class="cls-1" d="M436.91,492.5a1.61,1.61,0,0,0-.29.24c-1.69-.36-2.19,2.4-0.44,3,0.73,0.24,1.21,2.07,1.31,2.72,0.23,1.44-.29,2.86-0.25,4.29a5.57,5.57,0,0,0,.67,2.57c-1.43.39-2.85,0.65-3.75-.61a21.23,21.23,0,0,1-1.13-2.88,10.25,10.25,0,0,0-1.79-2.4,13.24,13.24,0,0,0,1.41-1.61,6.2,6.2,0,0,0,1.08-4.36,0.87,0.87,0,0,0-.49-0.79l0-.22a3.22,3.22,0,0,0-.19-0.65c-0.19-.46-0.46-0.89-0.69-1.33a6,6,0,0,0-.55-0.85c0.91-1.53.62-3.15,2.71-4.47a9.67,9.67,0,0,1,4.07-1.07,8.81,8.81,0,0,0-.12.94,4.35,4.35,0,0,0-4.19,4.54,1,1,0,0,0,2-.11A2.38,2.38,0,0,1,438.4,487c0,0.45,0,.9.09,1.34C438.7,490.28,438.76,491.3,436.91,492.5Z" transform="translate(-393.31 -479.88)"/><path d="M441.42,480.75c-3,.5-6.23.49-9,2a5.34,5.34,0,0,0-2.11,2,8.67,8.67,0,0,0-.65,2.12,13.17,13.17,0,0,0-5-2.29c0.34-1.48.81-3.06-.64-4.13-2.13-1.58-7.12.18-9.34,0.71s-6.18,1.13-7.5,2.95a4.39,4.39,0,0,0-.46,3.38c-6.23.65-9.84,6.49-12.7,11.64-1.11,2-1.06,5.32,1.28,6.45,1.73,0.83,4.11.25,6,.77a13.44,13.44,0,0,0,1.85.37,12.17,12.17,0,0,0,1,1.37c0.68,0.91.78,2.09,1.68,2.87a2.86,2.86,0,0,0,2.47.71,3.42,3.42,0,0,0,1.72-1.2,4.94,4.94,0,0,0,3.9,1.95,1.62,1.62,0,0,0,.35,0,1.77,1.77,0,0,0,1.3.21c1.43-.3,2.88-1.36,2.8-2.95,0-.64-0.17-1.37-0.25-2a3.62,3.62,0,0,0-.09-0.4c1,0.47,1.67,1.35,2.89,1.9s2.68,0,4-.17c2.12-.32,4.58-0.63,5.38-3a1.3,1.3,0,0,0,0-.83,1.18,1.18,0,0,0,0-.31,20.2,20.2,0,0,0-.47-2,3.55,3.55,0,0,1-.08-0.62h0c1.2,1.95,1.55,4.57,3.64,5.77,2.39,1.37,4.82-.26,7.23-0.33a1.42,1.42,0,0,0,1.31-1.88,1.36,1.36,0,0,0-1.08-1.84c-0.94-.16-0.26-5.87-0.56-7a8.4,8.4,0,0,0-1.09-2.48c1.64-1.21,2.81-2.8,2.56-5-0.06-.53-0.75-5.08-0.24-5.2a1.22,1.22,0,0,0,1-1.16C443.33,482.33,442.93,480.5,441.42,480.75Zm-33.52,29c-0.81.29-1.21-.74-1.44-1.29a6.55,6.55,0,0,0-.71-1.39l-0.08-.09h1.62a1.54,1.54,0,0,0,.79.25,4.65,4.65,0,0,1,.56,1.06l0.22,0.46A3.15,3.15,0,0,1,407.9,509.75Zm20.48-10.07a1.83,1.83,0,0,0-.21.07,2.94,2.94,0,0,0-1.45,2.84,7.46,7.46,0,0,0,.27,1.46c0.06,0.23.13,0.46,0.19,0.69l0.07,0.28v0.06a1.81,1.81,0,0,0,.06.29l0,0.07a1.73,1.73,0,0,1-1.27.45,2.28,2.28,0,0,0-.61-0.11,1.37,1.37,0,0,1-1-.51,3.47,3.47,0,0,1-.93-1.82,1,1,0,0,0-2,.11,5.41,5.41,0,0,0,1.17,2.71,2.3,2.3,0,0,1-1.45-.56,7.06,7.06,0,0,0-5-1.7,2.55,2.55,0,0,0-1.89,1.44,3,3,0,0,0,.22,1.71,6.1,6.1,0,0,1,.55,1,10,10,0,0,0,.11,1.43l0,0a3.41,3.41,0,0,0-.56.18,1.51,1.51,0,0,0-.91-0.31c-1.42,0-2-1.76-2.5-2.82a4.78,4.78,0,0,0-1.35-1.76,7.16,7.16,0,0,0,1-3.82,12.17,12.17,0,0,0-.21-3.06c-0.36-1.3-1.35-2.26-1.62-3.61s-2.15-.62-1.9.63c0.32,1.6,1.59,2.74,1.7,4.39,0.09,1.38.25,3.49-.76,4.66a1.53,1.53,0,0,0-.57-0.11,18.68,18.68,0,0,1-5.77-.6,13.43,13.43,0,0,0-2.76-.48c-3.61-.39-2.34-2-0.91-4.16,2.67-4.08,4.86-8.53,10.6-8.26a1.19,1.19,0,0,0,1.27-.8,1.38,1.38,0,0,0,.15-1.78c-1.72-2.6,4.41-3.56,6-3.9,1.42-.3,3.56-1.06,5-1,1.65,0.11.79,0.47,0.59,1.89a1.55,1.55,0,0,0,.05.69,1.51,1.51,0,0,0,1.5,1.87c2.33,0,4.39,1.49,6.19,2.8a1.85,1.85,0,0,0,.81.34,5.22,5.22,0,0,1,.9,1.53c0.41,0.78.19,1.57,0.79,2.25a3.45,3.45,0,0,1-.26,1.52,9.51,9.51,0,0,1-1.49,2C429.45,498.59,428.88,499.09,428.37,499.68Zm8.54-7.18a1.61,1.61,0,0,0-.29.24c-1.69-.36-2.19,2.4-0.44,3,0.73,0.24,1.21,2.07,1.31,2.72,0.23,1.44-.29,2.86-0.25,4.29a5.57,5.57,0,0,0,.67,2.57c-1.43.39-2.85,0.65-3.75-.61a21.23,21.23,0,0,1-1.13-2.88,10.25,10.25,0,0,0-1.79-2.4,13.24,13.24,0,0,0,1.41-1.61,6.2,6.2,0,0,0,1.08-4.36,0.87,0.87,0,0,0-.49-0.79l0-.22a3.22,3.22,0,0,0-.19-0.65c-0.19-.46-0.46-0.89-0.69-1.33a6,6,0,0,0-.55-0.85c0.91-1.53.62-3.15,2.71-4.47a9.67,9.67,0,0,1,4.07-1.07,8.81,8.81,0,0,0-.12.94,4.35,4.35,0,0,0-4.19,4.54,1,1,0,0,0,2-.11A2.38,2.38,0,0,1,438.4,487c0,0.45,0,.9.09,1.34C438.7,490.28,438.76,491.3,436.91,492.5Z" transform="translate(-393.31 -479.88)"/><path d="M428.64,493a3,3,0,0,0-1.13-2.13,4.76,4.76,0,0,0-2.79-.35l-0.1,0-0.07-.07a8.11,8.11,0,0,0-1.3-.81v-0.92c0-.65-1-0.59-1,0.05v0.47a4.12,4.12,0,0,0-2.46,0,3.38,3.38,0,0,0-4.07-.64h0a9.66,9.66,0,0,0-1-.54,0.5,0.5,0,0,0-.45.89c0.58,0.28,1.85.75,1.71,1.57-0.06.35-.76,1.52-1.15,1.1a0.4,0.4,0,0,0-.57,0,2,2,0,0,0-2.88-.16,0.48,0.48,0,0,0,.45.79,0.52,0.52,0,0,0,.2,0,0.43,0.43,0,0,0,.44-0.32,1.6,1.6,0,0,1,1.12.29,2.08,2.08,0,0,1,.69,1.49,2.43,2.43,0,0,1-2.18,1.79c-0.63-.05-0.85.93-0.21,1a2.84,2.84,0,0,0,1.22-.2,0.45,0.45,0,0,0,.41.21c1.14-.05,1.75,1.4,1.51,2.38s-1.78,1.81-2.81,1.87a0.5,0.5,0,0,0,.05,1,4.8,4.8,0,0,0,2.42-.87,0.46,0.46,0,0,0,.57,0l0,0a3.3,3.3,0,0,1,.21.5,2.54,2.54,0,0,0,.42.93c0.45,0.46,1.1-.29.66-0.75,0.13,0.14.06,0.07,0-.05l-0.14-.4a4.16,4.16,0,0,0-.39-0.85,1.13,1.13,0,0,0-.44-0.4,2.62,2.62,0,0,0,.43-1.18,3.27,3.27,0,0,0,0-.91,9.85,9.85,0,0,0,1.19-.57,1.34,1.34,0,0,1,1.59,1,4.59,4.59,0,0,1,0,3.07c-0.22.6,0.67,1.05,0.89,0.45a5.92,5.92,0,0,0,.26-3.06,4.39,4.39,0,0,0,1.72-.81,0.49,0.49,0,0,0,.35.15,1.32,1.32,0,0,1,1,.75,0.46,0.46,0,0,0,.2.44,1.21,1.21,0,0,1-.26,1.39,0.5,0.5,0,0,0,.56.83,2.12,2.12,0,0,0,.7-2.34,3.68,3.68,0,0,0,1.62-1.06,0.75,0.75,0,0,1,.65.76,0.5,0.5,0,0,0,1-.05,1.77,1.77,0,0,0-1.13-1.61,2.59,2.59,0,0,0,.12-1A2.86,2.86,0,0,0,428.64,493Zm-3.41-1.5c1.07,0,2,0,2.34,1.29a1.44,1.44,0,0,1-.15,1.48,3.11,3.11,0,0,1-1.16.84,3.22,3.22,0,0,0-1.28-1.57,2.2,2.2,0,0,0-.33-0.16A2.94,2.94,0,0,0,425.23,491.49Zm-8,4.39a1.92,1.92,0,0,1-.41.41,0.4,0.4,0,0,0-.22.16,6.23,6.23,0,0,1-.92.45,2.53,2.53,0,0,0-1.44-1.27,2.55,2.55,0,0,0,1-2.32,2.72,2.72,0,0,0-.16-0.54,1.45,1.45,0,0,0,.64-0.26h0.06c1.22,0,1.63.6,1.71,1.74A2.31,2.31,0,0,1,417.23,495.87Zm-0.67-4.28a3.37,3.37,0,0,0,.29-0.54,1.59,1.59,0,0,0-.31-1.77,2.49,2.49,0,0,1,2.74.86c0.83,1.15-.41,2.16-1.54,2.1A2.29,2.29,0,0,0,416.56,491.59Zm3.12,6.12c0-.12-0.1-0.24-0.16-0.36a1.82,1.82,0,0,0-1.32-1,3.85,3.85,0,0,0,.26-2.41,3.62,3.62,0,0,0-.16-0.71,2.71,2.71,0,0,0,.59-0.15,0.46,0.46,0,0,0,.39.17,1.83,1.83,0,0,1,1.83.71,4.06,4.06,0,0,1,.63,1.66A2.22,2.22,0,0,1,419.68,497.71Zm2.29-4.46-0.12,0c-0.06-.08-0.11-0.17-0.17-0.24a2.12,2.12,0,0,0-1.66-.78,2.09,2.09,0,0,0,.35-2.17,4.59,4.59,0,0,1,3.22,1c1,0.57.56,1.39,0,2.15C423.07,493.17,422.5,493.24,422,493.25Zm1.85,4.91a2.48,2.48,0,0,0-1.44-1.1,2.39,2.39,0,0,0,.37-1.44,4.43,4.43,0,0,0-.35-1.39l0.58,0a0.52,0.52,0,0,0,1,.25l0.1-.15a1.8,1.8,0,0,1,1.29,1.2,0.51,0.51,0,0,0,.16.67A2.05,2.05,0,0,1,423.83,498.16Z" transform="translate(-393.31 -479.88)"/><path class="cls-1" d="M407.9,509.75c-0.81.29-1.21-.74-1.44-1.29a6.55,6.55,0,0,0-.71-1.39l-0.08-.09h1.62a1.54,1.54,0,0,0,.79.25,4.65,4.65,0,0,1,.56,1.06l0.22,0.46A3.15,3.15,0,0,1,407.9,509.75Z" transform="translate(-393.31 -479.88)"/><path d="M403.39,496c-2.58,0-2.35,4,.21,4S406,496,403.39,496Z" transform="translate(-393.31 -479.88)"/></svg>