<svg id="kilpikonna" xmlns="http://www.w3.org/2000/svg" viewBox="0 0 284.26 159.88"><title>kilpikonna</title><path d="M310.38,1254.46c-0.16-1.27-.92-2-1.55-3a1,1,0,0,0-1.66,1.11c0.11,0.18.23,0.35,0.34,0.51a1,1,0,0,0-.15.4c-0.19,1.16-1.07,2.37-.39,3.53a1.77,1.77,0,0,0,2.74.38A3.41,3.41,0,0,0,310.38,1254.46Z" transform="translate(-297.01 -1167.06)"/><path d="M331.93,1240.27a0.89,0.89,0,0,0-1.25-.88c-1.75.78-3.71,0.65-5.57,1a15,15,0,0,0-4,1.58,1,1,0,0,0-.58,1.91,8.13,8.13,0,0,1,2,1.07c0.45,0.46.69,1.1,1.17,1.56a2.75,2.75,0,0,0,3.09.69c2.63-1,3.78-3.85,5.08-6.1A0.85,0.85,0,0,0,331.93,1240.27Zm-8.16,3.05a2.49,2.49,0,0,0-.32-0.23,13.16,13.16,0,0,1,2.17-.73l0.05,0.06c0.77,0.58.17,1.79-.3,2.64C324.72,1244.75,324.42,1243.93,323.77,1243.32Zm4.07,0.89a3.48,3.48,0,0,0,0-2.18c0.48,0,1-.1,1.43-0.17A11,11,0,0,1,327.84,1244.21Z" transform="translate(-297.01 -1167.06)"/><path d="M551.21,1230.34a2,2,0,0,0-2.1-1.76c-1.71,0-3.45.09-5.17,0.09a0.94,0.94,0,0,0-.24,0,1.09,1.09,0,0,0-1.33,1.27,2.88,2.88,0,0,1-.81,2.77,2.92,2.92,0,0,0-.69,1.19,3,3,0,0,0,1.4,2.7c1.76,1.31,5,.78,6.7-0.35A5.37,5.37,0,0,0,551.21,1230.34Zm-4.53,4.75a5.84,5.84,0,0,1-2.38.26,1.71,1.71,0,0,1-1.32-.84c-0.09-.34.1-0.41,0.34-0.71a4.45,4.45,0,0,0,1.12-3.13c1,0,2,0,3,0a7.1,7.1,0,0,1,1.32-.07c0.51,0.11.46,0,.52,0.66A3.3,3.3,0,0,1,546.68,1235.09Z" transform="translate(-297.01 -1167.06)"/><path d="M542.33,1238.26c-0.5-1.17-2.18-1.47-3-2.35a0.85,0.85,0,0,0-1.36.11,4.27,4.27,0,0,0-2.7,1,3.29,3.29,0,0,0-.82,1.47,6.13,6.13,0,0,1-1.25,1.92c-1.89,2.26.88,3.6,2.92,3.84,2.46,0.3,4-1.27,5.22-3.19C541.85,1240.29,542.76,1239.28,542.33,1238.26Zm-5.3,4.07a5.51,5.51,0,0,1-1.89-.28c-0.77-.2-0.45,0-0.32-0.43a5.9,5.9,0,0,1,.78-1,7.4,7.4,0,0,0,.75-1.56c0.42-1,1.3-1.11,2.32-1.11a10,10,0,0,0,1,.64,1.63,1.63,0,0,0,.71.23c-0.14.25-.44,0.66-0.48,0.72C539.25,1240.68,538.45,1242.17,537,1242.34Z" transform="translate(-297.01 -1167.06)"/><path d="M545.92,1246.32c-0.34-1.46-1.21-1.59-2.26-2.41a1,1,0,0,0-.44-0.2,1.08,1.08,0,0,0-1.2-.67,4.56,4.56,0,0,0-2.28,1.8,5.27,5.27,0,0,0-1.67,2.43c-0.36,1.66.6,3.91,2.34,4.37,1,0.27,1.77-.25,2.67-0.66a4.43,4.43,0,0,0,2.35-1.53A4.3,4.3,0,0,0,545.92,1246.32Zm-2.24,2.11c-0.34.41-2.41,1.4-2.87,1.22-1-.38-0.94-1.95-0.44-2.6a9,9,0,0,1,1.78-1.86,1,1,0,0,0,.2.23,9.25,9.25,0,0,1,1.35.89A1.79,1.79,0,0,1,543.68,1248.43Z" transform="translate(-297.01 -1167.06)"/><path d="M551.45,1240.38a5,5,0,0,0-1.79-1.8l0,0a0.94,0.94,0,0,0-1.26-.84c-1.55.55-3.45,0.34-4.2,2.14s0.84,3.46,2.36,4.29a3.18,3.18,0,0,0,4.51-1.34A3,3,0,0,0,551.45,1240.38Zm-2.21,1.54c-0.61,1-1.44.75-2.29,0.16-0.65-.45-1.53-1.36-0.46-1.87a6.07,6.07,0,0,1,1.64-.39,1,1,0,0,0,.21.27,6,6,0,0,1,1.1.87A0.87,0.87,0,0,1,549.23,1241.91Z" transform="translate(-297.01 -1167.06)"/><path d="M557.29,1232.73c-0.34-1.11-1.18-1.16-2-1.82a1.7,1.7,0,0,0-1.74.09,11.22,11.22,0,0,0-2.63,5.53c-0.35,2,1.17,3,3.08,2.84s3-2,3.26-3.72A7.16,7.16,0,0,0,557.29,1232.73Zm-1.92,2c-0.08,1-.34,2.49-1.57,2.65a1.46,1.46,0,0,1-.65,0c-0.17-.08-0.22,0-0.24,0a1.4,1.4,0,0,0,0-.39,4.22,4.22,0,0,1,.36-1.32,9.47,9.47,0,0,1,1.43-2.81,2.07,2.07,0,0,1,.41.26A1.87,1.87,0,0,1,555.37,1234.73Z" transform="translate(-297.01 -1167.06)"/><path d="M558.34,1244.62c0-1.06.11-2.09-.73-2.89a4.66,4.66,0,0,0-2.74-1,1,1,0,0,0-1.1.73c-1.52,1.12-3,2.57-2.25,4.63a4.33,4.33,0,0,0,4.93,2.59C558.36,1248.19,558.36,1246.21,558.34,1244.62Zm-2.3,2.06c-0.8.54-2.38-.51-2.62-1.26-0.4-1.21,1-2,1.81-2.59a1,1,0,0,0,.07-0.08,1.74,1.74,0,0,1,.63.22c0.58,0.39.41,1,.41,1.63S556.57,1246.31,556,1246.67Z" transform="translate(-297.01 -1167.06)"/><path d="M562.87,1237.23c-0.47-1.22-1.8-1.27-2.92-1.23a0.92,0.92,0,0,0-.18,0,1,1,0,0,0-1.1,1c0,1.43-.95,2.94.32,4.13a2.2,2.2,0,0,0,3.41-.58A4.21,4.21,0,0,0,562.87,1237.23Zm-2.09,2.17c-0.14.32-.42,0.56-0.49,0.07a3.73,3.73,0,0,1,.22-1.18c0-.11,0-0.21.05-0.32h0.25a0.88,0.88,0,0,1,.21.05A2.45,2.45,0,0,1,560.77,1239.4Z" transform="translate(-297.01 -1167.06)"/><path d="M368.56,1195.09a5.38,5.38,0,0,0-2.22-1.48c-0.94-.5-1.69-1.22-2.83-0.84-1.54.53-2.68,2.91-2.86,4.39-0.32,2.6,2.4,2.87,4.23,3.73a0.94,0.94,0,0,0,1.16-.27,1,1,0,0,0,.7-0.3C368,1199.09,369.73,1196.9,368.56,1195.09Zm-4.85,3.1a1.55,1.55,0,0,1-1.09-.56,4,4,0,0,1,1.42-2.85,7.09,7.09,0,0,1,2.76,1.36c0.54,0.78-.85,2.16-1.46,2.77C364.81,1198.65,364.27,1198.4,363.71,1198.19Z" transform="translate(-297.01 -1167.06)"/><path d="M372.11,1188.42c-0.38-1.61-2.88-2.76-4.4-2.36-1.78.47-3.14,2.92-3,4.66a1,1,0,0,0,1.07.91l0.06,0c0.73,0.06,1.21.78,1.83,1.11a2.25,2.25,0,0,0,2.29,0,5.27,5.27,0,0,0,1.47-1.91A3.33,3.33,0,0,0,372.11,1188.42Zm-2.37,1.22a6.13,6.13,0,0,1-.7,1.14c-0.27.3-.31,0.29-0.66,0.09a14.18,14.18,0,0,0-1.59-1,2.65,2.65,0,0,1,1.53-1.86,2.3,2.3,0,0,1,1.47.59,0.58,0.58,0,0,1,.32.38A2.07,2.07,0,0,1,369.74,1189.65Z" transform="translate(-297.01 -1167.06)"/><path d="M359.4,1185.67a2.83,2.83,0,0,0-2.72,1.09,6.38,6.38,0,0,0-.72,1.46c-0.24.59-.61,1.14-0.81,1.74-0.75,2.19,1.85,3.29,3.49,2.35l0.08,0c1.94,0,4.38.06,4.64-2.43S361.71,1185.83,359.4,1185.67Zm1.64,4.55c-0.59.36-1.76,0.12-2.42,0.12a0.94,0.94,0,0,0-.26.05,1,1,0,0,0-.77.29c-0.62.58-.22-0.66-0.12-0.86,0.2-.41.34-0.85,0.52-1.28a1.08,1.08,0,0,1,1.08-.9,3.05,3.05,0,0,1,1.43.31C361.18,1188.33,361.9,1189.69,361,1190.22Z" transform="translate(-297.01 -1167.06)"/><path d="M368.19,1180.47c-1.91-1.31-5.12-2.17-7.08-.64a1,1,0,0,0-.34,1.13,3.37,3.37,0,0,0,.71,4.78c1.67,1.2,4.61,1.34,6.14-.12S370.22,1181.86,368.19,1180.47Zm-1.71,3.44c-1.51,1.73-6,.21-3.74-2.25a0.9,0.9,0,0,0,.23-0.52,5.25,5.25,0,0,1,3.16.51,2.07,2.07,0,0,1,1.21.8A3,3,0,0,1,366.49,1183.91Z" transform="translate(-297.01 -1167.06)"/><path d="M363.93,1175.68c-0.5-1.38-2.1-1.38-3.31-1.34a0.86,0.86,0,0,0-.8.51,1,1,0,0,0-.24.16c-0.78.81-1.72,2.47-.92,3.54s2.49,1.09,3.51.73A3.12,3.12,0,0,0,363.93,1175.68Zm-1.88.82a1.11,1.11,0,0,1-.13.36,1.05,1.05,0,0,1-.48.55,2.36,2.36,0,0,1-.64,0l-0.32-.09c0-.11.09-0.24,0.12-0.3a3,3,0,0,1,.5-0.7l0,0a1.47,1.47,0,0,1,1,.11C362,1176.35,362.06,1176.39,362,1176.5Z" transform="translate(-297.01 -1167.06)"/><path d="M374.78,1252.82c-1-2.67-4.18-2.5-6.5-2.48a0.85,0.85,0,0,0-.75.4,1,1,0,0,0-1.09.48,5,5,0,0,0-.35,3.63,4.06,4.06,0,0,0,.81,1.53c0.45,0.57.72,1.24,1.18,1.79a4.66,4.66,0,0,0,5.58.88C375.45,1257.89,375.45,1254.61,374.78,1252.82Zm-2.23,4.56a2.55,2.55,0,0,1-3.18-.86c-0.83-1.31-2-2.61-1.21-4.22a1,1,0,0,0,.23,0c1.34,0,3.8-.4,4.5,1.12C373.27,1254.29,373.41,1256.8,372.55,1257.37Z" transform="translate(-297.01 -1167.06)"/><path d="M384.66,1255.3c-1.37-1.94-3.76-1.71-5.87-1.64a0.81,0.81,0,0,0-.32,0h-0.2a0.9,0.9,0,0,0-.91,1,4.94,4.94,0,0,0-.36,4.79,9.07,9.07,0,0,0,2.63,2.08,2.5,2.5,0,0,0,3.06.1C384.67,1260.31,386.21,1257.49,384.66,1255.3Zm-2.44,4.13c-0.71.75-1,.79-1.8,0.21a15.68,15.68,0,0,1-1.42-1,2.7,2.7,0,0,1,.1-3,8.16,8.16,0,0,1,2.87.1C383.93,1256.33,383.3,1258.29,382.22,1259.43Z" transform="translate(-297.01 -1167.06)"/><path d="M394.31,1258.37a5.82,5.82,0,0,0-2-2.46,0.92,0.92,0,0,0-1.45.22l-0.1,0c-1,.58-2.25.68-3.22,1.36a4,4,0,0,0-1.33,1.92,2.18,2.18,0,0,0,.16,2.24,3.78,3.78,0,0,0,2.39.88c0.95,0.19,1.75.78,2.76,0.53a3.73,3.73,0,0,0,2-2A3.41,3.41,0,0,0,394.31,1258.37Zm-2.61,2a1.28,1.28,0,0,1-.83.77,2.35,2.35,0,0,1-.76-0.28,6.63,6.63,0,0,0-1.33-.33c-0.2,0-.4-0.05-0.6-0.1l-0.17,0a0.06,0.06,0,0,0,0,0,2.12,2.12,0,0,1,.57-1.13,4.48,4.48,0,0,1,1.71-.68,8.25,8.25,0,0,0,1.34-.61,2.47,2.47,0,0,1,.61.69C392.58,1259.27,392,1259.89,391.7,1260.39Z" transform="translate(-297.01 -1167.06)"/><path d="M377.84,1261.57c-4.26-1.3-7.54-.93-11.06,1.93a1,1,0,0,0-.35.54,0.85,0.85,0,0,0-.71.82,0.76,0.76,0,0,0-.38.86c0.45,2.47,1.9,5.17,4.83,4,1-.41,1.59-1.19,2.63-1.5,1.41-.42,2.8,0,4.24.16,1.62,0.14,3.59,0,4.83-1.2C384.32,1264.71,379.76,1262.16,377.84,1261.57Zm1.55,4.68a5.11,5.11,0,0,1-2.21.08c-1.7-.1-3.48-0.72-5.16-0.16a13.82,13.82,0,0,0-1.69,1c-1.8.88-2.62,0.32-3-1.45a0.88,0.88,0,0,0,.23-0.41,1,1,0,0,0,.3-0.16c1.66-1.34,3.43-2.48,5.56-2.26,1.4,0.14,3.38.13,4.65,0.88Q379.8,1264.21,379.39,1266.26Z" transform="translate(-297.01 -1167.06)"/><path d="M392.24,1265.2a8,8,0,0,0-2.61-1.1,12.79,12.79,0,0,0-4-1.1,0.92,0.92,0,0,0-.9,1.1,1,1,0,0,0-.72.95c0,1.61-.92,3.61.51,4.9a4.46,4.46,0,0,0,3.25.73,4.79,4.79,0,0,0,2.93-1.2c0.85-.58,1.83-1,2.2-2A2,2,0,0,0,392.24,1265.2Zm-1.47,1.86a9.07,9.07,0,0,1-1.65,1.11c-0.72.55-3.12,1.12-3.43-.12-0.22-.87.25-2.09,0.3-3a13.4,13.4,0,0,1,1.82.58q1.14,0.34,2.25.73C390.59,1266.53,391.16,1266.55,390.77,1267.05Z" transform="translate(-297.01 -1167.06)"/><path d="M381.51,1270.17a0.93,0.93,0,0,0-.57-0.17c-2.38.08-6.14,0.36-6.6,3.39-0.42,2.78,2.84,3.09,4.8,3.25,2.33,0.19,5.36-.55,6.21-3S383.49,1270.5,381.51,1270.17Zm1.72,3.2c-0.34,1.19-2.78,1.36-3.7,1.31a15.56,15.56,0,0,1-1.66-.25c-0.74-.12-2.11.05-1.14-1.46,0.52-.8,2.46-0.92,3.69-1C381.33,1272.14,383.49,1272.47,383.23,1273.37Z" transform="translate(-297.01 -1167.06)"/><path d="M393.3,1271.83c-1.16-1.14-2.88-.85-4.35-0.83a3.94,3.94,0,0,0-1.26,1.46c-0.25,1.46-.91,2.77.69,3.73,1.23,0.74,2.95,1.24,4.13.18S394.58,1273.09,393.3,1271.83Zm-1.46,1.9a2.73,2.73,0,0,1-.64,1.14,1.83,1.83,0,0,1-1.72-.36c-0.26-.21-0.22-0.11-0.11-0.55s0.19-.66.26-1a5.41,5.41,0,0,1,1.81.05C391.89,1273.15,392,1273.28,391.84,1273.73Z" transform="translate(-297.01 -1167.06)"/><path d="M385.33,1277.25a1,1,0,0,0-1.58.46h-0.06c-1.59.63-3.84,1.58-4.56,3.26-1,2.38,2,3.46,3.78,3.62,2.17,0.19,5-.27,5.68-2.73C389.34,1279.1,386.91,1278.7,385.33,1277.25Zm-2,5.4c-0.53,0-1.92-.08-2.23-0.58s0-.6.42-1a10.09,10.09,0,0,1,2.75-1.5,1,1,0,0,0,.45-0.37c0.77,0.42,1.73.85,1.95,1.45C387.34,1282.45,384.32,1282.71,383.37,1282.65Z" transform="translate(-297.01 -1167.06)"/><path d="M399.21,1282c-0.7-2.74-2.32-4-4.76-5.22a1,1,0,0,0-1.37.64c-1.86.88-4,2.85-2.83,4.83,0.81,1.31,2.5,2.19,3.6,3.27s2.28,2.42,3.65,2.8a1,1,0,0,0,1-.32C399.74,1286.43,399.69,1283.86,399.21,1282Zm-5,1.07c-0.77-.71-1.77-0.93-1.82-2s1-1.68,2-2a5.19,5.19,0,0,1,2.79,3.25,6.83,6.83,0,0,1,.09,3.72c-0.32-.3-0.61-0.68-0.89-0.93C395.66,1284.4,395,1283.73,394.26,1283.05Z" transform="translate(-297.01 -1167.06)"/><path d="M393,1289.62c-0.16-1.87-2.69-3.92-4.48-4.27a1,1,0,0,0-.22,0,1.06,1.06,0,0,0-1.21-.19c-2,1-4.2,3-3.25,5.42a5.09,5.09,0,0,0,5.17,2.94C390.93,1293.21,393.21,1291.81,393,1289.62Zm-4.35,2a3.21,3.21,0,0,1-2.89-1.58c-0.58-1.3.8-2.29,1.91-2.9a1,1,0,0,0,.44.21,5.91,5.91,0,0,1,2.61,1.83C391.6,1290.46,389.82,1291.43,388.67,1291.58Z" transform="translate(-297.01 -1167.06)"/><path d="M395.66,1293.91a0.92,0.92,0,0,0-.16-0.1,1,1,0,0,0-1.58-.14c-1.11,1.09-2.38,1.9-2.57,3.58-0.17,1.46.36,3.24,2,3.57a3.18,3.18,0,0,0,3.62-2.26A4.55,4.55,0,0,0,395.66,1293.91Zm-0.62,3.92c-0.16.71-1.12,1.55-1.62,0.67-0.61-1.09.31-2,1.17-2.79A2.37,2.37,0,0,1,395,1297.84Z" transform="translate(-297.01 -1167.06)"/><path d="M399.87,1304.73c-1.49-1.87-3.4-.91-5.09.11a0.87,0.87,0,0,0-.42.55,0.88,0.88,0,0,0-1,1c0.2,1.69.15,4.65,2.51,4.6,1.5,0,3.59-.36,4.6-1.57C401.6,1308,400.86,1306,399.87,1304.73Zm-1.26,3.65a5.63,5.63,0,0,1-2.33.55c-0.67.08-.56,0.08-0.7-0.7-0.09-.53-0.14-1.06-0.2-1.6a1,1,0,0,0,.52-0.14c0.94-.56,1.9-1.41,2.64-0.2C398.92,1306.94,399.37,1307.87,398.6,1308.38Z" transform="translate(-297.01 -1167.06)"/><path d="M318.69,1243.32c-0.14-1.52-1.39-2.47-2.47-3.4-1.51-1.3-3.37-1.25-5.27-1.25a1,1,0,0,0-.43.09c-2.13.47-4.17,2.73-2.32,4.82a2.88,2.88,0,0,0,1.37.78c1.17,0.36,1.85.27,2.55,1.44s1.53,2.33,3,2.6C317.83,1248.86,318.88,1245.4,318.69,1243.32Zm-2.27,2a2.25,2.25,0,0,1-.44.94c-0.61.39-1.66-.64-1.9-1.06-0.69-1.18-.88-1.87-2.3-2.36a6.9,6.9,0,0,1-1.91-.51c-1-1,.69-1.69,1.52-1.69h0a5.77,5.77,0,0,1,3,.47,6.28,6.28,0,0,1,2.28,2.12A4,4,0,0,1,316.42,1245.35Z" transform="translate(-297.01 -1167.06)"/><path d="M325.54,1232.46a4.93,4.93,0,0,0-4.06-1.79c-1.58-.06-3.28-0.27-4.58.75a3.24,3.24,0,0,0-2.3,2.38c-0.52,1.61.37,2.65,1.51,3.71a4.73,4.73,0,0,1,1.13,1.26c0.17,0.34.16,0.74,0.36,1.08a2.23,2.23,0,0,0,1.18,1c1.4,0.51,2.38-.68,3.29-1.53,1.17-1.1,2.77-1.5,3.57-3A3.73,3.73,0,0,0,325.54,1232.46Zm-2.23,3.62c-0.6.53-1.39,0.79-2,1.28-0.38.29-.65,0.72-1,1-1,.73-0.92.09-1.34-0.71a6,6,0,0,0-1.31-1.47,1.92,1.92,0,0,1-.87-1.44,1.1,1.1,0,0,1,.47-1.36,0.81,0.81,0,0,0,.68-0.22c1-.84,4-0.76,5.15-0.23A1.82,1.82,0,0,1,323.31,1236.07Z" transform="translate(-297.01 -1167.06)"/><path d="M339.41,1232.74a19.51,19.51,0,0,0-4.32-1.68,10.06,10.06,0,0,0-4.42-.47c-2.94.36-2.73,3.17-2.66,5.47a0.87,0.87,0,0,0,.56.82,1,1,0,0,0,.83.46,44.75,44.75,0,0,1,6.12.15,8.38,8.38,0,0,0,3.35.14C341.12,1237,341.22,1234,339.41,1232.74Zm-2.25,3c-0.61,0-1.22-.2-1.82-0.28a38.27,38.27,0,0,0-5.37-.1,9.29,9.29,0,0,1,0-1.42c0.11-1.26,1-1.4,2.14-1.36a8.26,8.26,0,0,1,3.19.76,22.68,22.68,0,0,1,2.36.79C339.21,1235,338.52,1235.81,337.17,1235.71Z" transform="translate(-297.01 -1167.06)"/><path d="M341.2,1239.24a5,5,0,0,0-5.28.77,0.89,0.89,0,0,0,0,.08,0.82,0.82,0,0,0-.42.48,1,1,0,0,0-.44.82c0,2.15.72,3.87,2.84,4.69s4.27,0,4.8-2.14C343,1242.3,342.94,1240,341.2,1239.24Zm-0.46,4.05c-0.24,1.33-1.65,1.28-2.65.69a2.32,2.32,0,0,1-1.08-2.23,0.84,0.84,0,0,0,.2-0.28,1,1,0,0,0,.22-0.15,3.14,3.14,0,0,1,2.71-.35C341,1241.26,340.88,1242.51,340.73,1243.29Z" transform="translate(-297.01 -1167.06)"/><path d="M349.59,1233.85c-1.4-1.54-3.84-2.55-5.86-1.66-1.72.75-2.37,3.5-2.4,5.2a0.87,0.87,0,0,0,1,.91,1,1,0,0,0,.75.37c2.2,0.09,4.05,1.47,6-.22C350.67,1237.05,351.12,1235.53,349.59,1233.85Zm-3.29,3.47c-1-.12-1.92-0.48-2.92-0.6,0.12-1,.49-2.31,1.16-2.72,1.08-.66,3.31.46,3.81,1.47S347.22,1237.43,346.3,1237.32Z" transform="translate(-297.01 -1167.06)"/><path d="M338.46,1221.75a4.13,4.13,0,0,0-5.1,3.71,1,1,0,0,0,.15.66,3.09,3.09,0,0,0,.31,2.8,4.42,4.42,0,0,0,3.44,1.47c1.4,0.06,3.21.26,4.44-.55a4,4,0,0,0,1.67-3.22C343.44,1223.91,340.84,1222.28,338.46,1221.75Zm-1,6.65c-1,0-2.14-.21-2.09-1.47,0-.66.29-1.32,0.33-2a0.88,0.88,0,0,0,0-.17,2,2,0,0,1,2.41-1.06c1.38,0.29,3.28,1.18,3.3,2.77C341.37,1228.67,339,1228.47,337.43,1228.4Z" transform="translate(-297.01 -1167.06)"/><path d="M350.34,1222.46a3,3,0,0,0-1.87-2.31,4.37,4.37,0,0,0-3.08,0c-1.95.93-1.42,3.49-1.39,5.22a0.87,0.87,0,0,0,.71.88c0.32,1.62,2.37,2.51,3.91,2.06C351,1227.61,350.87,1224.37,350.34,1222.46Zm-2,3.68a1,1,0,0,1-1.7-.53,0.8,0.8,0,0,0-.7-0.88,7.12,7.12,0,0,1,0-2.21c0.25-1,1.92-.76,2.31,0S349,1225.34,348.37,1226.14Z" transform="translate(-297.01 -1167.06)"/><path d="M581.25,1241.26c-0.19-4.26-2.29-10.67-5.11-13.91-3.53-4.06-8.87-5.08-13.8-6.46-2.95-.83-6-1.69-9-2.29-0.78-.16-8-1.16-9.35-1.53,0.94-1.46,2.2-2.53,3.07-4.06,0.58-1,1.09-4.85,1.29-5.33,0.38-.88,1.23-1.67,1.41-2.65,1-5.68-4-8.85-8.11-10.95-7.1-3.58-15.51-5.36-23.16-7.38a69.94,69.94,0,0,0-9.61-2c-1.74-.21-5.76-0.17-7.59-0.88a1.34,1.34,0,0,0-.58-0.25,1.38,1.38,0,0,0-.44-0.07c-4.33-.58-8.34-2.21-12.6-3.17-5.45-1.23-10.85-2.25-16.23-3.74-4.22-1.17-9-1.44-13.39-2.07a99.45,99.45,0,0,0-15.18-1,1.35,1.35,0,0,0-.92.34c-8.71.07-17,2.31-25.54,3.8-7.24,1.26-15.78,1.92-22.61,4.83a23.52,23.52,0,0,0-6.78,4.7,1.49,1.49,0,0,0-.42-0.63c-1.32-1.2-2.8-1.87-1.5-4.51,0.26-.54,1.64-1.18,2.12-1.68a8.12,8.12,0,0,0,2.3-4.27c0.35-3-1.74-4.41-4.22-5.59-7.68-3.67-21.64-5.6-28.72.49-2.89,2.49-3.81,7.19-5.62,10.49-2.24,4.09-5.2,7.37-4.38,12.28,0.66,3.89,3.67,5.94,6.43,8.42a35,35,0,0,0,8.2,5.83l-0.88.66a30.06,30.06,0,0,1-8.47,4.34c-5.45,1.75-10.65,1.83-16.33,1.83h-0.33a26.62,26.62,0,0,0-10.42,3.25c-4.67,2.4-9.64,4.31-14.28,6.71-3.06,1.58-6.55,3.64-8.8,6.29-3.24,3.81-3.82,7.74-4.36,12.59-0.64,5.77-1.49,19.2,6.85,20.17,3.74,0.43,6.07,0,8.7-1.55a1.47,1.47,0,0,0,1.14.54c2.61,0,5,1.43,7.62,1.64a65.36,65.36,0,0,0,7,.06c4.5-.13,9-1.89,13-3.87a44.07,44.07,0,0,0,10.32-6.46c4.09-3.72,8-8.34,13.75-8.06a27,27,0,0,0-6.38,13.14c-0.73,4.22.77,7.33,1.61,11.41a37,37,0,0,0,3,9.19c0.93,1.89,2.3,3.59,3.14,5.5,0.64,1.45.87,3,1.55,4.49,1.82,3.86,4.83,7.24,7.09,10.89a1.16,1.16,0,0,0,.52,1.38c2.26,1.54,3.86,3.73,6.17,5.23,3.14,2,6.42,3.76,9.22,6.31,3.5,3.18,6.61,7.16,11.39,8.57,6.46,1.9,13.42,2.32,19.92,4.14,5,1.39,8.64.38,10.84-4.65,5.4-12.4-7.63-22.73-14.7-31-2.46-2.89-5-5.78-7.24-8.83-2-2.7-4.39-5.3-5-8.69-0.71-3.73,1.73-7.27.7-10.84a10.58,10.58,0,0,0-1.52-3.05,24.5,24.5,0,0,0,6.28,1.37c3.69,0.09,7.45-.35,11.14-0.52,8.24-.39,15.47,1.3,23.53,2.78,14.5,2.66,28.63-2.66,42.78-4.72,1.67-.24,3.24-0.51,4.79-0.84a0.77,0.77,0,0,0,.59-0.14c1.44-.32,2.87-0.69,4.35-1.17,2.78-.89,5.9-1.16,8.53-2.46,3.17,3.15,7.52,4.11,11.9,4.24,6.92,0.2,13.68,2.11,20.56,2.6a59,59,0,0,0,10.75-.26c2.68-.3,5-1.45,7.59-2.1,3.18-.8,6.49-1,9.6-2.06,2.56-.84,6.07-1.19,8.3-2.76C580,1250.94,581.42,1245.05,581.25,1241.26Zm-31.76-20.17a82.13,82.13,0,0,1,9.24,2.06c5.23,1.36,12.7,2.15,15.88,7.08a23.38,23.38,0,0,1,2.77,6.42,23.83,23.83,0,0,0-1.84-1.92c-2.77-2.58-5.48-5.62-9.12-7.11-8.45-3.45-17.69-.7-26.06-4.12a30.13,30.13,0,0,0,2.15-3.34,7.1,7.1,0,0,0,1,.32C545.29,1220.94,547.61,1220.82,549.49,1221.09Zm-3.24-18.84a3.49,3.49,0,0,0-2.23-1,17.21,17.21,0,0,0-5.13.19,7.52,7.52,0,0,0-1,.34,9.24,9.24,0,0,0,0-1.9,19.12,19.12,0,0,0-1.1-4.75C541,1196.63,545.34,1198.76,546.25,1202.25Zm-9.7,2.91c0.11-.15.21-0.3,0.31-0.45a8.71,8.71,0,0,1,4.6-1.39c1.08,0,2.9-.26,3.7.64,0.6,0.68.54,2.1,0.51,3.09a27.64,27.64,0,0,1-2.1,5.7c-0.67,1-1.38,1.73-2,2.7a1.45,1.45,0,0,0-.66.91c0,0.18-.07.34-0.1,0.51a25,25,0,0,1-4.18,6.46,16.43,16.43,0,0,1-1.74,1.54,8.32,8.32,0,0,0-2.54-5.21,6.79,6.79,0,0,0-4.16-1.61l0.13-.13c2-2.08,2.66-4.55,4-7.07a31,31,0,0,1,1.77-3.17C534.91,1206.59,535.82,1206.16,536.56,1205.17Zm1.91,24c0.86,0.6,1.34.71,0.64,1.66a9.35,9.35,0,0,1-1.27,1.25,2.65,2.65,0,0,1-3.41.37c-0.56-.32-0.93-0.79-1.43-1.11a15.09,15.09,0,0,1,3.84-4.23A5.35,5.35,0,0,0,538.47,1229.17Zm-17.91,12.5a31.25,31.25,0,0,1-3,2.81,9.39,9.39,0,0,0-.73-6.17c-0.91-2-2-4.05-4-5.2a7.45,7.45,0,0,0-3.25-.9,97.7,97.7,0,0,0,12.54-8.56c1.29-1,2.49-2.1,3.65-3.22a5,5,0,0,1,5.64,1.16,7.59,7.59,0,0,1,1.57,4.75,10.22,10.22,0,0,0-1.92,2.07A104.36,104.36,0,0,1,520.56,1241.67Zm9.11-2.05c-0.62.78-.75,1.38-1.87,1.34a3,3,0,0,1-2-.89,25.85,25.85,0,0,1,3.47-3.6l0.63-.53c0.18,0.35.38,0.69,0.57,1C531.14,1238.27,530.43,1238.66,529.67,1239.62Zm-7.23,4.43c2.26,0.44,4.38,1.24,6.69,1.52,1.36,0.17,2.33.06,3.36,1s1.28,1.2.46,2.06-6-1.22-7.13-1.32c-1.78-.15-6.55,2.8-7.18.08a26.46,26.46,0,0,0,3.68-3.21Zm-7-55.16c5.26,1.19,10.49,2.9,15.57,4.5l0.78,0.24a1.48,1.48,0,0,0,.52.18c0.42,0.06,1.51,3,1.69,3.47a6.26,6.26,0,0,1-.76,6.5c-0.28.44-.95,0.57-1.22,1-2.24,3.9-3.64,8.18-6.62,11.59-5.35,6.11-12.75,10.9-19.94,14.65,0.39-3.39.79-6.49-.13-10a32.73,32.73,0,0,0-5.4-11.92l-0.31-.38c-0.14-4.55-.21-10.33,3.44-13.56,2.71-2.4,8.36-6,12-6.17A1,1,0,0,0,515.48,1188.89Zm-12.11,43.75c-2.17,2.71-3.6,5.22-6.61,7.44a34.68,34.68,0,0,1-6.83,4h-0.06a1,1,0,0,0-.93.41c-0.55.22-1.09,0.44-1.66,0.64-3.73,1.27-7.74,2-11.59,2.91-2.68.62-5.23,1.38-8,1.05-1.24-.14-2.49-0.74-3.74-1,1.16-2.48.92-4.53,1.25-7.42a41,41,0,0,1,3.15-10.82c2.07-5.12,2-11.45.72-16.76a17,17,0,0,0-2.69-6.7,1,1,0,0,0,.3-0.7c0-2,2.51-4.34,3.86-5.56,1.5-1.36,2.77-3,4.37-4.22a1.05,1.05,0,0,0,.27-0.31c2.6,1.82,5.59,2.53,8.43,3.91a58,58,0,0,1,11.69,7.41,20.6,20.6,0,0,1,2.48,2.6,0.81,0.81,0,0,0,.16.21,29.83,29.83,0,0,1,4.58,8.92c1.71,5,1.35,8.78.85,13.89A1,1,0,0,0,503.37,1232.63Zm-117.28,8.21c-1.31-1.76-1.77-3.85-2.82-5.69a14.79,14.79,0,0,1,.07-4.7c0.51-1.9,2.25-2.43,4-2.45h0a6.92,6.92,0,0,1,1.18.63,39.5,39.5,0,0,1,4.13,3.59c5.16,4.79,9.58,11,15.79,14.54,0.65,0.37,1.3.7,1.95,1,0.58,1.63-1.5,4.18-2.55,4.94a12.06,12.06,0,0,1-6.3,2.32l-0.11,0c-1.16-1.23-2.29-2.46-3.48-3.65-1.79-1.79-3.95-2.73-6-4.17A28.51,28.51,0,0,1,386.09,1240.84Zm4.34,9.11a1,1,0,0,0-.1.44,4.11,4.11,0,0,1-.49,1.84c-0.33.61-.56,0.85-1.16,0.42s-1.46-1-1.24-1.67a6.54,6.54,0,0,1,.85-1.14,5.26,5.26,0,0,1,.57-1A17,17,0,0,0,390.44,1250Zm-14-39.83c0.27,0.63.51,1.27,0.77,1.91-2.8.16-6.23,1.48-8,3.72a9.37,9.37,0,0,0-1.24,2.13,47.46,47.46,0,0,1-1.48-9.4,11.45,11.45,0,0,0,2-2.83,14.72,14.72,0,0,1,4.28-4.59C374.74,1202.86,375.68,1208.24,376.47,1210.12Zm-3.57-15.77h0c0.67-.44,2.14-0.09,3,0a12.17,12.17,0,0,0,.6,1.22c-1.13.59-2.27,1.16-3.4,1.76a14.87,14.87,0,0,1-.1-1.69c0-.29-0.06-0.57-0.08-0.86C372.91,1194.62,372.9,1194.49,372.9,1194.36Zm-2.37,23.08c1.34-2.2,4.81-3.39,7.19-3.43a1,1,0,0,0,.26-0.06c1,2.64,2,5.3,3,7.92,0.86,2.12,1.25,3.4,3.25,4.73a4.76,4.76,0,0,0-2.26,1.93,7.8,7.8,0,0,0-.83,4.19c-3.84-2.83-10.19-2.66-11.32-7.57-0.24-1-.49-2-0.75-3A10.74,10.74,0,0,1,370.53,1217.43Zm12.58,24.41,0.1,0.15c0.63,0.87,1.28,1.8,2,2.7a0.83,0.83,0,0,0-.8.76c-0.19,1.37-1.67,2.74-2.65,3.69a3.55,3.55,0,0,1-4.39,0c-0.94-1,.12-2.58.58-3.69a8.09,8.09,0,0,0,.75-2.93A19.11,19.11,0,0,1,383.11,1241.84Zm19.95-3.51c-3.35-3.06-6.51-7.18-10.14-10.3a0.86,0.86,0,0,0-.08-0.93c-2.87-4,1.79-12.75,4.21-16.5a96.94,96.94,0,0,0,4.89-9.24c2.22,0.19,3.76,1.25,5.85,2a66.15,66.15,0,0,0,6.85,1.72c2.51,0.56,4.92,1.29,7.38,2,4.57,1.36,6.61,3,8.84,7.26,2.54,4.84,5,8.34,4.83,14.07-0.13,3.37-.26,7.83-2.13,10.72-0.51.79-1.34,1.36-1.8,2.16-0.85,1.47-.91,2.79-1.76,4.14a26.6,26.6,0,0,0-4.24.85C416.56,1248.82,409.63,1244.35,403.06,1238.33Zm32.32,1.84c1.44-2.57,1.78-5.49,2.08-8.39,0.78-7.48-1.31-11.84-4.76-18.24a27.69,27.69,0,0,0-2.63-4.44,22.37,22.37,0,0,1,6.11-7.81c2.25-1.8,4.82-3.05,6.79-5.19,3.49,2.61,7.16,4.11,11.29,5.92,1.87,0.82,3.76,1.62,5.64,2.39,3.95,1.63,5.89,3.61,6.9,7.82a35,35,0,0,1,1,9.13c-0.07,4-1.1,6.81-2.52,10.44-1.89,4.85-1,11.7-3.47,16.07a1,1,0,0,0,0,.1c-2.4.38-4.47,1.79-7.14,1.85a49.5,49.5,0,0,1-11.65-.75c-3.24-.72-6.05-3-9.27-3.56a10.45,10.45,0,0,0-1.21-.15C433.52,1243.68,434.49,1241.76,435.38,1240.17Zm69.65-53c2,0.26,4.13.59,6.18,0.92-1.1.52-2.16,1.16-3.24,1.73s-2.32,1.28-3.44,2c-0.82-.88-0.91-2.28-1.45-3.33-0.23-.45-0.42-1-0.62-1.47C503.32,1187,504.18,1187,505,1187.13ZM472.24,1180c4.86,1.51,9.92,2.13,14.86,3.28,4.37,1,8.34,2.65,12.81,3.2l0.12,0c0.16,0.4.28,0.82,0.45,1.24,0.33,0.79.83,1.5,1.12,2.31a10.55,10.55,0,0,0,1.19,2.76,9.85,9.85,0,0,0-2.53,1.61c-2.56,2.63-2.76,8-2.68,12.07a43.18,43.18,0,0,0-7.08-5.17,49.41,49.41,0,0,0-5.35-3.46c-2.94-1.35-6.16-2-8.83-3.94a1,1,0,0,0-.67-0.2,25.73,25.73,0,0,0-4.49-14.05C471.53,1179.77,471.89,1179.86,472.24,1180Zm-29.16-3.14a1.32,1.32,0,0,0,.93-0.33,120.58,120.58,0,0,1,15,1.27c3,0.39,6.11.67,9.13,1.22a24,24,0,0,1,5.51,15.28,57.37,57.37,0,0,0-5.82,5.49,11.68,11.68,0,0,0-3,5,12.85,12.85,0,0,0-3.11-1.81c-6.44-2.72-13.28-4.76-18.69-9.32,0-4.06.09-7.6-1.51-11.52a19.65,19.65,0,0,0-2.67-5.1C440.24,1176.88,441.65,1176.82,443.08,1176.83Zm-25.51,3.63c6.27-1.13,12.38-2.6,18.64-3.27,1.69,1.52,2.75,4.05,3.59,6.11,1.55,3.83,1.2,7.67,1.2,11.75a0.91,0.91,0,0,0,0,.16c-2.24,2.21-5.17,3.55-7.45,5.73a24.2,24.2,0,0,0-5,6.7c-0.14-.11-0.28-0.23-0.44-0.33-2.47-1.66-5.78-2.26-8.59-3.1-3.3-1-6.84-1.33-10.07-2.47-2.55-.9-4.68-2.09-7.35-2.35-0.62-2.21-2.09-4.18-2.73-6.39a43.83,43.83,0,0,1-1.67-8.78C404,1182.11,411.48,1181.56,417.57,1180.47ZM393.63,1186c0.69-.37,1.41-0.69,2.15-1a51.49,51.49,0,0,0,1.42,7.58c0.67,2.67,2.43,5.06,3.07,7.67-2.44,4.67-5.49,9.28-7.55,14.12-1.42,3.35-3.55,7.85-2.59,11.63-0.29-.18-0.58-0.36-0.88-0.53-2.17-1.22-3.12-.55-5-3.33a21.66,21.66,0,0,1-1.22-3c-1.71-3.71-2.81-7.72-4.35-11.51-1-2.41-1.47-6-3.2-8.18,0.69-.38,1.39-0.75,2.14-1.14a28.19,28.19,0,0,0,7.15-4.68C387.59,1190.77,390,1187.91,393.63,1186Zm-8-11c0.5,1.21,0,2.71-2.12,4.57-4.77,4.1-3,5.46,1.2,9.26a1.53,1.53,0,0,0,.42.27,35.1,35.1,0,0,1-6.32,5.23l-0.51.29c-1.12-2-1.33-4.87-1.6-7-0.52-4.06.23-6.44,3.91-8.48C382.64,1178,384.81,1177.4,385.6,1175Zm-30.92,5.57a15.39,15.39,0,0,1,1.49.9c0.67,0.43.59,0.63,0.27,1.28-0.14.29-.32,0.56-0.48,0.83-0.33.56-.69,1.47-1.47,1.37a4.64,4.64,0,0,1-1.64-1.16C353.47,1182.69,354.09,1181.62,354.68,1180.54Zm5.55,23.51a35.71,35.71,0,0,1-4.69-3.65,49.08,49.08,0,0,1-3.82-3.67,5.18,5.18,0,0,1,1.81-.23c1.36,0.14,2.51,1.48,3.49,2.42C358.29,1200.14,360.94,1202.11,360.23,1204Zm-0.59-5.3c-1.42-1.23-2.57-2.85-4.22-3.81-1.82-1.05-3.09-.21-4.94,0-1-1.79-1.24-3.85,0-6.6,0.43-1,.93-1.95,1.45-2.9,1.13,0.82,2.15,1.92,3.69,1.33,1.23-.47,1.88-1.81,2.48-2.89s1.06-2.65-.11-3.69a12,12,0,0,0-1.94-1.13l-0.44-.26,0,0c1.58-3.17,2.58-6,6.24-7.27,4.17-1.44,9.66-1.44,14-.83,2.61,0.37,6.85,1.27,8.86,3a1,1,0,0,0-1,.73c-0.74,2.44-4.55,2.77-6.36,4.27a7.92,7.92,0,0,0-3,4.51,22.25,22.25,0,0,0,.8,9.05c-1.34-.1-2.91-0.27-3.84.77a2.82,2.82,0,0,0-.36,2.28c0.07,0.85,0,1.66.19,2.47a1.66,1.66,0,0,0-.59,1c-0.34.22-.68,0.45-1,0.7-1.76,1.31-3,4.85-4.63,6.42a1.73,1.73,0,0,0-.56.15,1.6,1.6,0,0,0-.4-0.18,11.34,11.34,0,0,1-2-.82,4.59,4.59,0,0,0,.21-2.64C361.84,1200.65,360.91,1199.85,359.63,1198.74Zm-32.35,21.36a10.27,10.27,0,0,0,1,1.14,2.8,2.8,0,0,1,1.12,2.85c-0.06,1.36-.39,2.93-1.69,3.7-0.93.55-.59,0.16-1.34-0.49-2.74-2.39-8.25,2.39-8.42-2.43C321,1223.32,324.11,1221.52,327.28,1220.11Zm-18.93,9.57c1.48,0.09,3.48.4,3.53,2a13.24,13.24,0,0,1-.16,1.79,1.41,1.41,0,0,1-1,1.43c-1.29.77-2.05,1.63-3.69,1.22-1.46-.37-2.7-1.21-4.22-1.45h0A17.37,17.37,0,0,1,308.36,1229.68Zm-7.67,11.15a17.51,17.51,0,0,1,2.19.64,6.84,6.84,0,0,1,1.15.39c0.51,0.31.25,0.74,0.13,1.25a3.45,3.45,0,0,1-.21,1.08,1.12,1.12,0,0,1-1.1-.1c-0.54-.15-1.1-0.17-1.65-0.32l-0.91-.26C300.4,1242.61,300.53,1241.72,300.68,1240.83Zm55.82,5c-1.74,1.19-2.95,2.86-4.46,4.29a40.41,40.41,0,0,1-8.1,5.73c-4.3,2.47-9,5-14,5.6a35.79,35.79,0,0,1-9.3-.18c-1.59-.29-2.94-0.83-4.39-1.18,4.08-2.46,8.71-3.18,12.61-6.24,1.51-1.18-.15-3.69-1.67-2.49-3.18,2.5-6.55,3.17-10.06,4.84-3.07,1.45-5.91,4.31-9.35,4.63-6.42.6-7.34-4.75-7.7-9.86a38.05,38.05,0,0,1,.05-5.54c0.6,0.15,1.2.33,1.81,0.45a6.94,6.94,0,0,0,2,.38c1.66-.16,1.9-1.46,2.2-2.8,0.34-1.5.32-2.84-1.31-3.5a22.4,22.4,0,0,0-3.75-1.18,12,12,0,0,1,.84-2.52,0.87,0.87,0,0,0,.56.31c2.2,0.34,4.55,2.39,6.87,1.56,1-.34,1.73-1.16,2.67-1.58a2.56,2.56,0,0,0,1.56-1.34c0.4-1,.14-2.18.28-3.17a2.81,2.81,0,0,0-.22-2.31,4.44,4.44,0,0,0-2.5-1.65c1.63-.82,3.28-1.57,4.86-2.3,0.08,1.84.67,3,3,3.36,1.76,0.3,2.64-.5,4.37-0.57,1.54-.06,1.29.42,2.25,1.1a2.37,2.37,0,0,0,1,.58c1.06,0.18,2.72-.84,3.5-1.45a3.51,3.51,0,0,0,1.18-2.6c0.13-1.23.64-3.07,0.24-4.33a6.89,6.89,0,0,0-2.28-2.66,22.84,22.84,0,0,1,6.1-1.44l0.12,0,0.22,0c5.51,0,10.24-.06,15.56-1.54a34.51,34.51,0,0,0,6.56-2.47c1.85-1,3.74-2.75,5.65-3.92a27.18,27.18,0,0,0,.7,6.36c0.36,1.43,1,2.75,1.44,4.14,0.73,2.18.77,4.39,1.36,6.54,1.59,5.74,8.18,4.71,11.85,7.72a10.48,10.48,0,0,1,2.73,4.27,19.49,19.49,0,0,0-7,2.12c-1.78.9-3.82,1.6-5.62,2.59a1.67,1.67,0,0,0-.29-0.11A15.56,15.56,0,0,0,356.5,1245.88Zm71,62.19c1.84,3.3,3.52,6.49,4.22,10.11-0.6,2.68-2.42,5.45-5.45,5.92-1.88.29-5.4-1.38-7.35-1.73-5.39-1-11.83-1.78-16.64-4.12-4.51-2.19-7.25-6.09-11.21-9.06-1.89-1.42-3.91-2.65-5.92-3.88-2.38-1.46-4.1-3.48-6.31-5.1a1.52,1.52,0,0,0-.22-0.72c-1.77-3-3.84-5.65-5.71-8.52-1.71-2.63-2.22-5.6-3.67-8.32-3.22-6.06-5.81-11.84-6.85-18.7-1.38-9.11,5.79-17.61,14.26-20.79-0.3,1.68-1.52,3.2-1.67,4.95a3,3,0,0,0,2.63,3.42c1.84,0.43,3.68.94,5.17-.52,0.73-.72,1.38-1.55,2.1-2.29a5,5,0,0,0,1.42-2.59c0.38,0.48.77,0.95,1.17,1.39-0.35.41-.55,0.86-0.88,1.33a4.87,4.87,0,0,0-1.19,2.09c-0.18,1.48,1.3,2.76,2.41,3.49,2.48,1.62,4.14-1.17,4.49-3.41a14.45,14.45,0,0,1,4.07,3.14,41.3,41.3,0,0,0,3.65,3.78c-0.16,3.75-2.33,5.61-3.57,8.84a14.42,14.42,0,0,0,.06,8.35c1.72,5.59,5.87,8,9.38,12,1.64,1.89,2.58,4.23,4.1,6.19a20.08,20.08,0,0,0,6.84,5.32C421.51,1301.16,424.77,1303.26,427.46,1308.07Zm-17.52-23.9c2.91,3.82,6,7.54,9.2,11.17,1.45,1.67,3.13,3.38,4.79,5.16-4.73-3.54-10.63-5.14-13.89-10.71-2.64-4.51-7-6.93-9.73-11.34a12.92,12.92,0,0,1-2.34-7.93c0.19-2.46,1.66-4.16,2.6-6.23a15.4,15.4,0,0,0,1.29-4.62l0.49,0.45a1.39,1.39,0,0,0,.85.39,7.5,7.5,0,0,1,1.32,5.49c-0.36,2.62-1,4.62-.61,7.31C404.51,1277.64,407.37,1280.8,409.94,1284.17Zm19.28-27.65c-0.15.13-.37,0.39-0.61,0.65-2-.09-4-0.11-6.15,0-3.82.16-7.91,0.84-11.7,0.34a35,35,0,0,1-5.14-1.3,11.8,11.8,0,0,0,5.23-3.69,7.81,7.81,0,0,0,1.6-3.92,23.22,23.22,0,0,0,14.24.55,13.13,13.13,0,0,1,3.16-.44c1.13,1.56,1.89,3.37,1.25,5.3A5.49,5.49,0,0,1,429.22,1256.52Zm36.45,2.07a8.32,8.32,0,0,1-1.59,1.35c-8,.86-15.09.14-23-1.25-3.48-.61-6.63-1.08-9.83-1.35a7.58,7.58,0,0,0,1.7-2.56,7,7,0,0,0-.62-5.87,57.15,57.15,0,0,1,7.54,2.46,35.18,35.18,0,0,0,9.49,1.33c3.29,0.17,6.69.44,9.92-.34,1.32-.32,2.32-1,3.68-1.19a12.8,12.8,0,0,1,1.55,1.1,3.65,3.65,0,0,1,1.81,3.05A4.4,4.4,0,0,1,465.67,1258.59Zm28.92-4.6c-3.66.79-7.34,1.45-10.9,2.18-5.4,1.11-10.69,2.46-16.12,3.3a3.74,3.74,0,0,0,.51-0.82,8,8,0,0,0,.11-4.54,5.31,5.31,0,0,0-1.07-2.29,9.09,9.09,0,0,0,2.06.3c3.68,0,7.52-1.31,11.05-2.17a78.65,78.65,0,0,0,11-3.29A8.23,8.23,0,0,1,494.58,1254Zm2.06-.46a12.14,12.14,0,0,0-1.25-4.7,9.71,9.71,0,0,0-2-3.1,36.47,36.47,0,0,0,6.27-4c2.8-2.15,4.12-4.84,6.25-7.47a15.63,15.63,0,0,1,4.41.11c2.76,0.63,4.07,2.94,5,5.45a7.26,7.26,0,0,1-.88,6.89C509.07,1250.16,502.92,1252.08,496.64,1253.53Zm80.35-6.2c-2.84,5.34-10.92,6.09-16.3,7.24-5.12,1.09-9.54,2.79-14.85,2.92-5.79.13-11.47-.93-17.19-1.73-5.39-.75-13.25.08-17.77-3.64l0.6-.32a1,1,0,0,0,1.28-.13q0.64-.62,1.22-1.25c1-.57,2-1.17,2.92-1.79,0.86,2.53,3.42,2.65,5.76,1.59,3-1.36,4.92,0,7.8.47,1.16,0.18,3.48.22,4.62-.46,2.37-1.42.21-3.68-1.14-5.07s-1.88-1.38-3.78-1.51a38,38,0,0,1-6.22-1.31l0.58-.7c1.68,1.49,4.5,2.09,6,.19,0.72-.9,2-2,2.25-3.15,0.39-1.62-1-2.89-1.42-4.34a10.38,10.38,0,0,0,.73-1.21c0.48,0.28,1,.91,1.43,1.14a7.19,7.19,0,0,0,2.2.69c1.57,0.19,2.71-.65,3.78-1.68s2.4-2.1,2-3.66a3.11,3.11,0,0,0-1.3-1.68,5,5,0,0,1-1.24-1,8.79,8.79,0,0,1-.64-1.11c0.23-.21.46-0.43,0.68-0.66a25.9,25.9,0,0,0,8.58,2.38c3.93,0.44,8-.35,11.82.52,6.88,1.54,15.69,6.18,18.7,13.29A11.81,11.81,0,0,1,577,1247.33Z" transform="translate(-297.01 -1167.06)"/></svg>