<svg id="koralli" xmlns="http://www.w3.org/2000/svg" viewBox="0 0 303.69 236.79"><defs><style>.cls-1{fill:#fff;}</style></defs><title>koralli</title><path class="cls-1" d="M281.6,1000.68c1-5.49.24-11.4-4.83-14.16a15.14,15.14,0,0,0-11-7.78c-5.91-.84-11.32,2.43-17.13,2.7a31.21,31.21,0,0,0-3.33-14c-4.83-9.48-14.65-14.16-24.51-16.75a165.25,165.25,0,0,0-33-4.85c-10.38-.55-16.39.43-27.3,4-3.36,1.09-9,13.57-11.92,14.69-3.1,1.18-13.11-3.14-14.27-3.28-5.27-.64-6,0.85-6,0.85a16.54,16.54,0,0,1-6,3.43c-2.28.72-5.92,3.5-7.22,3a22.5,22.5,0,0,0-1.68,2.21c-2.64,4-3.17,8.87-5.64,12.93a39,39,0,0,1-2.67,3.76c-3,.79-5.76-1.71-8.76-1.85a6.59,6.59,0,0,0-1.91.17c-0.06-.28-0.15-0.54-0.23-0.81a14.58,14.58,0,0,0-2.7,1.52,6.08,6.08,0,0,1,.19.75,1.57,1.57,0,0,0,.05.2l-0.1.11a1.68,1.68,0,0,0-.29.2c-2.76,2.33-2.67,6.92-5,9.48a21.67,21.67,0,0,1-4.38,1.59c-3.35-.89-4.55-7.14-6.06-10.18a1.42,1.42,0,0,0,0-.16,10.11,10.11,0,0,0-1.39-1.56c-8.1-3.75-16.67-2.39-23.45,3.24H50.84a19.38,19.38,0,0,1-1.47,1.64A1,1,0,0,1,49,992c-1.75,1.73-3.37,3.6-5,5.43A0.92,0.92,0,0,0,43,996.5a1,1,0,0,0-.06,2c-0.73.78-1.47,1.55-2.25,2.28s-1.33,1.22-2,1.8a1,1,0,0,0-.91-1.31,1,1,0,0,0,0,2l0.08,0a47.73,47.73,0,0,1-14,7.76c-8.4,2.95-19.23.95-25.1,8.82A19.13,19.13,0,0,0-2.65,1022c-0.14.12-.28,0.23-0.42,0.37a0.89,0.89,0,0,0-.24.93c-2.77,6-3.17,13.82.59,19.08,5.09,7.14,15.34,7.36,21,14,2.85,3.38,4.87,7.53,8.73,9.94a15,15,0,0,0,4.65,1.87l0.09,0.13a0.94,0.94,0,0,0,.23.19l0.73,0.08a1,1,0,0,0,.26-0.16,36.12,36.12,0,0,0,7.29.26,42.44,42.44,0,0,0,6.51-.74c-1.91,4.25-.86,9.69,2.21,13.79a1.05,1.05,0,0,0,.81,1,15.22,15.22,0,0,0,3.5,3c6.81,4.15,13.32,2.23,20.67,2.15,5.59-.06,8.56,4.25,12.64,7.44,2.89,2.25,12.64,10.23,15.94,11.84,12,5.85,44.84,68.3,55.74,59.83,0.69-.54,4.74-3,10.42-6.51,4.37-2.68,8.6,16.26,24.83,10.07,7.54-2.88,8.49-15.06,12.38-17.56,8.74-5.61,24.64,4.46,22.26-5.15,0,0.27,0,.54,0,0.82-0.06,3.22-5.06,3.22-5,0,0.08-4.57-4.42-7.94-8.1-9.84-2.86-1.48-.33-5.8,2.52-4.32a24.4,24.4,0,0,1,6.88,5.22c-1.72-3.05-4.05-6.81-7.13-11.45-16.87-25.42-18.15-16.77-30.09-25.73-22.53-16.89-18.95-17-18.95-17,0.92-.59,4.06-2.38,5-3a12.77,12.77,0,0,0,1.06-.84c1.06-1.11,1.91-1.78,3.43-3.5,3.65-3.91,7.4-9.12,9.17-14.13a1.16,1.16,0,0,1,0-.21,11.74,11.74,0,0,0-.63-10.47,9.49,9.49,0,0,0-2.53-2.44,18.27,18.27,0,0,1,5.88-1.07l0,0c0.6,0,1.19-.06,1.79-0.05a17.87,17.87,0,0,1,5.52.72,82.25,82.25,0,0,1,12,4.25c0.42,0.06.85,0.13,1.29,0.22,7,1.48,12.46,2.89,19.36,3.75a42.42,42.42,0,0,0,7-.14,25,25,0,0,0,5.87-2,27.68,27.68,0,0,0,4.45-3.17,19.78,19.78,0,0,0,2-2,17.23,17.23,0,0,0,3.56-6.35,61.56,61.56,0,0,0,1-9.4c0-1.88.55-4.74,1.19-5.49,0,0,.22-0.24.31-0.35,1-1.19,1.54-2.08,2.84-2.28s1.93,0.35,3.1,1.58c0.89,1,1.82,2.68,2.46,3.5,1.49,1.91,3.19,3.51,5.65,3.92a8.56,8.56,0,0,0,5.37-.88,14,14,0,0,0,4.59-4.9,13.4,13.4,0,0,0,1.71-5.69c0.11-1,.15-1.93.17-2.91-0.13-1.9-.31-3.81-0.52-5.71-0.31-2.8-.62-5.45.08-8.12C280.68,1005.93,281.09,1003.41,281.6,1000.68Z" transform="translate(21.69 -941.29)"/><path d="M15,954.25a1.5,1.5,0,0,0,0,3A1.5,1.5,0,0,0,15,954.25Z" transform="translate(21.69 -941.29)"/><path d="M15,958.25a1.5,1.5,0,0,0,0,3A1.5,1.5,0,0,0,15,958.25Z" transform="translate(21.69 -941.29)"/><path d="M28.75,1003.25a1.5,1.5,0,0,0,0,3A1.5,1.5,0,0,0,28.75,1003.25Z" transform="translate(21.69 -941.29)"/><path d="M34,1000.25a1.5,1.5,0,0,0,0,3A1.5,1.5,0,0,0,34,1000.25Z" transform="translate(21.69 -941.29)"/><path d="M29.75,994.5a1.5,1.5,0,0,0,0,3A1.5,1.5,0,0,0,29.75,994.5Z" transform="translate(21.69 -941.29)"/><path d="M84.25,976.25a1.5,1.5,0,0,0,0,3A1.5,1.5,0,0,0,84.25,976.25Z" transform="translate(21.69 -941.29)"/><path d="M81,979.75a1.5,1.5,0,0,0,0,3A1.5,1.5,0,0,0,81,979.75Z" transform="translate(21.69 -941.29)"/><path d="M85.5,981a1.5,1.5,0,0,0,0,3A1.5,1.5,0,0,0,85.5,981Z" transform="translate(21.69 -941.29)"/><path d="M82.5,994a1.5,1.5,0,0,0,0,3A1.5,1.5,0,0,0,82.5,994Z" transform="translate(21.69 -941.29)"/><path d="M51.25,964a1.5,1.5,0,0,0,0,3A1.5,1.5,0,0,0,51.25,964Z" transform="translate(21.69 -941.29)"/><path d="M55,968.25a1.5,1.5,0,0,0,0,3A1.5,1.5,0,0,0,55,968.25Z" transform="translate(21.69 -941.29)"/><path d="M12.25,987.25a1.5,1.5,0,0,0,0,3A1.5,1.5,0,0,0,12.25,987.25Z" transform="translate(21.69 -941.29)"/><path d="M7.5,991.25a1.53,1.53,0,0,0-1.5,1.5V993a1.5,1.5,0,0,0,3,0v-0.25A1.52,1.52,0,0,0,7.5,991.25Z" transform="translate(21.69 -941.29)"/><path d="M7.5,987a1.5,1.5,0,0,0,0,3A1.5,1.5,0,0,0,7.5,987Z" transform="translate(21.69 -941.29)"/><path d="M15,1007.75a1.5,1.5,0,0,0,0,3A1.5,1.5,0,0,0,15,1007.75Z" transform="translate(21.69 -941.29)"/><path d="M40,977.25a1.5,1.5,0,0,0,0,3A1.5,1.5,0,0,0,40,977.25Z" transform="translate(21.69 -941.29)"/><path d="M16.5,951.25a1,1,0,0,0,0,2A1,1,0,0,0,16.5,951.25Z" transform="translate(21.69 -941.29)"/><path d="M18.25,956.25a1,1,0,0,0,0,2A1,1,0,0,0,18.25,956.25Z" transform="translate(21.69 -941.29)"/><path d="M47,963.5a1,1,0,0,0,0,2A1,1,0,0,0,47,963.5Z" transform="translate(21.69 -941.29)"/><path d="M51.75,970a1,1,0,0,0,0,2A1,1,0,0,0,51.75,970Z" transform="translate(21.69 -941.29)"/><path d="M42.25,982.25a1,1,0,0,0,0,2A1,1,0,0,0,42.25,982.25Z" transform="translate(21.69 -941.29)"/><path d="M43.25,978.5a1,1,0,0,0,0,2A1,1,0,0,0,43.25,978.5Z" transform="translate(21.69 -941.29)"/><path d="M79.25,991.25a1,1,0,0,0,0,2A1,1,0,0,0,79.25,991.25Z" transform="translate(21.69 -941.29)"/><path d="M85.75,992a1,1,0,0,0,0,2A1,1,0,0,0,85.75,992Z" transform="translate(21.69 -941.29)"/><path d="M88.25,985.5a1,1,0,0,0,0,2A1,1,0,0,0,88.25,985.5Z" transform="translate(21.69 -941.29)"/><path d="M79.25,976a1,1,0,0,0,0,2A1,1,0,0,0,79.25,976Z" transform="translate(21.69 -941.29)"/><path d="M83.25,984.75a1,1,0,0,0,0,2A1,1,0,0,0,83.25,984.75Z" transform="translate(21.69 -941.29)"/><path d="M32.75,996.75V997a1,1,0,0,0,2,0v-0.25A1,1,0,0,0,32.75,996.75Z" transform="translate(21.69 -941.29)"/><path d="M36.25,998.25a1,1,0,0,0,0,2A1,1,0,0,0,36.25,998.25Z" transform="translate(21.69 -941.29)"/><path d="M32,1004a1,1,0,0,0,0,2A1,1,0,0,0,32,1004Z" transform="translate(21.69 -941.29)"/><path d="M30.25,1000a1,1,0,0,0,0,2A1,1,0,0,0,30.25,1000Z" transform="translate(21.69 -941.29)"/><path d="M30.75,988.75a1,1,0,0,0,0,2A1,1,0,0,0,30.75,988.75Z" transform="translate(21.69 -941.29)"/><path d="M30.5,983.5a1,1,0,0,0,0,2A1,1,0,0,0,30.5,983.5Z" transform="translate(21.69 -941.29)"/><path d="M38.75,994.75a1,1,0,0,0,0,2A1,1,0,0,0,38.75,994.75Z" transform="translate(21.69 -941.29)"/><path d="M45.5,992a1,1,0,0,0,0,2A1,1,0,0,0,45.5,992Z" transform="translate(21.69 -941.29)"/><path d="M23.5,1006.5a1,1,0,0,0,0,2A1,1,0,0,0,23.5,1006.5Z" transform="translate(21.69 -941.29)"/><path d="M23,1001.5a1,1,0,0,0,0,2A1,1,0,0,0,23,1001.5Z" transform="translate(21.69 -941.29)"/><path d="M9.5,1009a1,1,0,0,0,0,2A1,1,0,0,0,9.5,1009Z" transform="translate(21.69 -941.29)"/><path d="M4.5,1012.25a1,1,0,0,0,0,2A1,1,0,0,0,4.5,1012.25Z" transform="translate(21.69 -941.29)"/><path d="M11.75,1004.5a1,1,0,0,0,0,2A1,1,0,0,0,11.75,1004.5Z" transform="translate(21.69 -941.29)"/><path d="M4,988a1,1,0,0,0,0,2A1,1,0,0,0,4,988Z" transform="translate(21.69 -941.29)"/><path d="M12.5,992a1,1,0,0,0,0,2A1,1,0,0,0,12.5,992Z" transform="translate(21.69 -941.29)"/><path d="M10,997.75a1,1,0,0,0,0,2A1,1,0,0,0,10,997.75Z" transform="translate(21.69 -941.29)"/><path d="M55.75,973.75a1,1,0,0,0,0,2A1,1,0,0,0,55.75,973.75Z" transform="translate(21.69 -941.29)"/><path d="M65.25,977.5a1,1,0,0,0,0,2A1,1,0,0,0,65.25,977.5Z" transform="translate(21.69 -941.29)"/><path d="M28,962.5a1,1,0,0,0,0,2A1,1,0,0,0,28,962.5Z" transform="translate(21.69 -941.29)"/><path d="M28,968.25a1,1,0,0,0,0,2A1,1,0,0,0,28,968.25Z" transform="translate(21.69 -941.29)"/><path d="M29,955.25a1,1,0,0,0,0,2A1,1,0,0,0,29,955.25Z" transform="translate(21.69 -941.29)"/><path d="M27.5,950.25a1,1,0,0,0,0,2A1,1,0,0,0,27.5,950.25Z" transform="translate(21.69 -941.29)"/><path d="M23.75,949.25a1,1,0,0,0,0,2A1,1,0,0,0,23.75,949.25Z" transform="translate(21.69 -941.29)"/><path d="M14,962a1,1,0,0,0,0,2A1,1,0,0,0,14,962Z" transform="translate(21.69 -941.29)"/><path d="M13.75,966.25a1,1,0,0,0,0,2A1,1,0,0,0,13.75,966.25Z" transform="translate(21.69 -941.29)"/><path d="M54.75,964.5a1,1,0,0,0,0,2A1,1,0,0,0,54.75,964.5Z" transform="translate(21.69 -941.29)"/><path d="M16,988a1,1,0,0,0,0,2A1,1,0,0,0,16,988Z" transform="translate(21.69 -941.29)"/><path d="M87,978.25a1,1,0,0,0,0,2A1,1,0,0,0,87,978.25Z" transform="translate(21.69 -941.29)"/><path d="M12.5,1009.5a1,1,0,0,0,0,2A1,1,0,0,0,12.5,1009.5Z" transform="translate(21.69 -941.29)"/><path d="M10.5,1011.5a1,1,0,0,0,0,2A1,1,0,0,0,10.5,1011.5Z" transform="translate(21.69 -941.29)"/><path d="M18.5,1010a1,1,0,0,0,0,2A1,1,0,0,0,18.5,1010Z" transform="translate(21.69 -941.29)"/><path d="M281.6,1000.68c1-5.49.24-11.4-4.83-14.16a15.14,15.14,0,0,0-11-7.78c-5.91-.84-11.32,2.43-17.13,2.7a31.21,31.21,0,0,0-3.33-14c-4.83-9.48-14.65-14.16-24.51-16.75a189.12,189.12,0,0,0-32.07-5.82l-0.54,0c-0.06-.32-0.15-0.66-0.19-0.87a6.59,6.59,0,0,1,0-.91,1.51,1.51,0,0,0-1.58-1.42A1.54,1.54,0,0,0,185,943.2a6.15,6.15,0,0,0,0,1c0,0.12,0,.23.07,0.35l-0.67-.06,0,0-1.47-.08c-1.87-.06-3.88-0.09-6,0l-0.22,0c0-.13.1-0.26,0.16-0.4a1,1,0,0,0,.09-0.36,2.12,2.12,0,0,0,.52-1.52,1,1,0,0,0-2,.11v0.08l-0.12.15a4,4,0,0,0-.48.62c-0.12.2-.14,0.45-0.25,0.65s-0.29.42-.43,0.63a0.74,0.74,0,0,0-.07.23c-0.47,0-.93,0-1.4,0v0c-0.74.07-1.48,0.17-2.21,0.27l-0.29.07a3.09,3.09,0,0,0,.21-0.61,5.25,5.25,0,0,0,0-1,1,1,0,0,0-2,.11c0,0.07,0,.13,0,0.19a2.91,2.91,0,0,0-.53.88,5.48,5.48,0,0,0-.27.63c0,0.08,0,.19-0.06.29-0.28,0-.55.09-0.83,0.11a30.51,30.51,0,0,0-3.6,1.1,0.52,0.52,0,0,1-.38.25,5.37,5.37,0,0,0-.62.14,2,2,0,0,0,0-.48,1,1,0,0,0-.13-0.36l0-.05s0,0,0-.06a1.51,1.51,0,0,0-1.58-1.42l-0.13,0a1.35,1.35,0,0,0-.74-0.16,1.54,1.54,0,0,0-1.42,1.58,7,7,0,0,0,.1,1.78l0,0.15c0,0.07,0,.19,0,0.21a2.09,2.09,0,0,0,.23.83,15.61,15.61,0,0,0-5.36,6.37c-2.21,4.83-3.32,9.44-10,7.28-2.89-.94-5.39-2.57-8.43-3.11-0.39-.07-0.78-0.1-1.17-0.14a0.94,0.94,0,0,0,.39-0.6,0.54,0.54,0,0,0,0-.31,1,1,0,1,0-1.92,0,1.06,1.06,0,0,0,.28.8,18.83,18.83,0,0,0-11,3.12,1,1,0,0,0-1-1.1,1,1,0,0,0-.27,1.95,1.54,1.54,0,0,0-.59.93c-0.45.33-.88,0.67-1.3,1a0.48,0.48,0,0,1-.08.18,6.17,6.17,0,0,1-1,1.08,12,12,0,0,1-.21-1.49c0-1.94-3-1.77-3,.16,0,0.58.19,1.17,0.24,1.75s0.17,1.33.26,2a1.87,1.87,0,0,0,0,.2c-0.36.46-.72,0.91-1,1.41-2.64,4-3.17,8.87-5.64,12.93a39,39,0,0,1-2.67,3.76c-3,.79-5.76-1.71-8.76-1.85a6.59,6.59,0,0,0-1.91.17c-0.72-3.11-2.71-5.47-3.15-8.73-0.33-2.41-1.14-3.41-3.39-4.56a13,13,0,0,0-7.41-1.28c-2.84.34-5.37,2.09-8.36,1.34-2.61-.65-4.65-2.78-6.55-4.55-5-4.66-10.34-9.26-17.57-9.36-3.08,0-5.36,1-8.08-1.58-0.66-.62-1.87-2.48-2.52-3.25a23.74,23.74,0,0,0-9-7,16.85,16.85,0,0,0-16.88,2.48c-1.83,1.54-3.42,3.53-3.47,6a16.17,16.17,0,0,0,.81,3.55c0.48,2.44,0,4.36.08,6.77a14.12,14.12,0,0,0,3.2,8.23,22.76,22.76,0,0,0,3.84,3.34,16,16,0,0,1,2.36,1.82,3.16,3.16,0,0,1,1.35,1.41l0.13,0.1c1.31,1.22,1.62,3.67-.19,4.61a2.46,2.46,0,0,1-2.16,0c-0.9,0-3.05-1.67-4.07-2a16.71,16.71,0,0,0-4.81-.83,17.46,17.46,0,0,0-9.29,2.56,1.5,1.5,0,0,0,1.51,2.59,14.31,14.31,0,0,1,8-2.06,1,1,0,0,0,.95,1.12,0.92,0.92,0,0,0,.95-0.89,16,16,0,0,1,4.24,1.48c1.82,0.93,3.34,2.08,5.5,1.37,4-1.31,4.1-6.17,2.28-9.18s-5.09-4.16-7.44-6.47c-3.73-3.67-2.92-7.52-3.11-12.17-0.06-1.47-.88-2.81-1-4.21-0.21-3.11,1.74-4.88,4.23-6.29a14,14,0,0,1,14.23.6c4.65,2.86,6.9,9.71,12.42,10.84,4.57,0.94,8.29-.51,12.78,1.76,3.77,1.9,6.57,5,9.67,7.73,4.39,3.92,7.88,5.13,13.56,3.71,3-.75,6.23-1.51,8.66,1,1.92,2,1,1.59,1.53,4,0.58,2.73,2.95,4.59,3.4,7.39a1.57,1.57,0,0,0,.05.2l-0.1.11a1.68,1.68,0,0,0-.29.2c-2.76,2.33-2.67,6.92-5,9.48a21.67,21.67,0,0,1-4.38,1.59c-3.35-.89-4.55-7.14-6.06-10.18a1.42,1.42,0,0,0,0-.16,10.11,10.11,0,0,0-1.39-1.56c-8.1-3.75-16.67-2.39-23.45,3.24H50.84a19.38,19.38,0,0,1-1.47,1.64A1,1,0,0,1,49,992c-1.75,1.73-3.37,3.6-5,5.43A0.92,0.92,0,0,0,43,996.5a1,1,0,0,0-.06,2c-0.73.78-1.47,1.55-2.25,2.28s-1.33,1.22-2,1.8a1,1,0,0,0-.91-1.31,1,1,0,0,0,0,2l0.08,0a47.73,47.73,0,0,1-14,7.76c-8.4,2.95-19.23.95-25.1,8.82A19.13,19.13,0,0,0-2.65,1022c-0.14.12-.28,0.23-0.42,0.37a0.89,0.89,0,0,0-.24.93c-2.77,6-3.17,13.82.59,19.08,4.88,6.84,14.48,7.34,20.22,13.22-4.48,1.46-9.48,1.43-14,2.81-2.57.79-9.23,1.16-10.44,4.16-0.55,1.36.33,4.18,0.6,5.47,0.48,2.35,2.5,4.62,2.66,6.95,0.46,6.89-12.42,7.66-16.14,10.88-3,2.59-1.7,7.37-1,10.73,1,4.64,1.69,9.93,5,13.58,2.64,2.89,7.25,4.86,11,6a26.25,26.25,0,0,0,7.4.82,18.87,18.87,0,0,1,6.31,1.49,1.46,1.46,0,0,0,.8.48c4.55,1.06,7.61,2.39,10.66,6a72.62,72.62,0,0,1,5.85,8.14c2.5,3.92,6.38,3.24,10.34,1.73,2.4-.91,4.14-2.43,6.34-3.67a9.51,9.51,0,0,1,3.81-1.18,0.89,0.89,0,0,0,1.44-.05,29.51,29.51,0,0,1,6,1c10.36,2.42,3.15,12.05,1.84,18.48-1.62,8,4.36,17.41,11.85,21.11,0,0.05,0,.09,0,0.15a12.5,12.5,0,0,0,.48,1.81l0,0.08a7.4,7.4,0,0,0,.1,1.86,0.82,0.82,0,0,0,.72.64c0,0.54,0,1.09,0,1.63,0,1.29,2,1.18,2-.11a13.91,13.91,0,0,1,.27-3.23c0.12-.52.4-1.07,0.52-1.62l0.71,0.17a0.46,0.46,0,0,1,.22.13,25.1,25.1,0,0,0,14.86-3.23c6.82-3.8,15.91-10.86,22.87-3.68,3.27,3.38,5.77,3.58,10.15,2,4-1.47,5.77-3.06,5.89-7.35,0.36-13.44,13.36-2.17,18.28,2.18,3.91,3.46,6.39,7.73,12.14,7a14.81,14.81,0,0,0,5.59-2,1,1,0,1,0,1.61-1,10.6,10.6,0,0,1,3.08-1.7c1.25-.25,6,1.46,6.85,2.2a19,19,0,0,1,1.44,1.79,15,15,0,0,0,3.79,3.11l0.23,0.08a3,3,0,0,0-.13.28,2.48,2.48,0,0,0-.18.45,2,2,0,0,0-.06.43,8.71,8.71,0,0,0-.14,1.22s0,0.09,0,.14,0,0,0,0c0,0.17,0,.32,0,0.46a1,1,0,0,0,2,.07,1.11,1.11,0,0,0,.07-0.13,1,1,0,0,0,.57-0.65c0,0.1.11-.07,0.15-0.1s0.3-.2.44-0.31,0.25-.24.39-0.35,0.42-.21.6-0.37l0,0,0.42,0.1a0.41,0.41,0,0,1,.35.46,20.16,20.16,0,0,0,4.65.42,0.89,0.89,0,0,0,.44.19,2.17,2.17,0,0,0,.47,1c0.31,0.36.57,0.92,0.92,1.31a5,5,0,0,1-.36.68c-0.67,1.1,1.13,2,1.79.89a4.65,4.65,0,0,0,.62-3.79,3.42,3.42,0,0,0-.32-0.63,12,12,0,0,0,8.54-5.91c1.29-2.26,1.38-4.47,1.9-6.94,1.1-5.21,5.53-8,10.63-6.67,4.18,1.1,13,2.73,16-1.77,2.55-3.86-1-10.12-2.91-13.49a53.63,53.63,0,0,0-4-5.95,1.45,1.45,0,0,0-.26-0.75c-1.11-1.64-1.8-3.73-2.87-5.46a68.9,68.9,0,0,0-4.69-7.5c-1.76-2.18-4.06-6-6.92-7l-0.56-.77-0.54-.34c-2.58-1.49-5.09-3.14-7.68-4.6-2.8-1.57-6.39-1.67-9-3.57a149.59,149.59,0,0,1-12.44-10.88c-2.18-2-4.73-4.87-7.51-6.86l0.47-.32c0.92-.59,1.84-1.16,2.76-1.75a12.77,12.77,0,0,0,1.06-.84c1.06-1.11,1.91-1.78,3.43-3.5,3.65-3.91,7.4-9.12,9.17-14.13a1.16,1.16,0,0,1,0-.21,11.74,11.74,0,0,0-.63-10.47,9.49,9.49,0,0,0-2.53-2.44,18.27,18.27,0,0,1,5.88-1.07l0,0c0.6,0,1.19-.06,1.79-0.05a17.87,17.87,0,0,1,5.52.72,82.25,82.25,0,0,1,12,4.25c0.42,0.06.85,0.13,1.29,0.22,7,1.48,12.46,2.89,19.36,3.75a42.42,42.42,0,0,0,7-.14,25,25,0,0,0,5.87-2,27.68,27.68,0,0,0,4.45-3.17,19.78,19.78,0,0,0,2-2,17.23,17.23,0,0,0,3.56-6.35,61.56,61.56,0,0,0,1-9.4c0-1.88.55-4.74,1.19-5.49,0,0,.22-0.24.31-0.35,1-1.19,1.54-2.08,2.84-2.28s1.93,0.35,3.1,1.58c0.89,1,1.82,2.68,2.46,3.5,1.49,1.91,3.19,3.51,5.65,3.92a8.56,8.56,0,0,0,5.37-.88,14,14,0,0,0,4.59-4.9,13.4,13.4,0,0,0,1.71-5.69c0.11-1,.15-1.93.17-2.91-0.13-1.9-.31-3.81-0.52-5.71-0.31-2.8-.62-5.45.08-8.12C280.68,1005.93,281.09,1003.41,281.6,1000.68ZM272.78,986a15.11,15.11,0,0,1,1.15,1.65,1.63,1.63,0,0,0,.33.79c-10.52,3.15-19.86,11.29-31.17,10.47,0.4-.52.78-1.06,1.14-1.62C254.4,995.07,262.06,985.62,272.78,986Zm-24.27-1.52a45.4,45.4,0,0,0,8.43-1.35q-4.65,3.3-9.36,6.51A31.11,31.11,0,0,0,248.51,984.45Zm-1.82,8.19q7.55-5.09,14.94-10.42c3.32-.44,6.45-0.24,9.15,1.78-9.32.67-16.33,8.12-25.14,10.83,0.34-.69.67-1.39,1-2.13ZM245.64,981c0,0.49,0,1,0,1.47a1.73,1.73,0,0,0,0,.63,28.26,28.26,0,0,1-.43,3.62,23.92,23.92,0,0,1-2.41,6.92c-1.94-3-5.55-3.56-8.66-5.18-4.56-2.39-7.88-6.4-10.86-10.49-3.44-4.71-6.59-9.84-10.78-13.89,4.93,0.82,10.21.22,15.1,1.48C235.82,967.71,242.57,973.22,245.64,981Zm-24.18,14.23c-1.83-3.06-4.56-5.45-7.07-7.93-5.93-5.84-8.44-14.3-14.73-19.67-9.93-8.49-25.72-8.49-38.8-7.1a23.15,23.15,0,0,1,6.59-2.6c5.51-1.16,11.28-.91,16.88-0.74,5.76,0.17,11.72.47,17.2,2.43,10,3.58,14.76,12.37,20.76,20.41a40.63,40.63,0,0,0,7.18,7.78c3.32,2.62,10.16,3.8,12,7.6a0.92,0.92,0,0,0,.15.19c-3.18,4.82-7.94,8.29-13.17,11.48C223.58,1006,223.68,999,221.46,995.26Zm4.76,13.18-1.13.67c-3.7,2.15-7.39,4.33-11.1,6.47-5.46-3.4-3.68-12-7.94-16.73-2.19-2.42-5.2-3.86-8-5.37a27.92,27.92,0,0,1-9.91-8.06c-4.38-5.84-8-11.31-14.46-15.09a34.75,34.75,0,0,0-8.78-3.61c-3.08-.79-7.27-0.68-10-2.6q0.91-.52,1.79-1.05c9.05-1.15,18.53-1.53,27.52.11,9.4,1.71,15.59,6,20.35,14.26a51.59,51.59,0,0,0,5.29,8.08c2.6,3,5.85,5.47,8.35,8.6C221.41,998.13,221.44,1006,226.22,1008.44Zm-6.76-55.13c6.14,1.56,12.06,3.79,16.88,7.72a25.51,25.51,0,0,1,8.61,14.29A27.12,27.12,0,0,0,234.31,966a32.73,32.73,0,0,0-10.39-3.09c-5.22-.67-10.72.21-15.54-2.08-0.57-.38-1.15-0.74-1.76-1.08a31.54,31.54,0,0,0-6.18-2.53c1.11-.37,2.22-0.85,3.43-1.29A42.73,42.73,0,0,1,219,953.42,1,1,0,0,0,219.46,953.32Zm-25-4.79c3.61,0.54,7.17,1.21,10.63,1.87,2.4,0.46,4.87.9,7.37,1.39a39,39,0,0,0-4.1.69c-3.42.79-7.54,3.41-11.2,3.37a6.07,6.07,0,0,1-2.14-.07,1,1,0,0,0-.2.15,94.08,94.08,0,0,0-15.11-.84C184.62,952.57,188.81,948,194.45,948.52Zm-19.6-1a74,74,0,0,1,13.49.24c-4.16,2-7.69,5.75-12.32,6.68-0.5.24-1,.47-1.53,0.69a1,1,0,0,1-.51.08A37.31,37.31,0,0,0,163.39,957,23.13,23.13,0,0,1,174.85,947.5ZM154.61,960c2.51-6.05,5.39-9.38,12-11.1,0.82-.21,1.64-0.4,2.47-0.57a25.11,25.11,0,0,0-8.28,9.24,1,1,0,0,0-.09.65c-1.47.81-3,1.89-4.62,2.93l-0.63.08a0.9,0.9,0,0,0-.92-0.72,0.93,0.93,0,0,0-.14,0C154.44,960.34,154.53,960.17,154.61,960Zm-2,5.32,0.33-.17c3.62,3.25,9.93,2.83,14.34,4.42a32.84,32.84,0,0,1,12.43,8c3,3.14,5.07,7,7.81,10.35a26.45,26.45,0,0,0,8.24,6.62c3.72,2,8.08,3.73,10.25,7.65,2.63,4.75,1.64,10.93,6.05,14.46l-2.44,1.38a36.64,36.64,0,0,1-6.1,2.69,48.94,48.94,0,0,1-14.68-15.62c-2.86-4.9-4.85-10.31-8.46-14.76-8-9.8-23.43-12.49-28.09-24.92Zm18.59,89.16a1,1,0,0,0,.07.22,18.48,18.48,0,0,1-13.76,1.11c-2-8.15,1.23-15.61,7.92-20.68,4-3.05,8.22-5.52,11.27-9.56,1.89-.1,3.8-0.11,5.7-0.1l0.06,0.05a1.07,1.07,0,0,0,1.39,0h0c-3.2,4.64-7.76,8.21-10.28,13.36A27.14,27.14,0,0,0,171.22,1054.46Zm-15.94.43a17.51,17.51,0,0,1-6.19-5,1.52,1.52,0,0,0,.78-1.9c1.49-3.28,1.86-7.07,3.68-10.32,4.61-8.25,12.22-11,20.46-11.89-4.45,4.92-11,7.48-15.09,12.88A20.71,20.71,0,0,0,155.28,1054.89ZM132.81,1079c-2.09-6.74-6.2-13.56-3.52-20.67,1-.05,1.92-0.15,2.88-0.29-0.78,10.74,7.77,19.63,7.28,30.37-2,1.83-3.53,4.17-5.4,6.17A36.34,36.34,0,0,0,132.81,1079Zm-1,17.61a28.3,28.3,0,0,1-10.08,4.88,31.08,31.08,0,0,1-6.46,1,0.82,0.82,0,0,0,.12-0.56c-0.93-7.76-1.88-15.54-2.06-23.36-0.1-4.66,0-9.37,2-13.65a37,37,0,0,1,5.19-7.49,24.6,24.6,0,0,0,6.62,1c-1.35,4.34-.71,8.68.78,13.1,2.85,8.44,5.45,15.61,3.83,24.73A1.05,1.05,0,0,0,131.8,1096.64Zm-40.31-1.45c-1.18-.79-2.33-1.62-3.44-2.5-1.78-1.42-3.36-3.25-5.09-4.82a9.84,9.84,0,0,0,2.6-5.69c0.74-5.3-.2-10.07,1.92-15.23,3.79-9.27,12.86-12.4,19.21-19.35a1,1,0,0,0,.1-0.16l0.59,0.59c-2.92,8.33-6.44,16.42-9.64,24.65C95.11,1079.47,91.23,1087.7,91.49,1095.2Zm-55.11-29.36s0,0,0,.05a21.42,21.42,0,0,1-4.27-.62c-2.07-4.82,3.12-9.63,5.91-13.06a19.25,19.25,0,0,0,4.17-8.35c1.7-8-.13-15.72,3.79-23.29a29,29,0,0,1,2.15-3.48,77.31,77.31,0,0,1-4.1,25.55C41.42,1050.26,36,1057.48,36.38,1065.84Zm-6.46-1.35c-4.17-2-6.28-6.14-9.1-9.64a21.78,21.78,0,0,0-3.15-3.17c1.91-6.74,11.08-8.44,15.36-13.58a16.48,16.48,0,0,0,3.29-6,21.59,21.59,0,0,0,.53-3.13q0.11-2.1.36-4.18,0.41-3.75,5.77-2.42l-0.07.16a34.9,34.9,0,0,0-2,11.94c-0.19,6.78-.8,12.19-5.32,17.55C32.55,1055.61,29.14,1060,29.92,1064.49ZM47,1039.81a79.84,79.84,0,0,0,3.06-25.22c0.48-.54,1-1.08,1.49-1.59-0.05,4.86,3.31,9.48,3.11,14.57-0.14,3.76-1.73,6.55-2.69,10a22.05,22.05,0,0,0-.56,6.77c-0.59,3.08.39,6.87,1.25,9.42,1.09,3.26,1.7,6.7-1.25,9.14a12.39,12.39,0,0,1-5.62,2.2,41.88,41.88,0,0,1-7.47.78,0.89,0.89,0,0,0,0-.1C37.95,1056.85,44.54,1048.31,47,1039.81Zm36.65-3c2.54,6.62,11,7.53,16.59,4.51-3,4.7-7.06,10.15-13.28,8.8-2.06-.45-3.7-1.47-5.5-1.9a1,1,0,0,0-.42-0.72c-5.49-4.14-4.46-11.41-3.69-17.35,0.62-4.72.84-9.16-.92-13.66-2-5.18-5.66-10.86-11-12.08h0A58.91,58.91,0,0,1,75.95,1002C89.23,1004.46,80.41,1028.24,83.69,1036.79Zm52.46,7.67a0.87,0.87,0,0,0-.15.33,4.86,4.86,0,0,1,.49,1.93,34.1,34.1,0,0,0,3,6.54c-0.33.14-.65,0.29-1,0.42a1,1,0,0,0-.22-0.11,0.86,0.86,0,0,1-.67.72,20.83,20.83,0,0,1-4.74.89l0,0c-6.87,1.07-14.23-.43-18.59-5.1a3,3,0,0,1-.83-0.88,1.26,1.26,0,0,0-.53-0.3l-0.24-.2c-2-14.32,12.81-24.05,19-35.57,2.79-5.18,3.47-10.56,3.86-16.36a53.82,53.82,0,0,1,5.64-21.67c-3.15,9.8-2.72,19.68-.16,30.13,1.09,4.44,1.9,8.8.76,13.34-0.78,3.12-2.28,6-3.46,9A34,34,0,0,0,136.14,1044.47Zm-2.25-52.73c-1,9-1.14,16.73-6.5,24.44-6.6,9.49-17.27,18.61-16.91,30.72a41.78,41.78,0,0,1-8-9.85c1.9-14.6,15.33-22.91,23.18-34.21,5.9-8.49,6.86-20.63,13.59-28.47A50.2,50.2,0,0,0,133.89,991.73ZM121.23,996a34.85,34.85,0,0,1-7.79,8.92c-3.13,2.45-6.76,4.09-10,6.36a19.2,19.2,0,0,0-6.5,7.15,40,40,0,0,1,.6-9.42c2.38-6.93,9.67-9.38,14.85-13.92,3.81-3.33,6.44-7.72,9.32-11.82,4-5.73,8.28-9.34,15-11.43l1-.31C130.27,977.89,126.57,987.71,121.23,996Zm-9.41,12.52a35.5,35.5,0,0,0,10.3-10.22c4.56-6.71,7.74-14.94,12.91-21.25-4.44,7.69-5.93,17.37-11.06,24.74-7.67,11-19.83,19-22.95,32.42a41.41,41.41,0,0,1-3.3-9.68C97.25,1016.08,105.74,1012.46,111.82,1008.56Zm-36.46,10.86c1.27,5-.07,10-0.51,15s0.33,10.15,4,13.7a6.76,6.76,0,0,0-.86.21,10.16,10.16,0,0,0-3,1.64,3,3,0,0,1-.26-0.37,0.9,0.9,0,0,0,0-.53c-3-9.25,1.55-18.94-1.75-28.35-2.09-6-6.29-12.18-12.53-14.06l0.41-.22a1,1,0,0,0,.43,0C68.74,1004.47,73.81,1013.33,75.36,1019.42Zm-2.86,9.23c0.38,6.77-1.8,13.29-.05,19.92a0.93,0.93,0,0,0-.08.68,5,5,0,0,0,1,2l-1.15,1c-1.05,1-2.26,2.53-3.62,3-4.31,1.49-5-3.61-5.3-6.73a20.27,20.27,0,0,0-.32-2.18c0.88-8.57,3.73-17.16,2.11-25.78-0.94-5-3.66-10.17-8.52-11.71,0.41-.28.84-0.53,1.26-0.8a0.86,0.86,0,0,0,.12,0C67,1009.49,72,1020.37,72.5,1028.65Zm-9,.79c-0.38,4.31-1.25,8.53-1.91,12.79-1.21-2.11-3.11-3.49-6-2.57a6.23,6.23,0,0,0-1.92,1,18.71,18.71,0,0,1,.83-4,37.34,37.34,0,0,0,2.13-7.38,21,21,0,0,0-.39-7.18c-0.82-3.62-3.39-7-2.36-10.93a1,1,0,0,0,0-.23l0,0a1.07,1.07,0,0,0,.81-0.44C63,1011.45,64,1023,63.46,1029.44Zm-10.14,36.06c0.68-.83,1.44-1.61,2.16-2.42h0a8.26,8.26,0,0,0,1.3-4.12c0.22-3.89-4.1-9.65-2.6-13.36a6.79,6.79,0,0,1,.7-2.91,0.79,0.79,0,0,1,.66-0.64l0.13,0a4.29,4.29,0,0,1,3.11.48,3,3,0,0,1,1.18,3.1,0.66,0.66,0,0,1,0,.12,12.11,12.11,0,0,1,.41,2.85c0.07,0.83.06,1.66,0.16,2.48a11.13,11.13,0,0,0,1.66,5.28,6.32,6.32,0,0,0,2.8,2.36c-2,2-4.5,3.1-6.69,5.05-4.68,4.18-3.1,11.85-7.38,16a11.22,11.22,0,0,1-1.87-3.45A9,9,0,0,1,53.32,1065.51Zm3.34,5.13c1.32-4.61,3.76-5.74,7.31-8.23a25.52,25.52,0,0,0,3.41-3.55c3.82-.82,7.67-6.06,10.83-7.41a5.18,5.18,0,0,1,3.55-.13c-5.53,3.28-10.86,7-14.92,12.1-4.84,6-6.84,13.77-10.93,20.3a15.78,15.78,0,0,1-3.68-2.49C55.05,1078.48,55.53,1074.57,56.66,1070.63Zm10.44-4.22c4.3-6.19,10.65-10.5,17.09-14.2a14.26,14.26,0,0,0,2.72.91,10,10,0,0,0,1.11.13c-5.85,3.65-13.74,4.65-17.54,10.82-4,6.51.26,14.16,0.88,21.1-4.1.55-8.12,1-12.23-.18-0.46-.13-0.91-0.3-1.36-0.47C61.34,1078.72,63.23,1072,67.1,1066.42Zm6.71-3.27c5-5,12.79-5.52,18.06-10.29,0.28-.08.57-0.15,0.85-0.25,4.63-1.65,7.58-5.7,10.11-9.72,0.83,1.09,1.71,2.15,2.65,3.16a0.93,0.93,0,0,0-.19.14c-5.58,6.1-13.54,9.12-17.9,16.44a26.5,26.5,0,0,0-3.46,9.69c-0.69,4.72,1,10.55-2.53,14.28-0.25-.18-0.49-0.36-0.75-0.52-2.37-1.48-4.62-1.51-7.31-1.16C72.56,1077.65,67.83,1069.05,73.81,1063.15Zm26.53,8.36c2.89-7.33,6-14.57,8.62-22,0.62,0.56,1.27,1.09,1.93,1.62,0.38,0.22.75,0.43,1.12,0.67a1,1,0,0,1,.47.8A17,17,0,0,0,114,1054a39.52,39.52,0,0,0-8.65,20.42c-0.53,4.89-.3,9.7-1.48,14.53a69.77,69.77,0,0,0-2.31,11.4c-1.17-.42-2.33-0.89-3.46-1.41a47.16,47.16,0,0,1-4.64-2.5,0.92,0.92,0,0,0,.08-0.46C92.92,1088,97.47,1078.78,100.34,1071.51Zm6.69,7.87c0.34-9.06,2.84-17.11,8.54-24.21a18.59,18.59,0,0,0,3,1.57c-3.84,4.81-6.75,9.65-7.2,16.12-0.67,9.64.85,19.53,2,29.08a1,1,0,0,0,.29.59A35.72,35.72,0,0,1,103.5,1101C103.84,1093.68,106.75,1086.79,107,1079.38Zm27.15-21.65c0.61-.13,1.22-0.27,1.82-0.43l1.19-.34c0.81,3.59,3.26,6.2,6,9a30.4,30.4,0,0,1,8.81,18.68c-3.68.09-7.37,0.49-10.52,2.36C141.12,1076.76,133,1068,134.18,1057.72Zm15.45,13.17c-3-4.95-9.29-8.82-10.51-14.56a29.69,29.69,0,0,0,3.8-1.63c3.49,3.7,6.6,7.06,11.26,9.38,6.2,3.1,14.38,11,12.08,18.53a0.18,0.18,0,0,0,0,.05l-0.45-.14a1.32,1.32,0,0,0-1.64.87,38.9,38.9,0,0,1-10.2,1.19h0A31.77,31.77,0,0,0,149.64,1070.89Zm-7.13-19.24a1,1,0,0,0-1.06.65l-0.16.08a31.85,31.85,0,0,1-3.18-7.18,1,1,0,0,0,.06-0.5c-1-7.45.86-13.51,3.63-20.31,2-4.82,3-9.14,2.23-14.35-1-6.71-3.37-12.92-3.42-19.79a44.49,44.49,0,0,1,2.49-14.8,13.52,13.52,0,0,0,.53,5.17c1.69,5.52,6.09,9.66,7.58,15.29,2.76,10.44-2,23.58,7.84,31.34a1.1,1.1,0,0,0,.23.14,27.11,27.11,0,0,0-6.82,6.45,23.34,23.34,0,0,0-3.34,6.39c-1.08,3.23-1.19,6.59-3.74,9.13A17.94,17.94,0,0,1,142.51,1051.65Zm39.37-29.31a32.34,32.34,0,0,1-7.58-10.17c-2.46-5.27-2.9-11.16-5-16.54-1.83-4.6-4.87-8.63-7.61-12.72L155.71,974c6.43,6.33,16,9.66,22.23,16.51,5,5.51,7.16,12.94,11.38,19a51,51,0,0,0,11.79,11.93,40.21,40.21,0,0,1-11.16,1.16C187.24,1022.56,184.55,1022.41,181.87,1022.35Zm-21.4-37.59c3.48,5.21,6.77,10.12,8.39,16.26,2.18,8.27,4.56,15.35,10.16,21.3a45.37,45.37,0,0,0-10.37,1,1,1,0,0,0-.43-0.61c-5.8-3.89-5.29-11.13-5.33-17.3a64.5,64.5,0,0,0-1.29-14.16c-1.64-7.08-7.62-13.13-10.11-19.9Zm-12.53-17.27a0.93,0.93,0,0,0,.12-0.57l0.38-.29c0.23,3.92,1.94,7.31,4.08,10.72,3.74,5.95,6.9,11.21,7.84,18.34,1.2,9.1-2.14,21.88,6.14,28.25a27.63,27.63,0,0,0-4.55,1.87c-0.39.21-.78,0.42-1.16,0.65a0.82,0.82,0,0,0-.34-0.61c-8.78-6.95-5.22-19.16-7-28.74-0.78-4.32-2.92-7.79-5.17-11.49C144.49,979.3,144.2,974,147.94,967.48Zm-24.59-2.08a1.4,1.4,0,0,0,.69-0.94,16,16,0,0,1,13.87-.61c1.11,0.44,2.24,1,3.39,1.43a48,48,0,0,1-8.66,1.59c-3.2.24-6.49,0-9.63,0.8a17.21,17.21,0,0,0-5.18,2.23A24.47,24.47,0,0,1,123.35,965.41Zm-13,19.73c1.47-2.45,2.16-5.19,3.12-7.83,3.79-6.29,9.59-8,16.62-8.32a63.65,63.65,0,0,0,14.71-2.59l0.47,0.09c-4.43,2.67-9.82,3.2-14.52,5.51s-7.85,6.19-10.74,10.32c-4.14,5.89-7.84,10.91-13.92,15a40.17,40.17,0,0,0-6.73,5.24,40.08,40.08,0,0,1,4.3-8.53C105.68,990.9,108.42,988.3,110.33,985.13Zm-16.9,4.66h0a1.59,1.59,0,0,0,.46-0.43c1.4-1.95,4.57-.25,6.2.35a13.59,13.59,0,0,0,2.56.71,42.75,42.75,0,0,0-2.52,3.49,1,1,0,0,0-.63-0.29,18.35,18.35,0,0,0-9,1.69C91.22,993.26,91.84,991.13,93.43,989.79Zm5.72,5.83a45.12,45.12,0,0,0-2.72,6.09,8.91,8.91,0,0,0-7.5-3.2A16.36,16.36,0,0,1,99.15,995.62Zm-13.61,5.63a1,1,0,0,0,.76,0,7.06,7.06,0,0,1,9.35,2.88c-0.35,1.16-.65,2.32-0.9,3.5a43.18,43.18,0,0,0-.69,4.42c-2.21-4.07-4.92-8.2-8.61-10.71Zm-5.54,0a6.38,6.38,0,0,0,2.42.59c5.09,2.23,8.3,7.95,10.86,12.9a0.87,0.87,0,0,0,.59.48,43.6,43.6,0,0,0,6.35,23.76,10.63,10.63,0,0,1-8.21,1.8c-5.15-1-6.95-5.12-6.92-9.84,0-5.72.87-11.5,0.42-17.21-0.38-4.89-2.34-9.86-6.21-12.34ZM72.92,989.4s0,0.08.05,0.11c1.57,2.63,2.4,6.67,4.35,9.41H77a1,1,0,0,0-.93.88l-0.79.12-0.76-.08a1.26,1.26,0,0,1-.21.11,3.33,3.33,0,0,1-.49.13l-0.08,0-0.11,0a0.93,0.93,0,0,1-.25,0H72.84a1,1,0,0,0-.11.19c-0.5.09-1,.18-1.5,0.29-0.92.2-1.83,0.44-2.74,0.69,0.56-3.68,3-6.95,1.54-10.76a7.77,7.77,0,0,0-1.69-2.6A19.45,19.45,0,0,1,72.92,989.4Zm-15.41,0a18,18,0,0,1,6.59-1.67,6,6,0,0,1,4.18,7.42c-0.56,2.35-1.66,4.39-1.87,6.83q-2,.65-3.94,1.47C62.47,998.16,57,994.86,57.51,989.37Zm-5.64,3.92c0.48-.45,1-0.89,1.49-1.31a20,20,0,0,1,2.08-1.48,10,10,0,0,0,.84,4.17c1.37,3.09,4.71,5.58,4.18,9.3a1.05,1.05,0,0,0,0,.36c-0.58.28-1.15,0.57-1.71,0.87-0.27.14-.52,0.31-0.78,0.46-0.43-1.79-1.71-3.09-3.15-4.41-1.11-1-2.48-2-3.07-3.45S51.62,994.85,51.87,993.29Zm-8.49,9c2.22-2.16,4.19-4.59,6.32-6.86a5.8,5.8,0,0,0,1,4.44c1.62,2.24,5.32,3.86,5.46,6.88-0.58.38-1.15,0.77-1.71,1.17a4.3,4.3,0,0,0-3.23-2c-1.68-.23-3.4.16-5.09,0a15.55,15.55,0,0,1-5.23-1.4Q42.17,1003.51,43.38,1002.33Zm-37.94,15.6c4.31-2.1,10-1.57,14.66-2.7A50.65,50.65,0,0,0,39.15,1006a17.89,17.89,0,0,0,5.12,1.77c1.37,0.24,7.44-.33,8.45,1.55a35.69,35.69,0,0,0-4.31,4.21,0.83,0.83,0,0,0-.1.11c-0.49.57-1,1.15-1.4,1.75-2.68-5.38-16,.18-19.6,1.92-3.12,1.5-6.17,3.07-9.65,3.49-3.74.45-7.15-.83-10.82-1.26a16.26,16.26,0,0,0-3.75,0A10.88,10.88,0,0,1,5.44,1017.94Zm-7.34,10.73a18.82,18.82,0,0,1,2.7-6.56c3.67-1.63,7.93,0,11.91.56a18.63,18.63,0,0,0,8.54-.57c3-.91,24-11.66,24.14-4.63a0.93,0.93,0,0,0,0,.13c-0.51.82-1,1.66-1.43,2.53a4.17,4.17,0,0,0-4.3-1.43c-5-.75-8.93,1.9-13.26,5.38-4.49,3.61-9,4.1-14.33,5.69a44.94,44.94,0,0,0-10,4.46,12.92,12.92,0,0,0-4,2.32A17.42,17.42,0,0,1-1.9,1028.67Zm0.84,10.19,0.32-.65a11,11,0,0,1,1-.78A0.87,0.87,0,0,0,1,1037.3c0.78-.51,1.56-1,2.35-1.46l0.08-.05a42.35,42.35,0,0,1,8.37-3.83c3.44-1.12,7.15-1.44,10.49-2.84,5-2.12,8.51-7,13.29-8.31-1.83.56-2.91,1.83-4.35,3.26-3,3-6.13,4.44-9.93,6.17a106.47,106.47,0,0,0-20.07,11.92A12.14,12.14,0,0,1-1.06,1038.86Zm17,11.54a28.64,28.64,0,0,0-3.19-1.86c-3-1.53-6.33-2.62-9.2-4.47-0.29-.18-0.56-0.38-0.83-0.58a102.81,102.81,0,0,1,18-10.82c2.85-1.33,5.91-2.39,8.51-4.18,2.24-1.54,4-4.46,6.47-5.58a18,18,0,0,0-.71,3.84c-0.72,8.06-4.6,12.09-11.42,16C20.21,1044.64,17.22,1046.8,16,1050.41Zm2.62,8,0.11,0a1.7,1.7,0,0,1,.76.32c0.3,0.18.59,0.38,0.88,0.56a1.14,1.14,0,0,0,.23.1,48.93,48.93,0,0,0,3.05,4c-2.78-.51-5.81-1.67-8.31-2.36-1.71-.47-3.82-0.66-5.78-1.07C12.55,1059.52,15.65,1059.37,18.58,1058.44ZM0.2,1062.58c1.86-.49,3.69-1.2,5.54-1.76,2.68,1.36,6.32,1.37,9.15,2.19,3.44,1,7.25,2.49,10.83,2.65a0.9,0.9,0,0,0,.23,0c0.33,0.25.67,0.5,1,.72a15,15,0,0,0,4.65,1.87l0.09,0.13a0.94,0.94,0,0,0,.23.19l0.73,0.08a1,1,0,0,0,.26-0.16,36.12,36.12,0,0,0,7.29.26,42.44,42.44,0,0,0,6.51-.74c-0.12.27-.22,0.55-0.32,0.82-4,1.58-9.29,1-13.44.91-5.65-.08-11.27.23-16.87-0.61-6.49-1-13-3.4-19.14-.72a9.43,9.43,0,0,1-.51-2.35C-3.74,1062.91-2.79,1063.37.2,1062.58Zm-2.48,7.67c7.3-3.3,17.41,1.33,25.18,1.47,4.68,0.09,9.39.08,14.06,0,2.82,0,6.1.12,8.94-.67a12.45,12.45,0,0,0-.1,1.34c-9.69,2.59-20.35,3.14-30.29,4.18-4.87.51-9.41,1.32-14.22,2.29-1,.2-2,0.47-3,0.76a4.94,4.94,0,0,0,1.25-2.91C-0.28,1074.46-1.35,1072.37-2.29,1070.24Zm-16.27,21.52a5.46,5.46,0,0,1,3.14-4.56c0.81-.37,1.81-0.43,2.65-0.77a39.12,39.12,0,0,0,5.53-3.08c3.61-.83,7.18-2,10.86-2.75,4.93-1,9.76-1.77,14.75-2.42,9.11-1.19,18.6-1.43,27.54-3.73a14.78,14.78,0,0,0,.3,1.55,0.9,0.9,0,0,0-.28,0c-6.06,1.13-11.73,4.1-17.66,5.81-7.19,2.06-14.72,3.11-22,4.95-6.13,1.55-11,3-16.32,6.45-1,.66-1.81,1.5-2.78,2.21s-2.45,1.23-3.49,2.12a5.2,5.2,0,0,0-1.15,1.41C-18.06,1096.46-18.78,1093.23-18.55,1091.77Zm8.92,18.77a11.15,11.15,0,0,1-3.77-2.13,14.58,14.58,0,0,1-3.13-6.15,1,1,0,0,0,.17-0.38c0.77-3.41,7.67-7.15,10.54-8.83,5.27-3.09,11.21-4,17.1-5.52,5.57-1.4,11.3-2.08,16.83-3.6,6-1.65,11.83-4.79,17.94-5.93a1,1,0,0,0,.65-0.41c0.15,0.41.32,0.82,0.5,1.22a1,1,0,0,0-.29.2c-1.69,1.72-5.39,2.15-7.56,3.1-2.66,1.17-5.34,1.84-8.1,2.75-2.55.84-4.75,2.35-7.34,3.08-2.76.78-5.52,1.28-8.24,2.27a49.44,49.44,0,0,0-14.87,8.3c-4.07,3.42-6.9,7.47-10.23,11.49A1,1,0,0,0-9.63,1110.53Zm11,3.52c-0.47,0-.93,0-1.4,0-3-.18-5.27-1.34-7.86-2.69,4-4.82,7.34-9.54,12.58-13.24a50.84,50.84,0,0,1,17.46-7.72,30.31,30.31,0,0,0,6-1.9c3.26-1.51,6.63-2.22,9.94-3.52,3.09-1.22,7.61-2.1,10.11-4.39,0.25,0.41.52,0.82,0.81,1.21a1.05,1.05,0,0,0,.81,1l0,0c-9.31,6.82-20.66,9.95-30.92,15.28-4.54,2.36-9.27,3.58-13.37,6.73C1.87,1107.64,1.41,1110.07,1.35,1114.05Zm4.15,0.16a17.12,17.12,0,0,0-2.13-.15,13.81,13.81,0,0,1,.68-3.76c0.77-2.53,1.71-3.1,3.7-4.58,2.48-1.84,5-2.71,7.92-3.79,3.7-1.39,7.1-3.56,10.65-5.32,8.61-4.28,17.24-6.68,24.94-12.39l0.4,0.32c-3.06,2.73-7.67,4.92-11,7-4.68,2.93-9.59,5.43-14.06,8.74-3.74,2.77-7.68,5.09-11.42,7.84-2.91,2.14-4.44,4.21-4.78,7.7A20.33,20.33,0,0,0,5.49,1114.22Zm12.89,4.59a18.08,18.08,0,0,0-6.11-2.33,1,1,0,0,0,.05-0.2c0.38-6.49,7.31-8.11,11.63-11.25,3.66-2.65,7.1-5.4,11-7.81L46.48,1090c2.24-1.41,4.81-2.49,6.81-4.23a17.85,17.85,0,0,0,7.86,2.53c-3.29,2.46-6,5.78-9.37,8.16-3.85,2.73-7.6,5.13-10.92,8.52-6,6.12-11.91,12.44-17.52,18.86A23.36,23.36,0,0,0,18.39,1118.81Zm20.86,10.53a0.84,0.84,0,0,0-.29.67,17.64,17.64,0,0,1-5.39,2.69c-4.6,1.17-6.33-4.12-8.79-7.09l-0.17-.21c5.35-6.13,11-12.14,16.68-18,3.55-3.67,7.46-6.36,11.6-9.29,3.89-2.76,6.95-6.8,11-9.27a0.88,0.88,0,0,0,.37-0.45c3.12,0,6.31-.47,9.67-0.5,0.23,0,.45,0,0.67,0-5.59,7.08-11.89,13-18.11,19.6-3.47,3.67-5.15,8.24-8.31,12.05A115.26,115.26,0,0,1,39.25,1129.34Zm8.06-2.55a13,13,0,0,0-3.26.5c1.94-2.08,3.81-4.24,5.63-6.41,3.16-3.78,4.88-8.43,8.31-12.05,6.5-6.86,13.08-13,18.86-20.55,0.24,0.07.46,0.16,0.69,0.24-4.62,7.92-11.81,13.85-17.63,20.86C55.57,1114.62,50.22,1120.43,47.31,1126.79Zm10,1.8a32.87,32.87,0,0,0-7.81-1.74c3.33-6.8,9.34-13.23,14.22-18.58,5.47-6,11.53-11.79,15.63-18.86,0.32,0.19.63,0.39,0.93,0.6h0a29.65,29.65,0,0,0-4.62,10.33c-1.3,4.7-3.24,9.32-4,14.13-0.49,3-1,5.16-2.74,7.68-1.18,1.68-2.58,3.15-3.79,4.78a32.16,32.16,0,0,0-3.2,5.3A7.85,7.85,0,0,0,57.29,1128.59Zm5.44,9.53a12.11,12.11,0,0,0,0-2.84c2.29-6.56,8.88-10.71,10.38-17.55,0.93-4.27,1.88-8.25,3.18-12.45,1.5-4.86,2.3-9.77,5.42-14a1,1,0,0,0,.07-0.14c1.57,1.31,3.07,2.82,4.76,4.13l0.75,0.56a107,107,0,0,1-17.59,35.35c-3.47,4.54-5.47,8.68-8,13.73-0.87,1.72-1.8,3.45-2.58,5.23C59.86,1146.16,62.18,1142.44,62.73,1138.13Zm0.87,25.27a20.36,20.36,0,0,1-4.18-7.41v0c0.6-5,4.2-9.55,6.12-14,2.45-5.67,6.41-10,9.89-15.11A107,107,0,0,0,89,1097.14c0.66,0.46,1.33.9,2,1.33-1.58,5.95-5.16,12.23-7.68,17.67-3,6.43-5.32,13.06-8.22,19.51a48.77,48.77,0,0,1-5.78,9.92,23.14,23.14,0,0,0-3.91,6.07A28,28,0,0,0,63.61,1163.4Zm12.8,5.72a15.37,15.37,0,0,1-10.63-3.63c-0.68-6.56.36-12.64,4.57-18a58.54,58.54,0,0,0,8.49-15.62c2.35-6.18,5.11-12,7.77-18.08,2-4.47,4.76-9.43,6.19-14.25,0.48,0.28,1,.58,1.46.85-0.36,1.81-1.29,3.65-1.73,5.44-0.76,3.11-1.39,6.33-1.92,9.49-1,5.88-.89,11.79-2.25,17.61a132.1,132.1,0,0,0-2.57,17.19c-0.63,6.27-1,12.63-4.39,18A19.21,19.21,0,0,1,76.41,1169.12Zm20-8.43c-4.27,1.71-8,4.41-12.1,6.29,4.48-9.15,3.26-20.58,5.32-30.43,1.29-6.18,1.85-12.08,2.59-18.34,0.41-3.44,1.18-6.85,1.89-10.24,0.48-2.27,1.51-4.41,2-6.65l1.37,0.62a1,1,0,0,0-.1.7c0.68,3.11,1.51,6,1.34,9.22a83.54,83.54,0,0,1-1.38,8.83,50.86,50.86,0,0,0-.11,15.6c0.74,4.45,2.78,9.27,4.7,13.35,1.13,2.4,2.51,4.44,3.3,7,0.23,0.74.46,1.47,0.7,2.19C102.72,1158.46,99.28,1159.54,96.4,1160.69Zm27.21-3.59c-0.36,4-1,6.75-5.31,7.61-5,1-5.65-3.1-9.26-5a8.49,8.49,0,0,0-.79-0.35c-0.62-1.77-.94-3.6-1.63-5.37s-2.05-3.47-2.89-5.27c-2.6-5.6-4.76-11.56-4.82-17.77a95.46,95.46,0,0,1,1.4-15.46c0.69-4.59.06-8.41-.87-12.79,0.91,0.34,1.83.65,2.75,0.93,1.74,4.51,3.41,8.31,3.48,13.33a26.9,26.9,0,0,0,2.86,12.67,95.9,95.9,0,0,0,8.23,13.14c2.81,3.79,7.13,7.79,6.91,12.9a0.94,0.94,0,0,0,.08.43C123.69,1156.46,123.64,1156.77,123.61,1157.1Zm24.32,3.51c-2.32-2.15-4.82-4-7.3-5.93-3.47-2.75-7.78-6.19-12.45-4.16a7.61,7.61,0,0,0-2.84,2,19.18,19.18,0,0,0-3.67-6.79c-3.17-4.14-6.44-8.1-9-12.69-1.49-2.7-3.25-5.4-4.15-8.37-1-3.22-.69-6.4-0.84-9.69-0.18-4.05-1.64-7.17-3.08-10.7a40.51,40.51,0,0,0,6.79,1c1.67,4.49,5.9,8.86,8.54,12.67,3.65,5.28,7.2,10.61,10.5,16.11a160,160,0,0,0,11,15.92c3.29,4.22,6.41,7.87,8.63,12.54C149.33,1162,148.64,1161.27,147.93,1160.61Zm8.92,5.29a6.74,6.74,0,0,1-3.88-1,0.89,0.89,0,0,0,0-.57c-4-10.63-12.9-18.58-18.94-28.16-3.42-5.43-6.68-11-10.31-16.25-1.75-2.56-3.52-5.1-5.27-7.66-1.42-2.09-3.54-4.4-4.76-6.82a32.83,32.83,0,0,0,15.62-3.65c3.36,4.4,7.66,7.89,10.82,12.49,3.32,4.83,5.67,10.44,9,15.35,4,6,7.77,12,7.93,19.49a40.91,40.91,0,0,0,.88,7.85C158.6,1160.43,157.45,1162.82,156.85,1165.9Zm2.19-.46c0.57-2,1.4-3.81,1.31-6-0.13-3-1.24-5.94-1.38-9a34.09,34.09,0,0,0-5.34-17.68c-3.83-5.82-7.25-11.67-10.71-17.69-3.18-5.53-8.07-9.3-11.88-14.25a29.72,29.72,0,0,0,2.57-1.77,34.84,34.84,0,0,0,3.2,4c2.42,2.91,4.08,6.24,6.14,9.39,3.8,5.8,9.53,11,14.07,16.21,3.66,4.2,8.3,10.29,10.67,15.36,1.65,3.52,1.84,7.66,2.36,11.51,0.21,1.57,0,3.3.19,4.9C166.17,1160.21,162.72,1164.13,159,1165.44Zm17.2-1.23c-1.2-1.37-2.22-2.74-4-3.42-0.27-1.24.07-2.91,0-4-0.11-1.54-.55-3-0.77-4.57-0.44-3-.19-6.64-1.53-9.41-1.13-2.35-3.42-4.1-4.86-6.29s-2.8-4.7-4.42-6.83c-4.31-5.67-9.63-10.58-14.19-16-2.41-2.89-4.22-6.25-6.28-9.4-1.43-2.18-3.94-4.18-5.09-6.49a33.14,33.14,0,0,0,2.28-2.49c5.12,5.82,11,11.09,15.17,17.67s7.46,12.57,12.82,18.12c2.84,2.94,5.49,5.67,8,8.86a58.47,58.47,0,0,1,5.58,9.26,29.22,29.22,0,0,1,3.36,11.63c0.34,3.18,1.58,6.24,1.89,9.37C180.67,1169.22,178.8,1167.13,176.24,1164.21Zm24-6.15c-0.72,2.13-.51,4.42-1.39,6.54-2.14,5.12-7.45,6.39-12.53,5.84-0.19-3.61-1.57-7-2-10.64-0.33-2.78-.55-5.62-1.67-8.21-2.68-6.22-6.54-13-11.34-17.88-6.2-6.24-11.36-12-15.72-19.68s-11.07-13.67-16.87-20.35c0.63-.75,1.27-1.49,2-2.21a11,11,0,0,1,2.89-2.14c0.83,1.67,2.37,3,3.62,4.37,2.73,3,5.59,5.79,8.6,8.57,5.41,5,10.62,10.1,16,15.09,2.74,2.53,5.15,5.41,8,7.84,3.7,3.17,7.84,5.88,11.12,9.51a27.87,27.87,0,0,1,6.23,10.63c1.13,3.52,3.31,7.46,3.77,11.14A12.14,12.14,0,0,0,200.22,1158.06Zm8.44-7.86a11.1,11.1,0,0,0-6.2,3.89c-0.6-2-1.59-3.74-2.44-6.06-1.14-3.1-1.69-6.4-3.41-9.28-4.51-7.56-12.46-11.49-18.32-17.73a219.57,219.57,0,0,0-16.59-16c-3.26-2.81-6.57-5.75-9.59-8.81-2-2-5.51-5-6.74-7.61a16.34,16.34,0,0,1,2.52-.61c2.81,2.3,5,5.49,7.66,8,2.47,2.3,4.81,4.35,7.45,6.41,6,4.72,11.87,9.82,17.45,15.07,5.31,5,10.91,9,16.68,13.39a42,42,0,0,1,9.19,9.27c2,2.93,2.86,6.49,3.55,10A8,8,0,0,0,208.66,1150.19Zm19.51-1.53a2.42,2.42,0,0,1-2.57,2.41c-1.75.72-5.09,0.52-6.52,0.47-2.46-.08-4.79-1-7.18-1.39-1.46-6.65-3.6-11.51-8.76-16.61s-11.64-9.26-17.29-14c-6.53-5.51-13-11.22-19.44-16.86-2.73-2.39-5.52-4.55-8.16-7s-5-5.48-7.64-8c0.87,0,1.74-.07,2.62-0.07,0.1,0,1.12,0,2.64,0,3.43,2.53,6.29,5.8,9.85,8.23s7.08,4.32,10.41,6.83a94.25,94.25,0,0,0,8,5.66c3.92,2.36,7.56,3.73,10.49,7.43,3.74,4.71,9,8.12,13.93,11.44a96.08,96.08,0,0,1,8.13,5.81,15.28,15.28,0,0,1,2.15,2.22C223.7,1138.05,228.28,1142.77,228.17,1148.67Zm-55.65-57.19c1.61,1.48,3.37,2.78,5,4.25s3.52,3.2,5.41,4.62c2.09,1.58,4.07,3.83,6.29,5.16s4.81,1.41,7.12,2.43c2.5,1.1,4.64,3,7,4.3a17.49,17.49,0,0,1,2.47,1.67,1.38,1.38,0,0,0,.6.46c2.76,2.37,4.7,5.35,7,8.23,1.37,2.81,2.78,5.61,4.42,8.26,0.16,0.26.33,0.5,0.49,0.76-2.21-1.93-4.73-3.65-7-5.31-1.89-1.36-4-2.49-6-3.79-4.21-2.8-7.3-6.27-10.51-10.07-2.26-2.67-5.45-3.4-8.41-5.09-3.66-2.09-6.85-4.75-10.26-7.19-3.61-2.58-7.57-4.64-11.13-7.3-2.2-1.65-4.12-3.61-6.18-5.41a35.11,35.11,0,0,0,7.94-1.35C169,1087.39,170.73,1089.82,172.52,1091.47Zm3-15.18c-0.41.45-.82,0.87-1.24,1.27a1.35,1.35,0,0,0-.55.5,23.51,23.51,0,0,1-5.23,3.66c1-5.74-2.61-10.35-6.64-14.32a24.87,24.87,0,0,0-7-5.27c-4.17-1.93-7.13-5.16-10.21-8.47a17.59,17.59,0,0,0,2.25-1.7,20.87,20.87,0,0,0,13,7.56,19.11,19.11,0,0,0,4.91.15c4.75,4.07,13.66,4.14,15.41,10.71A57.11,57.11,0,0,1,175.54,1076.29Zm6.11-8c-2.52-5.41-9.44-5.91-14.14-9.09a22.06,22.06,0,0,0,3.36-1.14,1.07,1.07,0,0,0,.42,0,15.52,15.52,0,0,1,13.11,4.27A25.3,25.3,0,0,1,181.65,1068.31Zm3.21-8.21a17.44,17.44,0,0,0-10-4.07q1.17-.7,2.34-1.5c1.08-.73,2.15-1.4,3.23-2C184.09,1054.23,185.18,1057,184.86,1060.1Zm-2.5-11.5a65.38,65.38,0,0,0-9.22,5.07,25.2,25.2,0,0,1,3.71-16.54c2.73-4.21,6.69-7.36,9.36-11.61l2.84,0.09h0.58A29.5,29.5,0,0,0,182.36,1048.59Zm1.91-.68a27.42,27.42,0,0,1,8.07-22.28c1.39,0,2.77-.07,4.15-0.19-1,2.36-.87,4.78-0.63,7.5,0.47,5.34-.18,9.93-3.47,14.13A20.84,20.84,0,0,0,184.28,1047.91Zm10.39-.54a18.07,18.07,0,0,0,3.23-7.67c0.77-4.78-1.53-10.16,1-14.54,0.84-.13,1.67-0.28,2.5-0.47a15.92,15.92,0,0,0,.68,7.24c1.8,6.17,2.94,11.5-.76,17A53.08,53.08,0,0,0,194.67,1047.37Zm15.88,4.73c-2.46-.87-4.91-1.75-7.32-2.53A16.83,16.83,0,0,0,206,1041c0.18-5.74-4-11.26-2.5-16.89,0.65-.2,1.3-0.43,1.94-0.69l1-.43c-0.76,2.75-.09,5.63,1.13,8.46C210.7,1038.63,212.83,1044.49,210.55,1052.1Zm13.26,3.93a83.37,83.37,0,0,1-11.37-3.27,25,25,0,0,0,.69-12.89c-1.27-5.82-7.37-12.28-4-18.11,1.33-.66,2.65-1.36,4-2.1-0.84,5-.9,9.36,2.41,13.58,2.4,3.06,5,5.55,6.59,9.17a23.74,23.74,0,0,1,1.69,13.26A1,1,0,0,0,223.81,1056Zm15.65-1.16a24.37,24.37,0,0,1-13.78,1.47,0.87,0.87,0,0,0,0-.13,26.09,26.09,0,0,0-2.14-15.42,29.11,29.11,0,0,0-4.63-6.62c-4.19-4.75-4.88-8.68-3.76-14.86a1,1,0,0,0-.15-0.75c1.18-.69,2.34-1.39,3.51-2.1,0,6,5.31,9.65,9.77,13.39C234.76,1035.25,241.89,1046,239.46,1054.87Zm6.39-4.38a23.31,23.31,0,0,1-4.11,3.18c0.83-5.85-1.87-12.35-4.88-17.13a34.69,34.69,0,0,0-7.13-8.12c-4.14-3.46-10-7-9.09-13.24,0.85-.51,1.69-1,2.54-1.51,0.45,5.28,5.72,8.85,9.7,11.85,6.48,4.88,15.56,6.51,17.55,15.35A14.81,14.81,0,0,1,245.85,1050.5Zm7-22.87c-2,2.48-2.19,5.3-2.23,8.27a16.91,16.91,0,0,0-8-6.84c-5.78-2.67-17.77-9.09-17.53-16.52,1.17-.67,2.33-1.35,3.49-2a20.09,20.09,0,0,0,11.61,8,36.48,36.48,0,0,0,8.57,1c5,0.18,7.67,2.2,10.12,5.6A6.32,6.32,0,0,0,252.89,1027.63Zm22.5,3.79c-2.46,2.66-6.31,3.07-9,.3-1.12-1.16-1.83-2.7-2.89-3.92a9.74,9.74,0,0,0-1.15-1.12,0.94,0.94,0,0,0-.07-0.18c-2.95-4.84-6-8.59-12-9-7.8-.52-15.32-1.23-19.95-8,0.68-.41,1.35-0.83,2-1.26,4.74,5.53,11.12,7.91,18.45,7.88,5.21,0,10.53-.89,15.56.88a15.09,15.09,0,0,1,9.59,11.21c0.13,0.57.5,1.78,0.5,1.78A3.16,3.16,0,0,1,275.39,1031.42Zm2.26-4.67a17.23,17.23,0,0,0-13.85-12.54c-4.88-.84-9.81.1-14.72-0.13a20.65,20.65,0,0,1-15.06-7c0.52-.36,1.05-0.7,1.56-1.08a25.77,25.77,0,0,0,16.76,6.14c7.36-.09,20-7.8,24.47,1.49a0.85,0.85,0,0,0,.44.42c0.05,0.67.11,1.35,0.18,2a1.19,1.19,0,0,0,0,.34c0.06,0.59.12,1.19,0.18,1.79A29,29,0,0,1,277.65,1026.75Zm0-22a27.45,27.45,0,0,0-.52,5,1.77,1.77,0,0,0,0,.41c0,0.09,0,.18,0,0.27-2.92-3.29-7.72-3.81-12.12-2.95s-8.68,2.74-13.38,2.64a23.65,23.65,0,0,1-14.37-5.4c0.33-.27.67-0.53,1-0.8a1,1,0,0,0,.39.23,35.53,35.53,0,0,0,17,1.41c7.38-1.25,14.45-7.18,22-6a1,1,0,0,0,1.12-.62C278.48,1001.09,277.94,1003.13,277.6,1004.8Zm1.29-6.46a0.78,0.78,0,0,0-.69-0.62c-6.22-1-11,2.07-16.66,4.2a33.26,33.26,0,0,1-21.69.58c0.59-.57,1.18-1.15,1.72-1.77,13,1.55,22.91-8,35-10.85C279.08,991.82,279.32,995.07,278.89,998.33Z" transform="translate(21.69 -941.29)"/></svg>