<svg id="Layer_8" data-name="Layer 8" xmlns="http://www.w3.org/2000/svg" viewBox="0 0 29.59 68.55"><defs><style>.cls-1{fill:#fff;}</style></defs><title>lonkero3</title><path class="cls-1" d="M398.81,675.22a1,1,0,0,0-1-.49c-1.27.22-.81,2.17,0.45,1.95a0.89,0.89,0,0,0,.47-0.24c-0.45,3.59-1.29,7.14-1.95,10.7-0.4,2.18-.55,4.4-0.9,6.58-0.1.59-1.36,7.92-1.92,8.09-2.5.79-2.73-14.49-2.56-15.66,0.59-4,1.2-7.9.79-12-0.45-4.55-3.21-8.18-5.33-12.1-2.6-4.81-6.8-8.5-9.35-13.22a1.36,1.36,0,0,0-1.37-.75,9.51,9.51,0,0,1-.66-2.55s0-.07,0-0.11c3.81-1.76,7.62-3.55,11.52-5.1l0,0.05a31.81,31.81,0,0,1,5.37,7.1,1,1,0,0,0,.91,1.58c0.54,1,1,1.93,1.49,2.82a1,1,0,0,0,.48,1.94,1,1,0,0,0,.35-0.14c2.05,4.83,2.92,10.85,3.33,15.93A31.36,31.36,0,0,1,398.81,675.22Z" transform="translate(-372.49 -637.65)"/><path d="M402,669.56c-0.44-5.69-1.58-12.68-3.83-18-1.08-2.53-3.06-4.69-4.56-7-1.28-2-2.48-4.3-4.16-6a1,1,0,0,0-1.27-.93c-5.08,1.87-9.91,4.26-14.83,6.5a1,1,0,0,0-.62,1,1.48,1.48,0,0,0-.22,1.06,10.35,10.35,0,0,0,1.39,4c-0.76,2.6.26,5.62,2.57,6.41a2.84,2.84,0,0,0,.4,3.26,4.76,4.76,0,0,0,3.09,1.55,4.26,4.26,0,0,0-.28,2.59,2.48,2.48,0,0,0,2.38,2,3.71,3.71,0,0,0,.06,2.83,3.4,3.4,0,0,0,3.37,1.77,3.52,3.52,0,0,0-.45,3.11,2.29,2.29,0,0,0,1.09,1.27,3.39,3.39,0,0,0-.94,2.35,5.12,5.12,0,0,0,.91,3.38,3.32,3.32,0,0,0,.3.29,3.52,3.52,0,0,0-1.19,2.5,4.36,4.36,0,0,0,1.21,3.59,5.13,5.13,0,0,0-1,3.59,4.28,4.28,0,0,0,2.86,4,27.16,27.16,0,0,0,1.85,7.9c1,2.41,3.58,5.1,6,2.37,1.32-1.49,1.55-5.67,2-7.5,0.69-2.77.87-5.54,1.31-8.35C400.45,682.67,402.52,676.25,402,669.56Zm-26.4-17.68a1.7,1.7,0,0,0,.33.13c0.72,1,1.53,1.89,2.34,2.8C376.44,655.1,375.5,653.53,375.59,651.88Zm3.65,4.76a1.07,1.07,0,0,0,.38-0.23v0c0.7,0.88,1.34,1.78,1.93,2.7C379.8,660.63,376.77,657.49,379.24,656.63Zm2.45,7.17c-0.43-.7.29-2.34,1.09-2.68,0.53,0.92,1.05,1.84,1.57,2.78a0.9,0.9,0,0,0-.15,0C383.6,664,382.1,664.47,381.69,663.81Zm2.42,4.49c-0.56-.58-0.29-2.2.53-2.44a0.89,0.89,0,0,0,.58-0.38l0.62,1.13c0.38,0.67.72,1.3,1,1.91C386,668.7,384.74,669,384.11,668.3Zm3.86,2.59a16.83,16.83,0,0,1,.77,2.45,2,2,0,0,1-1.76-.12C386.45,672.66,387.26,671.28,388,670.89Zm0.12,21.53a2.25,2.25,0,0,1-.68-1.53c-0.09-.83,0-2.12.73-2.66A40.68,40.68,0,0,0,388.09,692.42Zm0.29-6.78c0,0.11,0,.24,0,0.35-0.91,0-1.19-1.18-1.16-2.09a2.69,2.69,0,0,1,.12-0.73,1.41,1.41,0,0,1,.26-0.48c0.05-.06,0-0.07.12,0a3.82,3.82,0,0,1,.59.4,1,1,0,0,0,.42.23C388.61,684.06,388.5,684.83,388.39,685.63Zm0.66-5.19a2.77,2.77,0,0,1-1.76-1.81c-0.32-1.45,0-2.83,1.7-2.48a1,1,0,0,0,.16,0c0,0.41,0,.83,0,1.28C389.2,678.47,389.13,679.46,389,680.44Zm9.77-5.23a1,1,0,0,0-1-.49c-1.27.22-.81,2.17,0.45,1.95a0.89,0.89,0,0,0,.47-0.24c-0.45,3.59-1.29,7.14-1.95,10.7-0.4,2.18-.55,4.4-0.9,6.58-0.1.59-1.36,7.92-1.92,8.09-2.5.79-2.73-14.49-2.56-15.66,0.59-4,1.2-7.9.79-12-0.45-4.55-3.21-8.18-5.33-12.1-2.6-4.81-6.8-8.5-9.35-13.22a1.36,1.36,0,0,0-1.37-.75,9.51,9.51,0,0,1-.66-2.55s0-.07,0-0.11c3.81-1.76,7.62-3.55,11.52-5.1l0,0.05a31.81,31.81,0,0,1,5.37,7.1,1,1,0,0,0,.91,1.58c0.54,1,1,1.93,1.49,2.82a1,1,0,0,0,.48,1.94,1,1,0,0,0,.35-0.14c2.05,4.83,2.92,10.85,3.33,15.93A31.36,31.36,0,0,1,398.81,675.22Z" transform="translate(-372.49 -637.65)"/><path d="M394.79,672.2c-1.27.22-.81,2.17,0.45,1.95S396.05,672,394.79,672.2Z" transform="translate(-372.49 -637.65)"/><path d="M395.71,674.58c-1.27.22-.81,2.17,0.45,1.95S397,674.36,395.71,674.58Z" transform="translate(-372.49 -637.65)"/><path d="M396.9,678.43c-1.27.22-.81,2.17,0.45,1.95S398.16,678.21,396.9,678.43Z" transform="translate(-372.49 -637.65)"/><path d="M393.12,659.81c-1.27.22-.81,2.17,0.45,1.95S394.38,659.58,393.12,659.81Z" transform="translate(-372.49 -637.65)"/><path d="M395.55,656.33c-1.27.22-.81,2.17,0.45,1.95S396.82,656.11,395.55,656.33Z" transform="translate(-372.49 -637.65)"/><path d="M392.51,656.36c-1.27.22-.81,2.17,0.45,1.95S393.77,656.14,392.51,656.36Z" transform="translate(-372.49 -637.65)"/><path class="cls-1" d="M388.75,673.34a2,2,0,0,1-1.76-.12c-0.53-.56.28-1.94,1-2.33A16.83,16.83,0,0,1,388.75,673.34Z" transform="translate(-372.49 -637.65)"/><path class="cls-1" d="M375.59,651.88a1.7,1.7,0,0,0,.33.13c0.72,1,1.53,1.89,2.34,2.8C376.44,655.1,375.5,653.53,375.59,651.88Z" transform="translate(-372.49 -637.65)"/><path class="cls-1" d="M379.24,656.63a1.07,1.07,0,0,0,.38-0.23v0c0.7,0.88,1.34,1.78,1.93,2.7C379.8,660.63,376.77,657.49,379.24,656.63Z" transform="translate(-372.49 -637.65)"/><path class="cls-1" d="M381.69,663.81c-0.43-.7.29-2.34,1.09-2.68,0.53,0.92,1.05,1.84,1.57,2.78a0.91,0.91,0,0,0-.15,0C383.6,664,382.1,664.47,381.69,663.81Z" transform="translate(-372.49 -637.65)"/><path class="cls-1" d="M384.11,668.3c-0.56-.58-0.29-2.2.53-2.44a0.89,0.89,0,0,0,.58-0.38l0.62,1.13c0.38,0.67.72,1.3,1,1.91C386,668.7,384.74,669,384.11,668.3Z" transform="translate(-372.49 -637.65)"/><path class="cls-1" d="M388.09,692.42a2.25,2.25,0,0,1-.68-1.53c-0.09-.83,0-2.12.73-2.66A40.68,40.68,0,0,0,388.09,692.42Z" transform="translate(-372.49 -637.65)"/><path class="cls-1" d="M388.39,685.63c0,0.11,0,.24,0,0.35-0.91,0-1.19-1.18-1.16-2.09a2.69,2.69,0,0,1,.12-0.73,1.41,1.41,0,0,1,.26-0.48c0.05-.06,0-0.07.12,0a3.82,3.82,0,0,1,.59.4,1,1,0,0,0,.42.23C388.61,684.06,388.5,684.83,388.39,685.63Z" transform="translate(-372.49 -637.65)"/><path class="cls-1" d="M387.29,678.64c-0.32-1.45,0-2.83,1.7-2.48a1,1,0,0,0,.16,0c0,0.41,0,.83,0,1.28,0,1-.06,2-0.15,3A2.77,2.77,0,0,1,387.29,678.64Z" transform="translate(-372.49 -637.65)"/></svg>