<svg id="Layer_8" data-name="Layer 8" xmlns="http://www.w3.org/2000/svg" viewBox="0 0 34.07 78.75"><defs><style>.cls-1{fill:#fff;}</style></defs><title>lonkero1</title><path class="cls-1" d="M335,727.31c-1.19-.41-3.5-6.35-4.13-7.46a47.6,47.6,0,0,0-4.57-6.91,1,1,0,0,0,.66.12c1.27-.22.81-2.17-0.45-1.95a0.89,0.89,0,0,0-.68,1.26c-2.44-2.85-4.84-5.6-7-8.58a1,1,0,0,0-.58-1.9,0.87,0.87,0,0,0-.51.29,36.83,36.83,0,0,1-3.09-5.7,34.38,34.38,0,0,1-2.2-8.87,1,1,0,0,0,.35,0c1.27-.22.81-2.17-0.45-1.95a0.9,0.9,0,0,0-.12,0c-0.27-2.47-.45-4.93-0.68-7.22a93.94,93.94,0,0,1-.66-10.55c0-2.93.68-5.8,0.4-8.7a31.61,31.61,0,0,1,5.7-2.12c1.95-.66,3.84-1.39,5.79-2,1,6.16-1.33,13.09-2.3,19.22-0.94,6,.57,11.12,2.28,16.78,1.92,6.37,3.81,11.7,7.31,17.42,1.63,2.67,3.8,5,5.43,7.63C336.73,718.15,339.67,728.93,335,727.31Z" transform="translate(-308.02 -652.68)"/><path d="M341.52,713.61a4.36,4.36,0,0,0-3.3-1.38c0.46-1.59.8-3.6-.48-4.75a3.86,3.86,0,0,0-2.84-.69c1-1.44,1.33-3.3-.11-4.63a4.91,4.91,0,0,0-2.68-.85l-0.49-.09a7.79,7.79,0,0,0,.22-3.86A3,3,0,0,0,330,695a2.71,2.71,0,0,0-.93-0.15,3.34,3.34,0,0,0,.65-2.89c-0.39-1.87-2.05-2.3-3.69-2.56,1.78-1.86,1.56-6.55-.73-7.91a4.78,4.78,0,0,0,1.44-2.62c0.31-1.92-1.07-3-2.48-3.89a6.48,6.48,0,0,0,2.67-.74,3.83,3.83,0,0,0,1.66-3c0.15-1.93-1.12-2.44-2.47-3a3.24,3.24,0,0,0,1.8-2.43,4.3,4.3,0,0,0-1-3.24,5.1,5.1,0,0,0,2.85-4c0.41-3-1.83-3.68-4-4.91a1,1,0,0,0-.21-0.07,1.32,1.32,0,0,0-1.23-.85,1,1,0,0,0-.45,0c-2.85.77-5.55,1.88-8.35,2.77a23.84,23.84,0,0,0-5.59,2.25,1.62,1.62,0,0,0-1.56,1.81c0.57,4.5-.56,9.45-0.28,14.06,0.18,3,.32,6.07.71,9.05,0.88,6.79,2.09,13.27,5.46,19.27,4,7.11,10,12.31,14,19.35,1.36,2.39,4.18,10.89,8.15,10.11,4.41-.87,4.57-7.41,4-11.23a1,1,0,0,0,.29-0.41C341.32,718,342.95,715.42,341.52,713.61Zm-7.23-4.75a4.36,4.36,0,0,1,2,0c0.73,0.45.31,2,0,3-0.72-1-1.43-2-2.13-3h0.18Zm-3-5.68a12,12,0,0,1,1.7.28c1.59,0.56.42,2.24-.45,3.05-0.77-1.16-1.51-2.34-2.21-3.55C330.61,703,330.92,703.12,331.27,703.19Zm-1.51-5.9c0.39,0.65.47,3.54-.48,3.69H329.2l-0.12-.23a32.68,32.68,0,0,1-1.62-3.89C328.22,696.83,329.3,696.52,329.76,697.29ZM327.61,692a1.48,1.48,0,0,1-.15,1.77,2,2,0,0,1-.83.51q-0.45-1.49-.86-3A2.75,2.75,0,0,1,327.61,692Zm-2.82-13.5a2.7,2.7,0,0,1-1.49,2,23.68,23.68,0,0,1,0-3.83C324.06,677.12,324.84,677.68,324.79,678.49Zm0,9.23-0.11-.38a37.9,37.9,0,0,1-1-4.17C325.57,683,325.45,686.47,324.77,687.72Zm1.84-16.83c0.23,1.72-1.47,2-2.84,2.16,0.2-1.13.42-2.26,0.66-3.38,0.37,0.16.74,0.31,1.12,0.44A1.16,1.16,0,0,1,326.61,670.89Zm-0.69-15c1,0.44,1.93,1,1.86,2.15a3.06,3.06,0,0,1-1.86,2.76A26,26,0,0,0,325.93,655.9Zm-0.4,8.15a2.25,2.25,0,0,1,.44,1.3,1.34,1.34,0,0,1-.9,1.2C325.23,665.72,325.39,664.89,325.52,664.05ZM335,727.31c-1.19-.41-3.5-6.35-4.13-7.46a47.6,47.6,0,0,0-4.57-6.91,1,1,0,0,0,.66.12c1.27-.22.81-2.17-0.45-1.95a0.89,0.89,0,0,0-.68,1.26c-2.44-2.85-4.84-5.6-7-8.58a1,1,0,0,0-.58-1.9,0.87,0.87,0,0,0-.51.29,36.83,36.83,0,0,1-3.09-5.7,34.38,34.38,0,0,1-2.2-8.87,1,1,0,0,0,.35,0c1.27-.22.81-2.17-0.45-1.95a0.9,0.9,0,0,0-.12,0c-0.27-2.47-.45-4.93-0.68-7.22a93.94,93.94,0,0,1-.66-10.55c0-2.93.68-5.8,0.4-8.7a31.61,31.61,0,0,1,5.7-2.12c1.95-.66,3.84-1.39,5.79-2,1,6.16-1.33,13.09-2.3,19.22-0.94,6,.57,11.12,2.28,16.78,1.92,6.37,3.81,11.7,7.31,17.42,1.63,2.67,3.8,5,5.43,7.63C336.73,718.15,339.67,728.93,335,727.31Zm4.63-10a17.37,17.37,0,0,0-1.71-3.09A2.24,2.24,0,0,1,340,715,3.15,3.15,0,0,1,339.61,717.31Z" transform="translate(-308.02 -652.68)"/><path d="M321.66,703.83c-1.27.22-.81,2.17,0.45,1.95S322.92,703.61,321.66,703.83Z" transform="translate(-308.02 -652.68)"/><path d="M323.65,706.53c-1.27.22-.81,2.17,0.45,1.95S324.92,706.31,323.65,706.53Z" transform="translate(-308.02 -652.68)"/><path d="M326.63,709.05c-1.27.22-.81,2.17,0.45,1.95S327.9,708.83,326.63,709.05Z" transform="translate(-308.02 -652.68)"/><path d="M324.61,703.32c-1.27.22-.81,2.17,0.45,1.95S325.88,703.09,324.61,703.32Z" transform="translate(-308.02 -652.68)"/><path d="M323.83,698.88c-1.27.22-.81,2.17,0.45,1.95S325.1,698.66,323.83,698.88Z" transform="translate(-308.02 -652.68)"/><path d="M316.31,685c-1.27.22-.81,2.17,0.45,1.95S317.58,684.75,316.31,685Z" transform="translate(-308.02 -652.68)"/><path d="M313.91,682.86c-1.27.22-.81,2.17,0.45,1.95S315.17,682.64,313.91,682.86Z" transform="translate(-308.02 -652.68)"/><path d="M314,680.31c-1.27.22-.81,2.17,0.45,1.95S315.23,680.09,314,680.31Z" transform="translate(-308.02 -652.68)"/><path d="M314.93,677.1c-1.27.22-.81,2.17,0.45,1.95S316.19,676.87,314.93,677.1Z" transform="translate(-308.02 -652.68)"/><path class="cls-1" d="M325.93,655.9c1,0.44,1.93,1,1.86,2.15a3.06,3.06,0,0,1-1.86,2.76A26,26,0,0,0,325.93,655.9Z" transform="translate(-308.02 -652.68)"/><path class="cls-1" d="M325.52,664.05a2.25,2.25,0,0,1,.44,1.3,1.34,1.34,0,0,1-.9,1.2C325.23,665.72,325.39,664.89,325.52,664.05Z" transform="translate(-308.02 -652.68)"/><path class="cls-1" d="M324.43,669.67c0.37,0.16.74,0.31,1.12,0.44a1.16,1.16,0,0,1,1.06.79c0.23,1.72-1.47,2-2.84,2.16C324,671.92,324.2,670.79,324.43,669.67Z" transform="translate(-308.02 -652.68)"/><path class="cls-1" d="M323.28,676.66c0.77,0.45,1.56,1,1.51,1.83a2.7,2.7,0,0,1-1.49,2A23.68,23.68,0,0,1,323.28,676.66Z" transform="translate(-308.02 -652.68)"/><path class="cls-1" d="M324.66,687.34a37.91,37.91,0,0,1-1-4.17c1.92-.17,1.81,3.3,1.12,4.55Z" transform="translate(-308.02 -652.68)"/><path class="cls-1" d="M325.78,691.28a2.75,2.75,0,0,1,1.84.72,1.48,1.48,0,0,1-.15,1.77,2,2,0,0,1-.83.51Q326.19,692.78,325.78,691.28Z" transform="translate(-308.02 -652.68)"/><path class="cls-1" d="M329.28,701H329.2l-0.12-.23a32.68,32.68,0,0,1-1.62-3.89c0.75,0,1.84-.34,2.3.43S330.23,700.83,329.28,701Z" transform="translate(-308.02 -652.68)"/><path class="cls-1" d="M332.51,706.52c-0.77-1.16-1.51-2.34-2.21-3.55,0.31,0.05.62,0.14,1,.21a12,12,0,0,1,1.7.28C334.56,704,333.38,705.71,332.51,706.52Z" transform="translate(-308.02 -652.68)"/><path class="cls-1" d="M336.26,711.88c-0.72-1-1.43-2-2.13-3h0.18a4.36,4.36,0,0,1,2,0C337,709.36,336.59,710.88,336.26,711.88Z" transform="translate(-308.02 -652.68)"/><path class="cls-1" d="M339.61,717.31a17.38,17.38,0,0,0-1.71-3.09A2.24,2.24,0,0,1,340,715,3.15,3.15,0,0,1,339.61,717.31Z" transform="translate(-308.02 -652.68)"/></svg>