<svg id="Layer_8" data-name="Layer 8" xmlns="http://www.w3.org/2000/svg" viewBox="0 0 35.58 85.1"><defs><style>.cls-1{fill:#fff;}</style></defs><title>lonkero2</title><path class="cls-1" d="M368.26,726.27c-2.06,1.73-8.15-11.43-9.41-13.18-2.33-3.25-4.86-6.46-6.42-10.18-1.35-3.22-1.85-6.63-2.85-9.94-2.15-7.13-3.77-14.21-5.27-21.51-1.56-7.59-1.49-15.39-2.19-23.07a1.49,1.49,0,0,0-.13-0.48c1.77-.14,11-0.33,12-0.39,2.48-.13,4.9-0.29,7.35-0.21a23.71,23.71,0,0,1,.42,5.72c-0.24,3.65-.69,7.26-1,10.92a111.62,111.62,0,0,0,.11,20.28,77.08,77.08,0,0,0,1.66,9.36h-0.12a0.89,0.89,0,0,0-.79,1.11h-0.09c-1.28.14-1,2.11,0.32,2a0.89,0.89,0,0,0,.79-1.11h0.09a0.94,0.94,0,0,0,.24-0.08c0.9,3.72,1.89,7.42,2.66,11.18,0.7,3.47,1.47,6.82,1.85,10.35C367.68,718.25,369.37,725.34,368.26,726.27Z" transform="translate(-335.83 -645.28)"/><path d="M350.63,676.71c-1.28.14-1,2.11,0.32,2S351.9,676.58,350.63,676.71Z" transform="translate(-335.83 -645.28)"/><path d="M355.28,673.2c-1.28.14-1,2.11,0.32,2S356.56,673.06,355.28,673.2Z" transform="translate(-335.83 -645.28)"/><path d="M355.81,678.17c-1.28.14-1,2.11,0.32,2S357.09,678,355.81,678.17Z" transform="translate(-335.83 -645.28)"/><path d="M354.05,675.85c-1.28.14-1,2.11,0.32,2S355.33,675.71,354.05,675.85Z" transform="translate(-335.83 -645.28)"/><path d="M358.63,676.36c-1.28.14-1,2.11,0.32,2S359.91,676.23,358.63,676.36Z" transform="translate(-335.83 -645.28)"/><path d="M358.26,672.88c-1.28.14-1,2.11,0.32,2S359.54,672.75,358.26,672.88Z" transform="translate(-335.83 -645.28)"/><path d="M356.42,665c-1.28.14-1,2.11,0.32,2S357.7,664.9,356.42,665Z" transform="translate(-335.83 -645.28)"/><path d="M354,694c-1.28.14-1,2.11,0.32,2S355.25,693.82,354,694Z" transform="translate(-335.83 -645.28)"/><path d="M358.06,697.29l-0.55-.44a1,1,0,1,0-1.15,1.64l0.55,0.44A1,1,0,1,0,358.06,697.29Z" transform="translate(-335.83 -645.28)"/><path d="M358,693.53c-1.28.14-1,2.11,0.32,2S359.23,693.4,358,693.53Z" transform="translate(-335.83 -645.28)"/><path d="M370.79,719.21a114.53,114.53,0,0,0-2-12.15,4.78,4.78,0,0,0,1.83-3.81,5.51,5.51,0,0,0-1.48-4.17,3.82,3.82,0,0,0,.75-3.13,2.69,2.69,0,0,0-1.4-2,10.67,10.67,0,0,1-1.41-.72l-0.06-.05a4,4,0,0,0,.77-3,5.88,5.88,0,0,0-.68-2.77,2.78,2.78,0,0,0-.61-0.66,4.11,4.11,0,0,0,1-2.34,4,4,0,0,0-.47-2.74,5.14,5.14,0,0,0-1.62-1.34,5.49,5.49,0,0,0,1.37-3.38,6.11,6.11,0,0,0-1.93-5.14,4.23,4.23,0,0,0,2.47-3.14c0.27-1.83-.84-3.33-2.1-4.59a3.82,3.82,0,0,0,1.28-2.59,7.27,7.27,0,0,0-.68-4.63A7.41,7.41,0,0,0,368,652.4a4.13,4.13,0,0,0-.29-2.88,8.89,8.89,0,0,0-1.86-1.8,3.92,3.92,0,0,0,1.51-1.26,10.73,10.73,0,0,1-1.81-.07h-0.3a0.81,0.81,0,0,0-.76-0.88c-4.15-.48-8.22-0.07-12.37,0-3.66,0-9-1.07-12.13,1.33a1.09,1.09,0,0,0-.44.89,1.47,1.47,0,0,0-.35,1.13c-3.61,1.22-4.35,8.5-1,10.1a7.24,7.24,0,0,0-1.44,3.18,2.38,2.38,0,0,0,.68,2.39,2.9,2.9,0,0,0,.85.46,6,6,0,0,0-2.43,5.16,2.89,2.89,0,0,0,2.78,2.51,5.83,5.83,0,0,0-1.1,3.13,3.22,3.22,0,0,0,2.88,3.35,4.06,4.06,0,0,0-1.12,3.46,3.37,3.37,0,0,0,2.58,2.46,3.08,3.08,0,0,0-.92,2.61,3.35,3.35,0,0,0,2.74,2.91,3.48,3.48,0,0,0-1.19,3.7,2.88,2.88,0,0,0,2.43,1.9,4.1,4.1,0,0,0-.43,2.51,4.35,4.35,0,0,0,2.56,3.53,4.68,4.68,0,0,0-.84,3.21c0.27,2,2.42,2.39,4.14,2.42a3.58,3.58,0,0,0,.4,3.22,4.72,4.72,0,0,0,2.81,1.89c-0.78,2.43,1.19,5.33,4,4.75a1,1,0,0,0,.58-0.37c0.48,0.86.94,1.73,1.35,2.64,1.49,3.31,2.35,5.59,5,8.2,1.17,1.15,2.36,2.59,4.22,2.11C372.85,729.24,371.07,721.8,370.79,719.21Zm-2.22-16.65a4.66,4.66,0,0,1-.33,2.18q-0.48-2.13-1-4.27c0.11,0,.21-0.1.32-0.16A3.23,3.23,0,0,1,368.57,702.56Zm-1.31-6.92a1.52,1.52,0,0,1,.15,2.39,1,1,0,0,0-.56.46l-0.08,0q-0.46-1.9-.91-3.8A12.14,12.14,0,0,0,367.26,695.64Zm-1.47-4.6c0,0.59,0,.83-0.57.76-0.27-1.29-.5-2.58-0.7-3.87,0.14,0.07.28,0.14,0.41,0.22a1.67,1.67,0,0,1,.74,1.44A7.25,7.25,0,0,1,365.79,691Zm-0.24-7.53a2.16,2.16,0,0,1-.92,2.22l-0.28-.17a1,1,0,0,0-.18-0.08c-0.16-1.25-.28-2.5-0.39-3.75C364.52,682.19,365.47,682.56,365.55,683.51Zm-1-22.69a2.38,2.38,0,0,1-.58,1.81c0.14-1.4.29-2.8,0.43-4.2A8.37,8.37,0,0,1,364.55,660.83Zm-0.94,18.48q-0.17-3-.17-6a3.81,3.81,0,0,1,1.34,3C364.81,677.19,364.59,678.92,363.62,679.31Zm1.74-11.3a2.22,2.22,0,0,1-1.85,2.25c0-1.6.11-3.2,0.22-4.81A4.57,4.57,0,0,1,365.36,668ZM366,652.2a5.58,5.58,0,0,1-1.26,3c0.07-.86.14-1.71,0.18-2.57a19.64,19.64,0,0,0-.12-3.11A2.64,2.64,0,0,1,366,652.2ZM340.4,663.65a8.86,8.86,0,0,0-.87-0.36c-0.49-.17-0.76-0.14-0.82-0.64a4.39,4.39,0,0,1,1.35-2.79Q340.21,661.76,340.4,663.65Zm-1-12.53c0.17,2.08.33,4.15,0.49,6.22a1,1,0,0,0-.34-0.06C337.44,657.36,337.66,652.63,339.36,651.12Zm-1.51,18.7c-0.33-1.62,1.25-3.21,2.8-3.9,0.18,1.59.39,3.17,0.64,4.76C340.21,670.8,338.11,671.15,337.85,669.81Zm1.77,5.51a3.41,3.41,0,0,1,2-2.61c0.17,0.93.35,1.86,0.55,2.79,0.12,0.54.24,1.07,0.36,1.61a1,1,0,0,0-.43,0C340.71,677.42,339.27,677,339.61,675.33Zm1.87,7.26c-0.8-1,.52-2.52,1.64-3q0.44,1.91.89,3.82A3.47,3.47,0,0,1,341.48,682.59Zm1.47,4.77a2.05,2.05,0,0,1,1.58-1.73c0.26,1.07.54,2.13,0.81,3.19C344.24,688.83,343,688.59,343,687.35Zm1.48,6.34c-0.43-.94.6-1.83,1.53-2.45q0.39,1.51.8,3C345.89,694.39,344.76,694.4,344.44,693.69Zm3,2.95c0.29,1,.57,2.08.87,3.13,0.08,0.27.17,0.52,0.25,0.78C346.59,700.53,345.63,696.79,347.41,696.64Zm0.84,8.64a1.89,1.89,0,0,1,1.23-2.29c0.44,1,.92,1.95,1.44,2.88C350.24,705.87,348.58,706,348.25,705.28Zm4.27,4.78a2.18,2.18,0,0,1-.4-1.09c0-.33-0.08-0.3.25-0.28a1,1,0,0,0,.23,0c0.52,0.81,1.06,1.62,1.6,2.42A3.07,3.07,0,0,1,352.52,710.06Zm3.16,3.2q0.81,1.22,1.58,2.47A1.6,1.6,0,0,1,355.68,713.26Zm12.59,13c-2.06,1.73-8.15-11.43-9.41-13.18-2.33-3.25-4.86-6.46-6.42-10.18-1.35-3.22-1.85-6.63-2.85-9.94-2.15-7.13-3.77-14.21-5.27-21.51-1.56-7.59-1.49-15.39-2.19-23.07a1.49,1.49,0,0,0-.13-0.48c1.77-.14,11-0.33,12-0.39,2.48-.13,4.9-0.29,7.35-0.21a23.71,23.71,0,0,1,.42,5.72c-0.24,3.65-.69,7.26-1,10.92a111.62,111.62,0,0,0,.11,20.28,77.08,77.08,0,0,0,1.66,9.36h-0.12a0.89,0.89,0,0,0-.79,1.11h-0.09c-1.28.14-1,2.11,0.32,2a0.89,0.89,0,0,0,.79-1.11h0.09a0.94,0.94,0,0,0,.24-0.08c0.9,3.72,1.89,7.42,2.66,11.18,0.7,3.47,1.47,6.82,1.85,10.35C367.68,718.25,369.37,725.34,368.26,726.27Z" transform="translate(-335.83 -645.28)"/><path d="M359.37,697.4c-1.28.14-1,2.11,0.32,2S360.64,697.27,359.37,697.4Z" transform="translate(-335.83 -645.28)"/><path d="M361.83,701.67c-1.28.14-1,2.11,0.32,2S363.11,701.53,361.83,701.67Z" transform="translate(-335.83 -645.28)"/><path class="cls-1" d="M368.57,702.56a4.66,4.66,0,0,1-.33,2.18q-0.48-2.13-1-4.27c0.11,0,.21-0.1.32-0.16A3.23,3.23,0,0,1,368.57,702.56Z" transform="translate(-335.83 -645.28)"/><path class="cls-1" d="M367.26,695.64a1.52,1.52,0,0,1,.15,2.39,1,1,0,0,0-.56.46l-0.08,0q-0.46-1.9-.91-3.8A12.14,12.14,0,0,0,367.26,695.64Z" transform="translate(-335.83 -645.28)"/><path class="cls-1" d="M365.79,691c0,0.59,0,.83-0.57.76-0.27-1.29-.5-2.58-0.7-3.87,0.14,0.07.28,0.14,0.41,0.22a1.67,1.67,0,0,1,.74,1.44A7.25,7.25,0,0,1,365.79,691Z" transform="translate(-335.83 -645.28)"/><path class="cls-1" d="M365.55,683.51a2.16,2.16,0,0,1-.92,2.22l-0.28-.17a1,1,0,0,0-.18-0.08c-0.16-1.25-.28-2.5-0.39-3.75C364.52,682.19,365.47,682.56,365.55,683.51Z" transform="translate(-335.83 -645.28)"/><path class="cls-1" d="M364.55,660.83a2.38,2.38,0,0,1-.58,1.81c0.14-1.4.29-2.8,0.43-4.2A8.37,8.37,0,0,1,364.55,660.83Z" transform="translate(-335.83 -645.28)"/><path class="cls-1" d="M363.62,679.31q-0.17-3-.17-6a3.81,3.81,0,0,1,1.34,3C364.81,677.19,364.59,678.92,363.62,679.31Z" transform="translate(-335.83 -645.28)"/><path class="cls-1" d="M365.36,668a2.22,2.22,0,0,1-1.85,2.25c0-1.6.11-3.2,0.22-4.81A4.57,4.57,0,0,1,365.36,668Z" transform="translate(-335.83 -645.28)"/><path class="cls-1" d="M366,652.2a5.58,5.58,0,0,1-1.26,3c0.07-.86.14-1.71,0.18-2.57a19.64,19.64,0,0,0-.12-3.11A2.64,2.64,0,0,1,366,652.2Z" transform="translate(-335.83 -645.28)"/><path class="cls-1" d="M340.4,663.65a8.86,8.86,0,0,0-.87-0.36c-0.49-.17-0.76-0.14-0.82-0.64a4.39,4.39,0,0,1,1.35-2.79Q340.21,661.76,340.4,663.65Z" transform="translate(-335.83 -645.28)"/><path class="cls-1" d="M339.36,651.12c0.17,2.08.33,4.15,0.49,6.22a1,1,0,0,0-.34-0.06C337.44,657.36,337.66,652.63,339.36,651.12Z" transform="translate(-335.83 -645.28)"/><path class="cls-1" d="M337.85,669.81c-0.33-1.62,1.25-3.21,2.8-3.9,0.18,1.59.39,3.17,0.64,4.76C340.21,670.8,338.11,671.15,337.85,669.81Z" transform="translate(-335.83 -645.28)"/><path class="cls-1" d="M339.61,675.33a3.41,3.41,0,0,1,2-2.61c0.17,0.93.35,1.86,0.55,2.79,0.12,0.54.24,1.07,0.36,1.61a1,1,0,0,0-.43,0C340.71,677.42,339.27,677,339.61,675.33Z" transform="translate(-335.83 -645.28)"/><path class="cls-1" d="M341.48,682.59c-0.8-1,.52-2.52,1.64-3q0.44,1.91.89,3.82A3.47,3.47,0,0,1,341.48,682.59Z" transform="translate(-335.83 -645.28)"/><path class="cls-1" d="M343,687.35a2.05,2.05,0,0,1,1.58-1.73c0.26,1.07.54,2.13,0.81,3.19C344.24,688.83,343,688.59,343,687.35Z" transform="translate(-335.83 -645.28)"/><path class="cls-1" d="M344.44,693.69c-0.43-.94.6-1.83,1.53-2.45q0.39,1.51.8,3C345.89,694.39,344.76,694.4,344.44,693.69Z" transform="translate(-335.83 -645.28)"/><path class="cls-1" d="M347.41,696.64c0.29,1,.57,2.08.87,3.13,0.08,0.27.17,0.52,0.25,0.78C346.59,700.53,345.63,696.79,347.41,696.64Z" transform="translate(-335.83 -645.28)"/><path class="cls-1" d="M348.25,705.28a1.89,1.89,0,0,1,1.23-2.29c0.44,1,.92,1.95,1.44,2.88C350.24,705.87,348.58,706,348.25,705.28Z" transform="translate(-335.83 -645.28)"/><path class="cls-1" d="M352.52,710.06a2.18,2.18,0,0,1-.4-1.09c0-.33-0.08-0.3.25-0.28a1,1,0,0,0,.23,0c0.52,0.81,1.06,1.62,1.6,2.42A3.07,3.07,0,0,1,352.52,710.06Z" transform="translate(-335.83 -645.28)"/><path class="cls-1" d="M355.68,713.26q0.81,1.22,1.58,2.47A1.6,1.6,0,0,1,355.68,713.26Z" transform="translate(-335.83 -645.28)"/></svg>