<svg id="muste" xmlns="http://www.w3.org/2000/svg" viewBox="0 0 84.76 75.47"><title>muste</title><path d="M344.71,725.39a5.44,5.44,0,0,0-.45,2.18c0,0.74.1,1.49,0.06,2.22-0.2,3.94-3.77,6.77-7.16,8.8-2.4,1.43-5.22,3.33-5.08,6.12a3.69,3.69,0,0,0,7.11,1.17c0.4-1,.39-2.23,1.54-2.78a2.25,2.25,0,0,1,3,1.27c0.88,2.13-2.09,4.93-3.59,6.38-3,2.94-5.26,4.12-8.47,6.87-3.57,3-6.54,7.48-5.43,12.24a6.74,6.74,0,0,0,6.17,5.36c3.37,0.11,4.8-2.62,6.95-4.35,2.63-2.13,6.62-3.07,7.73-6.27,0.58-1.68.54-4.1,2.27-4.52a6.75,6.75,0,0,1,.9,6.74c-0.34.79-.84,1.64-0.54,2.44a2.35,2.35,0,0,0,1.65,1.21,8.78,8.78,0,0,0,10.72-7c0.35-2.64-.53-5.49.62-7.89,0.68-1.42,2-2.45,2.87-3.75,2.09-3.07,1.59-7.31-.14-10.6s-4.5-5.88-7-8.6a77.85,77.85,0,0,1-10.06-13.48,12.67,12.67,0,0,1-2.56,4.42,5.12,5.12,0,0,0-.92,1.41Z" transform="translate(-324.49 -701.23)"/><path d="M343.27,725c-1,3.12-.08,6.08-2.39,8.86-2.09,2.52-5.37,3.56-7.72,5.76-2.54,2.37-3.74,6.24-.68,8.8,3.36,2.81,5.62.41,8-1.77l0.15-.36q0.25-2.26,1.2.28c-0.25,1-2,2.41-2.78,3.13-2.23,2.13-4.76,3.84-7.15,5.78-3.87,3.15-7.69,7.47-7.42,12.82,0.19,3.68,2.51,7.31,6.24,8.21,4.85,1.17,6.94-2.66,10.41-5.08,2-1.42,4.45-2.23,6.07-4.19,1.19-1.44,1.42-5,2.9-5.85l-2.05-.54c1.83,2.93.38,4.4,0.19,7.2a3.29,3.29,0,0,0,.41,2.29c1.11,1.81,3.79,2.05,5.68,1.88a10.58,10.58,0,0,0,7.32-4.06c2.17-2.84,1.56-5.33,1.94-8.66,0.49-4.25,4.32-7,4.77-11.25a14.09,14.09,0,0,0-2-8.4c-1.93-3.35-4.85-6-7.43-8.84a80.33,80.33,0,0,1-9.26-12.55,1.52,1.52,0,0,0-2.74.36c-0.94,2.3-2.7,4-3.64,6.2-0.75,1.78,2.15,2.55,2.89.8,0.91-2.17,2.71-3.94,3.64-6.2l-2.74.36a85.88,85.88,0,0,0,10.3,13.78c5.27,5.72,10.84,11.16,5.66,18.91-1,1.46-1.89,2.46-2.25,4.27-0.71,3.6.88,7.06-2.07,10.1-1.59,1.63-3.43,2.61-5.43,1.16-2.48-1.81-.93-0.44-1.1-2.72-0.18-2.49-.14-3.94-1.52-6.14a1.53,1.53,0,0,0-2.05-.54,4.27,4.27,0,0,0-2.07,2.19c-1.22,2.53-1.48,4.52-4.06,6.2-3.41,2.22-9.81,8.74-13.41,4.95-8.79-9.27,13.21-17.95,15.89-25,0.66-1.76.49-3.8-1.21-5-2.33-1.59-3.46,0-5.19,1.16q-0.25.58-.47,1.17l-3.34-2.24c-0.08-.58,3.35-2.41,3.82-2.71A22.31,22.31,0,0,0,343,736c3-3.3,2-6.36,3.16-10.18C346.74,723.94,343.84,723.15,343.27,725Z" transform="translate(-324.49 -701.23)"/><path d="M371.37,743.78a8.32,8.32,0,0,1,0,1.23,14.09,14.09,0,0,0,.33,6c0.71,3.71,2.47,7.36,5.53,9.58a5.78,5.78,0,0,0,4.12,1.29,5.21,5.21,0,0,0,3.87-3.77,15.33,15.33,0,0,0,.3-5.66,6.5,6.5,0,0,0-.59-2.7,9.43,9.43,0,0,0-2.16-2.21,38.29,38.29,0,0,1-3.46-4.1,23,23,0,0,0-12.65-7.68,10.29,10.29,0,0,1,4.5,6.26,7.09,7.09,0,0,1,.16,1.1Z" transform="translate(-324.49 -701.23)"/><path d="M369.87,743.78c0,5.58.21,11.06,4,15.62,3,3.63,8.32,5.85,11.63,1.32,1.72-2.36,1.84-5.49,1.51-8.3-0.37-3.21-1.42-4.16-3.66-6.45-5.19-5.3-8.75-9.76-16.31-11.69a1.51,1.51,0,0,0-1.16,2.74,9.1,9.1,0,0,1,4,6.76c0.15,1.91,3.15,1.93,3,0a12.21,12.21,0,0,0-5.46-9.35l-1.16,2.74a22.55,22.55,0,0,1,11,6.17c2.48,2.59,6.36,6.27,6.83,9.79s-0.51,10.06-6.86,5.47c-1.77-1.28-2.91-4-3.53-6-1-3.07-.8-5.74-0.81-8.87A1.5,1.5,0,0,0,369.87,743.78Z" transform="translate(-324.49 -701.23)"/><path d="M400.51,706c0,2.15.09,4.47,1.4,6.19s4.33,2.22,5.49.4-0.21-4-1.73-5.34-3.44-2.6-3.87-4.6A3.79,3.79,0,0,0,401,706" transform="translate(-324.49 -701.23)"/><path d="M399,706c0,2.6.18,5.63,2.14,7.59a5.38,5.38,0,0,0,6,1.15c2.22-1.18,2.54-3.87,1.51-6-1.26-2.6-4.66-3.76-5.46-6.51a1.52,1.52,0,0,0-2.74-.36,5.69,5.69,0,0,0-.9,4.45c0.32,1.9,3.21,1.09,2.89-.8a2.63,2.63,0,0,1,.59-2.14l-2.74-.36a7.85,7.85,0,0,0,2.32,3.59c1.16,1.08,3.07,2.16,3.5,3.8,0.55,2.08-1.75,2.16-2.89,1-1.34-1.32-1.24-3.74-1.26-5.47a1.5,1.5,0,0,0-3,0h0Z" transform="translate(-324.49 -701.23)"/></svg>