<svg id="Layer_8" data-name="Layer 8" xmlns="http://www.w3.org/2000/svg" viewBox="0 0 103.27 73.96"><defs><style>.cls-1{fill:#fff;}</style></defs><title>mustekala_hattu</title><path class="cls-1" d="M383,605c-3.25-1.31-6.27-2.17-9.31-4-2.42-1.45-4.75-3-7.21-4.45a61.4,61.4,0,0,0-14.73-6.53c-4.6-1.25-8.76-3.83-13.61-3.32-1.91.2-4.6,0.35-6.39,1.17s-2.91,2.2-4.4,3.33c-3.28,1.6-6.57,3.14-9.8,4.91-4.05,2.22-6.62,6.44-8.58,10.51-2.1,4.38-3.53,9-5.55,13.43-2.1,4.57-5,8.81-7.27,13.27-3.29,6.41-5.2,16.64.13,22.53,5.73,6.34,14.08,5.35,21.42,2.65,5.14-1.89,9.89-5,14.87-7.28,6.13-2.81,12-3,18.64-3,11.21,0.08,20.85-1,31.27-5.28,8.48-3.46,13.86-9.89,13.75-19.08S391.37,608.44,383,605Z" transform="translate(-292.92 -586.69)"/><path d="M308,642.33c-0.76,4-2.15,10.91,1.5,14,1,0.81,2.43-.56,1.44-1.38-3-2.48-1.63-8.86-1-12C310.12,641.65,308.21,641.06,308,642.33Z" transform="translate(-292.92 -586.69)"/><path d="M383,605c-3.25-1.31-6.27-2.17-9.31-4-2.42-1.45-4.75-3-7.21-4.45a61.4,61.4,0,0,0-14.73-6.53c-4.6-1.25-8.76-3.83-13.61-3.32-1.91.2-4.6,0.35-6.39,1.17s-2.91,2.2-4.4,3.33c-3.28,1.6-6.57,3.14-9.8,4.91-4.05,2.22-6.62,6.44-8.58,10.51-2.1,4.38-3.53,9-5.55,13.43-2.1,4.57-5,8.81-7.27,13.27-3.29,6.41-5.2,16.64.13,22.53,5.73,6.34,14.08,5.35,21.42,2.65,5.14-1.89,9.89-5,14.87-7.28,6.13-2.81,12-3,18.64-3,11.21,0.08,20.85-1,31.27-5.28,8.48-3.46,13.86-9.89,13.75-19.08S391.37,608.44,383,605Zm4.16,7a15,15,0,0,1,2.34,2.32,11.64,11.64,0,0,1,1.79,3.27c-0.06-.08-0.12-0.17-0.19-0.24a4.2,4.2,0,0,0-3.39-1.22A14.69,14.69,0,0,0,387.13,612Zm-32.62,32.29H353l-3.09,0a5.76,5.76,0,0,0-.1-3.57c-0.52-2.21-.85-4.46-1.24-6.69-0.22-1.27-2.17-.81-1.95.45,0.33,1.87.6,3.75,1,5.61,0.21,1,1,2.66.37,3.58a0.88,0.88,0,0,0-.14.65c-1.38,0-2.75.07-4.1,0.17,1.5-3,0-6.44-.59-9.51a1,1,0,0,0-1.95.45c0.48,2.52,2.07,5.85.69,8.29a0.92,0.92,0,0,0,0,.93c-1,.11-2.09.25-3.13,0.44a13,13,0,0,0,.29-4.95c-0.39-2.38-.54-5.38-1.92-7.42-0.72-1.05-2.48-.11-1.76,1,1.18,1.74,1.43,4.83,1.73,6.92a13.3,13.3,0,0,1-.43,5c-0.9.22-1.81,0.48-2.71,0.79a0.93,0.93,0,0,0,0-.1l-1.12-6.4c-0.22-1.27-2.17-.81-1.95.45l1.12,6.4a1,1,0,0,0,.14.34l-0.68.29c-0.81.36-1.63,0.77-2.46,1.18,0.3-4.19-1.51-8.05-2.37-12.14a1,1,0,0,0-1.95.45c0.85,4,3,8.1,2.27,12.29a1.07,1.07,0,0,0,0,.45l-2.36,1.25-1.36-7.75c-0.22-1.27-2.17-.81-1.95.45l1.46,8.28c-0.83.43-1.66,0.86-2.5,1.27a24.24,24.24,0,0,0-.58-4.38c-0.49-2.6-.91-5.21-1.37-7.81-0.22-1.27-2.17-.81-1.95.45l1,5.85c0.38,2.17,1.15,4.6.85,6.83-0.69.31-1.39,0.6-2.09,0.87a1,1,0,0,0-.39-0.56c-1.32-1-1.38-3.67-1.49-5.18a33.4,33.4,0,0,0-.45-4.94,1,1,0,0,0-1.95.45c0.74,3.33-.35,8.28,2.31,10.91a22.44,22.44,0,0,1-7.71,1.17,12.71,12.71,0,0,1-2.26-.3,1,1,0,0,0,0-.39c-0.53-2.9-1.42-5.78.29-8.47a1,1,0,0,0-1.71-1c-1.87,2.93-1.28,6-.68,9.19a7.69,7.69,0,0,1-3.63-3.58,5.46,5.46,0,0,1,.21-1.91c0.32-1,1-1.85,1.2-2.91,0.28-1.25,0-2.55.59-3.75,0.52-1,1.34-1.66,1.82-2.72s-1.18-2.21-1.71-1-1.73,2.23-2.22,3.58c-0.54,1.51-.26,3.1-0.84,4.65,0,0.12-.08.23-0.12,0.34-0.59-5,1.24-11.08,3.41-14.93l0.29-.53a11.58,11.58,0,0,0,.89,3.52c1.59,3.46,5.42,4,8.88,3.68,6.14-.49,10-4.28,15.54-6.46a43.2,43.2,0,0,1,8.85-2.83c4-.65,6.79.77,10.59,1.63a62.13,62.13,0,0,0,7.17,1.14,21.58,21.58,0,0,1,.76,2.74,24.54,24.54,0,0,1,.79,3A11.33,11.33,0,0,1,354.51,644.32Zm5.25-.06q-1.6,0-3.2.05a14,14,0,0,0,0-4.75,38.85,38.85,0,0,0-1.26-4.84c-0.08-.31-0.15-0.61-0.21-0.88,1.06,0.08,2.13.15,3.19,0.19C359.34,637.35,360.28,640.8,359.76,644.26Zm4.65-1.72a14.37,14.37,0,0,0-.3,1.48c-0.77.06-1.55,0.12-2.32,0.16a24.81,24.81,0,0,0-1.36-10.06l2.38,0c0.4,1.72,1,3.36,1.39,5.09A7.6,7.6,0,0,1,364.41,642.54Zm4.3-3.51c0.26,1.44.05,2.83,0.24,4.26,0,0,0,0,0,.08l-0.44.09c-0.79.14-1.58,0.25-2.38,0.35,0.1-.49.28-1,0.37-1.47a7.44,7.44,0,0,0-.21-2.77c-0.38-1.84-1-3.61-1.45-5.43h1.38c0.42,0,.84,0,1.25-0.06A18.75,18.75,0,0,1,368.71,639Zm5.67,2.75c-1.15.42-2.31,0.81-3.48,1.13,0,0,0,0,0-.07-0.09-.67.15-1.36,0.12-2a20.59,20.59,0,0,0-.43-2.58,22.47,22.47,0,0,0-1-4.34,27.8,27.8,0,0,0,2.94-.52c1.51,2,1.31,5.81,1.66,8A0.93,0.93,0,0,0,374.37,641.78Zm-1.51-13.44a1,1,0,0,0-.06,1.9,25.13,25.13,0,0,1-5.6.87,109.7,109.7,0,0,1-13.92-.72c-4.68-.4-8.92-2.09-13.48-2.67-6.23-.79-13.58,2.09-19.07,5.36a1,1,0,0,0-1.1-1.48c-1.23.22-.83,2,0.34,1.95l-0.81.51c-3.89,2.53-12,5.84-14.73.22-2-4.17,1.95-7.7,2-11.68,1.54-3.31,3-6.67,4.35-10.13,2-5.05,4.49-10.22,9.29-13.09,0.51-.31,1-0.6,1.55-0.88a1,1,0,0,0,1.08.58,0.93,0.93,0,0,0,.59-1.47c1.28-.65,2.57-1.27,3.86-1.88a1.88,1.88,0,0,0,1.09-.27c0.49-.28,1-0.59,1.41-0.91,0.92-.44,1.85-0.88,2.77-1.35a1.8,1.8,0,0,0,.93-1,1,1,0,0,0,.89.3,0.87,0.87,0,0,0,.73-1.07c0.21-.06.41-0.14,0.63-0.19a12.86,12.86,0,0,1,2.8-.31,1,1,0,0,0,.95,1.68,0.94,0.94,0,0,0,.5-1.58,32.1,32.1,0,0,1,5.56,1.5,1.14,1.14,0,0,0,.3.55,1,1,0,0,0-.3,0c-1.27.22-.81,2.17,0.45,1.95a1,1,0,0,0,.43-1.66,1,1,0,0,0,.29,0,0.87,0.87,0,0,0,.56-0.34l0.06,0c3.88,1,7.94,1.78,11.44,3.76,3.67,2.07,7.3,4.16,10.88,6.39a40,40,0,0,0,8.85,4.53,41.86,41.86,0,0,1,4.25,1.6c3.19,4,2.64,10-.13,14.38a15.67,15.67,0,0,1-8.51,6.19A1,1,0,0,0,372.87,628.34Zm14.07,7.5c-0.41.32-.83,0.63-1.26,0.92-0.13-1.71-.29-3.66-1.76-4.53a1,1,0,0,0-1,1.71c0.58,0.35.64,1.6,0.72,2.19s0.13,1.19.19,1.79c-0.47.26-.94,0.51-1.41,0.74a5.6,5.6,0,0,0-1.27-3.2,0.94,0.94,0,0,0-.43-0.26,1,1,0,0,0-1.18-.92,1,1,0,0,0-.09,1.89,0.93,0.93,0,0,0,.26.68,4.46,4.46,0,0,1,.84,2.64l-0.72.28c-1.22.44-2.43,0.91-3.64,1.37a1,1,0,0,0,0-.23c-0.39-2.41-.33-5.76-1.6-8.11a21.79,21.79,0,0,0,6.54-3.4,16.54,16.54,0,0,0,3.07-3.08,1,1,0,0,0,.15,0c0.84-.14,1.69,2.63,1.88,3.2,0.53,1.57,1.1,3.35.25,4.9A1,1,0,0,0,386.94,635.84Zm4.95-7c-0.12-.6-0.29-1.21-0.41-1.82-0.37-2-.49-3.65-2.22-4.91-1-.76-2.07,1-1,1.71s1.07,2.38,1.31,3.65c0.19,1,.88,2.33.32,3.26a1,1,0,0,0,.59,1.44,14.19,14.19,0,0,1-1.87,2.22c0.65-2.08,0-4.27-.78-6.31-0.48-1.27-1.21-2.93-2.45-3.54a17,17,0,0,0,2.21-6.42,2.38,2.38,0,0,1,2.24.8,14.32,14.32,0,0,1,1.92,3.58,1,1,0,0,0,.63.63A20.85,20.85,0,0,1,391.88,628.89Z" transform="translate(-292.92 -586.69)"/><path d="M306.39,631.38c-1.27.22-.81,2.17,0.45,1.95S307.65,631.16,306.39,631.38Z" transform="translate(-292.92 -586.69)"/><path d="M306.36,628.34c-1.27.22-.81,2.17,0.45,1.95S307.63,628.12,306.36,628.34Z" transform="translate(-292.92 -586.69)"/><path d="M310.62,635.21c-1.27.22-.81,2.17,0.45,1.95S311.88,635,310.62,635.21Z" transform="translate(-292.92 -586.69)"/><path d="M367,626.83c-1.27.22-.81,2.17,0.45,1.95S368.28,626.6,367,626.83Z" transform="translate(-292.92 -586.69)"/><path d="M372.35,625.38c-1.27.22-.81,2.17,0.45,1.95S373.61,625.16,372.35,625.38Z" transform="translate(-292.92 -586.69)"/><path d="M376.55,626.17c-1.27.22-.81,2.17,0.45,1.95S377.81,625.95,376.55,626.17Z" transform="translate(-292.92 -586.69)"/><path d="M380.87,621.85c-1.27.22-.81,2.17,0.45,1.95S382.13,621.63,380.87,621.85Z" transform="translate(-292.92 -586.69)"/><path d="M382.14,617.57c-1.27.22-.81,2.17,0.45,1.95S383.41,617.35,382.14,617.57Z" transform="translate(-292.92 -586.69)"/><path d="M382.41,610.42c-1.27.22-.81,2.17,0.45,1.95S383.67,610.19,382.41,610.42Z" transform="translate(-292.92 -586.69)"/><path d="M318.72,603.33c-1.27.22-.81,2.17,0.45,1.95S320,603.11,318.72,603.33Z" transform="translate(-292.92 -586.69)"/><path d="M320.81,606.52c-1.27.22-.81,2.17,0.45,1.95S322.07,606.29,320.81,606.52Z" transform="translate(-292.92 -586.69)"/><path d="M326.25,608.6c-1.27.22-.81,2.17,0.45,1.95S327.51,608.38,326.25,608.6Z" transform="translate(-292.92 -586.69)"/><path d="M332.74,608c-1.27.22-.81,2.17,0.45,1.95S334,607.75,332.74,608Z" transform="translate(-292.92 -586.69)"/><path d="M341.11,606.5c-1.27.22-.81,2.17,0.45,1.95S342.37,606.28,341.11,606.5Z" transform="translate(-292.92 -586.69)"/><path d="M347.08,602.92c-1.27.22-.81,2.17,0.45,1.95S348.34,602.69,347.08,602.92Z" transform="translate(-292.92 -586.69)"/><path d="M349.43,598.95c-1.27.22-.81,2.17,0.45,1.95S350.69,598.73,349.43,598.95Z" transform="translate(-292.92 -586.69)"/><path d="M348.65,594.52c-1.27.22-.81,2.17,0.45,1.95S349.91,594.29,348.65,594.52Z" transform="translate(-292.92 -586.69)"/><path d="M320.67,599.94c-1.27.22-.81,2.17,0.45,1.95S321.93,599.72,320.67,599.94Z" transform="translate(-292.92 -586.69)"/><path d="M322.84,603.62c-1.27.22-.81,2.17,0.45,1.95S324.1,603.4,322.84,603.62Z" transform="translate(-292.92 -586.69)"/><path d="M325.24,605.74c-1.27.22-.81,2.17,0.45,1.95S326.5,605.51,325.24,605.74Z" transform="translate(-292.92 -586.69)"/><path d="M330.42,606.35a0.93,0.93,0,0,0-.24.09,1,1,0,0,0-.26,0c-1.27.22-.81,2.17,0.45,1.95a0.93,0.93,0,0,0,.24-0.09,1,1,0,0,0,.26,0C332.14,608.08,331.69,606.13,330.42,606.35Z" transform="translate(-292.92 -586.69)"/><path d="M334.85,605.57c-1.27.22-.81,2.17,0.45,1.95S336.12,605.35,334.85,605.57Z" transform="translate(-292.92 -586.69)"/><path d="M340.76,604.53l-1,.17c-1.27.22-.81,2.17,0.45,1.95l1-.17C342.48,606.26,342,604.31,340.76,604.53Z" transform="translate(-292.92 -586.69)"/><path d="M345.17,600.71c-1.27.22-.81,2.17,0.45,1.95S346.43,600.49,345.17,600.71Z" transform="translate(-292.92 -586.69)"/><path d="M346,596.51c-1.27.22-.81,2.17,0.45,1.95S347.22,596.29,346,596.51Z" transform="translate(-292.92 -586.69)"/><path d="M342.63,592c-1.27.22-.81,2.17,0.45,1.95S343.89,591.8,342.63,592Z" transform="translate(-292.92 -586.69)"/><path d="M359.05,627.72c-1.27.22-.81,2.17,0.45,1.95S360.31,627.5,359.05,627.72Z" transform="translate(-292.92 -586.69)"/><path d="M364.24,628.33c-1.27.22-.81,2.17,0.45,1.95S365.5,628.11,364.24,628.33Z" transform="translate(-292.92 -586.69)"/><path d="M378.08,623.36c-1.27.22-.81,2.17,0.45,1.95S379.35,623.14,378.08,623.36Z" transform="translate(-292.92 -586.69)"/><path d="M378.46,619.74c-1.27.22-.81,2.17,0.45,1.95S379.73,619.52,378.46,619.74Z" transform="translate(-292.92 -586.69)"/><path d="M382.93,613.37c-1.27.22-.81,2.17,0.45,1.95S384.19,613.15,382.93,613.37Z" transform="translate(-292.92 -586.69)"/><path d="M379,608.47c-1.27.22-.81,2.17,0.45,1.95S380.29,608.25,379,608.47Z" transform="translate(-292.92 -586.69)"/><path d="M354.45,627.51c-1.27.22-.81,2.17,0.45,1.95S355.71,627.29,354.45,627.51Z" transform="translate(-292.92 -586.69)"/><path d="M314.38,633.53c-1.27.22-.81,2.17,0.45,1.95S315.65,633.31,314.38,633.53Z" transform="translate(-292.92 -586.69)"/><path d="M309.11,632.43c-1.27.22-.81,2.17,0.45,1.95S310.38,632.21,309.11,632.43Z" transform="translate(-292.92 -586.69)"/><path d="M307,634.83c-1.27.22-.81,2.17,0.45,1.95S308.26,634.61,307,634.83Z" transform="translate(-292.92 -586.69)"/></svg>