<svg id="Layer_17" data-name="Layer 17" xmlns="http://www.w3.org/2000/svg" viewBox="0 0 275.59 84.45"><title>question</title><path d="M977,248.42c0-1.93-3-1.77-3,.16,0,2.83-.17,5.64-0.37,8.45-1.21.09-2.39,0.35-3.6,0.44-0.88.06-1.47,0.44-2.27,0.56a8.91,8.91,0,0,1-1.76,0c0.07-3.16.45-6.4-.15-9.46a1.47,1.47,0,0,0-1.11-1l-0.41-.09a1.5,1.5,0,0,0-.62,2.94,61,61,0,0,0-.44,7.94,4,4,0,0,0-.88.6c-1,.89-0.21,2.11.85,2.35,0,4.86.23,9.76,1,11a1.5,1.5,0,0,0,2.49-1.67c-0.91-1.38-.26-3.56-0.26-5.08s-0.31-3.23-.44-4.86a12.36,12.36,0,0,0,2.94.19,24.87,24.87,0,0,1,4.43-.86c-0.27,3.66-.5,7.32-0.41,11,0,1.93,3,1.77,3-.16C975.81,263.41,977,256,977,248.42Z" transform="translate(-936.91 -247.05)"/><path d="M993,259.88c-0.74-5.37-5.24-6.93-10-6.88a1.39,1.39,0,0,0-1.31,1.86c-2.36,3-2.73,7.65-1.93,11.27,0.92,4.14,5.34,7.5,9.1,4.71C992.22,268.29,993.54,264.13,993,259.88Zm-4.53,7.38a4.56,4.56,0,0,1-4.16.91c-1.46-.68-1.72-2.85-1.78-4.2-0.13-2.51-.22-5.93,1.85-7.72a1.68,1.68,0,0,0,.19-0.2c2.75,0.21,5.11,1.23,5.5,4.43C990.26,262.37,989.81,265.75,988.42,267.26Z" transform="translate(-936.91 -247.05)"/><path d="M1010.53,254.19c-0.25,2.41-.48,4.52-0.5,7a34.49,34.49,0,0,1-.39,5.14,33,33,0,0,1-2.29-2.45c-1.39-1.7-1.68-3.8-2.72-5.68a1.51,1.51,0,0,0-2.08-.41c-1.81,1.26-2,3.63-2.86,5.56a19.18,19.18,0,0,0-.74,2.13c0-.42-0.09-0.83-0.15-1.26-0.48-3-1.54-5.76-1.8-8.79-0.17-1.92-3.16-1.77-3,.16,0.28,3.25,1.45,6.19,1.89,9.38,0.32,2.38,0,5.12,1.23,7.26a1.52,1.52,0,0,0,2.59-.16c1.08-1.76,1.34-3.64,2-5.57,0.25-.8.79-2.76,1.41-4.29a9.53,9.53,0,0,0,1.25,2.73c1.4,1.92,3.39,3.46,4.94,5.27a1.52,1.52,0,0,0,2.71-.53c1.46-4.73,1-10,1.5-14.86C1013.66,252.9,1010.73,252.27,1010.53,254.19Z" transform="translate(-936.91 -247.05)"/><path d="M1049.85,254.74a1.51,1.51,0,0,0-2.55-.52c-1.25,1.81-3,3-4.43,4.61-0.44.52-.83,1.83-1.17,2.12q0,1.06-.41,0l-0.44-.7c-1.77-2.38-2.31-6-4.8-7.7a1.51,1.51,0,0,0-2.41,1.6c0.17,0.74.74,12.6,1.4,12.46-1.89.39-.92,3.23,0.95,2.85l0.41-.09a1.48,1.48,0,0,0,1-1.11c0.59-2.45,0-4.67-.33-7.11-0.07-.54-0.11-1.08-0.14-1.62,0.75,1.86,1.54,3.68,3.17,4.5s2.89-.32,3.92-1.56,2.16-2.32,3.25-3.47c0,1.45-.21,3-0.24,4.05-0.09,3.2-.48,6.37-0.52,9.58,0,1.93,3,1.76,3-.16,0-3.62.51-7.21,0.52-10.83C1050,259.4,1050.49,256.87,1049.85,254.74Z" transform="translate(-936.91 -247.05)"/><path d="M1065.75,271.66a23.18,23.18,0,0,1-2.94-6,1.58,1.58,0,0,0-.67-2.06c-0.66-2.15-1.25-4.34-2.09-6.5-0.69-1.76-1.69-5.24-4.32-3.81-1.77,1-1.63,4.79-2,6.52-0.34,1.57-.51,3.15-0.76,4.73a1.55,1.55,0,0,0-.39,1.4l0.06,0.3c-0.07.33-.13,0.67-0.22,1a31.49,31.49,0,0,0-1.41,6.8c-0.1,1.93,2.9,1.75,3-.16a31.4,31.4,0,0,1,1.25-6.38,22.71,22.71,0,0,0,4.61-.79,26.16,26.16,0,0,0,3.39,6.59C1064.37,274.9,1066.87,273.24,1065.75,271.66Zm-9.46-8.76c0.08-.54.73-2.55,1.11-4.31,0.18,0.44.38,0.88,0.54,1.33a39,39,0,0,1,1.1,4,17.12,17.12,0,0,1-3,.61C1056.1,264,1056.21,263.46,1056.29,262.91Z" transform="translate(-936.91 -247.05)"/><path d="M1081.64,263.2c-0.22-3.76-.14-7.52-0.14-11.28,0-1.94-3-1.77-3,.16,0,3.11-.1,6.24,0,9.36a33.8,33.8,0,0,1,.14,5.74c-0.32-.53-0.6-1.08-0.89-1.47-1.06-1.45-2.13-2.84-3.14-4.33-1.71-2.5-3.86-4.76-5.78-7.08a1.52,1.52,0,0,0-2.71.53c-0.55,2.28-.26,4.47-0.16,6.78,0.13,2.88-.32,5.63-0.47,8.48-0.1,1.93,2.9,1.75,3-.16,0.13-2.55.58-4.9,0.5-7.5,0-1.14-.15-2.28-0.2-3.43,1.57,2,3.12,4,4.6,6,1.3,1.82,3.16,5.4,5.32,6.33a1.53,1.53,0,0,0,2-.67C1081.88,268.31,1081.79,265.78,1081.64,263.2Z" transform="translate(-936.91 -247.05)"/><path d="M1097.87,254.51a9.55,9.55,0,0,0-2.22,3.73,27.52,27.52,0,0,1-3,5.37,1.34,1.34,0,0,0-.6-0.11h0a4,4,0,0,1-.27-0.48c-0.19-.34-0.35-0.67-0.55-1a7.82,7.82,0,0,0-1.58-1.86c-1.11-.95-2.77-2.08-2.67-3.72,0.12-1.93-2.88-1.75-3,.16-0.15,2.37,1.83,4.27,3.5,5.66,1.3,1.08,1.92,3.6,3.58,4.16-0.44.86-.87,1.74-1.35,2.59-0.92,1.65-2.09,2.9-2.69,4.7s2.32,2.43,2.94.62c0.52-1.53,1.95-3,2.71-4.5a51.75,51.75,0,0,1,3-5.29c1.66-2.45,2.39-6,4.44-8C1101.51,255.14,1099.25,253.16,1097.87,254.51Z" transform="translate(-936.91 -247.05)"/><path d="M1127.17,249.66c-2.94-1.46-6,1-6.67,4-0.44,2.07.25,4,1.11,5.81a13.21,13.21,0,0,1,1.53,3.82c0.29,2-1.71,7.17-3.89,3.89a1.5,1.5,0,0,0-2.49,1.67,5.07,5.07,0,0,0,8.9-.94,11,11,0,0,0,.32-5.9,10,10,0,0,0-1-2.57,10.33,10.33,0,0,1-1.29-2.66c-0.13-.82.22-5.38,2.13-4.43A1.5,1.5,0,0,0,1127.17,249.66Z" transform="translate(-936.91 -247.05)"/><path d="M1139.42,269c-1.3.24-2.52,0.73-3.8,1-0.72.16-1.43,0.32-2.12,0.52,0-2-.11-3.88-0.24-5.82a19.5,19.5,0,0,1,4.13-1.9,1.48,1.48,0,0,0,1-1.11l0.09-.4a1.51,1.51,0,0,0-2.73-1.13,18,18,0,0,0-2.67,1.3c0-.56-0.06-1.12-0.07-1.69,0-1.37-.51-2.53.61-3.27s3.87-1,5-1c1.93-.06,1.77-3.05-0.16-3-3,.09-7.84.47-8.47,4-0.83,4.69.62,9.86,0.55,14.59a1.25,1.25,0,0,0,.63,1.17c-0.17,1.05.64,2.23,1.85,1.67a14.06,14.06,0,0,1,3.19-1c1.16-.24,2.25-0.74,3.41-0.95C1141.46,271.66,1141.32,268.66,1139.42,269Z" transform="translate(-936.91 -247.05)"/><path d="M1152.42,268a32.5,32.5,0,0,1-4.14,0c-2.21-.24-2.72-1-2.79-3.06a21.77,21.77,0,0,1,0-4.12c0.25-1.49,1.7-4.29,3.55-4.37a1.5,1.5,0,0,0-.16-3c-5.77.24-6.54,7.32-6.42,11.64,0.17,6.08,5.17,6,10.08,5.85C1154.51,271,1154.35,268,1152.42,268Z" transform="translate(-936.91 -247.05)"/><path d="M1169.25,271.16c-2.19-2.57-4.74-4.76-7.15-7.07,1.06-1,2.78-1.45,3.62-2.71a5.12,5.12,0,0,0,.74-4,6.8,6.8,0,0,0-5.55-4.65,3.52,3.52,0,0,0-4,3.93c0,0.82.42,1.61,0.54,2.42a26.79,26.79,0,0,1,.09,4c0,3,0,6,0,8.93,0,1.93,3,1.77,3-.16,0-1.74,0-3.48,0-5.22a80.08,80.08,0,0,1,6.26,6.14C1168,274.28,1170.5,272.63,1169.25,271.16Zm-6.49-14.24c1.11,1.29.58,2.78-.74,3.81a15.74,15.74,0,0,1-1.48,1,15.89,15.89,0,0,0,0-2.27,11.89,11.89,0,0,1-.46-2.12C1160.3,255.56,1161.79,255.8,1162.76,256.92Z" transform="translate(-936.91 -247.05)"/><path d="M1180.16,268.75c-0.93.78-2.92,0.5-4,.11-1.88-.67-1.48-1.77-1.6-3.44,0-.57-0.13-1.12-0.22-1.67a14.72,14.72,0,0,1,2-.55,9.68,9.68,0,0,0,4-1.45c1.56-1.13-.1-3.63-1.67-2.49a9.42,9.42,0,0,1-3.77,1.19c-0.31.07-.6,0.15-0.9,0.24,0-1.91,0-3.82,0-5.73a11.7,11.7,0,0,1,2.83-1.3,7.23,7.23,0,0,0,3.3-1.67c1.35-1.38-.91-3.36-2.26-2-0.65.67-2,.76-2.85,1.07a14.86,14.86,0,0,0-3.86,2.18,1.54,1.54,0,0,0-.17,2.3c0,2-.14,4,0,6a1.57,1.57,0,0,0-1.38,1.95l0.11,0.44a1.54,1.54,0,0,0,1.64,1c0.1,1.72-.14,3.79.84,5.14,1.67,2.33,7.53,3,9.67,1.16C1183.3,270,1181.65,267.51,1180.16,268.75Z" transform="translate(-936.91 -247.05)"/><path d="M1207.19,255.92a3.31,3.31,0,0,1,2.32.65c0,1.93,3,1.77,3-.16,0-3.33-3.62-3.83-6.32-3.45a5.54,5.54,0,0,0-4.73,5.53c-0.19,3.9,2.83,4.24,5.33,6.32,6.53,5.43-5.44,8.54-5.78,2.6a1.5,1.5,0,0,0-3,.16c0.35,6.06,9.33,8.51,13,3.66,1.83-2.42.83-5.55-1.07-7.61-1.26-1.37-3-2-4.37-3.17-0.89-.72-1.35-1.17-1-2.54S1205.83,255.76,1207.19,255.92Z" transform="translate(-936.91 -247.05)"/><path d="M949,297.73a12.79,12.79,0,0,1-6.27-.24c-2.75-.61-3.13-3.21-2.74-5.64,0.48-3,3.74-7.88,7.31-6.35,1.77,0.76,3.12-1.92,1.34-2.68-5.73-2.45-11.06,3.69-11.66,9-0.3,2.68-.05,5.78,2.32,7.46,2.83,2,7.45,2.15,10.64,1.26C951.83,300.06,950.88,297.21,949,297.73Z" transform="translate(-936.91 -247.05)"/><path d="M983.49,282.57c0-1.93-3-1.77-3,.16a36.61,36.61,0,0,0,.82,6.94,23.2,23.2,0,0,1,.82,6.39,32.84,32.84,0,0,1-2.63-3,55.18,55.18,0,0,1-4.39-4.87c-1.16-1.71-2-4.4-4.54-3.82a1.46,1.46,0,0,0-1,1.11,42,42,0,0,0-.13,6.54c0,2.37-.42,4.68-0.46,7.05a1.62,1.62,0,0,0,0,.17v0.33c0,1.94,3,1.76,3-.16,0-2.24.46-4.36,0.5-6.58,0-1.22-.06-2.4-0.1-3.6,1.33,1.87,3.56,4.38,3.76,4.59,1.78,1.89,3.64,5,6.2,5.95a1.54,1.54,0,0,0,2-.67C986.85,294.49,983.57,287.45,983.49,282.57Z" transform="translate(-936.91 -247.05)"/><path d="M1025.53,283.19c-0.24,1.63-1.37,3.32-1.93,4.86-0.34.93-.65,1.87-1,2.82-1.14-.45-1.79-1.75-2.43-2.77-1.06-1.7-2.25-3.34-3.47-4.93s-3.67.14-2.49,1.67c1.48,1.93,2.78,4,4.13,6a7,7,0,0,0,3.3,2.93l0,0.09c-0.95,2.65-2.88,5.4-3.51,8.13a1.59,1.59,0,0,0-.14.62v0.32c-0.06,1.7,2.69,1.89,3,.23s1.54-3.22,2.18-4.78,1.24-3.21,1.79-4.83c1-3.07,3.08-6.55,3.54-9.7C1028.75,281.9,1025.81,281.28,1025.53,283.19Z" transform="translate(-936.91 -247.05)"/><path d="M1036.93,283h-0.51a1.55,1.55,0,0,0-.47.1c-4.88.88-6.18,7.44-6,11.56,0.09,2.22-.31,4.6,1.65,6.1a8,8,0,0,0,6.25,1.2C1048.38,299.88,1047.84,283,1036.93,283Zm1.21,15.77a5.33,5.33,0,0,1-4.24-.11c-1.3-.79-0.9-2.35-1-3.67-0.11-2.68,0-8.89,4.12-9C1044,286.16,1044.32,296.61,1038.15,298.77Z" transform="translate(-936.91 -247.05)"/><path d="M1058.37,283.51c-1.21,1.43-1,3.2-.94,5,0.18,3.4.22,7-2.05,9.84-1.31,1.63-3.85,2.77-4.53.14a12.8,12.8,0,0,1,.12-3.56c0.17-2.86.53-5.57,0.53-8.47,0-1.93-3-1.77-3,.16,0,4-1,8.06-.65,12,0.24,2.74,1.83,4.64,4.72,4.51,3.42-.16,5.48-2.89,6.73-5.77a13.42,13.42,0,0,0,1.26-5.66c0-1.4-.86-5.11.07-6.2C1061.87,284,1059.62,282,1058.37,283.51Z" transform="translate(-936.91 -247.05)"/><path d="M1094.66,290.33c0.09-.21.09-0.1-0.19,0a4.73,4.73,0,0,1-.93.13c-0.54.05-1.09,0.06-1.63,0.06h-3.53c-0.08-.95-0.18-1.89-0.33-2.83-0.72-4.74,4.49-3.43,7.28-5.42,1.57-1.12-.09-3.62-1.67-2.49-2.91,2.08-7.87.59-8.73,5.14-0.39,2.07.47,4.2,0.6,6.23,0,0.19,0,.39,0,0.59a1.74,1.74,0,0,0,0,.53c0.09,2.37,0,4.83-.12,7.16a1.51,1.51,0,0,0,2.33,1.17l1-.82a1.62,1.62,0,0,0-.28-2.67c0-1.19,0-2.38,0-3.56,1.65,0,3.32.07,5-.06,1.38-.1,3.22-0.33,3.84-1.79C1098.09,289.9,1095.41,288.55,1094.66,290.33Z" transform="translate(-936.91 -247.05)"/><path d="M1103.5,289.42c0-1.94-3-1.77-3,.16,0,3.56.28,7.17-.39,10.65-1.29.71-.35,3.05,1.36,2.69l0.4-.09a1.48,1.48,0,0,0,1-1.11C1103.85,297.7,1103.5,293.56,1103.5,289.42Z" transform="translate(-936.91 -247.05)"/><path d="M1103.49,280.87a1.53,1.53,0,0,0-2.12.14l-0.5.5a1.5,1.5,0,0,0,2.26,2l0.5-.5A1.52,1.52,0,0,0,1103.49,280.87Z" transform="translate(-936.91 -247.05)"/><path d="M1119,282.42a1.5,1.5,0,0,0-3,.16c0.12,2.44,1,4.87,1.45,7.29a37.72,37.72,0,0,1,.75,5.37l0,1.17c-0.14.44-.24,0.8-0.31,1.08-2.12-1.32-3.71-4.34-5-6.25-1.1-1.61-3.91-5.12-5.68-2-0.64,1.12-.42,3.22-0.59,4.43-0.15,1.06.28,3.32,0,4.57a1.21,1.21,0,0,0-.58,1l0,0.3c-0.13,1.39,1.53,2.54,2.6,1.3s0.94-2.69.9-4.37a24.73,24.73,0,0,1,.46-3.65c0.76,1.09,1.95,2.39,2.42,3a24.93,24.93,0,0,0,3.25,3.56c1.62,1.4,4.17,2.63,5.25,0C1123,294.13,1119.24,287.61,1119,282.42Z" transform="translate(-936.91 -247.05)"/><path d="M1134.93,285.52a9.63,9.63,0,0,0-3.41-2c-0.33-.14-5.43-2.15-5.1-0.52-0.39-1.89-3.23-.92-2.85.95l0.09,0.41a1.44,1.44,0,0,0,1.11,1l0.73,0.06a70.42,70.42,0,0,0-.5,8c0,1.54-.36,3-0.48,4.48-0.05.64,0.08,1.32,0,2a1.28,1.28,0,0,0-.53,1.17,3.6,3.6,0,0,0-.33.19c-1.56,1.13.1,3.63,1.67,2.49,0.87-.63,3.09-0.47,4.18-0.76a19.93,19.93,0,0,0,5.3-2.5c2.74-1.62,4.42-2.79,4.19-6.27A14.67,14.67,0,0,0,1134.93,285.52Zm0.47,10.2c-1.09,2.27-4.41,3.82-6.83,4.42a8.08,8.08,0,0,1-1,.17,44.89,44.89,0,0,0,.38-4.69c0.32-3.28.06-6.52,0.53-9.81,0,0,0-.06,0-0.08a8,8,0,0,1,3.7,1.37C1134.55,288.85,1136.68,293,1135.4,295.72Z" transform="translate(-936.91 -247.05)"/><path d="M983.92,309a20.07,20.07,0,0,1-4.65.06,17.33,17.33,0,0,0-4.35-.56,1.33,1.33,0,0,0-1.36,1.32,1.63,1.63,0,0,0-.19.19c-1.45,1.79-1,3.93-.87,6.07,0,0.62,0,1.23,0,1.85a1.52,1.52,0,0,0,0,2c0,2.56-.05,5.12-0.06,7.67v0.35c0,1.94,3,1.77,3-.16v-7.19c0.61,0,1.22-.06,1.83-0.06a18,18,0,0,0,4.06-.16,1.47,1.47,0,0,0,1-1.11l0.09-.41a1.52,1.52,0,0,0-2.66-1.24c-0.87.07-1.77-.07-2.64-0.07-0.58,0-1.17.06-1.75,0.07-0.17-1.84-.52-4.69.21-5.58a1.56,1.56,0,0,0,.27-0.49,7.39,7.39,0,0,1,1.89.22,10.44,10.44,0,0,0,1.92.41,42.17,42.17,0,0,0,4.37-.13C986,312,985.85,309,983.92,309Z" transform="translate(-936.91 -247.05)"/><path d="M997.42,327c-0.58-2.56-2.61-4.53-5-5.87,2.19-.82,3.89-2,3.64-5.12-0.21-2.65-2.44-6-5.16-6.57-3.44-.78-4.6,2.53-4.55,5.29a134.84,134.84,0,0,0,.69,15.24,1.55,1.55,0,0,0,1.19,1.39l0.41,0.09a1.52,1.52,0,0,0,1.28-2.62c-0.21-1.93-.3-3.85-0.35-5.77,2.24,0.94,4.43,2.59,5,4.9C995,329.86,997.85,328.89,997.42,327Zm-6.8-14.48c0.7-.09,2.1,2.15,2.23,2.62,0.75,2.63-1.28,3.33-3.3,3.87,0-.87,0-1.74-0.06-2.62C989.47,315.36,988.91,312.77,990.62,312.54Z" transform="translate(-936.91 -247.05)"/><path d="M1012,316.87c-0.12-3.76-1.38-9.59-6.09-9.37a1.48,1.48,0,0,0-1.19,2.23,5.72,5.72,0,0,0-1.56.74c-2,1.31-2.3,3.07-2.76,5.22-0.94,4.38-.39,11,5.45,11.31C1011.27,327.33,1012.14,320.79,1012,316.87Zm-3.7,5.45c-2.94,4.51-5.41-.65-5.34-3.4a15.49,15.49,0,0,1,.56-3.54c0.08-.31,1.24-3.76,2.48-2.75a1.5,1.5,0,0,0,2.22-.36C1009.51,315.23,1009.16,321,1008.31,322.32Z" transform="translate(-936.91 -247.05)"/><path d="M1033.87,311c-4-1.48-7.23,4.9-9.26,8.19-2.33-2.27-5.06-8.1-8.32-6.43-1.71.88-1.28,3.39-1.35,5-0.16,3.68.58,7.19,0.56,10.87,0,1.93,3,1.77,3-.16a48.41,48.41,0,0,0-.58-6.5,20.16,20.16,0,0,1,0-3.26q0.07-1.09.11-2.19-0.77-1.07-.12-0.43c1.12,0.24,2.57,2.88,3.14,3.63a8,8,0,0,0,3.31,2.95,1.54,1.54,0,0,0,1.8-.35c0.9-1.2,1.52-2.5,2.3-3.77,0.49-.79,3-4.51,4.06-4.52,1.3,0,.54,10.55.52,12.11,0,1.93,3,1.76,3-.16C1036,322.73,1038,312.51,1033.87,311Z" transform="translate(-936.91 -247.05)"/><path d="M1066.42,308.5a17.26,17.26,0,0,0-4.06.13,16.5,16.5,0,0,1-3.13.85c-1.94.15-3.92,1.61-5.8,1.53s-1.75,2.91.16,3,3.78-1.44,5.8-1.53l0.6,0c0,2.29-.12,4.59-0.1,6.88,0,1.58.3,4,2.31,4.15s2.54-2.78.62-2.94c0.1,0,.16-6,0.18-8.79a14.82,14.82,0,0,1,3.59-.25C1068.51,311.49,1068.35,308.5,1066.42,308.5Z" transform="translate(-936.91 -247.05)"/><path d="M1080,327.92c-0.57-5.66-.5-11.28-0.5-17,0-1.94-3-1.77-3,.16,0,2.66,0,5.31,0,7.95-1.25.07-2.51,0.27-3.75,0.42s-2.14.54-3.22,0.6c0-.19,0-0.39.06-0.58a12.17,12.17,0,0,0,.22-4.76,1.51,1.51,0,0,0-2.26-.77l-0.41.33a1.59,1.59,0,0,0-.09,2.39c0,1.29-.52,2.63-0.59,3.89-0.1,2,0,4,0,6s3,1.77,3-.16c0-1.11-.06-2.25-0.07-3.38a15.18,15.18,0,0,0,2.72-.44,27.64,27.64,0,0,1,4.47-.58c0.07,2,.19,4,0.39,6.06S1080.19,329.84,1080,327.92Z" transform="translate(-936.91 -247.05)"/><path d="M1092.37,322c-1.57,1.7-6.1,3.7-6.83.19a15.9,15.9,0,0,1-.24-3.4,6.76,6.76,0,0,1,3.77-1.8,1.55,1.55,0,0,0,1.42-1.58,1.51,1.51,0,0,0-1.58-1.42,12.7,12.7,0,0,0-3.28,1c0.31-1.78.84-3.73,0.33-5.42a4.46,4.46,0,0,1,.72-0.05,5,5,0,0,0,1.58-.14,2.39,2.39,0,0,0,.6-0.29L1089,309c1.69,0.05,2.17-2.62.36-3a2.57,2.57,0,0,0-1.23,0,8,8,0,0,0-.9.55c0.26-.09-0.69-0.1-0.82-0.1a5.9,5.9,0,0,0-1.11.14,3.59,3.59,0,0,0-2.16,1.26,1.28,1.28,0,0,0-.56,1.53c0,0.05,0,.1,0,0.16a1.25,1.25,0,0,0,.65,1.19c0.41,2-.75,5.45-0.74,7.12,0,2.13-.29,4.91.83,6.83,2.48,4.28,8.76,2.1,11.39-.74C1095.94,322.57,1093.68,320.59,1092.37,322Z" transform="translate(-936.91 -247.05)"/><path d="M1122.73,319.67c-1.33-1-3-1.46-4.32-2.47-4.19-3.33.2-5.32,3.5-5.25a1.37,1.37,0,0,0,2.21,0l0.33-.41a1.52,1.52,0,0,0-.82-2.46c-4.35-.83-11.69,1.28-10.12,7.29,0.66,2.53,3.64,3.46,5.67,4.63s4.32,2.77,3.14,5.43c-1.92,4.33-5.37.55-5.9-1.93-0.4-1.89-3.25-.92-2.85.95,1.25,5.87,9.58,8.76,11.68,1.82A6.53,6.53,0,0,0,1122.73,319.67Z" transform="translate(-936.91 -247.05)"/><path d="M1137.16,325.25c-1.23.64-2.45,2-3.93,1.81-2.38-.3-2.27-3.16-2.33-4.86,0-.58,0-1.16,0-1.74a34.6,34.6,0,0,1,6.2-1c1.93,0,1.77-3-.16-3a33.15,33.15,0,0,0-6,.94c0-1.53.08-3.07,0.09-4.6a1.58,1.58,0,0,0,.64-0.35c0.34-.31.6-0.78,1-1.06a4.16,4.16,0,0,1,1.27-.45,10.75,10.75,0,0,1,3.23-1c1.93-.07,1.77-3.07-0.16-3-1.59.06-2.85,0.77-4.33,1.22a5.06,5.06,0,0,0-1.74.73c-0.58.44-1,1.08-1.48,1.56a1.32,1.32,0,0,0-.41.66,1.47,1.47,0,0,0-1,1.4c0,1.78-.07,3.56-0.1,5.35-0.32,0-.65.06-1,0.08a1.5,1.5,0,0,0,.16,3c0.27,0,.54,0,0.8-0.06,0,0.29,0,.57,0,0.86,0,2.07,0,4.47,1.26,6.25a4.64,4.64,0,0,0,3.83,2c2.61,0.17,3.71-1.18,5.86-2.29C1140.55,326.86,1138.86,324.37,1137.16,325.25Z" transform="translate(-936.91 -247.05)"/><path d="M1155.25,325.16c-0.72-1.11-.08-3-0.22-4.24-0.16-1.44-.79-2.83-1-4.26-0.21-1.19-.28-2.41-0.5-3.6-0.39-2.07-1-5.34-3.43-6-3.09-.86-4.62,2.66-5,5-0.24,1.39-.57,2.77-0.87,4.16a1.58,1.58,0,0,0-.28.27l-0.33.41a1.5,1.5,0,0,0,.13,2.08c0,0.07,0,.14,0,0.21-0.25,2.28-.84,4.56-0.07,6.76,0.64,1.82,3.49.88,2.85-.95-0.44-1.25,0-3.71.25-5.38,1.58,0,3.15-.39,4.74-0.56a31.27,31.27,0,0,1,.49,4.61,5.5,5.5,0,0,0,.85,3.14A1.5,1.5,0,0,0,1155.25,325.16Zm-6-15.18c0.65,0.22,1,2.4,1.15,3,0.24,1,.35,2.11.48,3.18-1.23.18-2.47,0.44-3.7,0.5,0.18-.81.37-1.61,0.54-2.44S1148.27,309.65,1149.27,310Z" transform="translate(-936.91 -247.05)"/><path d="M1174.17,303.68c-1.83-3.31-5.32-4.16-8.9-3.63-3.87.57-4.84,3.51-4.78,7,0,1.93,3,1.77,3-.16-0.08-4.78,5.38-4.74,7.42-2.61a5.78,5.78,0,0,1,.92,6c-1.09,3-3.69,3.63-5.82,5.58-2.85,2.61-3.39,4.87-1.26,7.91,1.1,1.58,3.6-.08,2.49-1.67-2.52-3.6,4.39-5.82,6.28-8.58A9.2,9.2,0,0,0,1174.17,303.68Z" transform="translate(-936.91 -247.05)"/><path d="M1168.49,328.37a1.53,1.53,0,0,0-2.12.14l-0.5.5a1.5,1.5,0,0,0,2.26,2l0.5-.5A1.52,1.52,0,0,0,1168.49,328.37Z" transform="translate(-936.91 -247.05)"/><path d="M965.81,296.53c-3.13-.81-1.82-7.74-3.09-10.21-1.59-3.08-4.33-2.39-7.19-1.74-1.88.42-.92,3.27,0.95,2.85,1.17-.26,1.89-0.72,3,0a2.07,2.07,0,0,1,.81.83,1.29,1.29,0,0,0-.47.4,9.34,9.34,0,0,0-3.42.65,5.28,5.28,0,0,0-2.27,2.13,8,8,0,0,0-.3,5.68c0.72,1.91,2.84,2.67,4.67,3.08a6.94,6.94,0,0,0,5.87-1,6.13,6.13,0,0,0,.86.29C967.07,300,967.67,297,965.81,296.53Zm-9.32-1.36a3.93,3.93,0,0,1,.51-2.72c0.82-1,2.4-.87,3.69-1,0.1,1,.22,2.05.41,3.07a8,8,0,0,0,.87,2.55C960,297.85,956.63,297.3,956.49,295.17Z" transform="translate(-936.91 -247.05)"/><path d="M1195.42,259.5a13.15,13.15,0,0,0-2.05.35,9.94,9.94,0,0,1-2.29.16,16.55,16.55,0,0,0-.07-2.33c-0.13-1.1-.85-2.45-0.16-3.5,1.06-1.61-1.64-2.94-2.68-1.34-1.38,2.11-.23,5.1-0.14,7.52a15.21,15.21,0,0,1-3.09.65,1.5,1.5,0,0,0,.16,3,14.11,14.11,0,0,0,2.93-.6,57.09,57.09,0,0,0,.58,9.59,1.56,1.56,0,0,0,1.19,1.39l0.42,0.09a1.52,1.52,0,0,0,1.26-2.64A63.37,63.37,0,0,1,1191,263a11.28,11.28,0,0,0,2.11,0,24.88,24.88,0,0,1,2.46-.47A1.5,1.5,0,0,0,1195.42,259.5Z" transform="translate(-936.91 -247.05)"/></svg>