<svg id="saaren_pinta" data-name="saaren pinta" xmlns="http://www.w3.org/2000/svg" viewBox="0 0 60.13 61.99"><title>raiskeet</title><path d="M98.52,85.09c-3.68-2.38-9.07-1.75-12.81.16-4.68,2.38-6.63,6.86-8.17,11.61-2,6.16-.79,11.85-1.51,18.11-0.3,2.57-.43.77-1-0.79a9,9,0,0,0-1.29-2.73A6.1,6.1,0,0,0,69,109.4c-5.15-.36-7.84,2.34-5.91,7.52,1.34,3.58,4.34,6.14,6.24,9.34A50.62,50.62,0,0,1,71.44,131c0.89,1.87,2.16,3.15,2.71,4.94a1.31,1.31,0,0,0-.46,1.59c1,2.68,1.42,5.47,3.43,7.6a1.51,1.51,0,0,0,2.46-.82c0.46-1.9.66-3.87,1.24-5.74a19,19,0,0,1,4-6.43,48.93,48.93,0,0,1,9.4-8.68c4.86-3.45,9.24-9.29,9.93-15.34C105,101.24,105.2,89.41,98.52,85.09Zm2.78,20.38A20,20,0,0,1,96,118.13c-2.2,2.43-5.21,3.86-7.65,6a45.06,45.06,0,0,0-8.9,10.2,17.48,17.48,0,0,0-2,5.42c-0.12-.38-0.23-0.77-0.34-1.15a1.53,1.53,0,0,0,.25-0.81c0.11-3.42-1.76-5-3.17-7.86-0.84-1.71-.81-3.66-1.74-5.33s-2.75-2.9-3.91-4.38A16.17,16.17,0,0,1,65.93,116c-1.09-3.08,1-4.7,4-3.49s2.11,5.19,4.94,6.66c3,1.56,4-1.35,4.2-3.9,0.49-7.45-.48-14.2,2.7-21.31C84.35,88,94.44,82.74,99,89.81,101.74,94.16,101.5,100.5,101.3,105.48Z" transform="translate(-62.45 -83.55)"/><path d="M122.34,123.52c-1.35-3.68-6.28-4.18-9.57-3.6-5.39.94-7.83,6.18-11.24,9.87a1.42,1.42,0,0,0,.45,2.26,1.51,1.51,0,0,0,2.59,1.29c3-3.51,8.81-2,12.83-3.45C120,129,123.55,126.83,122.34,123.52Zm-5.23,3.27c-3.47,1.5-7.59.9-11.06,2.08,1.67-2.3,3.45-4.74,5.89-5.68a8.57,8.57,0,0,1,5.73-.08C120.57,124.28,119.07,125.95,117.11,126.8Z" transform="translate(-62.45 -83.55)"/></svg>