<svg id="liikkuvat_riutat" data-name="liikkuvat riutat" xmlns="http://www.w3.org/2000/svg" viewBox="0 0 202.37 84.27"><defs><style>.cls-1{fill:#fff;}</style></defs><title>riutta2</title><path class="cls-1" d="M333.24,1061.35c-0.27-2.9-2.71-4.44-5.26-4.85-5.64-.9-11.8,0-17.5,0-6.94,0-13.52,0-20.37-1.33-12.31-2.41-24.6-4.18-37.15-4.17h0c-14.24-.11-28.56.17-42.74,1.36-6,.5-12,0.93-17.92,1.57-4.71.51-11,1.93-15,4.52a1.38,1.38,0,0,0-.83.3,46.58,46.58,0,0,0-11.53,12.65c-1.78,2.9-3.29,5.94-5.1,8.82-2.07,3.29-3.42,7-5.72,10.08-4,5.4-8.38,10.56-12.79,15.65-2.87,3.33-10.41,7.68-10.38,12.6,0,4.56,5.16,6,8.74,6.37a32.17,32.17,0,0,0,10-.38c4.68-1.09,10-4.63,15-2.51,3.19,1.36,4.55,5.1,7.54,6.75,2.38,1.31,5.42,1.31,8.05,1,2.33-.24,4.47-1.07,6.72.17,1.46,0.81,2.66,2.54,4.12,3.51a11.8,11.8,0,0,0,6.86,1.74,28,28,0,0,0,14.89-3.87,1.07,1.07,0,0,0,1.49-.92s0-.08,0-0.12a16.25,16.25,0,0,0,2.63-2.52c2.11-2.56,3.31-5.83,4.75-8.75a14.27,14.27,0,0,1,2.69-3.81,0.8,0.8,0,0,0,.83-0.55c0-.1.06-0.19,0.09-0.29a14.67,14.67,0,0,1,8.45-3.1,1.61,1.61,0,0,0,.65.19c2.8,0.21,5.3,2.64,7.17,4.41s4.37,3.21,6.37,5c3.78,3.43,6.44,7.5,11.54,9.32,7.91,2.83,18.14,2.48,23.66-4.37,1-1.22,1.87-2.29,2.76-3.24a0.94,0.94,0,0,0,.62-0.64,14.44,14.44,0,0,1,3.88-2.82,1.08,1.08,0,0,0,1-.41,17.44,17.44,0,0,1,4.51-1c5.41-.58,10.78-0.72,15.87-2.84,4.1-1.72,8.47-3.32,11.46-6.76s3.67-8,4-12.46a1.58,1.58,0,0,0,.09-0.51c0-.15,0-0.29,0-0.44l0-.31a1.42,1.42,0,0,0-.07-0.56c-0.35-3.87-2.39-7.2-3.91-10.79-2.31-5.44-1.38-11.43,4-14.59C330.07,1066.86,333.61,1065.33,333.24,1061.35Z" transform="translate(-130.9 -1050.98)"/><path d="M333.24,1061.35c-0.27-2.9-2.71-4.44-5.26-4.85-5.64-.9-11.8,0-17.5,0-6.94,0-13.52,0-20.37-1.33-12.31-2.41-24.6-4.18-37.15-4.17h0c-14.24-.11-28.56.17-42.74,1.36-6,.5-12,0.93-17.92,1.57-4.71.51-11,1.93-15,4.52a1.38,1.38,0,0,0-.83.3,46.58,46.58,0,0,0-11.53,12.65c-1.78,2.9-3.29,5.94-5.1,8.82-2.07,3.29-3.42,7-5.72,10.08-4,5.4-8.38,10.56-12.79,15.65-2.87,3.33-10.41,7.68-10.38,12.6,0,4.56,5.16,6,8.74,6.37a32.17,32.17,0,0,0,10-.38c4.68-1.09,10-4.63,15-2.51,3.19,1.36,4.55,5.1,7.54,6.75,2.38,1.31,5.42,1.31,8.05,1,2.33-.24,4.47-1.07,6.72.17,1.46,0.81,2.66,2.54,4.12,3.51a11.8,11.8,0,0,0,6.86,1.74,28,28,0,0,0,14.89-3.87,1.07,1.07,0,0,0,1.49-.92s0-.08,0-0.12a16.25,16.25,0,0,0,2.63-2.52c2.11-2.56,3.31-5.83,4.75-8.75a14.27,14.27,0,0,1,2.69-3.81,0.8,0.8,0,0,0,.83-0.55c0-.1.06-0.19,0.09-0.29a14.67,14.67,0,0,1,8.45-3.1,1.61,1.61,0,0,0,.65.19c2.8,0.21,5.3,2.64,7.17,4.41s4.37,3.21,6.37,5c3.78,3.43,6.44,7.5,11.54,9.32,7.91,2.83,18.14,2.48,23.66-4.37,1-1.22,1.87-2.29,2.76-3.24a0.94,0.94,0,0,0,.62-0.64,14.44,14.44,0,0,1,3.88-2.82,1.08,1.08,0,0,0,1-.41,17.44,17.44,0,0,1,4.51-1c5.41-.58,10.78-0.72,15.87-2.84,4.1-1.72,8.47-3.32,11.46-6.76s3.67-8,4-12.46a1.58,1.58,0,0,0,.09-0.51c0-.15,0-0.29,0-0.44l0-.31a1.42,1.42,0,0,0-.07-0.56c-0.35-3.87-2.39-7.2-3.91-10.79-2.31-5.44-1.38-11.43,4-14.59C330.07,1066.86,333.61,1065.33,333.24,1061.35ZM249,1054a65.77,65.77,0,0,1,13.82,5.2c5.39,2.63,9.45,6.37,15.5,7.67,5.87,1.27,12.16,1.5,18.15,1.68a108.56,108.56,0,0,1,11.78.47c3.21,0.44,9.55,1.13,11.16,4.57a13,13,0,0,0,.57,8.83,25.41,25.41,0,0,0-4.92-4.55,30.22,30.22,0,0,0-10.17-4.23c-8.24-1.72-16.9-.44-25.23-1.86-4.88-.84-9.54-2-13.74-4.69a65.12,65.12,0,0,0-10.65-6c-6.67-2.73-15-5.51-22.34-5.34a0.87,0.87,0,0,0-.85.62c-1.11-.82-2.24-1.63-3.38-2.38C235.49,1053.8,242.31,1053.89,249,1054Zm-112.3,60.73c2-2.24,4.46-4,6.44-6.3,4-4.63,7.89-9.33,11.69-14.14s6.51-10.44,9.57-15.77c3.69-6.43,7.61-12.72,13.67-17.23h0a1.47,1.47,0,0,0,.74-0.24,28.46,28.46,0,0,1,9.68-3.48c-0.15.18-.29,0.37-0.43,0.56-0.47.41-.93,0.82-1.39,1.27a11.11,11.11,0,0,0-2.19,2.26,15.5,15.5,0,0,1-1.9,2.63,0.85,0.85,0,0,0-.61.36c-4.11,5.42-5.87,12.46-10.27,17.78-2,2.47-5,4.42-7.29,6.62-2.79,2.68-5,5.59-8,8.11a162,162,0,0,0-13.37,12.42c-2.8,3-5.92,7.47-6.49,11.63C133.95,1119.85,134.46,1117.19,136.71,1114.69Zm1.8,7.07c0.58-4.94,4.4-8.91,7.77-12.18,2.52-2.45,4.87-5.06,7.45-7.48s5.5-4.22,7.79-6.8c3.82-4.32,9.17-7.92,12.42-12.63,3.46-5,5.55-11.09,9-16a0.77,0.77,0,0,0,.31-0.29,11.19,11.19,0,0,0,1.13-1.21c-0.86,2.26-1.57,4.57-2.26,6.69-1.51,4.65-2.18,8.76-5.36,12.71-2.18,2.71-5.09,4.76-7.37,7.4-4.25,4.93-9.2,9.78-12.9,15.13-2.51,3.63-5.22,8.59-4.3,13.17C147.77,1121.54,143.39,1122.85,138.51,1121.75Zm25.32-2.88a11,11,0,0,0-4.09-.25,36,36,0,0,0-5.58,1.11c-1.34-6.47,5.48-12.67,9-17.12a112.43,112.43,0,0,1,10.74-12.42c3.88-3.63,7.57-7.48,8.94-12.8s2.87-12.67,6.44-17.68l0.82-.7a41.46,41.46,0,0,0-3.39,9.48c-1.78,7.34-3.16,13.67-6.9,20.33-3.21,5.7-6.28,11.36-9.74,16.94C167.51,1109.94,164.34,1114,163.83,1118.88Zm34.72,13.35a11,11,0,0,1-4.68-.73,8.38,8.38,0,0,1-2.09-1.25c3-8.67,3.3-17.69,4.23-26.74,1.15-11.23-.44-22.6,1-33.79,0.16-1.27-1.8-1.69-2-.41-2.47,19.63,1.74,40.43-4.85,59.53a16.9,16.9,0,0,0-1.31-1.08c-3.56-2.63-7.65-.92-11.48-0.9,0.65-3.22,2.27-6.3,3.44-9.33,1.27-3.31,2.37-6.64,3.55-10,2-5.53,3.17-11.36,4.62-17s2.05-11.64,3-17.46a56.38,56.38,0,0,1,2.46-8.26c0.65-2,.69-4.19,1.41-6.07,0.46-1.19-1.33-2.1-1.79-.89-1.47,3.84-2.32,8.39-3.39,12.42-1.57,5.92-2,12.2-3.3,18.21a181.15,181.15,0,0,1-5.49,20c-2,5.82-5.5,12.13-6.55,18.25a6.86,6.86,0,0,1-3-1.44c-2.61-2.14-4.3-4.28-6.56-5.53,0.26-6,5.25-11.79,8.29-16.6s5.49-9.87,8.39-14.76c5.69-9.6,4.32-22.89,11.5-31.53l1-.07c1.23-.06,2.47-0.15,3.71-0.23,1,2.74.61,6.66,0.6,9.19,0,4-.3,8-0.68,12a81.7,81.7,0,0,0,.29,19.64,110.48,110.48,0,0,1,1.21,17.33C200,1120.26,200,1126.7,198.55,1132.22Zm12.79-3.56a24.69,24.69,0,0,1-10.59,3.37h-0.08c1.24-5.14,1.25-10.72,1.43-16a121.68,121.68,0,0,0-1.41-20.47c-1.07-7.88-.18-15.7.37-23.58,0.3-4.22,1.3-11.05-.29-15.72l1.57-.15c2.47,4.72,1.91,11.92,1.92,16.92,0,7-.34,14.06.66,21,0.84,5.77,1.73,11.53,3.1,17.2,1.31,5.43,3.7,11.14,4.17,16.76C211.91,1128.26,211.64,1128.47,211.34,1128.67Zm6.41-8.24a25.77,25.77,0,0,1-3.77,5.94c-0.67-4.46-2.42-8.74-3.46-13.19a168.27,168.27,0,0,1-4-22.62c-0.67-7-.24-14.27-0.23-21.33a58.8,58.8,0,0,0-.37-7.44c3.7,8.65,3.42,19.61,5,28.38,1.76,10,5.65,19.19,7.43,29.08C218.11,1119.64,217.95,1120,217.76,1120.43Zm2.92-6.21a7.65,7.65,0,0,0-1.05,1.61c-2.29-10.58-6.29-20.63-7.62-31.58-1.12-9.21-1.63-20.39-7.15-28.31l0.51-.05c3.18,3.9,6.39,8.9,7.88,13.56,1.88,5.83,2,12.11,2.73,18.14,0.29,2.54.71,5.15,0.78,7.7,0.07,2.25-.22,4.47.55,6.64,0.87,2.45,5.11,6.67,6,9.84A16.33,16.33,0,0,0,220.68,1114.22Zm4.3-3.5a31.37,31.37,0,0,0-3.34-5.32,16,16,0,0,1-2.89-9.52c-0.07-3-.54-6.11-0.87-9.15-0.66-6-.93-12.11-2.73-17.91a33.72,33.72,0,0,0-3-6.61l0.19,0.12c1.06,1.78,2,3.59,3,5.38,0.21,0.49.43,1,.61,1.5,2.09,5.8,2.73,12.35,3.57,18.44,0.73,5.37,3.52,8.42,6.44,12.72,0.53,0.78,5,5.5,6.42,8A19.41,19.41,0,0,0,225,1110.72Zm26.84,10.13c-2.66-3-6.08-4.95-8.93-7.73a15.21,15.21,0,0,0-6.75-4.28,1.42,1.42,0,0,0-1.21-.59h-0.26c-0.69-1.55-2.39-3-3.2-4.11-4.1-5.43-8.91-10.55-10-17.46-0.65-4.3-1.18-8.79-2.16-13.1,3.79,5.14,7.76,10,11.82,14.94,9.23,11.29,21.57,21,24.34,35.79A28,28,0,0,1,251.81,1120.85Zm17,7.64a21.22,21.22,0,0,1-11-2.66,39.36,39.36,0,0,0-6-16.57c-4.64-6.81-11.14-12.59-16.46-18.86-5.18-6.1-10-12.19-14.83-18.6a54.93,54.93,0,0,1-3.4-5.25c-0.25-.56-0.51-1.1-0.78-1.63a24.27,24.27,0,0,1,3.05,2.44c3,2.84,5.65,5.9,8.47,8.86,5.54,5.82,11.37,11.41,16.54,17.59A202.39,202.39,0,0,0,259.06,1109c5,4.88,13.8,11.58,15.45,18.94A22.84,22.84,0,0,1,268.83,1128.5Zm12.45-5.35a13,13,0,0,1-4.89,4.12c-1.46-5.83-6.71-10.36-10.66-14.59-6.08-6.51-12.92-12.25-18.81-18.93-5.29-6-10.57-12-16.29-17.57-1.68-1.64-3.3-3.37-4.92-5.1a47.26,47.26,0,0,1,6.69,4.68c6.09,5.6,12.4,10.64,18.34,16.42,4.58,4.46,9,10.23,14.93,12.95,7.36,3.4,17.07,5.51,18.62,14.44A43.9,43.9,0,0,0,281.28,1123.15Zm7.21-6.79a13.71,13.71,0,0,0-2.53,1.66,17.57,17.57,0,0,0-9.72-11c-2.95-1.35-6.12-2.15-9.06-3.55-4.21-2-7.27-5-10.57-8.2-3.12-3-6.31-6.14-9.27-9.33s-6.1-5.26-9.35-8c-2.78-2.32-5.2-5-8.28-6.85-1.59-1-3.15-2.06-4.75-3-0.48-.29-3.52-1.57-3.75-2.21a1,1,0,0,0-1.2-.6,71.15,71.15,0,0,0-6-4.19c-1.35-1.95-2.84-3.78-4.41-5.69l0.63-.07c14.76,11.48,32.55,20.29,44.87,34.67,4.26,5,9,10.25,15.08,12.85,6.7,2.85,17.48,5.06,19.08,13.12C289,1116.13,288.75,1116.23,288.48,1116.36Zm10.86-1.89a48.08,48.08,0,0,0-8.14.91c-1.1-4.91-5.18-8.49-10-10.23-4-1.44-8.64-3-12.32-5-4.14-2.3-8.27-6.54-11.23-10.15-12-14.68-29.59-23.62-44.55-34.93l0.42,0c1-.12,2-0.21,3-0.31a1,1,0,0,0,.22.19c3,1.67,6,3,8.71,5.14,1.68,1.32,3.79,3.65,6,3.71a0.91,0.91,0,0,0,.47-0.11c11.18,7.57,21.89,15.77,32.62,23.95,5.58,4.26,12.51,6.52,19.07,8.82,8,2.81,23.14,6.27,23.29,16.72A39.87,39.87,0,0,1,299.34,1114.47Zm19-6.36a19,19,0,0,1-4,2.35c-1.79.78-3.56,1.47-5.34,2.05-0.29-6.58-5.45-10.12-11.2-12.84-8.79-4.17-18.52-6.15-27.18-10.64-3.59-1.86-6.42-4.7-9.75-6.92a99.14,99.14,0,0,1-11.06-8.28c-5.23-4.66-11.57-8.41-17.38-12.33a1.07,1.07,0,0,0-1.35.13,19.59,19.59,0,0,1-2.24-1.48c-1.45-1-2.67-2.2-4.14-3.15s-3-1.78-4.57-2.59c1.66-.12,3.33-0.21,5-0.28,7.43,4.25,13.72,10.44,21.2,14.69s13.76,9.43,21.61,12.79c8.26,3.53,17.43,5.42,26.07,7.75,4.85,1.31,9.91,2.71,14.61,4.48C313.56,1095.7,320.32,1102.26,318.35,1108.11Zm2.25-2.16c0-5.17-4-10.38-8.48-12.9s-10-3.17-14.7-4.66c-5.18-1.64-10.44-2.94-15.65-4.53a161.75,161.75,0,0,1-17.71-6.14c-4.26-1.85-8.18-5.36-12.21-7.78-2.11-1.27-4.26-2.55-6.38-3.88a39.45,39.45,0,0,1,22.49,8.27,38.51,38.51,0,0,0,17.34,7.47c7.56,1.06,15,.9,22.43,2.8,6.34,1.62,14.27,8.6,15.62,15.7A14.72,14.72,0,0,1,320.6,1105.95Zm3.64-11.25c0,0.57-.09,1.12-0.15,1.66-1.59-3.29-4.26-6.17-7-8.94-5.74-5.88-15.16-6.07-22.79-6.78-5.23-.49-10.2-0.8-15.17-2.61s-8.58-4.58-12.81-7.5c-6.82-4.72-15.24-6.59-23.41-6.52a0.94,0.94,0,0,0-.45.12c-1.35-.9-2.68-1.83-4-2.81-1.51-1.16-3-2.37-4.59-3.55,7.53,0.08,16.72,3.22,23.31,6.39,3.65,1.76,6.74,4.42,10.32,6.27a36.73,36.73,0,0,0,9.92,3c7.14,1.39,14.38,1.45,21.62,1.63a28,28,0,0,1,13.44,3.62c3.78,2.15,5.81,5.46,9,8.12a1,1,0,0,0,.41.21A20.66,20.66,0,0,1,324.24,1094.7Zm-3.88-23.35c-2.95-3.5-9.47-4.13-13.42-4.53-7.68-.79-15.44-0.35-23.13-1.18-4.56-.49-9.14-1.43-13.11-3.88-3.14-1.93-5.79-4-9.27-5.48-1.81-.76-3.67-1.53-5.55-2.24,2.36,0,4.7.16,7,.32,3.78,1,7.52,2.1,11.33,3.12,5.55,1.48,11,3.81,16.63,4.85s11.34,1.45,17,2.21c2.43,0.33,12.93.75,15.24,3.24A15.32,15.32,0,0,0,320.36,1071.35Zm6.48-6a8.27,8.27,0,0,1-2.12,1.12c-1.86-2.11-6.54-2.39-8.86-2.8-6.39-1.13-12.85-1.77-19.29-2.54-7.9-.94-15.74-3.36-23.48-5.79,4.85,0.62,9.69,1.42,14.52,2.37a127,127,0,0,0,32.11,1.66c1.38-.08,7-0.93,7.86.09C328,1060,327.11,1065.08,326.84,1065.39Z" transform="translate(-130.9 -1050.98)"/></svg>