<svg id="liikkuvat_riutat" data-name="liikkuvat riutat" xmlns="http://www.w3.org/2000/svg" viewBox="0 0 157.94 92.75"><defs><style>.cls-1{fill:#fff;}</style></defs><title>riutta1</title><path class="cls-1" d="M321.69,1008c-7.37-.44-14.63,1.15-22,1.3-9.08.18-18.26-.09-27.35-0.19-8.39-.09-16.57-1.81-24.95-1.81-4.06,0-8.09.22-12.14,0.25-3.46,0-7.27,0-10.52,1.33a1.47,1.47,0,0,0-.87.92c-1,1-1.71,2.17-2.7,3.13-2.15,2.08-5.24,3.41-7.88,4.72-3.49,1.74-6.67,4-10,6-8,4.93-17.09,8-23.46,15.17-5.58,6.33-7.7,15.39-9.08,23.51-1.05,6.15-.23,14,3.47,19.27a1.67,1.67,0,0,0,.21.24c2.2,5.67,4.23,10.87,9.77,13.92,6.52,3.59,13.28,4.31,20.59,4.25a1.29,1.29,0,0,0,1.13-.59,47.69,47.69,0,0,0,18.53-5.63c4.9-2.74,8.2-8.27,12.77-11.57a1.06,1.06,0,0,0,1.21-.8,12.89,12.89,0,0,1,3.5-1.48,1.43,1.43,0,0,0,.52-0.24,1,1,0,0,0,1.13-.47c5.61-.84,11.1-0.37,16.83-0.72,4.11-.25,8.62-0.72,12.09-3.22,3.18-2.3,4.12-5.87,5.34-9.37,1.84-5.3,4.65-10.47,7.21-15.47a1.43,1.43,0,0,0,.16-0.8c5-9.07,16-1.73,23.55-3,5.8-1,5.66-5.89,7.15-10.63,1.4-4.46,3.29-8.92,6.4-12.51,1.91-2.21,4.45-3.8,5.45-6.67C329.5,1012,326.61,1008.25,321.69,1008Z" transform="translate(-170.36 -1007.25)"/><path d="M321.69,1008c-7.37-.44-14.63,1.15-22,1.3-9.08.18-18.26-.09-27.35-0.19-8.39-.09-16.57-1.81-24.95-1.81-4.06,0-8.09.22-12.14,0.25-3.46,0-7.27,0-10.52,1.33a1.47,1.47,0,0,0-.87.92c-1,1-1.71,2.17-2.7,3.13-2.15,2.08-5.24,3.41-7.88,4.72-3.49,1.74-6.67,4-10,6-8,4.93-17.09,8-23.46,15.17-5.58,6.33-7.7,15.39-9.08,23.51-1.05,6.15-.23,14,3.47,19.27a1.67,1.67,0,0,0,.21.24c2.2,5.67,4.23,10.87,9.77,13.92,6.52,3.59,13.28,4.31,20.59,4.25a1.29,1.29,0,0,0,1.13-.59,47.69,47.69,0,0,0,18.53-5.63c4.9-2.74,8.2-8.27,12.77-11.57a1.06,1.06,0,0,0,1.21-.8,12.89,12.89,0,0,1,3.5-1.48,1.43,1.43,0,0,0,.52-0.24,1,1,0,0,0,1.13-.47c5.61-.84,11.1-0.37,16.83-0.72,4.11-.25,8.62-0.72,12.09-3.22,3.18-2.3,4.12-5.87,5.34-9.37,1.84-5.3,4.65-10.47,7.21-15.47a1.43,1.43,0,0,0,.16-0.8c5-9.07,16-1.73,23.55-3,5.8-1,5.66-5.89,7.15-10.63,1.4-4.46,3.29-8.92,6.4-12.51,1.91-2.21,4.45-3.8,5.45-6.67C329.5,1012,326.61,1008.25,321.69,1008Zm2.67,4.47c-8-.46-15.9-0.35-23.86-0.39q6-.27,12-0.77C315.18,1011,322,1009.82,324.35,1012.43Zm-110.71,8.51c1,0.78,1.85,1.67,2.77,2.52a14.2,14.2,0,0,0-4.73-1.4C212.33,1021.67,213,1021.3,213.65,1020.94Zm-38.91,37.21c1.85-9,5.59-18.14,13.94-22.91,2.38-1.36,4.78-2.69,7.19-4-1.33,2-2.34,4.18-3.77,6.36a69.37,69.37,0,0,0-6.79,12.59,97.31,97.31,0,0,0-3.88,13,83.84,83.84,0,0,1-3.05,10.48,31.27,31.27,0,0,1-2.22,5.29C172.39,1072.8,173.36,1064.84,174.73,1058.15Zm4.61,27.41c-0.78-1.56-1.45-3.19-2.07-4.79,1.74-2.23,2.66-5.24,3.57-7.82,2-5.55,2.57-11.52,4.6-17,1.6-4.35,3.07-8.9,5.44-12.93,1.29-2.19,2.89-4.19,4.2-6.37,1.77-3,2.75-5.73,5.84-7.58-1.4,3.5-2.68,7-4.45,10.42-2.65,5.11-3.4,11.11-5.86,16.41-2.38,5.11-4,10.23-5.93,15.53C183,1076,180.71,1080.8,179.34,1085.56Zm4.33,5.91a16.34,16.34,0,0,1-2.91-3.41c1.27-5.69,4.19-11.38,6.18-16.87s3.71-10.61,6.08-15.86c2.17-4.81,2.86-10.35,5.22-15,1.28-2.5,2.5-4.74,3.58-7.34,0.86-2.07,1.46-4.39,2.32-6.46l0.11-.06V1033a0.81,0.81,0,0,0-.23.52c-0.48,6.08-3.39,10.52-5.41,16.06-1.67,4.58-2.23,9.55-3.71,14.2-1.7,5.35-2.86,10.72-5.22,15.84a73.49,73.49,0,0,1-3,6.71C185.66,1088,184.51,1089.71,183.67,1091.47Zm11.91,3.78a3.14,3.14,0,0,0-.73,1,33.39,33.39,0,0,1-8.47-2.91c-0.37-.19-0.72-0.39-1.07-0.61,0.76-1.67,1.87-3.35,2.76-4.88,1.36-2.34,2.26-4.82,3.4-7.27,2.24-4.81,3.32-9.65,4.87-14.69,1.67-5.42,2.27-11.8,4.62-16.92,2.17-4.73,4.25-8.68,4.88-13.89a74.62,74.62,0,0,1,.06,9.92c-0.36,5.35-1.86,11-3.23,16.2s-3.19,10.32-4.17,15.62c-1.09,5.9-1.47,11.69-3,17.51a0.85,0.85,0,0,0,.17.81A1.36,1.36,0,0,1,195.58,1095.25Zm9.09,1.25a1.37,1.37,0,0,0-1,.49,50.17,50.17,0,0,1-6.57-.42,3.43,3.43,0,0,0,.91-2.12,1.16,1.16,0,0,0-.24-0.84c1.29-5.44,1.71-10.89,2.72-16.41,1.07-5.84,3.22-11.44,4.56-17.22,1.14-4.89,2.61-10,2.93-15,0.42-6.58-.3-12.93-0.94-19.44,2.5,5.25,1.54,13,1.48,18.45s1.34,10.61,2.32,16a107.05,107.05,0,0,1,1.19,17.47c0.08,6.39-.07,13-3.37,18.56A34.88,34.88,0,0,1,204.67,1096.5Zm16.14-4.18a45.77,45.77,0,0,1-9.63,3.27c2.28-4.57,2.71-9.52,2.81-14.74a118.09,118.09,0,0,0-.79-18.93c-1-7-2.81-13.32-2.67-20.43,0.08-4.08.4-9.18-.63-13.58a38.05,38.05,0,0,1,3.11,14.18c0.14,5.76.64,11.37,1.11,17.1,0.42,5.1,2.34,10.15,3.65,15.1C218.83,1078.27,223.26,1088,220.82,1092.32Zm7.25-5a26.67,26.67,0,0,1-2.64,2.31,23.66,23.66,0,0,1-2.14,1.4c0.47-3.25-.82-7.22-1.55-9.94-2-7.36-5.25-15.24-5.75-22.85-0.2-3.1-.69-6.16-0.92-9.25-0.18-2.44-.08-4.88-0.12-7.31,0.51,1.9,1,3.81,1.51,5.77,1.14,4.23,2.93,8.23,4.35,12.36s2.79,8.12,4.47,12A31,31,0,0,1,228.07,1087.28Zm-13.53-53.21c0.36,0.49.71,1,1.05,1.5a1,1,0,0,0-.3.45C215.06,1035.36,214.81,1034.71,214.54,1034.06Zm15.69,51a24.4,24.4,0,0,0-1.12-9.7c-1.67-4.58-3.79-8.94-5.47-13.53-1.55-4.22-3.28-8.44-4.63-12.72-1.26-4-2.05-8-3.32-11.86q1.1,1.66,2.22,3.25c1.56,4.14,2.75,8.55,4.31,12.68,1.76,4.65,5.1,7.78,7.79,11.88a50.58,50.58,0,0,1,4.65,8,27.64,27.64,0,0,1,1.41,6.44A42.18,42.18,0,0,0,230.24,1085Zm11-8.45a1.17,1.17,0,0,0-.93.71,13.53,13.53,0,0,0-2.45,1.06,24.33,24.33,0,0,0-1.33-6,40.46,40.46,0,0,0-3.42-6.26c-3.41-5.32-7.6-9.75-9.78-15.78-0.55-1.52-1-3.1-1.55-4.7a83.63,83.63,0,0,0,7,7.72c5.92,5.72,11.45,14.66,12.67,23.16Zm2.21-.36a37.35,37.35,0,0,0-3.29-10.29,50.43,50.43,0,0,0-7.08-11.09c-2.71-3.07-5.78-5.8-8.52-8.86a62,62,0,0,1-4.73-6.09,37.21,37.21,0,0,0-1.84-4.24c-1.21-2.31-2.89-4.2-4.28-6.39,1.71,2,3.43,3.9,5.29,5.7,4.29,4.16,8.88,8,13.17,12.16,2.12,2.07,4.62,3.85,6.63,6,2.38,2.56,4.27,6.18,5.88,9.3,2.17,4.21,2.36,9.26,4.69,13.31A51.91,51.91,0,0,0,243.48,1076.21Zm11.57-.48c-1.14,0-2.23,0-3.3,0-3.21-4.5-3.32-10.89-6.11-15.75a61.54,61.54,0,0,0-4.31-7c-1.8-2.33-4.41-4.05-6.53-6.07-4.44-4.23-9-8.31-13.46-12.51-2.33-2.19-4.46-4.59-6.58-7,9.43,5,14.91,15.06,23.66,21.11a162,162,0,0,1,14.77,11.05c3.12,2.75,4.31,5.68,5.91,9.42,0.92,2.16,2.46,4.26,3.11,6.56A55.94,55.94,0,0,1,255.06,1075.73Zm14.61-2.4a17.47,17.47,0,0,1-5.47,1.88c-0.69-2.44-2.21-4.49-3.18-6.9-1.29-3.19-2-5.81-4.48-8.46-4.17-4.5-10.21-8.24-15.12-11.85a64.4,64.4,0,0,1-7.22-5.76c-2.52-2.47-4.54-5.24-7.19-7.56-4.69-4.11-8.68-8.17-14.47-10.47,5.75,1.14,11.26,7.14,15.84,10.1,6,3.86,13.13,5.26,18.73,9.77,4.72,3.8,10.1,6.7,14.42,11,4.76,4.7,10.48,8.83,10.71,16.08A8.58,8.58,0,0,1,269.66,1073.33Zm6.62-11.94c-0.94,2.2-1.49,4.6-2.39,6.76-1.06-4.8-4.37-8.18-8-11.75-5.43-5.33-11.41-9.28-17.46-13.84-6.48-4.89-14.45-6.64-21-11.36-1.66-1.2-3.38-2.63-5.18-4,2.43,1.14,5,2.15,7.31,3.27,6.54,3.2,13.47,5.79,20.17,8.63s11,8.3,16.2,13.35c3.26,3.17,6.63,6.42,11.36,6.77C276.94,1059.94,276.6,1060.67,276.29,1061.39Zm1.9-4.09a1,1,0,0,0-.24,0c-6.19,0-11.49-6.82-15.39-10.91-4.24-4.45-7.78-7.31-13.54-9.67-5.57-2.29-11.27-4.58-16.74-7.13a68.57,68.57,0,0,1,7.23,2.58c3.05,1.37,5.94,3.05,9,4.35,2.37,1,4.93,1.38,7.28,2.37,3,1.28,4.09,3.13,6,5.53a28.34,28.34,0,0,0,6.2,5.37c2.92,2.05,7,5.54,10.76,6.34C278.6,1056.48,278.39,1056.89,278.19,1057.3Zm4-8.22a1.49,1.49,0,0,0-.14.75l-2.27,4.38c-2.91-.34-7-3.7-9.21-5.19a32.79,32.79,0,0,1-7.44-6.83c-3-3.61-5.63-4.94-10-6.3-6.42-2-12.09-5.65-18.43-7.87-4.43-1.55-9.33-3.71-14.09-4.18a39.66,39.66,0,0,1-4.5-3.53,73.08,73.08,0,0,1,11.68-1.16,1,1,0,0,0,.55,1.58c5.23,1.1,11.05,1.94,15.89,4.29,5.59,2.71,9.44,7.54,14.5,10.95a90.82,90.82,0,0,0,14.56,7.51c3.09,1.37,6.29,3.49,9.66,4.25A11.65,11.65,0,0,0,282.16,1049.08Zm2.14-3.13c-2.73-.3-5.62-2.22-8.05-3.35s-5.21-2.08-7.77-3.22a55.93,55.93,0,0,1-14.36-9.75c-7.14-6.43-15-8.63-24.06-10.57l2.49-.09c7.6-.3,15.59,2.31,22.59,5a74.39,74.39,0,0,1,18.37,10.5,65.68,65.68,0,0,1,7.58,6.52c1.32,1.35,2.41,3.14,3.88,4.33C284.74,1045.53,284.51,1045.73,284.3,1045.95Zm19.4-2.76a48.3,48.3,0,0,0-9.22-1.25,15.38,15.38,0,0,0-7.52,2,1.06,1.06,0,0,0-1.26-.24c0.51-.25-4.09-5-4.47-5.37a85.67,85.67,0,0,0-9.08-7.31,72.94,72.94,0,0,0-19.3-10c-6.45-2.28-13.49-4.31-20.4-4-4.23.17-8.75,0.25-13.1,0.8,0.44-.25.88-0.5,1.31-0.76l0.38-.25a0.77,0.77,0,0,0,.77.24,76.53,76.53,0,0,1,24.34-.43,74.13,74.13,0,0,1,15.68,4.09,0.86,0.86,0,0,0,.48.48,35.31,35.31,0,0,0,3.41,1.24A51,51,0,0,1,272,1026a109,109,0,0,0,19.91,11.18c5.83,2.4,11,5.26,17.18,5.91C307.73,1043.71,306,1043.61,303.7,1043.18Zm8.19-4.32a10.52,10.52,0,0,1-.93,2.37c-7.83-.2-15.27-4.47-22.2-7.82a100.28,100.28,0,0,1-13.48-7.52c-0.89-.61-1.78-1.23-2.67-1.86,5.57,1.07,11.25,1.84,16.52,4.19,3.49,1.56,6.75,3.39,10.37,4.7,4,1.43,8.52,3.65,12.8,4.52C312.15,1037.92,312,1038.39,311.88,1038.86Zm7.47-16.37c-3.07-.74-5.53-2.48-8.73-3a64,64,0,0,0-9.47-.51,116.44,116.44,0,0,1-13.14-.63c-3.51-.44-6.73-1.77-10.16-2.52-6.4-1.4-13.21-1.8-19.69-2.9a132.9,132.9,0,0,0-22.47-1.44c-1.29,0-1.18,2,.11,2,8.24,0,16.33.28,24.44,1.89,6.3,1.25,12.81,1.38,19,3a75.14,75.14,0,0,0,18.32,2.51c4.18,0.09,8.51-.19,12.64.53,2.86,0.5,5.24,2,7.9,2.76a44.16,44.16,0,0,0-5.23,11.29c-3.78-.79-7.67-2.81-11.17-4-4.56-1.59-8.79-3.7-13.2-5.63-6.64-2.91-14-3.12-20.92-5-0.32-.17-0.63-0.37-1-0.53a65.55,65.55,0,0,0-21.94-6,87.62,87.62,0,0,0-21.24.42c0.93-1,1.74-2,2.92-3.23l0-.06c3.29-1.12,6.87-.76,10.28-0.89,3.63-.14,7.23-0.29,10.88-0.29,7.15,0,14.17,1.38,21.33,1.72q4.59,0.22,9.21.31a138.39,138.39,0,0,0,16.58,1.69c10.18,0.22,20.33-.14,30.48.5a4.82,4.82,0,0,1,0,.61C325.06,1018,321,1020.39,319.36,1022.49Z" transform="translate(-170.36 -1007.25)"/></svg>