<svg id="kalojen_piilolehti" data-name="kalojen piilolehti" xmlns="http://www.w3.org/2000/svg" viewBox="0 0 126.18 99.68"><defs><style>.cls-1{fill:#fff;}</style></defs><title>piilo</title><path class="cls-1" d="M161,894.76c-0.49-1.56-1.57-2.62-2-4.21-0.31-1.11.25-2.14-.3-3.36-1.28-2.85-4.67-3.5-7.47-3.61a22.43,22.43,0,0,1-2.86.14c0.27-.07-1.11-2.5-1.48-2.81-2.34-1.94-5.46-1.29-8.17-.67a14.16,14.16,0,0,1-2.28.57c-1.88.08-5.48-1.9-2.9-3.71,1.22-.85,4.21-0.19,5.84-0.6,4.17-1,7-4.55,10.45-6.81,2.55-1.67,3.55-3,3.93-6,0.35-2.84,1-8.64-1.06-11.22a5.85,5.85,0,0,0-2.89-2c-2.88-1-2.93.13-5.64-2.76-2.86-3-4.92-4.75-9.42-4.54-2.22.1-2.5,0.46-4.34-.6a9,9,0,0,0-2.16-1.39c-3.11-.81-5,1.76-6.93,3.65-1,.94-1.19,1.29-2.43,1.4-0.43,0-.76-0.45-1.3-0.34a8.22,8.22,0,0,0-4,1.79c-0.71.59-1.33,1.67-2,2.12-1.16.77-6.85,2.12-2.63-2.55,0.65-.72,4.33-2.46,5.09-2.9,3.09-1.77,4.41-3.82,5.84-7.2a5.81,5.81,0,0,0,.76-3.57c-0.55-2.36-1.25-1.22-2.63-2.51s-0.75-3.35-1.83-4.82-2.17-1.29-3.7-1.63c-3.26-.73-2.29-1-3.31-3.14a4.38,4.38,0,0,0-2.73-2.39c-2.16-.78-4.88.45-6.84-1-0.69-.51-1.08-1.71-2-2.27-1.87-1.15-3.78-.75-5.81-0.54-2.5.27-4.31-.65-6.71-0.89-3-.31-7.63,1.36-9.51,3.84-1,1.33-.29,2.94-0.93,4.11s-1.82.51-3.28,1.37c-2.62,1.54-1.78,5.12-1,7.56,0.15,0.48,1.09,2.08,1.08,2.34,0,0.94-1.29,1.94-1.59,2.9-0.05.17-.08,0.35-0.11,0.52-1-1.58-1.58-2.4-3.84-2.82a13.48,13.48,0,0,1-1.51,0c-1.58-.51-0.85-0.49-1.6-1.52-0.49-.68-0.48-1.45-1.21-2-1.8-1.24-4.43-.07-6.49.81-0.49-1.14-.85-2-2.74-2.13-2.36-.12-3.7,1.72-5.36,3-1.39,1-2.42.88-3.86,1.6a3.89,3.89,0,0,0-1.75,1.41c-0.42.69-.16,1.61-0.44,2.27-1.25,3-.18.15-1.85,2.12s-1.18,2.61-1.42,5a4.18,4.18,0,0,0,.5,1.15,5.85,5.85,0,0,0-1.18.28,11.61,11.61,0,0,0-1.4,1.3c-1,1.79.19,4,1.21,5.41a11.57,11.57,0,0,1,2.24,4.76,23.22,23.22,0,0,1,.51,4.24c-1.51,1.57-2.62,3.86-1,5.86A4.65,4.65,0,0,0,40.5,869c1.09,0.51,3.52,2,4.93,2.17s2.28-.35,3.54-0.52c2.42-.34,1.57-0.86,2.84.84,0.3,0.41.22,5.63,0.2,4.57,0.08,3.5,0,7.5,2.41,10.32a12.13,12.13,0,0,0,7.88,4.09c2,0.14,3.78-.88,5.68-0.9,3,0,2.68,2.53,3.65,4.59,4.27,9.12,12.44,6.47,20.46,5.38,1.8-.24,1.64-0.49,2.88.73s2.33,3,3.63,4.31a17.05,17.05,0,0,0,9.39,5.13,26.51,26.51,0,0,0,11.49-.75c1.59-.41,4.28-1.88,6-1.86,3.37,0,4.11,2.83,6.2,4.64A11.13,11.13,0,0,0,142,913.6c2.13-.6,4-1.59,6.2-2.07s4.37-.5,6-2.12a6.69,6.69,0,0,0,1.21-2.14c0.83-1.88.86-2.24,2.5-3.69,0.37-.33.82-0.44,1.22-0.82A7.53,7.53,0,0,0,161,894.76Z" transform="translate(-35.24 -814.43)"/><path d="M161,894.76c-0.49-1.56-1.57-2.62-2-4.21-0.31-1.11.25-2.14-.3-3.36-1.28-2.85-4.67-3.5-7.47-3.61a22.43,22.43,0,0,1-2.86.14c0.27-.07-1.11-2.5-1.48-2.81-2.34-1.94-5.46-1.29-8.17-.67a14.17,14.17,0,0,1-2.28.57c-1.88.08-5.48-1.9-2.9-3.71,1.22-.85,4.21-0.19,5.84-0.6,4.17-1,7-4.55,10.45-6.81,2.55-1.67,3.55-3,3.93-6,0.35-2.84,1-8.64-1.06-11.22a5.85,5.85,0,0,0-2.89-2c-2.88-1-2.93.13-5.64-2.76-2.86-3-4.92-4.75-9.42-4.54-2.22.1-2.5,0.46-4.34-.6a9,9,0,0,0-2.16-1.39c-3.11-.81-5,1.76-6.93,3.65-1,.94-1.19,1.29-2.43,1.4-0.43,0-.76-0.45-1.3-0.34a8.22,8.22,0,0,0-4,1.79c-0.71.59-1.33,1.67-2,2.12-1.16.77-6.85,2.12-2.63-2.55,0.65-.72,4.33-2.46,5.09-2.9,3.09-1.77,4.41-3.82,5.84-7.2a5.81,5.81,0,0,0,.76-3.57c-0.55-2.36-1.25-1.22-2.63-2.51s-0.75-3.35-1.83-4.82-2.17-1.29-3.7-1.63c-3.26-.73-2.29-1-3.31-3.14a4.38,4.38,0,0,0-2.73-2.39c-2.16-.78-4.88.45-6.84-1-0.69-.51-1.08-1.71-2-2.27-1.87-1.15-3.78-.75-5.81-0.54-2.5.27-4.31-.65-6.71-0.89-3-.31-7.63,1.36-9.51,3.84-1,1.33-.29,2.94-0.93,4.11s-1.82.51-3.28,1.37c-2.62,1.54-1.78,5.12-1,7.56,0.15,0.48,1.09,2.08,1.08,2.34,0,0.94-1.29,1.94-1.59,2.9-0.05.17-.08,0.35-0.11,0.52-1-1.58-1.58-2.4-3.84-2.82a13.48,13.48,0,0,1-1.51,0c-1.58-.51-0.85-0.49-1.6-1.52-0.49-.68-0.48-1.45-1.21-2-1.8-1.24-4.43-.07-6.49.81-0.49-1.14-.85-2-2.74-2.13-2.36-.12-3.7,1.72-5.36,3-1.39,1-2.42.88-3.86,1.6a3.89,3.89,0,0,0-1.75,1.41c-0.42.69-.16,1.61-0.44,2.27-1.25,3-.18.15-1.85,2.12s-1.18,2.61-1.42,5a4.18,4.18,0,0,0,.5,1.15,5.85,5.85,0,0,0-1.18.28,11.6,11.6,0,0,0-1.4,1.3c-1,1.79.19,4,1.21,5.41a11.58,11.58,0,0,1,2.24,4.76,23.22,23.22,0,0,1,.51,4.24c-1.51,1.57-2.62,3.86-1,5.86A4.65,4.65,0,0,0,40.5,869c1.09,0.51,3.52,2,4.93,2.17s2.28-.35,3.54-0.52c2.42-.34,1.57-0.86,2.84.84,0.3,0.41.22,5.63,0.2,4.57,0.08,3.5,0,7.5,2.41,10.32a12.13,12.13,0,0,0,7.88,4.09c2,0.14,3.78-.88,5.68-0.9,3,0,2.68,2.53,3.65,4.59,4.27,9.12,12.44,6.47,20.46,5.38,1.8-.24,1.64-0.49,2.88.73s2.33,3,3.63,4.31a17.05,17.05,0,0,0,9.39,5.13,26.51,26.51,0,0,0,11.49-.75c1.59-.41,4.28-1.88,6-1.86,3.37,0,4.11,2.83,6.2,4.64A11.13,11.13,0,0,0,142,913.6c2.13-.6,4-1.59,6.2-2.07s4.37-.5,6-2.12a6.69,6.69,0,0,0,1.21-2.14c0.83-1.88.86-2.24,2.5-3.69,0.37-.33.82-0.44,1.22-0.82A7.53,7.53,0,0,0,161,894.76Zm-3.24,3.7c-0.73,2.57-1.6,2.26-3.29,3.78a13.12,13.12,0,0,0-1.72,2.22c-0.28.37,0,1.09-.23,1.45-2,2.78-3.16,2.32-5.57,2.75-4.76.84-8.47,3.73-12.59,1.1a3.94,3.94,0,0,0,3.08-3,11.82,11.82,0,0,0,.23-2.41c0-1.25.24-.79,1.28-1.13,1.6-.53,2-2.52,2.18-3.95,0.2-1.26-1.73-1.8-1.93-.53-0.17,1-.13,2.24-1.34,2.6-0.32.1-.7,0-1,0.11a1.83,1.83,0,0,0-1.3,1.31c-0.22,1,.16,2.15,0,3.2a2.4,2.4,0,0,1-3.62,1.63c-1.11-1.31-2.25-3-3.85-3.7a5.27,5.27,0,0,0,1.4-2.14,2.81,2.81,0,0,0-.65-2.89,3.83,3.83,0,0,0,1.16-.38,3.93,3.93,0,0,0,1.44-2.69,4.21,4.21,0,0,0-2.82-4.4c-1.21-.44-1.73,1.49-0.53,1.93a2.51,2.51,0,0,1,1.31,2.59c-0.25.8-1.14,1-1.73,1.29a3.05,3.05,0,0,0-1.19.6,1,1,0,0,0,0,1.41c1.92,2.09.29,3.22-1.21,4.52-2.71.51-5.63,2.2-8.26,2.77-4.27.92-9.28,0.86-13.16-1.42a87.14,87.14,0,0,0,17.27-3.44,1,1,0,0,0-.53-1.93c-5.93,1.64-12.57,3.35-18.73,3.46a1,1,0,0,0-.4.09c-0.36-.33-0.72-0.68-1.06-1.05,3-.47,5.92-2,8.73-2.88,3.85-1.22,7.65-2.63,11.49-3.86a1,1,0,0,0-.53-1.93c-3.4,1.09-6.74,2.39-10.16,3.45s-7.07,3.1-10.57,3.35a1,1,0,0,0-.45.14c-0.31-.4-0.61-0.8-0.89-1.19,5.21-2,10.45-4.07,15.51-6.42,1.17-.54.15-2.27-1-1.73-5.06,2.36-10.33,4.42-15.55,6.42a4.37,4.37,0,0,0-.82-1.05c2.8-2,6.84-3.41,9.43-5.12,3.84-2.53,7.59-5.18,11.46-7.69a1,1,0,0,0-1-1.73c-4.49,2.91-8.84,6.16-13.4,8.92-2.66,1.61-6.12,2.81-8.61,4.88a13.34,13.34,0,0,0-4.24.9c3.75-3.74,7.21-7.8,10.73-11.74s8.34-8.31,10.9-12.93a1,1,0,0,0-1.73-1c-1.44,2.59-4,4.7-5.91,7s-3.78,4.51-5.74,6.72c-3.59,4-7.11,8.21-11,11.94a0.87,0.87,0,0,0-.24,1l-0.23.05a21,21,0,0,1-3.4.29c1.33-2.51,3.75-5,5.33-7.38,2.17-3.23,4.41-6.39,6.52-9.66,4.2-6.51,9.14-13,12.76-19.88a1,1,0,0,0-1.73-1c-3.61,6.82-8.56,13.37-12.76,19.88-2.11,3.27-4.35,6.43-6.52,9.66-1.72,2.57-4.23,5-5.56,7.8a1.05,1.05,0,0,0-.1.4c-0.3-.05-0.61-0.1-0.9-0.18,1.1-5.12,4.48-10.51,6.38-15.33a82.11,82.11,0,0,1,7.35-14.89,1,1,0,0,0-1.73-1,82.2,82.2,0,0,0-7.46,15.12c-1.91,4.83-5.25,10.17-6.42,15.34a7.78,7.78,0,0,1-1.18-.85c0.53-3,1.79-5.82,2.69-8.69,1.17-3.75,2.08-7.54,3.36-11.26,2.87-8.34,6.75-16.46,10.4-24.48,0.53-1.16-1.19-2.18-1.73-1-3.48,7.65-7.17,15.31-10,23.23-1.38,3.85-2.48,7.75-3.61,11.68-0.83,2.88-2.07,5.75-2.77,8.69-0.25-.35-0.48-0.74-0.7-1.15a1,1,0,0,0,.11-0.44c0.33-11.24,2.63-22.32,3-33.5a1,1,0,0,0-2,0c-0.33,10-2.2,20-2.83,30a9.14,9.14,0,0,0-.67-1.42c0-10.38.12-20.78,2-31,0.23-1.26-1.7-1.8-1.93-.53-1.78,9.93-2,20-2,30a4.29,4.29,0,0,0-.76-0.13,4.41,4.41,0,0,0-1,0c-0.75-3.22-2.8-6.52-4.12-9.46-2-4.55-3.1-9.43-4.19-14.28a1,1,0,0,0-1.93.53A85.53,85.53,0,0,0,61.64,875c1.46,3.76,4.13,7.49,5,11.49a13.91,13.91,0,0,1-3.08.93c-0.28-1.33-1.23-2.41-1.86-3.63a22.44,22.44,0,0,1-2.27-6.58c-0.2-1.27-2.13-.73-1.93.53a22.47,22.47,0,0,0,1.61,5.13,24.81,24.81,0,0,0,1.18,2.5,21.5,21.5,0,0,1,1.16,1.89,8.82,8.82,0,0,1-5.61-4.2c-2.1-4.28.22-9.59-1.37-14-0.76-2.1-1.76-2.52-3.87-2.27l-0.14,0a0.84,0.84,0,0,0-.56-0.35,2.65,2.65,0,0,1-1.76-1.71,4.48,4.48,0,0,1-.46-1.3c0.34-.51,1.94-0.36,2.45-0.36a0.93,0.93,0,0,0,.14,0,1,1,0,0,0,.46-1.94,2.13,2.13,0,0,1-.34-1.35c0-.87.63-1.08,1.38-1.25a2.65,2.65,0,0,1,1.92.08,7.74,7.74,0,0,0,1.69.95,1,1,0,0,0,.55,0,0.92,0.92,0,0,0,.91-1.43c-1.1-1.47.82-2.65,2-3.07a4.24,4.24,0,0,1,3.76.44,1,1,0,0,0,1-1.73,6.45,6.45,0,0,0-6.78,0,4.69,4.69,0,0,0-2.39,3,2.36,2.36,0,0,0-.32-0.17,3.56,3.56,0,0,0-1.84-.25,4.72,4.72,0,0,0-3.3,1.42,4,4,0,0,0-.48,3.36c-1.17.13-2.34,0.49-2.74,1.64a4.19,4.19,0,0,0,.62,3,5.72,5.72,0,0,0,1.17,1.66l-0.17,0c-5.48.55-.07,0.11-2.91-0.63-0.91-.24-3.15-0.78-3.2-1.89a1.36,1.36,0,0,0,1.19-1.28c0-.35.05-0.7,0.08-1.05h0c0.24-3.53.06-7.2-2.13-10-0.72-.9-2.41-2.34-1.75-3.75a4.15,4.15,0,0,1,1.16-.28,2.75,2.75,0,0,1,.72.13L41.06,849l0.2,0.07c0.05,0,.15.12,0,0a1,1,0,0,0,1.43-.08,0.91,0.91,0,0,0,.94-1,2.28,2.28,0,0,1,1.51-1.89,2.16,2.16,0,0,1,1.78-.24,1.06,1.06,0,0,0,1.25.05,0.94,0.94,0,0,0,1-1.43c-0.45-.6,1.11-1.23,1.45-1.31a10.7,10.7,0,0,1,2.52-.18,1,1,0,0,0,0-2c-1.56,0-3.25,0-4.59.94a3.61,3.61,0,0,0-1.39,2,4.29,4.29,0,0,0-2.83.39,7.13,7.13,0,0,0-1.81,1.34,2.7,2.7,0,0,0-.8,1.41,4.61,4.61,0,0,0-.64-0.2l0.1-.29c0.32-1-.1-1.8.29-3,1-3.07.37-.71,1.18-1.92s0.67-2,1.31-3.17c0.89-1.65,2.41-1.41,3.78-2.21,1.68-1,3.51-4.85,5.26-2.07a1.56,1.56,0,0,0,2,.73c0.74-.26,3.4-1.59,4-1.4,1,0.33.87,1.3,1.33,1.94a4.39,4.39,0,0,0,1.91,1.94,9.78,9.78,0,0,0,1.53.06c2.44,0.5,1.27-.71,2.75,1.17a4.13,4.13,0,0,0-2.6.41c-1.49.85-.79,1.87-1.77,2.77-0.56.51-3,.31-4,0.94A4.57,4.57,0,0,0,56,846.1c-1.09-.19-2.23-0.58-3.27-0.13-1.23.54-1.39,2.55-2.07,2.83-1.3.53-2.24-.57-3.75,0.4s-1.84,2.7-2.33,4.37a1,1,0,0,0,1.93.53c0.65-2.25,3-3.26,5.19-3.11a1,1,0,0,0,1-.73c0.37-2.45,2.53-2,4.29-2.06a1,1,0,0,0,1-1c-0.2-3.7,3.09-3.23,4.93-3.11a1,1,0,0,0,1-.73c0.58-1.44.73-4.06,4.19-2.15a0.94,0.94,0,0,0,.7.09A5,5,0,0,1,70,844a1.5,1.5,0,0,0,3,.28,7,7,0,0,0,0-.82c0-.14,0-0.28,0-0.42-0.1-1.22-.42-2.33-0.43-3.57,0-2.48,1.29-2.62,1.84-4.25,1.66,0.14,2.37,1.41,3.44,2.75a2.3,2.3,0,0,0,1.87,1.22,1.7,1.7,0,0,0,1.4-1.12c0.25-.49.16-1.19,0.44-1.63,0.82-1.32,2.47-.83,3.58-0.2a1,1,0,0,0,1-1.73c-2.29-1.3-5.68-1.4-6.56,1.61-0.06.2-.08,0.44-0.14,0.66a1.77,1.77,0,0,0-.11-0.24,9.14,9.14,0,0,0-1.57-1.8c-1.26-1.37-1.78-1.63-3.27-1.57-0.6-2.67-3.49-4.76.46-7a3.7,3.7,0,0,1,1.2-.43,2.57,2.57,0,0,1,1.31.68,3.08,3.08,0,0,0,1.36,1.19c0.7,0.15,1.4-.38,2.06-0.48a13.19,13.19,0,0,1,3.41.26c1.28,0.15,1.27-1.85,0-2a15.24,15.24,0,0,0-3.74-.23,7.71,7.71,0,0,1-1.22.26h0s0-.1-0.16-0.24a6.83,6.83,0,0,0-1.34-.93c0.6-1.46-.08-3.41,1.43-4.9,2.56-2.53,5.79-1.38,8.72-.87a14,14,0,0,0,3.57,0,9,9,0,0,1,5.38,1.15c0.21,0.14.15,0.77,0.36,0.94,2.83,2.16,4.39.25,7.51,1.32,2.57,0.88,1.5,4.07,3.59,5.43,1,0.64,1.56.12,2.64,0.52a14.16,14.16,0,0,1,2.91,2.27c0.26,0.49-.05,1.32.3,1.82s1.07,1.1,1.49,1.64c1.24,1.6,2.67-2.28,1.21,2.13a8.21,8.21,0,0,1-1.88-1.31c-2.4-2.45-3.32-3.3-6.58-3.18,0-3.3-4-3.16-7.06-2.43-0.19-1.86-.83-3.1-3.07-3.38-2.43-.31-6.12,1.23-7.4,3.29a1,1,0,0,0,1.73,1c1.43-2.3,6.74-4,6.82.36a1,1,0,0,0,1.27,1c1.18-.37,6.38-2,5.61,1a1,1,0,0,0,1,1.27c2.61-.21,5.89.83,6.9,3.54a1,1,0,0,0,1,.73,1.86,1.86,0,0,1,1,.12c-0.08.13-.15,0.26-0.19,0.35-1.46,3.12-4.48,4.57-7.4,6a3.36,3.36,0,0,0,1.12-2.12,3.28,3.28,0,0,0-1.36-3.28c-2.09-1.27-5.24-.42-7.34,1.13-0.39-2.46-1.69-4.9-4.58-3.8a6.76,6.76,0,0,0-2.8,2.49,2.43,2.43,0,0,0-.41.66c-0.35-.62-1.66-2-1.55-2a3.59,3.59,0,0,0-2.18-.75c-1.27-.17-1.26,1.83,0,2,0.82,0.11,1.76,2.17,2.45,3.08a1,1,0,0,0,1.13.46,2.78,2.78,0,0,0,1.51-1.16c0.46-.54.68-1.57,1.3-1.95,3.79-2.25,3.32,2.09,3.23,3.31a1,1,0,0,0,1.86.5c1.17-2.11,8-4.23,5.56.69a18.72,18.72,0,0,0-1.36,2.13,0.89,0.89,0,0,0,0,.5c-2.74,2.37-2.73,6.36,1.38,7.54a7.43,7.43,0,0,0,6-.56c2.41-1.51,2-2.93,5.74-3.52a1.55,1.55,0,0,1,.29,0,8.19,8.19,0,0,1,.23,2.29,2,2,0,0,0,.65,2.05,3.39,3.39,0,0,0,2.14.36c1.07,0,2.09,1.26,2.84,2a1,1,0,0,0,1.41-1.41c-1.2-1.17-2.33-2.58-4.1-2.58a3,3,0,0,1-1.08,0,1.4,1.4,0,0,0,.18-0.79,4.81,4.81,0,0,0-.15-1.53,2.68,2.68,0,0,0,.39-0.11,4.15,4.15,0,0,0,1.47-1.23l0.23-.26a1,1,0,0,0,.45,0c2.17-.53,8.16-0.06,5.41,3.72a1,1,0,0,0,.86,1.5c1.1,0.05,2.06-.54,3.21-0.54,2.72,0,6.68,2.82,2.08,5.15-1.15.58-.14,2.31,1,1.73,2.76-1.4,4.4-4.51,1.94-7.16a6.14,6.14,0,0,0-4-1.68,7.88,7.88,0,0,0-2.44.27,3.09,3.09,0,0,0-1.11-3.78,7.77,7.77,0,0,0-5.65-1.45,3,3,0,0,1,3.81-.8c0.57,0.28.7,1.3,1.41,1.62,1,0.44,1.94-.05,2.92-0.21,3.87-.61,6.41-0.25,8.88,3,0.7,0.94,1,2,2,2.72s1.9,0.56,2.9.89c1.19,0.39,3.82,1.08,4.36,2.59a43.09,43.09,0,0,1-.54,4.76c-0.23,1.9-.11,3.62-0.91,5.13a7.58,7.58,0,0,0-1-2,5.27,5.27,0,0,0-1.19-1.28c-0.38-.28-1.79-0.69-1.89-0.81a10.54,10.54,0,0,0-.28-1.33,2.65,2.65,0,0,0-1.19-1.12c-0.94-.5-2.3-0.93-3.26-0.32a1,1,0,0,0,1,1.73c0.58-.37,1.62.63,1.75,1a2.45,2.45,0,0,0,.74,1.56c0.77,0.58,1.7.51,2.4,1.31a4.86,4.86,0,0,1,1.25,3.06c-1,.84-2.2,1.64-3.2,2.48-0.61.51-1.21,1-1.83,1.41-0.4-1.14-1.54-2.2-1.79-3.28s-0.08-2.09-.86-3a3.93,3.93,0,0,0-2.8-1.17c-1.29-.07-1.28,1.93,0,2,2.09,0.11,1.27,2.09,1.9,3.39,0.27,0.56,2,2.36,1.57,2.93a1,1,0,0,0-.15.33,11.51,11.51,0,0,1-2.47.86c-1.81.4-3.71,0.25-5.52,0.66a5.75,5.75,0,0,0,1.13-4,17.5,17.5,0,0,0-.69-1.71l0-.11a1.94,1.94,0,0,0,.37-0.46,2.65,2.65,0,0,0-.5-3.42c-1.1-1-2.43-.86-3.74-0.82a3.44,3.44,0,0,0,1.3-1.94c0.24-1.49-1.11-2.7-1.95-3.74s-2.21.42-1.41,1.41c1,1.23,1.55,1.58.37,3a12.37,12.37,0,0,1-1.53,1.29,1,1,0,0,0,.44,1.67,7.91,7.91,0,0,0,2.86.18q1.63-.57,1.86.86a0.73,0.73,0,0,1-.08,1.29,2.28,2.28,0,0,0-.28.57,3.51,3.51,0,0,0,.46,1.36c0.91,2-.28,3.37-1.27,5.26a0.94,0.94,0,0,0,0,.94,4.8,4.8,0,0,0,.56,6.6,5.13,5.13,0,0,0,1.48,1,3.3,3.3,0,0,0-.06.4,1,1,0,0,0,.5.86c1,0.46,2,.2,3,0.53,2.34,0.74.86,2.07-.78,2.8a1,1,0,0,0,0,1.73c0.79,0.48,3.17,1.46,1.32,3.06a12,12,0,0,1-2.25.44,1,1,0,0,0-.6,1.47c0.68,0.95,2.47,3.48-.35,3.18-1.28-.14-1.27,1.87,0,2,3.69,0.39,3.92-2.55,2.76-5,1.53-.31,2.95-0.65,3.28-2.57a3.21,3.21,0,0,0-1.67-3.35c1.31-.82,2.36-2,1.83-3.64a2.77,2.77,0,0,0-1.3-1.6l-0.09,0c0.93-.23,1.85-0.53,2.79-0.69,3.06-.55,3.43.3,5.45,2.22a0.9,0.9,0,0,0,.51,1.48c2.4,0.4.4,4.42,0.26,5.78-0.18,1.66,1.31,1.93.13,3.85-0.36.58-1,.65-1.13,1.38-0.38,1.57.62,2.39-.87,4a1,1,0,0,0,1.41,1.41,6.2,6.2,0,0,0,1.58-2.42c0.2-.68-0.16-1.55,0-2.09,0.25-.84,1.26-1.33,1.58-2.14a3.8,3.8,0,0,0,0-2.13,6.25,6.25,0,0,1,.14-3.25,5.88,5.88,0,0,0,.27-2.53,6.18,6.18,0,0,0-.54-1.82,15.5,15.5,0,0,1,3.37,0c3.06,0.71,2.91,3,3.51,5.56S158.62,895.43,157.77,898.46Z" transform="translate(-35.24 -814.43)"/><path d="M94.36,822.83a6.51,6.51,0,0,0-5-3c-2.21-.28-4.93-0.26-6.75,1.16-1,.79.41,2.2,1.41,1.41s3.31-.75,4.67-0.64a4.69,4.69,0,0,1,3.93,2.11A1,1,0,0,0,94.36,822.83Z" transform="translate(-35.24 -814.43)"/><path d="M155.17,895.78a6.86,6.86,0,0,0-.54-1.55c-0.41-1.21-2.35-.69-1.93.53a10.53,10.53,0,0,1,.5,1.21,4,4,0,0,1-.14,1.53,8.12,8.12,0,0,1-1.26,2.65,1,1,0,0,0,1.73,1,9.65,9.65,0,0,0,1.53-3.51A6.4,6.4,0,0,0,155.17,895.78Z" transform="translate(-35.24 -814.43)"/><path d="M83.66,846.14a4.68,4.68,0,0,1-2.61,1c-0.6-.06-1.91-0.33-2.19-0.93-0.53-1.17-2.26-.15-1.73,1s2.23,1.65,3.38,1.85c1.65,0.28,2.73-.42,4.15-1.16A1,1,0,0,0,83.66,846.14Z" transform="translate(-35.24 -814.43)"/><path d="M118,862c-0.31-.42-0.71-0.75-1-1.17a2,2,0,0,1-.17-1.33,1,1,0,0,0-2,0,4,4,0,0,0,.27,2.08,11.94,11.94,0,0,0,1.2,1.43,1,1,0,0,0,1.37.36A1,1,0,0,0,118,862Z" transform="translate(-35.24 -814.43)"/><path d="M126.17,884.64c-2.48-1.42-1.73-4.25-3.32-6.23-0.78-1-1.54-1.65-1.65-3a10.33,10.33,0,0,1,.36-2.74,1,1,0,0,0,.53-1.93c-2.94-.66-3.24,4-2.78,5.93a5,5,0,0,0,1,1.92,8.83,8.83,0,0,1,1.8,3.35c0.62,2.1,1.17,3.37,3.08,4.46A1,1,0,0,0,126.17,884.64Z" transform="translate(-35.24 -814.43)"/></svg>