<svg id="sukeltaja" xmlns="http://www.w3.org/2000/svg" viewBox="0 0 156.94 171.56"><title>sukeltaja</title><path d="M530.16,988.77a43.78,43.78,0,0,0-6.92-2.12c-4.48-.91-9.2.88-13.67,1.26-4.18.36-8.37,0-11.62,2.49a1.54,1.54,0,0,0-.57.4c-2.48,2.75-5.93,5.9-7.26,9.47-0.89,2.38.26,4.72,0.1,7.24-0.25,4-1.39,7.51-2.37,11.31-0.53,2.07-1.15,4.1-1.7,6.17-0.07.27-.13,0.57-0.17,0.88a15.77,15.77,0,0,1-1.27-3.07c-0.91-3.32-1.27-7-2.64-10.16a14.76,14.76,0,0,0-4-5.3,1.65,1.65,0,0,0,.16-0.39c0.8-3.09,1.74-6,.8-9.2a15.48,15.48,0,0,0-2.16-4.29,1.51,1.51,0,0,0,0-.88c-2.07-6.37-6.1-14.28-12.35-17.54-5.7-3-12.42-1.35-17.86,1.06-4.26,0-8.24,1.53-10.66,5a1.58,1.58,0,0,0-.55.21c-2.45,1.52-5.52,2.13-8.19,3.15-3.66,1.4-7.19,3.71-11,4.76a6.52,6.52,0,0,0-2.26-.35c-5.56.11-12.38,5.32-16.28,8.81l-0.35.33c-0.51-.24-1-0.45-1.55-0.65a39.07,39.07,0,0,1,7.72-5.59c2.2-1.36,4-3.06,6.12-4.56,2.31-1.65,4.22-3.56,6.47-5.26,2.53-1.9,5.6-2.8,8.19-4.61a65.25,65.25,0,0,1,8.42-5.47c2.38-1.2,4.92-2.22,7.24-3.49,4.71-2.58,8.59-6.49,12.15-10.46,3.51-1.13,2.87-5.78,2.39-8.89-0.39-2.52-1.14-4.83-1.66-7.35-0.64-3.1-.77-6.45-1.58-9.48-1.21-4.48-4.26-8.14-7.19-11.79q-3.17-1.8-6.37-3.58c1.54,2.13,3.1,4.23,4.57,6.33,2.25,3.2,4.86,5.71,6,9.63a87.15,87.15,0,0,1,1.53,8.59c0.25,1.47,3,10.4,2,13a1.45,1.45,0,0,0-1,.52,51.67,51.67,0,0,1-16.14,12.52c-5.58,2.87-10.45,6.65-15.95,9.5-4.71,2.45-8.74,6.2-12.92,9.46-4.37,3.41-9.53,5.75-13.18,10h0l-0.18,0a1.32,1.32,0,0,0-1.31-.09c-2.65,1.15-4.64,4.5-6.5,6.6-2.45,2.76-5.34,5.52-7.26,8.69-1.6,2.64-.19,4,1.94,4.69-5,9-5.33,20.62-3.88,30.42,0.84,5.68.58,10.07,3.58,15.19,3.25,5.55,6.54,10.38,11.4,14.63,9.06,7.92,21.2,13,33.42,11.62,5.72-.62,9.45-2.13,14.44-4.82,5.18-2.8,10.67-5.43,15.5-8.85a1.36,1.36,0,0,0,2.2.67c2.68-2.31,5.25-4.48,7.74-6.79,4.46,3.09,10.65,2,15.3-.46,5.27-2.84,8.74-10.56,9.74-16.17,0.62-3.48,1.54-7.11,1.81-10.65s-1-6.59-2-9.83c-0.1-.32-0.23-0.64-0.35-1,0.95-2.27,1.14-5.19,1.77-7.53a101.2,101.2,0,0,0,2.69-10.63c0.5-3.24-.14-6.62.34-9.71s3.21-6,5.54-8.47a1.62,1.62,0,0,0,.29-0.27c3.08-3.69,11.77-2.77,16.16-3.42,2.37-.35,5.46-0.95,7.84-0.63a42.93,42.93,0,0,1,8.82,2.61A32.35,32.35,0,0,1,530.16,988.77ZM464,978.26c3.31,2.21,5.83,5.75,7.69,9.5a83.1,83.1,0,0,0-10.26-7.39,23.72,23.72,0,0,0-8-3.42C457,976.12,460.85,976.15,464,978.26ZM438.68,983a10.78,10.78,0,0,1,7.82-4,1.33,1.33,0,0,0,.94-0.05,20.94,20.94,0,0,1,10.69,2.7A65,65,0,0,1,470,990.24c2.52,2.33,6,5.93,6.47,9.49a13.52,13.52,0,0,1-.83,5.68c-0.43-.3-0.87-0.58-1.32-0.87,0.9-5.8.22-10.17-4.86-14-6.49-4.86-14.49-9-22.56-10.35-5-.85-8.83,3.45-8.8,8.26a24.75,24.75,0,0,0,5.18,14.2c-0.22-.06-0.44-0.13-0.66-0.17a1.41,1.41,0,0,0-.53-0.93C437.12,997.46,434.35,988.67,438.68,983Zm21.51,6.61c-2.57-.91-6.87-2.15-9.33-0.5-2.31,1.55-3.66,5.48-3.28,8.19,0.57,4,4.51,4.3,7.23,6.16a1.52,1.52,0,0,0,1.95-.16,31.42,31.42,0,0,1,4.71,2.51,54.43,54.43,0,0,1,5.44,4.56,37.08,37.08,0,0,1-7.15.15,20.36,20.36,0,0,1-3.32-.76A21.2,21.2,0,0,1,453,1009a18.17,18.17,0,0,0-5.54-4.67,23.83,23.83,0,0,1-7.22-14.09c-0.71-5.21,2.62-9,7.91-7.62,2.47,0.64,5,1.49,7.43,2.36a42.53,42.53,0,0,1,14.12,8.24c2.79,2.64,3.11,6.49,2.69,10.11a49,49,0,0,1-4.94-3.35c-1.3-1-3-2.75-4.91-4.31A4.16,4.16,0,0,0,460.19,989.65Zm-8,9.32c-1.56-1-1.76-2.34-1.3-4.21,0.56-2.25,1.56-3.65,4.14-3.26,1.22,0.19,5.41.78,5.07,2.39-1.93-1.22-3.94-2-5.82-1.53C451.52,993,451.3,996.54,452.19,999Zm27.19,41.78a51.86,51.86,0,0,0-3.42,6.32,29.87,29.87,0,0,1-4.54,6.65,11.44,11.44,0,0,0-1-1.2,23.23,23.23,0,0,0,3.54-5.85,12.13,12.13,0,0,0-.6-10.13,25.32,25.32,0,0,0,4.77-7.07,88.78,88.78,0,0,1,1.53,11A1.58,1.58,0,0,0,479.37,1040.76Zm0.73,4.7a24.47,24.47,0,0,1-.24,7.12c-0.83,3.49-4.63,5.86-8.3,7.19a5.79,5.79,0,0,0,1-2.8,37.14,37.14,0,0,0,5.23-6.89C478.6,1048.6,479.32,1047,480.11,1045.46Zm-3.95-20.79c-0.25,3.68-2.19,6.56-4.47,9.2-4.1-5.7-11.55-10.17-17.67-11.75a6.19,6.19,0,0,0,2-6.07c5,1.5,10.84,2.86,15.38-.33a61.14,61.14,0,0,1,4.81,8.55A1.54,1.54,0,0,0,476.16,1024.67Zm-20.53-11.86a1.61,1.61,0,0,0-.52-0.06l-0.17-.45c-0.1-.24-0.21-0.48-0.32-0.72a36.49,36.49,0,0,0,4.09.94,39.61,39.61,0,0,0,9.75-.25,1,1,0,0,0,.2-0.07c0.34,0.37.67,0.74,1,1.12C465.48,1016,460,1014.12,455.63,1012.81Zm-6.15,8.79c-4.35.76-9.29,3.95-12.44,6.16-2.53,1.77-14.15,12.83-16.21,5.41-0.88-3.17,3.31-9.81,5-12.45,2-3.1,4.47-5.65,6-9a8.14,8.14,0,0,0,.48-1.32,1.48,1.48,0,0,0,.43-0.58C438.94,995.28,461.14,1015.76,449.48,1021.59Zm-21.72-34.08c2.08-.89,4.3-1.49,6.42-2.32a18.28,18.28,0,0,0,4.27,17.06,9.72,9.72,0,0,0-6.22,2.93,12,12,0,0,0-3.24-5.42c-2.85-2.71-5.92-5.19-8.78-7.89l-0.7-.64C422.31,990.14,425.05,988.68,427.76,987.51Zm-44,20.94,4.25-4.8c1.05-1.19,2.28-3.26,3.7-4.23a1.54,1.54,0,0,0,.45,0,4.18,4.18,0,0,1,2,.49l0.88,0.34c-2.18,2.12-4.29,4.32-6.44,6.45-1.81,1.79-4,3.57-4.84,6a5.59,5.59,0,0,0-.26,1.15c-1.37-.06-3.41-0.31-3.45-0.79C379.95,1012.33,383.24,1009,383.74,1008.44Zm55.62,70.88c-4.28,2.23-8.21,4.54-13,5.42-11.54,2.13-24.06-1.91-32.84-9.49a47.38,47.38,0,0,1-10.11-11.88c-1.33-2.23-3-4.48-3.85-7-1-2.76-.78-5.8-1-8.67-0.89-9.91-1.76-21.52,3.66-30.54a1.64,1.64,0,0,0,.17-0.4c0.47,0,.93.05,1.35,0.05,0.87,3.25,3.4,6.56,5.35,8.55a1.41,1.41,0,0,0,.53.35c1,1.28,2.09,2.53,3.16,3.76a1.44,1.44,0,0,0-.1.79c1.44,10.65,8.58,20.21,17.3,26.08,4.88,3.29,10.34,4.95,16.09,6,4,0.69,9,2.74,12.78.77,3,1.4,7.38,2.59,9.94,4.51a1.4,1.4,0,0,0,1.25.26,5.58,5.58,0,0,0,2.17-.06c0,0.31,0,.63,0,0.94a6.44,6.44,0,0,0,.47,1.69,8.68,8.68,0,0,1,.3.87A100.61,100.61,0,0,1,439.36,1079.33Zm-43-45.83a124.86,124.86,0,0,0,18.1,15.87,132.12,132.12,0,0,0,14.86,9c1.77,1,3.56,1.87,5.35,2.77-3.3,0-7.78-1.56-10-2a35.25,35.25,0,0,1-14.76-6.39C403.79,1048,398.47,1041.16,396.36,1033.5Zm53.42,31.13a1.46,1.46,0,0,0-.46-0.16c-1.83-1-3.81-1.38-5.77-2.28-2.73-1.26-5.47-2.63-8.15-4a153.57,153.57,0,0,1-17.76-10.2,125.51,125.51,0,0,1-26.71-25.32,1.44,1.44,0,0,0-.86-0.54c-2.55-3-4.25-7.26-2-10.7,1.87-2.84,5.71-5.63,8.11-8,4.16-4.13,9.82-9.77,15.85-11.06,4.75-1,7.52,3.1,10.63,5.85s6.65,5.12,6.76,9.83c0.12,5.3-5.88,10.07-8.2,14.83-1.58,3.25-5.18,9.48-2.82,13.16,1.87,2.93,5.49,3,8.43,2.13,3.1-.91,5.41-2.68,7.9-4.64a1.42,1.42,0,0,0,.54-0.33c2.2-2.07,5.46-3.84,8-5.58,2.27-1.56,4.65-2.07,7-3.13l0.48-.05a1.54,1.54,0,0,0,.59.21c4.5,0.65,8.75,3.28,12.3,6,5.45,4.14,10.18,9.36,6.85,16.26-1.92,4-5.48,6.74-8.55,9.79C459.85,1058.76,453.5,1066.72,449.78,1064.64Zm6.25,6.61a12.59,12.59,0,0,0-.56-1.9,12.3,12.3,0,0,1-.47-2.62,31.57,31.57,0,0,0,6.21-4.93c2.29-2.21,4.88-4.5,7.2-7C472,1058.74,461,1067.34,456,1071.25Zm30.09-23.16c-0.84,5.17-2,10.05-5.38,14.3-3.06,3.87-10.22,6.41-14.77,3.83,0.79-.78,1.57-1.6,2.35-2.45,5.09-1,12.2-3.83,14.18-9.12,2.13-5.7.09-13.38-.75-19.1-0.55-3.8-.44-7.07-2.08-10.62-1.39-3-3-6-4.65-8.91a38.81,38.81,0,0,0-16.31-15c-0.71-.35-6.81-4.88-3.16-5.53,1.16-.2,4.68,2.15,5.46,2.69,3,2.07,5.27,4.73,8.41,6.65s6.58,3.75,8.71,6.91c2.57,3.82,2.44,8.74,4,12.93,1.22,3.32,2.89,6.36,4,9.71C487.93,1039.67,487,1042.83,486.12,1048.08Z" transform="translate(-374.72 -916.8)"/><path d="M462.11,970.11c1.09,0.68,1.16.4,2.43,0.73,2.74,0.69,5.56.73,8,2.61,3.81,3,4.84,7.89,6.33,12.23,0.42,1.22,2.27.47,1.86-.75-1.53-4.47-2.4-8.57-5.89-12a11.4,11.4,0,0,0-5.11-3,24.78,24.78,0,0,0-2.63-.91c-0.93-.23-3,0-3.7-0.43C462.28,967.88,461,969.44,462.11,970.11Z" transform="translate(-374.72 -916.8)"/><path d="M388.1,1016.69c0.89,2.36,3.72,4.66,5.6,6.39,2.6,2.39,4.89,4.85,7.34,7.38,3.68,3.66,6.78,7.94,10.65,11.36A102.55,102.55,0,0,0,426.63,1053,91.76,91.76,0,0,0,444,1060.9c3.43,1.18,7.32,2.93,10.42.21a1,1,0,0,0,.27-1.16c4.27-4,9.12-7.59,12.83-12,2.82-3.38,1.85-6.73-.81-9.91-3.4-4.06-7.14-8.48-12.15-10.52s-9.48,1.05-13.72,3.49c-5.93,3.42-12.54,11.28-20.21,8.49-5.41-2-5.06-6.56-3.15-11.14a104,104,0,0,1,4.58-10.11c1.89-3.4,5.37-7.44,4.58-11.65-0.52-2.77-2.77-4.6-4.57-6.57s-3.54-4.08-6-5.15h0c-3.3-1.87-6.28-.15-9.36,1.66-5.42,3.2-9.84,7.79-14.48,12C389.9,1010.59,386.81,1013.27,388.1,1016.69Zm6.67-7.7c3.63-3.36,14.59-16,20.29-12.43l0.08,0a1,1,0,0,0,.15.11c3.21,1.41,5.63,4.93,7.75,7.61,2.83,3.57.69,7.22-1.27,10.63a98.33,98.33,0,0,0-6.83,14.2c-1.14,3-1.94,6.25.29,8.94a11.19,11.19,0,0,0,9.15,3.86c4.65-.16,8.24-2.78,11.85-5.38,5.06-3.64,12.47-9.81,18.92-6.58,2.89,1.44,5.35,4.19,7.47,6.53,2.35,2.59,5,4.54,4,8.31s-4.92,5.74-7.62,8.2c-2.12,1.94-4.16,4.08-6.25,6.07a1,1,0,0,0-.32.67,33.34,33.34,0,0,1-4.11.34,20.75,20.75,0,0,1-5.27-1.66c-2.32-.89-4.6-1.9-6.86-2.93A99.35,99.35,0,0,1,422,1047.7c5.33,0.58,11.12-1.23,16.53-1.09,2.74,0.07,5.44,0,8.18-.11,1.34,0,3,.08,4.36-0.07,1.61-.17,4.42-1.37,5.91-0.45,1.08,0.67,2.34-.89,1.25-1.56-1.79-1.11-3-.74-5-0.37a64.79,64.79,0,0,1-11.37.62c-3.29,0-6.6-.36-9.88,0s-6.93,1.48-10.26,1a1,1,0,0,0-1.08,1.09c-7-5-12.3-11.86-18.34-17.86h0c-3.07-3.17-6.38-6.2-9.4-9.42-2.13-2.27-3.58-3.93-1.78-7C391.92,1011,393.57,1010.1,394.77,1009Z" transform="translate(-374.72 -916.8)"/><path d="M443.78,1042.06a11.6,11.6,0,0,0,3.5,0c1.32-.18,2.66-0.12,4-0.37a20.94,20.94,0,0,1,4.68-.63,10,10,0,0,0,3.52-.29c1.23-.38.48-2.23-0.75-1.86a14,14,0,0,1-3.81.15,17,17,0,0,0-3.43.51,26.79,26.79,0,0,1-3.49.36,14.47,14.47,0,0,1-3.91.18A1,1,0,0,0,443.78,1042.06Z" transform="translate(-374.72 -916.8)"/><path d="M403.6,1017.57c1-.18,1.89-0.63,2.88-0.82,1.24-.23,2.52-0.2,3.77-0.44a37.49,37.49,0,0,0,6.55-1.36,1,1,0,0,0-.75-1.86,33.47,33.47,0,0,1-6.79,1.36c-1,.15-2,0.14-3,0.31s-1.89.63-2.88,0.82C402.09,1015.82,402.33,1017.81,403.6,1017.57Z" transform="translate(-374.72 -916.8)"/><path d="M395.58,1013.81c3.08-.44,6-1.64,9.1-2,2.49-.28,4.88-0.27,7.25-1.17a1,1,0,0,0-.75-1.86c-2.45.94-5,.74-7.51,1.14-2.82.44-5.51,1.49-8.35,1.89A1,1,0,0,0,395.58,1013.81Z" transform="translate(-374.72 -916.8)"/><path d="M409,1007c2.37-.23,4.25-1.94,6.6-2.17a1,1,0,0,0-.25-2c-2.37.23-4.25,1.94-6.6,2.17A1,1,0,0,0,409,1007Z" transform="translate(-374.72 -916.8)"/><path d="M439.19,1049.66a1,1,0,0,0,.86,1.13c0.84,0,1.66.2,2.49,0.2a1,1,0,0,0,1.13-.86,1,1,0,0,0-.86-1.13c-0.84,0-1.66-.2-2.49-0.2A1,1,0,0,0,439.19,1049.66Z" transform="translate(-374.72 -916.8)"/></svg>