<svg id="kurkkauskivi" xmlns="http://www.w3.org/2000/svg" viewBox="0 0 119.64 207.99"><defs><style>.cls-1{fill:#fff;}</style></defs><title>sukeltajan_piilo</title><path class="cls-1" d="M598.73,987.05c0.45-1.3.74-2.65,1.26-4a48.33,48.33,0,0,1,3.79-7.28c2.72-4.57,2.88-8,2.64-13.33a50.87,50.87,0,0,0-3.2-15.7c-1.75-4.77.36-9.78-.85-14.62-1.46-5.86-7.7-6.58-8.24,0a18.91,18.91,0,0,1-.21,3.11l-4.69-.11c-0.21-.21-0.06-3-0.15-3.5a8.74,8.74,0,0,0-1.69-3.79c-2.23-2.71-5.14-2.07-8.13-1.39-0.7-1.42-1.42-2.84-2.14-4.25-1.39-2.73-1.86-6.09-3.76-8.5a34.32,34.32,0,0,0-5-5.17,1.56,1.56,0,0,0,.1-0.56,22.19,22.19,0,0,0-.56-4.63c-0.23-1.08-1.28-3.23-.68-4.32,0.69-1.27.59-.84,1.63-0.69,2.19,0.32,3.9,2.64,6.26,1,1.92-1.33,3.52-5.26,4.15-7.44a8.89,8.89,0,0,0-1.55-8.45,1.5,1.5,0,0,0-.43-1.19c-1.93-2-2.75-4.2-5.38-5.39s-5.29-.85-8.17-0.9c-3.86-.06-11.09-0.23-13.36-3.67-1.69-2.55-2.17-5.62-4.07-8.07a18.31,18.31,0,0,0-6-4.8c-1.78-.93-3.84-1.43-5.49-2.59-1.29-.91-2-2.21-3.56-2.8-2.44-.93-13.16,1.25-16.07-1.33a1.46,1.46,0,0,0-.13-0.48,5.43,5.43,0,0,0-.6-1,1.45,1.45,0,0,0-1.39-1.32,4.22,4.22,0,0,0-4.51-.34c-5,2.79,1.6,9.75-2.3,13.5-1.49,1.43-3,1.87-4.25,3.72a37.6,37.6,0,0,1-7.43,8c-3.18,2.71-6.21,5.67-5.72,10.25,0.37,3.46,2.81,4.78,6,5.07,2.34,0.21,3.88-.52,6.06-0.84,2.41-.35,3,0.25,3.29,2.85,0.2,1.72-.23,3.37.05,5.13,0.79,4.93,4.68,8.48,7,12.64a46.29,46.29,0,0,0-5.54,5.16,34.24,34.24,0,0,0-7,10.54c-1.65,4-1.91,8.29-2,12.56s-0.44,8.65,1.34,12.77c-2.84,4.84-7.38,9-9.34,14.28-1.53,4.07-2.5,9.08-1.64,13.38a16.76,16.76,0,0,0,5,9.39c3.07,2.77,5.28,3.59,5.47,8.43,0.1,2.49-.35,5.09-0.27,7.62,0.32,10.46,2.16,20.06,8.3,28.84,1.29,1.84,3.09,2.87,4.76,4.33s2.85,3,4.61,4.16c4,2.53,9.77,2.81,14.49,2.81,0.54,5.6,5.06,10.61,10.48,12.3,3.25,1,6.69.37,10,.38,4.25,0,8.83.7,12.94-.68,7.83-2.61,12-8.15,16.5-14.68,2.74-4,4.18-9.44,2.18-14,4.63-.08,9-0.93,12.92-3.92,5.07-3.83,7.92-9.93,9.15-15.93,1.07-5.2,1.45-11.56-1.34-16.35A16.5,16.5,0,0,0,598.73,987.05Z" transform="translate(-486.86 -849.05)"/><path d="M582.92,955.84c-1.94,0-1.77,3,.16,3S584.85,955.84,582.92,955.84Z" transform="translate(-486.86 -849.05)"/><path d="M583.59,950.5c-1.94,0-1.77,3,.16,3S585.51,950.5,583.59,950.5Z" transform="translate(-486.86 -849.05)"/><path d="M588.25,953.84c-1.93,0-1.77,3,.16,3S590.18,953.84,588.25,953.84Z" transform="translate(-486.86 -849.05)"/><path d="M596.92,941.84c-1.94,0-1.77,3,.16,3S598.85,941.84,596.92,941.84Z" transform="translate(-486.86 -849.05)"/><path d="M595.59,977.84c-1.94,0-1.77,3,.16,3S597.51,977.84,595.59,977.84Z" transform="translate(-486.86 -849.05)"/><path d="M516.25,902.5c-1.93,0-1.77,3,.16,3S518.18,902.5,516.25,902.5Z" transform="translate(-486.86 -849.05)"/><path d="M512.92,898.5c-1.94,0-1.77,3,.16,3S514.85,898.5,512.92,898.5Z" transform="translate(-486.86 -849.05)"/><path d="M516.92,860.5c-1.94,0-1.77,3,.16,3S518.85,860.5,516.92,860.5Z" transform="translate(-486.86 -849.05)"/><path d="M514.25,863.17c-1.93,0-1.77,3,.16,3S516.18,863.17,514.25,863.17Z" transform="translate(-486.86 -849.05)"/><path d="M509.59,866.5c-1.94,0-1.77,3,.16,3S511.51,866.5,509.59,866.5Z" transform="translate(-486.86 -849.05)"/><path d="M514.25,857.17c-1.93,0-1.77,3,.16,3S516.18,857.17,514.25,857.17Z" transform="translate(-486.86 -849.05)"/><path d="M550.92,877.84c-1.94,0-1.77,3,.16,3S552.85,877.84,550.92,877.84Z" transform="translate(-486.86 -849.05)"/><path d="M553.59,881.84c-1.94,0-1.77,3,.16,3S555.51,881.84,553.59,881.84Z" transform="translate(-486.86 -849.05)"/><path d="M539.59,899.17c-1.94,0-1.77,3,.16,3S541.51,899.17,539.59,899.17Z" transform="translate(-486.86 -849.05)"/><path d="M546.92,899.84c-1.94,0-1.77,3,.16,3S548.85,899.84,546.92,899.84Z" transform="translate(-486.86 -849.05)"/><path d="M544.25,897.17c-1.93,0-1.77,3,.16,3S546.18,897.17,544.25,897.17Z" transform="translate(-486.86 -849.05)"/><path d="M544.25,893.17c-1.93,0-1.77,3,.16,3S546.18,893.17,544.25,893.17Z" transform="translate(-486.86 -849.05)"/><path d="M552.92,899.84c-1.94,0-1.77,3,.16,3S554.85,899.84,552.92,899.84Z" transform="translate(-486.86 -849.05)"/><path d="M559.59,899.17c-1.94,0-1.77,3,.16,3S561.51,899.17,559.59,899.17Z" transform="translate(-486.86 -849.05)"/><path d="M572.92,891.17c-1.94,0-1.77,3,.16,3S574.85,891.17,572.92,891.17Z" transform="translate(-486.86 -849.05)"/><path d="M560.92,893.17c-1.94,0-1.77,3,.16,3S562.85,893.17,560.92,893.17Z" transform="translate(-486.86 -849.05)"/><path d="M508.92,881.84c-1.94,0-1.77,3,.16,3S510.85,881.84,508.92,881.84Z" transform="translate(-486.86 -849.05)"/><path d="M547.09,959.32a1,1,0,0,0-.89-0.57,5.2,5.2,0,0,0-6.11,4.48c-0.63,3.14.82,5.86,4.16,6a5.91,5.91,0,0,0,4.28-1.08,8,8,0,0,0,1.06-1.45,4.05,4.05,0,0,0,.93-1.63A5.25,5.25,0,0,0,547.09,959.32Zm1.33,5.32a3.51,3.51,0,0,1-3.75,2.61c-1.14,0-2.07-.18-2.51-1.34a4.41,4.41,0,0,1,.1-3,3.18,3.18,0,0,1,3.14-2.12,1,1,0,0,0,.4.2C547.41,961.38,548.9,962.84,548.42,964.64Z" transform="translate(-486.86 -849.05)"/><path d="M575.41,967.19c-0.81-1.58-2.75-2.31-4.39-2.58-2.48-.42-4.25.74-6.07,2.31a1.07,1.07,0,0,0-.25.32c-1.8,1.33-3.67,2.09-4.61,4.51-0.58,1.48-1.09,4.58-.36,6.09a4.07,4.07,0,0,0,4.16,1.9c2.32-.46,3.46-3.43,5.41-4.64C572.23,973.28,577.95,972.14,575.41,967.19Zm-5.6,5.28a7.19,7.19,0,0,0-2.12,1.33,13.47,13.47,0,0,0-1.91,1.55c-1.13,1.25-.37,1.28-2.59,1-2-.25-1.76-0.09-1.64-1.7,0.3-3.86,2.94-4.53,5.45-6.75a1,1,0,0,0,.19-0.23,5.1,5.1,0,0,1,3.41-1.11c1.5,0.1,3.37,1.17,3.23,2.85C573.67,971.38,571.24,972,569.81,972.48Z" transform="translate(-486.86 -849.05)"/><path d="M548.71,1018.52a13.18,13.18,0,0,0-.51-2.24,12,12,0,0,1-.23-1.6,8.1,8.1,0,0,1-.23-1.24c0-1.29-2-1.18-2,.11a19.47,19.47,0,0,0,.83,4.15,5.6,5.6,0,0,0-1.18.05,4.6,4.6,0,0,0-1.3.54,1,1,0,0,0-.18,0,10.38,10.38,0,0,0-3.62,2.37,8,8,0,0,0-1.38,1.42l-0.47-.45c-0.46-.41-0.83-0.92-1.33-1.28a8.48,8.48,0,0,0-1.68-.76,1,1,0,0,0-.89,1.79,13.32,13.32,0,0,1,1.24.48,5.23,5.23,0,0,1,1,.91c0.6,0.6,1.44,1.07,1.49,2a0.89,0.89,0,0,0,.55.81c1.24,1.24,4.19.91,5.68,0.28,2.06-.86,4.67-3.9,4.6-6.28A1.84,1.84,0,0,0,548.71,1018.52Zm-1.88,1.9a6.5,6.5,0,0,1-3.43,3.74,4.28,4.28,0,0,1-2.38.14,1.24,1.24,0,0,1-.8-0.2,2.47,2.47,0,0,1,.71-1.3,9.91,9.91,0,0,1,3-2.35,1,1,0,0,0,.15,0c0.67-.16,1.21-0.65,1.88-0.75a1.36,1.36,0,0,1,.89.1C547.13,1020.05,546.94,1020.05,546.83,1020.42Z" transform="translate(-486.86 -849.05)"/><path d="M598.73,987.05c0.45-1.3.74-2.65,1.26-4a48.33,48.33,0,0,1,3.79-7.28c2.72-4.57,2.88-8,2.64-13.33a50.87,50.87,0,0,0-3.2-15.7c-1.75-4.77.36-9.78-.85-14.62-1.46-5.86-7.7-6.58-8.24,0a18.91,18.91,0,0,1-.21,3.11l-4.69-.11c-0.21-.21-0.06-3-0.15-3.5a8.74,8.74,0,0,0-1.69-3.79c-2.23-2.71-5.14-2.07-8.13-1.39-0.7-1.42-1.42-2.84-2.14-4.25-1.39-2.73-1.86-6.09-3.76-8.5a34.32,34.32,0,0,0-5-5.17,1.56,1.56,0,0,0,.1-0.56,22.19,22.19,0,0,0-.56-4.63c-0.23-1.08-1.28-3.23-.68-4.32,0.69-1.27.59-.84,1.63-0.69,2.19,0.32,3.9,2.64,6.26,1,1.92-1.33,3.52-5.26,4.15-7.44a8.89,8.89,0,0,0-1.55-8.45,1.5,1.5,0,0,0-.43-1.19c-1.93-2-2.75-4.2-5.38-5.39s-5.29-.85-8.17-0.9c-3.86-.06-11.09-0.23-13.36-3.67-1.69-2.55-2.17-5.62-4.07-8.07a18.31,18.31,0,0,0-6-4.8c-1.78-.93-3.84-1.43-5.49-2.59-1.29-.91-2-2.21-3.56-2.8-2.44-.93-13.16,1.25-16.07-1.33a1.46,1.46,0,0,0-.13-0.48,5.43,5.43,0,0,0-.6-1,1.45,1.45,0,0,0-1.39-1.32,4.22,4.22,0,0,0-4.51-.34c-5,2.79,1.6,9.75-2.3,13.5-1.49,1.43-3,1.87-4.25,3.72a37.6,37.6,0,0,1-7.43,8c-3.18,2.71-6.21,5.67-5.72,10.25,0.37,3.46,2.81,4.78,6,5.07,2.34,0.21,3.88-.52,6.06-0.84,2.41-.35,3,0.25,3.29,2.85,0.2,1.72-.23,3.37.05,5.13,0.79,4.93,4.68,8.48,7,12.64a46.29,46.29,0,0,0-5.54,5.16,34.24,34.24,0,0,0-7,10.54c-1.65,4-1.91,8.29-2,12.56s-0.44,8.65,1.34,12.77c-2.84,4.84-7.38,9-9.34,14.28-1.53,4.07-2.5,9.08-1.64,13.38a16.76,16.76,0,0,0,5,9.39c1.85,1.66,3.38,2.63,4.35,4.18a0.88,0.88,0,0,0,.4.73,9.19,9.19,0,0,1,.73,3.52c0.1,2.49-.35,5.09-0.27,7.62,0.32,10.46,2.16,20.06,8.3,28.84,1.29,1.84,3.09,2.87,4.76,4.33s2.85,3,4.61,4.16c4,2.53,9.77,2.81,14.49,2.81,0.54,5.6,5.06,10.61,10.48,12.3,3.25,1,6.69.37,10,.38,4.25,0,8.83.7,12.94-.68,7.83-2.61,12-8.15,16.5-14.68,2.74-4,4.18-9.44,2.18-14,4.63-.08,9-0.93,12.92-3.92,5.07-3.83,7.92-9.93,9.15-15.93,1.07-5.2,1.45-11.56-1.34-16.35A16.5,16.5,0,0,0,598.73,987.05Zm-12.89-56c0.52,0.69.32,2.09,0.38,2.9a11.35,11.35,0,0,0,.58,4.15c0.87,1.87,3.08,3.63,5.25,3.42s3.65-2.34,4.36-4.24c0.37-1,.14-3.2.68-4,0.65-.92,1.91-0.43,2.54.73,0.34,0.63,0,2.59,0,3.21-0.11,3.29-.6,6.58.45,9.75,1.63,4.93,3,9.4,3.27,14.67,0.17,3,.63,6.89-0.52,9.76a45.54,45.54,0,0,1-2.79,4.75,42.49,42.49,0,0,0-3,6c-0.36,1-.6,2-0.89,3a16.06,16.06,0,0,0-4.27-1.71c1.89-7.52-2.65-16.72-7.84-21.64a12.09,12.09,0,0,0-4-2.81c-0.29-.11-2.69-0.29-2.8-0.53,0,0,2.12-3,2-2.77,1.9-3.11,3.9-6.43,4.22-10.12a33.51,33.51,0,0,0-2.76-16.31C582.47,929.39,585.06,930.07,585.85,931.1Zm1.9,54.95-0.25.21a4.82,4.82,0,0,1-.48.51,3,3,0,0,1-.84.52c-4.33,2.86-10.72,3.1-15.61,3-7-.2-20-5.23-18.83-14.3a1,1,0,0,0-.06-0.49,15.43,15.43,0,0,0,5-6.73,0.89,0.89,0,0,0,.57-0.32c3.73-4.54,11.48-9.44,17.73-7.82a3.15,3.15,0,0,0,.84.65c1.74,0.91,3.39.64,5.15,1.94a19.92,19.92,0,0,1,4.65,5.28c2.37,3.71,4.51,10,3.24,14.72h-0.21a4.76,4.76,0,0,1-.94,2.86Zm-16.09,45a8.85,8.85,0,0,0-3,0c-1.29.22-1.77,0.83-2.8-.17a17.41,17.41,0,0,1-2.37-4.16c0.32-.5.63-1,0.91-1.52a35.38,35.38,0,0,0,2.25-5.18,21.62,21.62,0,0,0,4.66,4.31,11,11,0,0,0,1.83,1.13C572.63,1027.09,571.38,1029.24,571.65,1031Zm-8.32,3.86a1,1,0,0,0-.89,0c-2.5,1.26-4.13,2.19-7,2.57-1.71.23-3.4,0.55-5.09,0.66,0.24-.11.48-0.21,0.7-0.32a32.66,32.66,0,0,0,11.21-9.33c0.31,0.5.63,1,.92,1.52a17.59,17.59,0,0,0,1.44,2.9C564.19,1033.55,563.75,1034.21,563.33,1034.9Zm-36.91-18.15a14.5,14.5,0,0,1,3.26-3.74,1,1,0,0,0,1-.8,46.14,46.14,0,0,1,4.38-2.93,27.17,27.17,0,0,1,7.69-3.18,1,1,0,0,0,1.66-.15l0.07-.16c4.5-.58,8.76.76,10.59,6.27,2.09,6.31-2.2,12.75-7.33,16.12-1.89.82-3.59,2-5.59,2.67-3.94,1.23-9.37,1.1-13-1-4.09-2.36-5-7.76-3.29-11.92A0.84,0.84,0,0,0,526.42,1016.75ZM501,993.11c0.37,0.2.72,0.37,1.07,0.52a1,1,0,0,0,1.71.55l0.67,0.12c1.19,1.89,1.77,4.2,3.22,5.92s3.79,2.9,5.89,4.1c-5.44-.69-12.3-0.48-13-5.64,0,0,0,0,0-.07,0.08-.77.17-1.55,0.28-2.31A14.25,14.25,0,0,0,501,993.11Zm8.11-44.29c2.29-.68,4.77-0.67,7.13-1.13a12.76,12.76,0,0,0,2.39,3.6,1.86,1.86,0,0,1-.36.53,0.89,0.89,0,0,0-.26.71c-2.95-1.53-6-1.9-9.51-2.05-0.91,0-1.9-.14-2.9-0.22C506.78,949.85,507.87,949.19,509.09,948.83ZM501,949.95a20.74,20.74,0,0,1-1.34-5.24c1.57,0.41,2.95,1.3,4.73,1.32a19.78,19.78,0,0,1,4.5.71,9.5,9.5,0,0,0-1.55.55C505.28,948.25,502.94,948.77,501,949.95Zm11.44-14.23a5.22,5.22,0,0,0-1.66-1.57,0.91,0.91,0,0,0,.1-0.2,75.18,75.18,0,0,1,7.91-.48,13.27,13.27,0,0,0,6.77-2.14,1,1,0,0,0-1.11-1.66,15.41,15.41,0,0,1-6.92,2.07c2.58-4.64,7.39-9.43,13.2-8.15a9.17,9.17,0,0,1,4.78,2.75,1.14,1.14,0,0,0,.9,1.11,19,19,0,0,1,3.08,9.92c0.18,3.67.39,7.24-2.55,10.12a20.71,20.71,0,0,1-5.9,3.72c-2.27.94-5.22,1.93-7.61,1A10.45,10.45,0,0,1,518,946.6a1.14,1.14,0,0,0-.28-0.74,12,12,0,0,1-.55-1.87c2.66,0,6.16-.66,8.19,1.26a1,1,0,0,0,1.32-1.5c-1.7-1.61-3-1.75-5.27-1.75-3.07,0-6.15.06-9.22-.11a8,8,0,0,0,.7-2.16A5.69,5.69,0,0,0,512.44,935.71Zm-1.52,3.6a5.83,5.83,0,0,1-1,2.41l-1.4-.16c-1-1.41-1-5.08.17-6.33a5.67,5.67,0,0,1,1.75,1.18A3.35,3.35,0,0,1,510.92,939.31ZM521,911.05c0.12-.79.33-2.29,1.08-2.72a0.86,0.86,0,0,0,.3-1.26c0.86-.25,1.74-0.46,2.64-0.63a43.26,43.26,0,0,0,.44,7.37,63.32,63.32,0,0,1,1,7.86,12.44,12.44,0,0,0-3.22,1.27,4.75,4.75,0,0,1-2-2.63c-0.35-1.16-.46-2.35-0.79-3.5a0.93,0.93,0,0,0,.49-0.86A28.73,28.73,0,0,1,521,911.05Zm15.63,1.85,0.29-.51c0.92-1.59,2.41-2,3.76-3.13a33.87,33.87,0,0,0,3.14-3.09c1.79,0,3.56,0,5.3,0C545,908.74,541.58,912.27,536.61,912.9ZM553,906.38a34,34,0,0,1,7.61,1.4,17.18,17.18,0,0,1,1.82.7c-1.63.71-2.73,2-4.66,2.83-2.66,1.1-5.47.71-8,2.18a29.08,29.08,0,0,0-6.39,5.46c-2,2.11-3.5,5.18-6.21,6.29a11.65,11.65,0,0,0-4.13-2.95,26.25,26.25,0,0,1,2.48-7.3h0C542.82,914.78,546.8,908.77,553,906.38Zm-15.22,2.36a6.68,6.68,0,0,0-2.71,2.76c-1.53,3-3.46,6.75-4,10.17a10.36,10.36,0,0,0-2.65-.25,44.22,44.22,0,0,0-.55-5.14,1,1,0,0,0,.08-0.32c0.14-2.3,2.24-4,3.52-5.79a44,44,0,0,1,3.91-4.66c2.17,0,4.25,0,6.18,0A24.16,24.16,0,0,1,537.82,908.74Zm-8.93,1.56a24.39,24.39,0,0,0-1.59,2.11,54.92,54.92,0,0,1-.29-6.31c1.87-.27,3.77-0.42,5.66-0.51C531.35,907.12,530.17,908.72,528.88,910.3ZM572.46,957c-3.34-.34-6.53-3.27-9.3-5-1.07-.66-2.13-1.26-3.2-1.79,5.91-.05,12.32-0.42,17.44,2.38-1.18,1.74-2.78,3.93-3,5.78a11.64,11.64,0,0,0-1.21-.13A0.85,0.85,0,0,0,572.46,957Zm-31.72-12.36a13.32,13.32,0,0,0,.79-4.48,12.91,12.91,0,0,0,6.94,1.32c4.12-.13,8.5-2.15,12.5-1,3.26,0.92,6.39,2.66,9.67,3.72a32.64,32.64,0,0,0,9.51,1.8,18.85,18.85,0,0,1-1.7,4.92C567.29,944.46,552.21,951.25,540.74,944.66Zm14.05,5.45a1,1,0,0,0,.51.36c3.4,1,6.33,3.06,9.32,4.9a33.31,33.31,0,0,0,5.38,3.09,25.5,25.5,0,0,0-12.58,6.82,9.84,9.84,0,0,0-.27-3c-1.72-6.68-7.94-11.73-15-10l-0.3.08a0.9,0.9,0,0,0-.18-0.06A3.83,3.83,0,0,1,539.4,951a10.94,10.94,0,0,1-1.33-2,13.31,13.31,0,0,0,1.86-2.54C544.19,948.87,549.94,949.79,554.79,950.11Zm-3.12,45.47a1,1,0,0,0,.08-0.38c0-1.65,1.88-3.37,2.56-4.86a16.59,16.59,0,0,0,1.27-3.27,26.41,26.41,0,0,0,4.55,2.73c0.71,0.8,1.37,1.59,2,2.38-4.23,3.31-2.75,11.43-7.94,13.87a1.07,1.07,0,0,0-.34.25,9.44,9.44,0,0,0-2.69-1.71A18.59,18.59,0,0,0,551.67,995.58Zm2.08-10c0,2-1.33,4.42-2.47,6-0.21.3-.41,0.59-0.6,0.88-2-4.75-4.09-9.26-4.19-14.51,0,0,0,0,0,0a10,10,0,0,0,1.34-.34,12.31,12.31,0,0,0,1.86-.83,11.84,11.84,0,0,0,4.07,8.78S553.75,985.54,553.75,985.55Zm-11.16,8.63-0.13-.14c-0.52-5.22-.71-12.06-3.06-17.17a12.47,12.47,0,0,0,5.1,1.2,33,33,0,0,0,2.79,11.84c2.05,5.06,3.39,8.74,1.95,14.08a14.42,14.42,0,0,0-4-.26A9.76,9.76,0,0,0,542.59,994.19Zm-9.59,1.6a39.35,39.35,0,0,0-2.16-3.58c-0.91-1.24-2.8-2.59-2.84-4.26a1,1,0,0,0-.11-0.43,17.89,17.89,0,0,0,1.41-1.3c0.8,1.73,2.9,2.82,4.6,3.86,4.92,3,11.44,7.45,9.13,13.94a25.61,25.61,0,0,0-7,2.45,7.24,7.24,0,0,0-1.25-2.36,0.88,0.88,0,0,0,.2-0.65C534.76,1000.58,534.47,998.3,533,995.78ZM515.8,985c-2.73,0-5.88-.74-7.5-2.88a1,1,0,0,0,.18-0.41c0.49-2.33,6-4.62,8-4.82a5.56,5.56,0,0,1,5.23,2.68,7.86,7.86,0,0,1,1.48,3.52A15.44,15.44,0,0,1,515.8,985Zm-0.35,5.68a1,1,0,0,0-.36.66c-3.58,1.19-7.21,1.84-10.73.9a5.4,5.4,0,0,1,2.58-3.22,12.61,12.61,0,0,1,2.52-.44c1.08-.22,2-0.9,3.1-1.07a1,1,0,0,0,.84-0.72,14.53,14.53,0,0,0,2.51.21h0.17C516.2,988.28,516.38,989.85,515.44,990.67Zm2.58-3.86a16.6,16.6,0,0,0,3.59-.91,0.92,0.92,0,0,0,.94.6h0s0.09,0.06.06,0a2.66,2.66,0,0,1,.28.59,3,3,0,0,1,.11.63,3.92,3.92,0,0,1,0,.42l-0.69.31c-1.47.62-3,1.26-4.5,1.87A11,11,0,0,0,518,986.81Zm5.68,3.26a19.17,19.17,0,0,0,2.4-1.26c0.43,1.94,2.19,3.23,3.33,4.87a19,19,0,0,1,3.38,8.32c-1-.88-2.07-1.67-3-2.35a35,35,0,0,1-4.6-3.61,11.84,11.84,0,0,1-1.51-3c-0.43-.84-1.23-1.33-1.43-2.32Zm5.3-20.93c0-1.07,0-2.15,0-3.22s0-1.32,1.06-1.43a1,1,0,0,0,.2-0.06c1.65,2.9,1.32,6.5,1.28,9.86a18.79,18.79,0,0,1-.67,5.65,5.41,5.41,0,0,0-1.49-1.09,4.7,4.7,0,0,0-1.85-.36,5.1,5.1,0,0,0-1.06-2.91,4.79,4.79,0,0,0,2.25-2.45A11,11,0,0,0,529,969.14Zm3.59-9.89a0.94,0.94,0,0,0,.16.09,13.71,13.71,0,0,0-1,3.42c-0.13-.2-0.28-0.39-0.43-0.58a27.33,27.33,0,0,0-6.06-5v-2.68a10.55,10.55,0,0,0,2.36-.13l0.81-.16C529.07,956.43,530.87,957.74,532.59,959.25Zm-2.26-5.53a18.11,18.11,0,0,0,6.26-3.28c0.17,0.31.31,0.64,0.5,0.95a6.88,6.88,0,0,0,1.2,1.31,7.2,7.2,0,0,0,.74.61,12.09,12.09,0,0,0-5.29,4.29C532.45,956.52,530.77,955.42,530.33,953.72Zm3.19,19c0-.13,0-0.27,0-0.41a18.34,18.34,0,0,0,2.45,2.38,0.91,0.91,0,0,0,.2.57c3.14,4.17,3.63,11,4.09,16.57a21.59,21.59,0,0,0-3.09-2.45c-1.48-.92-6.58-2.55-6.19-5a1,1,0,0,0,0-.14c0.27-.34.54-0.69,0.81-1.06C533.93,980.31,533.49,976.33,533.51,972.77Zm-6.23,7.73a2.82,2.82,0,0,1,1.31.21,5.11,5.11,0,0,1,1.25,1,0.91,0.91,0,0,0,.17.11c-0.14.25-.27,0.49-0.44,0.74a14,14,0,0,1-4.62,4.52,4.08,4.08,0,0,0-.6-1.61,3.47,3.47,0,0,0,.81-1.73A6.9,6.9,0,0,0,527.29,980.49ZM546,975.87c-4.66,1-9.72-2.67-12.16-6.43a1,1,0,0,0-.36-0.33,19.82,19.82,0,0,0-.26-2.46,1,1,0,0,0,.29-0.71c-0.06-5.32,1.6-8.56,6.45-10.63,6.87-2.93,14.05.54,15.35,8.08C556.22,968.77,551.18,974.81,546,975.87Zm-22.74-21.7v1.71c-1.23-.78-2.44-1.54-3.52-2.3l-0.31-.19a1,1,0,0,0,.33-0.23,3.63,3.63,0,0,0,.38-0.5A9.72,9.72,0,0,0,523.25,954.17Zm-9.69-.84a0.9,0.9,0,0,0,.08-0.07,21.51,21.51,0,0,1,7.05,3.51c2.65,1.88,5.78,3.56,8.14,5.83l0.08,0.08a2.36,2.36,0,0,0-1.91,2.4c-0.11,1.63,0,3.32,0,5a7.61,7.61,0,0,1,0,1.94c-0.11.4-1.12,2.39-1.8,1.75a0.87,0.87,0,0,0-1.08-.14,13.32,13.32,0,0,0-2-.9,1,1,0,0,0,.38-0.76c0.09-3.25.16-5.62-2.61-7.71C517.44,962.4,508.13,956.66,513.56,953.33ZM522.16,975c2.16,1,3.6,3,2.92,5.7a3.1,3.1,0,0,1-.18.49c-0.9-2.66-3.4-5.3-5.39-6-3.29-1.13-9.9,1-12.23,4.38-0.67-4.76,4-6.35,7.86-6.57a1.07,1.07,0,0,0,.42.32,1,1,0,0,0,.49.15A15.38,15.38,0,0,1,522.16,975Zm-11.51,11a9.21,9.21,0,0,1-2.11.64,6.53,6.53,0,0,0-3.22.95,8.44,8.44,0,0,0-2.85,3.92q-0.55-.25-1.1-0.56a5.44,5.44,0,0,0,1.41-2.19c0.81-2.53-.37-6.78,2.27-8.37C505.59,983.21,507.95,985,510.65,986Zm1.63,15.24c-3.06-1.89-3.94-4.13-5.42-6.78,0.66,0,1.38,0,2.21,0,4.23,0,7.72-1.35,11.38-3,0.44,1.5,1.54,2.62,2.26,4.14a5,5,0,0,0,2,2.52c2.62,1.91,9,5.63,9.52,9.28a36.44,36.44,0,0,0-4.44,3.12,9.35,9.35,0,0,0-4.36-2.93c-2.85-.69-5-0.85-7.43-2.67C516.13,1003.61,514.26,1002.51,512.28,1001.28Zm35.51,35.62c-0.58-1.78-1.77-3.3-2-5.2a1,1,0,0,0-.1-0.29c0.61-.32,1.22-0.65,1.85-1a1,1,0,0,0,.56-0.13l0.23-.15s0,0,0,.07a15.41,15.41,0,0,0,3.69,2.27,8.77,8.77,0,0,0,2.49.87,23.37,23.37,0,0,1-4.94,2.91A16,16,0,0,1,547.79,1036.9Zm4.95-6.27A15.8,15.8,0,0,1,550,1029a20.73,20.73,0,0,0,3.81-3.72,19.75,19.75,0,0,1,2.24,1,15,15,0,0,0,2.36.77,6.47,6.47,0,0,0,2.28.15,32,32,0,0,1-4.42,4.71,1,1,0,0,0-.83-0.47A6.71,6.71,0,0,1,552.73,1030.63Zm2.29-7a17,17,0,0,0,1.91-4.15,16.51,16.51,0,0,0,4.06,0,7.19,7.19,0,0,0,4.22-1.44,30.65,30.65,0,0,1-2.58,6.25c-0.11.2-.23,0.4-0.35,0.6a0.8,0.8,0,0,0-1.09,0C559.52,1026.31,557,1024.46,555,1023.62Zm-18.76,15.18c1.24-1.6,1.26-3.37,1.24-5.28A19.07,19.07,0,0,0,542,1033a12.36,12.36,0,0,0,1.89-.68c0.39,1.85,1.43,3.38,2,5.13-0.51.13-1,.26-1.51,0.41-2.87.88-6.89,2.55-10.31,2.94l0,0A11,11,0,0,0,536.27,1038.8Zm29.65-23.5a0.92,0.92,0,0,0-.91.28,5.6,5.6,0,0,1-4.4,1.91,13.76,13.76,0,0,1-3.24.09,13.71,13.71,0,0,0,.16-3,1.13,1.13,0,0,0,.12-0.15c0.69-1.09,2-1.51,3.11-2.12a22.42,22.42,0,0,0,3.67-2.41,11.44,11.44,0,0,0,2.58-3.65A52.83,52.83,0,0,1,565.91,1015.31Zm0.44-12c-0.58.92-.93,2-1.52,2.91a10.07,10.07,0,0,1-3.59,3.5,37.7,37.7,0,0,0-4.1,2.43,13.69,13.69,0,0,0-.6-1.87,11.59,11.59,0,0,0-1.4-2.51,9.89,9.89,0,0,0,3.68-4.1,1,1,0,0,0,.42-0.26,6.35,6.35,0,0,1,2.37-1.72,5,5,0,0,0,1.76-1.13c0.79-.76,1.69-1.36,2.44-2.12a18.12,18.12,0,0,1,1.05,4.43A1,1,0,0,0,566.36,1003.3Zm-1.5-6.75a7.4,7.4,0,0,1-1.86,1.61,10.71,10.71,0,0,1-1.79,1.56c-0.34.17-.69,0.28-1,0.42,0.72-2.39,1.47-5,3.15-6.37a24.18,24.18,0,0,1,1.63,2.67Zm14.25-61.82a23.53,23.53,0,0,1,1.33,9.26,34.25,34.25,0,0,1-10.75-2.22c-2.47-.82-4.86-2.17-7.33-3,5.45-1.82,10.41-5.3,16.45-4A1,1,0,0,0,579.1,934.73Zm-0.74-2.09c-7.61-1.11-13.23,4.54-20.66,5.11a0.93,0.93,0,0,0-.61.28c-5.25.32-10.17,3.06-15.63-.17a31.32,31.32,0,0,0-.63-4.87c3.72,0,7.45-2,10.8-4.06a1,1,0,0,0,.43.07,101.15,101.15,0,0,1,15.79.9,17.4,17.4,0,0,0,9-.92C577.36,930.2,577.89,931.42,578.36,932.64ZM574,922.9c0.65,1.43,1.32,2.85,2,4.28-3.89,1.78-8.43.27-12.48,0.2-2.94-.05-5.87-0.35-8.8-0.41C560.14,923.55,567.53,921,574,922.9Zm-3.43-7.06a32.58,32.58,0,0,1,2.41,4.72l0,0a25.89,25.89,0,0,0-14.16,1.81,68,68,0,0,0-7.48,4.34c-2.63,1.55-7.79,4.36-10.91,4.25a0.89,0.89,0,0,0-.15,0,16.9,16.9,0,0,0-1.87-4.12c3.48-1.62,5.51-5.72,8.29-8.43,2.32,1.32,6,.72,8.46-0.07s4.32-2.21,6.91-2.41,5.34,0,8,0A0.89,0.89,0,0,0,570.57,915.84ZM569.28,914c-3.06-.06-6.5-0.47-9.43.25-3.32.81-7.72,4.19-11.45,2.82a20,20,0,0,1,8.14-3.33c2.76-.63,5.38-3.56,8-3.73a1,1,0,0,0,.44-0.13A18.33,18.33,0,0,1,569.28,914ZM510.7,903.2a13.26,13.26,0,0,1-3.55-9.47c0-1.85.46-3.73-.09-5.57-1.9-6.31-8.14.3-12.08-1.06-7.94-2.76.85-9.28,3.55-11.68,2.51-2.23,4.14-4.77,6.19-7.29s5.54-2.94,6.4-6.16a8.19,8.19,0,0,0-.14-3.59,23.33,23.33,0,0,0-.75-2.5c-0.87-1.45-.27-2.34,1.78-2.68,1.35,2.64,5.08,3.25,8,3.56a38.54,38.54,0,0,0,5.74.09c3-.13,4.59.86,7.12,2.22,3.25,1.74,7.07,3,9.8,5.59,4.44,4.23,4,11.58,10.86,13.18,0.76,0.18,1.55.33,2.36,0.46a1.58,1.58,0,0,0,1.19,2.55,1.43,1.43,0,0,0,1.15-2.24,49.88,49.88,0,0,0,5.7.32c3.32,0,6.39-.47,8.9,2.23,0.74,0.79,1.26,1.75,1.93,2.62a1.2,1.2,0,0,0,.32,1.07c2.05,2.37,2,5,.73,7.73-0.55,1.19-1.69,4-3.18,4.2-1.93.3-3.61-2.7-5.89-2-1.76.55-2.43,2-2.57,3.72a1.44,1.44,0,0,0-1.25-.66c-1.94,0-1.77,3,.16,3a1.29,1.29,0,0,0,1.1-.53,56.27,56.27,0,0,0,1.09,6,14.15,14.15,0,0,0-2.55-1.13c-6.43-2-12.46-2-19.14-2h-0.07a1.44,1.44,0,0,0-1.26-.67c-9,0-20.46-.4-28.17,5.3A52.74,52.74,0,0,0,510.7,903.2Zm8.22,11.06c-1-.91-2.32-1.63-2.77-2.74a6.54,6.54,0,0,0,.64-0.52,1.2,1.2,0,0,0,.23-1.62,19.18,19.18,0,0,1,2.66-1.36C518.76,909.69,518.82,912.23,518.92,914.25Zm-7.74.22c0.69-.61,1.58-1.63,2.45-2.34a2.25,2.25,0,0,0,.58.08,3.48,3.48,0,0,0,.88,1.62c1.18,1.2,2.61,1.32,3.35,3.09s0.59,3.59,1.28,5.25a4.44,4.44,0,0,0,1.74,1.94,20.53,20.53,0,0,0-3.87,3.9,0.93,0.93,0,0,0-.15,0,4.67,4.67,0,0,1-1.45-.2,18.54,18.54,0,0,0-2.14-7.92,10.7,10.7,0,0,0-3.93-4.33C510.35,915.2,510.77,914.85,511.18,914.47Zm-4.91,4.7a13.86,13.86,0,0,1,2-2.2h0c3.37,0.93,5.41,6.57,5.67,10.09-0.74-.31-1.44-0.62-2-0.84a17.42,17.42,0,0,1-7.11-4.79l-0.07-.07C505.27,920.59,505.79,919.84,506.27,919.17Zm-2.62,3.93a21,21,0,0,0,6.42,4.51c1.55,0.75,3.27,1.41,4.85,2.05a4.61,4.61,0,0,0,1.32.33c-0.39.63-.74,1.27-1.05,1.9-1.38.06-2.74,0.06-4,.09a10.21,10.21,0,0,0-1.76.17,1,1,0,0,0-.26-0.41,28.6,28.6,0,0,0-2.79-2.05c-0.88-.65-1.6-1.48-2.5-2.1a5.63,5.63,0,0,0-2.16-.91A32.52,32.52,0,0,1,503.65,923.1ZM501,928.61a5,5,0,0,1,2.6,1.31c1,0.92,2.2,1.66,3.28,2.5-2.24-.12-4.48-0.34-6.75-0.4A30.32,30.32,0,0,1,501,928.61Zm-1.2,5.4c2.36,0,4.68.28,7,.41-1.71,2.58-1.42,8.81,1.81,9.6a2.58,2.58,0,0,0,1.93-.25c1.52,0.12,3.05.17,4.59,0.2a14.87,14.87,0,0,0,.41,1.84c-0.7.13-1.41,0.21-2.13,0.27a0.83,0.83,0,0,0-.7-0.56c-2.55-.39-4.91-1.37-7.51-1.52-2.09-.12-3.8-1-5.75-1.37A41.63,41.63,0,0,1,499.77,934Zm0.58,19.1c2.17-1.54,5.75-.77,8.24-0.61,0.88,0.05,1.68.14,2.45,0.25-1.72,1.71-1.63,3.8,0,6.27a21.39,21.39,0,0,0,5.06,5.18,25.74,25.74,0,0,1,2.93,1.88c1.93,1.89,1.53,3.73,1.46,6a0.89,0.89,0,0,0,0,.15,21.84,21.84,0,0,0-3.09-.58c0.76-3.22-3.67-4.52-6.22-5.49a54.61,54.61,0,0,1-7.84-3.15c-1.14-.66-4.74-4.29-5-6.85C499.06,955.13,499.73,954.13,500.35,953.11ZM497,958.18a20.16,20.16,0,0,0,2,3.34,11.55,11.55,0,0,0,5.57,4.18c1,0.39,9.49,2.94,10.62,5.33a15.69,15.69,0,0,0-4.67,1c-3.06-.56-5.25-1.61-8.41-0.2s-7.79,8-12,6.18C488.55,970.37,492.78,964.21,497,958.18Zm2.35,31.49c-3.31-3.41-6.94-4.89-8.62-9.56a10.57,10.57,0,0,0,5.79-1.69c2.06-1.19,3.51-3.16,5.56-4.38s3.81-1,5.72-.58a7,7,0,0,0-2.77,4.81,6.43,6.43,0,0,0-3.56,4.48,13.08,13.08,0,0,0-.43,3.56,5.13,5.13,0,0,1-1.44,3.65C499.48,989.86,499.41,989.77,499.31,989.67Zm0.9,12.75a8.57,8.57,0,0,0,3.45,2.26,31.48,31.48,0,0,0,5.66,1.14c2.41,0.37,6.32.15,8.27,1.67a1,1,0,0,0,.69.21,10.77,10.77,0,0,0,2.58,1.38c2.65,1,5.12,1.18,7.35,2.89a21.57,21.57,0,0,0-3.46,4.16c-4.75.88-8.08-2-12.46-3.06a45.52,45.52,0,0,0-11.55-1.07A52.57,52.57,0,0,1,500.21,1002.43Zm0.88,11.58a38.85,38.85,0,0,1,12.41,2,6.44,6.44,0,0,0-1.31.48c-2.26,1.12-7.14,3.14-10,2A44.38,44.38,0,0,1,501.09,1014Zm4.59,12.52a36.24,36.24,0,0,1-2.76-5.89,22,22,0,0,0,6.05-.55c1.47-.28,2.46-1.24,3.84-1.69,2.26-.73,4.67,0,7-0.37a15.75,15.75,0,0,0,3.83.24,10.7,10.7,0,0,0-.84,4.1c-2.27.8-3.84,3.34-5.73,4.77s-3.91,1.63-6.27,1.64a15.72,15.72,0,0,1-3.94-.08C506.47,1028,506.09,1027.23,505.68,1026.53Zm8.16,9.79c-1.53-1.43-3.31-2.63-4.72-4.15a10.5,10.5,0,0,1-.93-1.2,21.81,21.81,0,0,0,6.36-.46,8.87,8.87,0,0,0,3.55-1.63,17.11,17.11,0,0,1-.26,1.75,9.84,9.84,0,0,1-2.08,3.78A15.93,15.93,0,0,1,513.84,1036.31Zm9.29,4.38a17.68,17.68,0,0,1-7.68-3,14.46,14.46,0,0,0,2.84-3.42,10.79,10.79,0,0,0,1.52-3.22,27.78,27.78,0,0,1,.51-3.2,1,1,0,0,0,.26-1.32,11.73,11.73,0,0,1,2.43-2.06,11.54,11.54,0,0,0,1.75,4,9.88,9.88,0,0,0,2,2.19,1,1,0,0,0,0,.47c0.71,2.28-1,3.82-1.9,5.71C524.23,1038.18,524,1039.54,523.13,1040.7Zm2.1,0.28c0.62-1.2,1-2.5,1.77-3.9,1-1.79,2-3.26,1.94-5.12a16.47,16.47,0,0,0,5.62,1.46l0.93,0.06c0,1.92,0,3.56-1.62,4.92a24.17,24.17,0,0,1-3.69,2.77A49.51,49.51,0,0,1,525.24,1041Zm8.36,6.45a10,10,0,0,1-1.09-4.59c3.09,0,6.14-1.21,9.11-2.05,1.26-.36,2.62-0.68,4-1,3.63,1,7.35.15,11-.35a15.52,15.52,0,0,0,5.45-2,11.29,11.29,0,0,0-.44,1.27,28,28,0,0,0-1,4.13c-3.46,1.34-6.84,2.74-10.44,3.78C546.32,1047.66,537.34,1049.56,533.59,1047.43Zm27.68,5.87a0.94,0.94,0,0,0,0,.26c-4.91,1.3-11,.35-16,0.45a13.54,13.54,0,0,1-9.66-3.81c3.93,0.65,9.12-.32,12.28-0.92,4.47-.85,8.65-2.74,12.86-4.4a2.14,2.14,0,0,0,2.11,1.63C562.28,1048.75,561.85,1051.05,561.27,1053.29Zm1.42-9a6.3,6.3,0,0,1,.17-1.73,31.58,31.58,0,0,1,.61-3.11,19.3,19.3,0,0,1,3.06-5.8c2.67,0,6-2.86,6.13,2.65,0.07,3-4,6.35-6.53,7.26Zm7,4.83a31.31,31.31,0,0,1-6.2,3.61c0.52-2.15.94-4.34,1.54-6.48a15,15,0,0,0,3.33-1.3,1,1,0,0,0,.27.49,8.41,8.41,0,0,1,1.71,3.06l0,0.05C570.11,1048.81,569.89,1049,569.65,1049.18Zm5.39-6.66c-1.1,1.53-2,3.12-3.2,4.53a9.63,9.63,0,0,0-1.89-3,9.43,9.43,0,0,0,1.33-1,15.21,15.21,0,0,0,2.84-4.26,12.32,12.32,0,0,1,2.13.33c0.33,0.06.65,0.1,1,.13C576.55,1040.38,575.78,1041.49,575,1042.52Zm3.22-5.18c-0.63-.12-1.28-0.15-1.92-0.29a12.66,12.66,0,0,0-1.52-.24c0.47-1.79.39-3.53-.81-4.69l-0.06,0a0.86,0.86,0,0,0-.12-0.89c-0.46-.62.07-1.91,0.26-2.59,0.24-.83.62-1.6,0.91-2.41a9.93,9.93,0,0,0,2.65.46,1.45,1.45,0,0,0,.1.17C580.52,1030.25,579.91,1033.94,578.26,1037.34Zm21.86-26.95a21.31,21.31,0,0,1-9.62,12c-4,2.1-7.23,2.28-11.58,2.12a1.33,1.33,0,0,0-.76.19c-2.21.19-4.61-1.35-6.25-2.56-1.36-1-4.09-2.82-4.17-4.68a0.94,0.94,0,0,0-.16-0.49A47.15,47.15,0,0,0,569,1004.4c-0.1-5.52-2.07-9.3-5-13.08,0.87,0.28,1.73.51,2.56,0.7a33,33,0,0,0,14.34-.56,30.45,30.45,0,0,0,7.37-2.74,5.32,5.32,0,0,0,1.84-2,1.29,1.29,0,0,0,.74-0.51,10.75,10.75,0,0,1,4.3,1.45c-0.06.1-.1,0.2-0.17,0.3-1,1.53,1.33,2.79,2.46,1.62C602,994.65,602,1004.08,600.12,1010.39Z" transform="translate(-486.86 -849.05)"/><path d="M591.95,995.75l-0.12,0-0.13,0c-4.7.23-7.59,5.13-7.94,9.42-0.14,1.65-.56,4.74.18,6.29s3,2.08,4.62,2.05c4.92-.1,7.13-4.43,7.66-8.73C596.72,1000.7,597.22,996,591.95,995.75Zm2.07,10.59c-0.61,2.76-3.44,6.09-6.71,5-2-.66-1.59-1.08-1.56-2.41a33.19,33.19,0,0,1,.09-4.48c0.49-3,2.6-6.55,6-6.71l0.12,0,0.13,0C595.91,997.93,594.52,1004.1,594,1006.34Z" transform="translate(-486.86 -849.05)"/><path d="M512.61,861c-1.29,0-1.18,2,.11,2S513.9,861,512.61,861Z" transform="translate(-486.86 -849.05)"/><path d="M517.61,857.67c-1.29,0-1.18,2,.11,2S518.9,857.67,517.61,857.67Z" transform="translate(-486.86 -849.05)"/><path d="M518.61,865.33c-1.29,0-1.18,2,.11,2S519.9,865.33,518.61,865.33Z" transform="translate(-486.86 -849.05)"/><path d="M521.28,870.67c-1.29,0-1.18,2,.11,2S522.56,870.67,521.28,870.67Z" transform="translate(-486.86 -849.05)"/><path d="M506.28,869.33c-1.29,0-1.18,2,.11,2S507.56,869.33,506.28,869.33Z" transform="translate(-486.86 -849.05)"/><path d="M504.95,881.33c-1.29,0-1.18,2,.11,2S506.23,881.33,504.95,881.33Z" transform="translate(-486.86 -849.05)"/><path d="M501.28,883c-1.29,0-1.18,2,.11,2S502.56,883,501.28,883Z" transform="translate(-486.86 -849.05)"/><path d="M508.95,886.33c-1.29,0-1.18,2,.11,2S510.23,886.33,508.95,886.33Z" transform="translate(-486.86 -849.05)"/><path d="M511.61,878c-1.29,0-1.18,2,.11,2S512.9,878,511.61,878Z" transform="translate(-486.86 -849.05)"/><path d="M513.28,902.67c-1.29,0-1.18,2,.11,2S514.56,902.67,513.28,902.67Z" transform="translate(-486.86 -849.05)"/><path d="M516.61,898c-1.29,0-1.18,2,.11,2S517.9,898,516.61,898Z" transform="translate(-486.86 -849.05)"/><path d="M516.95,892c-1.29,0-1.18,2,.11,2S518.23,892,516.95,892Z" transform="translate(-486.86 -849.05)"/><path d="M540.95,893.67c-1.29,0-1.18,2,.11,2S542.23,893.67,540.95,893.67Z" transform="translate(-486.86 -849.05)"/><path d="M534.95,900.33c-1.29,0-1.18,2,.11,2S536.23,900.33,534.95,900.33Z" transform="translate(-486.86 -849.05)"/><path d="M544.95,888.67c-1.29,0-1.18,2,.11,2S546.23,888.67,544.95,888.67Z" transform="translate(-486.86 -849.05)"/><path d="M541.95,878.33c-1.29,0-1.18,2,.11,2S543.23,878.33,541.95,878.33Z" transform="translate(-486.86 -849.05)"/><path d="M546.61,874.33c-1.29,0-1.18,2,.11,2S547.9,874.33,546.61,874.33Z" transform="translate(-486.86 -849.05)"/><path d="M559.95,882c-1.29,0-1.18,2,.11,2S561.23,882,559.95,882Z" transform="translate(-486.86 -849.05)"/><path d="M567.61,881c-1.29,0-1.18,2,.11,2S568.9,881,567.61,881Z" transform="translate(-486.86 -849.05)"/><path d="M570.28,880.33c-1.29,0-1.18,2,.11,2S571.56,880.33,570.28,880.33Z" transform="translate(-486.86 -849.05)"/><path d="M565.95,889.33c-1.29,0-1.18,2,.11,2S567.23,889.33,565.95,889.33Z" transform="translate(-486.86 -849.05)"/><path d="M562.28,902.33c-1.29,0-1.18,2,.11,2S563.56,902.33,562.28,902.33Z" transform="translate(-486.86 -849.05)"/><path d="M558.61,896c-1.29,0-1.18,2,.11,2S559.9,896,558.61,896Z" transform="translate(-486.86 -849.05)"/><path d="M532.28,882.67c-1.29,0-1.18,2,.11,2S533.56,882.67,532.28,882.67Z" transform="translate(-486.86 -849.05)"/><path d="M533.95,872.67c-1.29,0-1.18,2,.11,2S535.23,872.67,533.95,872.67Z" transform="translate(-486.86 -849.05)"/><path d="M532.95,879c-1.29,0-1.18,2,.11,2S534.23,879,532.95,879Z" transform="translate(-486.86 -849.05)"/><path d="M530.28,862.33c-1.29,0-1.18,2,.11,2S531.56,862.33,530.28,862.33Z" transform="translate(-486.86 -849.05)"/><path d="M528.61,894.33h-0.33c-1.29,0-1.18,2,.11,2h0.33C530,896.33,529.9,894.33,528.61,894.33Z" transform="translate(-486.86 -849.05)"/><path d="M503.28,872c-1.29,0-1.18,2,.11,2S504.56,872,503.28,872Z" transform="translate(-486.86 -849.05)"/><path d="M500.95,875c-1.29,0-1.18,2,.11,2S502.23,875,500.95,875Z" transform="translate(-486.86 -849.05)"/></svg>