<svg id="mustekala" xmlns="http://www.w3.org/2000/svg" viewBox="0 0 94.06 101.28"><defs><style>.cls-1{fill:#fff;}</style></defs><title>lonkerot</title><path d="M321.66,703.83c-1.27.22-.81,2.17,0.45,1.95S322.92,703.61,321.66,703.83Z" transform="translate(-308.02 -630.15)"/><path d="M323.65,706.53c-1.27.22-.81,2.17,0.45,1.95S324.92,706.31,323.65,706.53Z" transform="translate(-308.02 -630.15)"/><path d="M326.63,709.05c-1.27.22-.81,2.17,0.45,1.95S327.9,708.83,326.63,709.05Z" transform="translate(-308.02 -630.15)"/><path d="M324.61,703.32c-1.27.22-.81,2.17,0.45,1.95S325.88,703.09,324.61,703.32Z" transform="translate(-308.02 -630.15)"/><path d="M323.83,698.88c-1.27.22-.81,2.17,0.45,1.95S325.1,698.66,323.83,698.88Z" transform="translate(-308.02 -630.15)"/><path d="M316.31,685c-1.27.22-.81,2.17,0.45,1.95S317.58,684.75,316.31,685Z" transform="translate(-308.02 -630.15)"/><path d="M313.91,682.86c-1.27.22-.81,2.17,0.45,1.95S315.17,682.64,313.91,682.86Z" transform="translate(-308.02 -630.15)"/><path d="M314,680.31c-1.27.22-.81,2.17,0.45,1.95S315.23,680.09,314,680.31Z" transform="translate(-308.02 -630.15)"/><path d="M314.93,677.1c-1.27.22-.81,2.17,0.45,1.95S316.19,676.87,314.93,677.1Z" transform="translate(-308.02 -630.15)"/><path class="cls-1" d="M325.93,655.9c1,0.44,1.93,1,1.86,2.15a3.06,3.06,0,0,1-1.86,2.76A26,26,0,0,0,325.93,655.9Z" transform="translate(-308.02 -630.15)"/><path class="cls-1" d="M325.52,664.05a2.25,2.25,0,0,1,.44,1.3,1.34,1.34,0,0,1-.9,1.2C325.23,665.72,325.39,664.89,325.52,664.05Z" transform="translate(-308.02 -630.15)"/><path class="cls-1" d="M324.43,669.67c0.37,0.16.74,0.31,1.12,0.44a1.16,1.16,0,0,1,1.06.79c0.23,1.72-1.47,2-2.84,2.16C324,671.92,324.2,670.79,324.43,669.67Z" transform="translate(-308.02 -630.15)"/><path class="cls-1" d="M323.28,676.66c0.77,0.45,1.56,1,1.51,1.83a2.7,2.7,0,0,1-1.49,2A23.68,23.68,0,0,1,323.28,676.66Z" transform="translate(-308.02 -630.15)"/><path class="cls-1" d="M324.66,687.34a37.91,37.91,0,0,1-1-4.17c1.92-.17,1.81,3.3,1.12,4.55Z" transform="translate(-308.02 -630.15)"/><path class="cls-1" d="M325.78,691.28a2.75,2.75,0,0,1,1.84.72,1.48,1.48,0,0,1-.15,1.77,2,2,0,0,1-.83.51Q326.19,692.78,325.78,691.28Z" transform="translate(-308.02 -630.15)"/><path class="cls-1" d="M329.28,701H329.2l-0.12-.23a32.68,32.68,0,0,1-1.62-3.89c0.75,0,1.84-.34,2.3.43S330.23,700.83,329.28,701Z" transform="translate(-308.02 -630.15)"/><path class="cls-1" d="M332.51,706.52c-0.77-1.16-1.51-2.34-2.21-3.55,0.31,0.05.62,0.14,1,.21a12,12,0,0,1,1.7.28C334.56,704,333.38,705.71,332.51,706.52Z" transform="translate(-308.02 -630.15)"/><path class="cls-1" d="M336.26,711.88c-0.72-1-1.43-2-2.13-3h0.18a4.36,4.36,0,0,1,2,0C337,709.36,336.59,710.88,336.26,711.88Z" transform="translate(-308.02 -630.15)"/><path class="cls-1" d="M339.61,717.31a17.38,17.38,0,0,0-1.71-3.09A2.24,2.24,0,0,1,340,715,3.15,3.15,0,0,1,339.61,717.31Z" transform="translate(-308.02 -630.15)"/><path d="M350.63,676.71c-1.28.14-1,2.11,0.32,2S351.9,676.58,350.63,676.71Z" transform="translate(-308.02 -630.15)"/><path d="M355.28,673.2c-1.28.14-1,2.11,0.32,2S356.56,673.06,355.28,673.2Z" transform="translate(-308.02 -630.15)"/><path d="M355.81,678.17c-1.28.14-1,2.11,0.32,2S357.09,678,355.81,678.17Z" transform="translate(-308.02 -630.15)"/><path d="M354.05,675.85c-1.28.14-1,2.11,0.32,2S355.33,675.71,354.05,675.85Z" transform="translate(-308.02 -630.15)"/><path d="M358.63,676.36c-1.28.14-1,2.11,0.32,2S359.91,676.23,358.63,676.36Z" transform="translate(-308.02 -630.15)"/><path d="M358.26,672.88c-1.28.14-1,2.11,0.32,2S359.54,672.75,358.26,672.88Z" transform="translate(-308.02 -630.15)"/><path d="M356.42,665c-1.28.14-1,2.11,0.32,2S357.7,664.9,356.42,665Z" transform="translate(-308.02 -630.15)"/><path d="M354,694c-1.28.14-1,2.11,0.32,2S355.25,693.82,354,694Z" transform="translate(-308.02 -630.15)"/><path d="M358.06,697.29l-0.55-.44a1,1,0,1,0-1.15,1.64l0.55,0.44A1,1,0,1,0,358.06,697.29Z" transform="translate(-308.02 -630.15)"/><path d="M358,693.53c-1.28.14-1,2.11,0.32,2S359.23,693.4,358,693.53Z" transform="translate(-308.02 -630.15)"/><path d="M359.37,697.4c-1.28.14-1,2.11,0.32,2S360.64,697.27,359.37,697.4Z" transform="translate(-308.02 -630.15)"/><path d="M361.83,701.67c-1.28.14-1,2.11,0.32,2S363.11,701.53,361.83,701.67Z" transform="translate(-308.02 -630.15)"/><path class="cls-1" d="M368.57,702.56a4.66,4.66,0,0,1-.33,2.18q-0.48-2.13-1-4.27c0.11,0,.21-0.1.32-0.16A3.23,3.23,0,0,1,368.57,702.56Z" transform="translate(-308.02 -630.15)"/><path class="cls-1" d="M367.26,695.64a1.52,1.52,0,0,1,.15,2.39,1,1,0,0,0-.56.46l-0.08,0q-0.46-1.9-.91-3.8A12.14,12.14,0,0,0,367.26,695.64Z" transform="translate(-308.02 -630.15)"/><path class="cls-1" d="M365.79,691c0,0.59,0,.83-0.57.76-0.27-1.29-.5-2.58-0.7-3.87,0.14,0.07.28,0.14,0.41,0.22a1.67,1.67,0,0,1,.74,1.44A7.25,7.25,0,0,1,365.79,691Z" transform="translate(-308.02 -630.15)"/><path class="cls-1" d="M365.55,683.51a2.16,2.16,0,0,1-.92,2.22l-0.28-.17a1,1,0,0,0-.18-0.08c-0.16-1.25-.28-2.5-0.39-3.75C364.52,682.19,365.47,682.56,365.55,683.51Z" transform="translate(-308.02 -630.15)"/><path class="cls-1" d="M364.55,660.83a2.38,2.38,0,0,1-.58,1.81c0.14-1.4.29-2.8,0.43-4.2A8.37,8.37,0,0,1,364.55,660.83Z" transform="translate(-308.02 -630.15)"/><path class="cls-1" d="M363.62,679.31q-0.17-3-.17-6a3.81,3.81,0,0,1,1.34,3C364.81,677.19,364.59,678.92,363.62,679.31Z" transform="translate(-308.02 -630.15)"/><path class="cls-1" d="M365.36,668a2.22,2.22,0,0,1-1.85,2.25c0-1.6.11-3.2,0.22-4.81A4.57,4.57,0,0,1,365.36,668Z" transform="translate(-308.02 -630.15)"/><path class="cls-1" d="M366,652.2a5.58,5.58,0,0,1-1.26,3c0.07-.86.14-1.71,0.18-2.57a19.64,19.64,0,0,0-.12-3.11A2.64,2.64,0,0,1,366,652.2Z" transform="translate(-308.02 -630.15)"/><path class="cls-1" d="M340.4,663.65a8.86,8.86,0,0,0-.87-0.36c-0.49-.17-0.76-0.14-0.82-0.64a4.39,4.39,0,0,1,1.35-2.79Q340.21,661.76,340.4,663.65Z" transform="translate(-308.02 -630.15)"/><path class="cls-1" d="M339.36,651.12c0.17,2.08.33,4.15,0.49,6.22a1,1,0,0,0-.34-0.06C337.44,657.36,337.66,652.63,339.36,651.12Z" transform="translate(-308.02 -630.15)"/><path class="cls-1" d="M337.85,669.81c-0.33-1.62,1.25-3.21,2.8-3.9,0.18,1.59.39,3.17,0.64,4.76C340.21,670.8,338.11,671.15,337.85,669.81Z" transform="translate(-308.02 -630.15)"/><path class="cls-1" d="M339.61,675.33a3.41,3.41,0,0,1,2-2.61c0.17,0.93.35,1.86,0.55,2.79,0.12,0.54.24,1.07,0.36,1.61a1,1,0,0,0-.43,0C340.71,677.42,339.27,677,339.61,675.33Z" transform="translate(-308.02 -630.15)"/><path class="cls-1" d="M341.48,682.59c-0.8-1,.52-2.52,1.64-3q0.44,1.91.89,3.82A3.47,3.47,0,0,1,341.48,682.59Z" transform="translate(-308.02 -630.15)"/><path class="cls-1" d="M343,687.35a2.05,2.05,0,0,1,1.58-1.73c0.26,1.07.54,2.13,0.81,3.19C344.24,688.83,343,688.59,343,687.35Z" transform="translate(-308.02 -630.15)"/><path class="cls-1" d="M344.44,693.69c-0.43-.94.6-1.83,1.53-2.45q0.39,1.51.8,3C345.89,694.39,344.76,694.4,344.44,693.69Z" transform="translate(-308.02 -630.15)"/><path class="cls-1" d="M347.41,696.64c0.29,1,.57,2.08.87,3.13,0.08,0.27.17,0.52,0.25,0.78C346.59,700.53,345.63,696.79,347.41,696.64Z" transform="translate(-308.02 -630.15)"/><path class="cls-1" d="M348.25,705.28a1.89,1.89,0,0,1,1.23-2.29c0.44,1,.92,1.95,1.44,2.88C350.24,705.87,348.58,706,348.25,705.28Z" transform="translate(-308.02 -630.15)"/><path class="cls-1" d="M352.52,710.06a2.18,2.18,0,0,1-.4-1.09c0-.33-0.08-0.3.25-0.28a1,1,0,0,0,.23,0c0.52,0.81,1.06,1.62,1.6,2.42A3.07,3.07,0,0,1,352.52,710.06Z" transform="translate(-308.02 -630.15)"/><path class="cls-1" d="M355.68,713.26q0.81,1.22,1.58,2.47A1.6,1.6,0,0,1,355.68,713.26Z" transform="translate(-308.02 -630.15)"/><path d="M402,669.56c-0.44-5.69-1.58-12.68-3.83-18-1-2.39-2.83-4.44-4.29-6.59a1.81,1.81,0,0,0-.11-0.29c-0.94-1.89-2.39-3.41-3.29-5.33a12.81,12.81,0,0,0-4.94-5c-2.35-1.46-5.21-1.75-8.07-1.9l0,0c-2.4-.37-4.91-0.47-7.29-0.91a74.79,74.79,0,0,0-12.91-1.41c-4.32,0-9.18-.17-13.27,1.4-3.93,1.5-7.67,1.48-11.79,2.29-7.08,1.4-11.46,4.61-16.08,9.92-2,2.31-5,4.16-6.55,6.82s-1.15,5.5-1.15,8.53h0a1.64,1.64,0,0,0,0,.43c0.57,4.5-.56,9.45-0.28,14.06,0.18,3,.32,6.07.71,9.05,0.88,6.79,2.09,13.27,5.46,19.27,4,7.11,10,12.31,14,19.35,1.36,2.39,4.18,10.89,8.15,10.11,4.41-.87,4.57-7.41,4-11.23a1,1,0,0,0,.29-0.41c0.68-1.76,2.31-4.32.88-6.12a4.36,4.36,0,0,0-3.3-1.38c0.46-1.59.8-3.6-.48-4.75a3.86,3.86,0,0,0-2.84-.69c1-1.44,1.33-3.3-.11-4.63a4.91,4.91,0,0,0-2.68-.85l-0.49-.09a7.79,7.79,0,0,0,.22-3.86A3,3,0,0,0,330,695a2.71,2.71,0,0,0-.93-0.15,3.34,3.34,0,0,0,.65-2.89c-0.39-1.87-2.05-2.3-3.69-2.56,1.78-1.86,1.56-6.55-.73-7.91a4.78,4.78,0,0,0,1.44-2.62c0.31-1.92-1.07-3-2.48-3.89a6.48,6.48,0,0,0,2.67-.74,3.83,3.83,0,0,0,1.66-3c0.15-1.93-1.12-2.44-2.47-3a3.24,3.24,0,0,0,1.8-2.43,4.3,4.3,0,0,0-1-3.24,5.1,5.1,0,0,0,2.85-4c0.37-2.72-1.45-3.53-3.41-4.59,0.36-.89.8-1.76,1.11-2.45a8.35,8.35,0,0,1,4.58-4.7,9.73,9.73,0,0,1,4.4-.5c2.26,0.21,2.73,1.1,2.76,2.55l-0.06,0c-3.58,1.26-4.3,8.49-.91,10.08a7.24,7.24,0,0,0-1.44,3.18,2.38,2.38,0,0,0,.68,2.39,2.9,2.9,0,0,0,.85.46,6,6,0,0,0-2.43,5.16,2.89,2.89,0,0,0,2.78,2.51,5.83,5.83,0,0,0-1.1,3.13,3.22,3.22,0,0,0,2.88,3.35,4.06,4.06,0,0,0-1.12,3.46,3.37,3.37,0,0,0,2.58,2.46,3.08,3.08,0,0,0-.92,2.61,3.35,3.35,0,0,0,2.74,2.91,3.48,3.48,0,0,0-1.19,3.7,2.88,2.88,0,0,0,2.43,1.9,4.1,4.1,0,0,0-.43,2.51,4.35,4.35,0,0,0,2.56,3.53,4.68,4.68,0,0,0-.84,3.21c0.27,2,2.42,2.39,4.14,2.42a3.58,3.58,0,0,0,.4,3.22,4.72,4.72,0,0,0,2.81,1.89c-0.78,2.43,1.19,5.33,4,4.75a1,1,0,0,0,.58-0.37c0.48,0.86.94,1.73,1.35,2.64,1.49,3.31,2.35,5.59,5,8.2,1.17,1.15,2.36,2.59,4.22,2.11,4.08-1,2.3-8.49,2-11.08a114.53,114.53,0,0,0-2-12.15,4.78,4.78,0,0,0,1.83-3.81,5.51,5.51,0,0,0-1.48-4.17,3.82,3.82,0,0,0,.75-3.13,2.69,2.69,0,0,0-1.4-2,10.67,10.67,0,0,1-1.41-.72l-0.06-.05a4,4,0,0,0,.77-3,5.88,5.88,0,0,0-.68-2.77,2.78,2.78,0,0,0-.61-0.66,4.11,4.11,0,0,0,1-2.34,4,4,0,0,0-.47-2.74,5.14,5.14,0,0,0-1.62-1.34,5.49,5.49,0,0,0,1.37-3.38,6.11,6.11,0,0,0-1.93-5.14,4.23,4.23,0,0,0,2.47-3.14c0.27-1.83-.84-3.33-2.1-4.59a3.82,3.82,0,0,0,1.28-2.59,7.27,7.27,0,0,0-.68-4.63A7.41,7.41,0,0,0,368,652.4a4.13,4.13,0,0,0-.29-2.88,6.79,6.79,0,0,0-1.64-1.61,6.67,6.67,0,0,1-1-.61s-0.63-.53-1-0.8a1.66,1.66,0,0,0-.08-0.21c-0.64-1.27.91-3.41,1.95-4,1.8-.95,4.36-0.73,5.47,1a14.08,14.08,0,0,1,1.34,3.51,9.61,9.61,0,0,0,1.27,3.4c-0.76,2.6.26,5.62,2.57,6.41a2.84,2.84,0,0,0,.4,3.26,4.76,4.76,0,0,0,3.09,1.55,4.26,4.26,0,0,0-.28,2.59,2.48,2.48,0,0,0,2.38,2,3.71,3.71,0,0,0,.06,2.83,3.4,3.4,0,0,0,3.37,1.77,3.52,3.52,0,0,0-.45,3.11,2.29,2.29,0,0,0,1.09,1.27,3.39,3.39,0,0,0-.94,2.35,5.12,5.12,0,0,0,.91,3.38,3.32,3.32,0,0,0,.3.29,3.52,3.52,0,0,0-1.19,2.5,4.36,4.36,0,0,0,1.21,3.59,5.13,5.13,0,0,0-1,3.59,4.28,4.28,0,0,0,2.86,4,27.16,27.16,0,0,0,1.85,7.9c1,2.41,3.58,5.1,6,2.37,1.32-1.49,1.55-5.67,2-7.5,0.69-2.77.87-5.54,1.31-8.35C400.45,682.67,402.52,676.25,402,669.56ZM340,715a3.15,3.15,0,0,1-.41,2.32,17.37,17.37,0,0,0-1.71-3.09A2.24,2.24,0,0,1,340,715Zm-5.72-6.12a4.36,4.36,0,0,1,2,0c0.73,0.45.31,2,0,3-0.72-1-1.43-2-2.13-3h0.18Zm-3-5.68a12,12,0,0,1,1.7.28c1.59,0.56.42,2.24-.45,3.05-0.77-1.16-1.51-2.34-2.21-3.55C330.61,703,330.92,703.12,331.27,703.19Zm-1.51-5.9c0.39,0.65.47,3.54-.48,3.69H329.2l-0.12-.23a32.68,32.68,0,0,1-1.62-3.89C328.22,696.83,329.3,696.52,329.76,697.29ZM327.61,692a1.48,1.48,0,0,1-.15,1.77,2,2,0,0,1-.83.51q-0.45-1.49-.86-3A2.75,2.75,0,0,1,327.61,692Zm-2.82-13.5a2.7,2.7,0,0,1-1.49,2,23.68,23.68,0,0,1,0-3.83C324.06,677.12,324.84,677.68,324.79,678.49Zm0,9.23-0.11-.38a37.9,37.9,0,0,1-1-4.17C325.57,683,325.45,686.47,324.77,687.72Zm1.84-16.83c0.23,1.72-1.47,2-2.84,2.16,0.2-1.13.42-2.26,0.66-3.38,0.37,0.16.74,0.31,1.12,0.44A1.16,1.16,0,0,1,326.61,670.89Zm-1.55-4.34c0.17-.83.32-1.67,0.46-2.5a2.25,2.25,0,0,1,.44,1.3A1.34,1.34,0,0,1,325.06,666.55Zm2.72-8.5a3.06,3.06,0,0,1-1.86,2.76,26,26,0,0,0,0-4.91C326.91,656.34,327.85,656.87,327.78,658.05Zm11.54-6.9,0,0.06c0.17,2.05.33,4.09,0.48,6.13a1,1,0,0,0-.34-0.06C337.45,657.36,337.66,652.7,339.33,651.15Zm0.73,8.72q0.16,1.89.34,3.78a8.86,8.86,0,0,0-.87-0.36c-0.49-.17-0.76-0.14-0.82-0.64A4.39,4.39,0,0,1,340.05,659.87Zm-2.21,9.94c-0.33-1.62,1.25-3.21,2.8-3.9,0.18,1.59.39,3.17,0.64,4.76C340.21,670.8,338.11,671.15,337.85,669.81Zm1.77,5.51a3.41,3.41,0,0,1,2-2.61c0.17,0.93.35,1.86,0.55,2.79,0.12,0.54.24,1.07,0.36,1.61a1,1,0,0,0-.43,0C340.71,677.42,339.27,677,339.61,675.33Zm1.87,7.26c-0.8-1,.52-2.52,1.64-3q0.44,1.91.89,3.82A3.47,3.47,0,0,1,341.48,682.59Zm1.47,4.77a2.05,2.05,0,0,1,1.58-1.73c0.26,1.07.54,2.13,0.81,3.19C344.24,688.83,343,688.59,343,687.35Zm1.48,6.34c-0.43-.94.6-1.83,1.53-2.45q0.39,1.51.8,3C345.89,694.39,344.76,694.4,344.44,693.69Zm3,2.95c0.29,1,.57,2.08.87,3.13,0.08,0.27.17,0.52,0.25,0.78C346.59,700.53,345.63,696.79,347.41,696.64Zm0.84,8.64a1.89,1.89,0,0,1,1.23-2.29c0.44,1,.92,1.95,1.44,2.88C350.24,705.87,348.58,706,348.25,705.28Zm4.27,4.78a2.18,2.18,0,0,1-.4-1.09c0-.33-0.08-0.3.25-0.28a1,1,0,0,0,.23,0c0.52,0.81,1.06,1.62,1.6,2.42A3.07,3.07,0,0,1,352.52,710.06Zm3.16,3.2q0.81,1.22,1.58,2.47A1.6,1.6,0,0,1,355.68,713.26Zm12.89-10.7a4.66,4.66,0,0,1-.33,2.18q-0.48-2.13-1-4.27c0.11,0,.21-0.1.32-0.16A3.23,3.23,0,0,1,368.57,702.56Zm-1.31-6.92a1.52,1.52,0,0,1,.15,2.39,1,1,0,0,0-.56.46l-0.08,0q-0.46-1.9-.91-3.8A12.14,12.14,0,0,0,367.26,695.64Zm-1.47-4.6c0,0.59,0,.83-0.57.76-0.27-1.29-.5-2.58-0.7-3.87,0.14,0.07.28,0.14,0.41,0.22a1.67,1.67,0,0,1,.74,1.44A7.25,7.25,0,0,1,365.79,691Zm-0.24-7.53a2.16,2.16,0,0,1-.92,2.22l-0.28-.17a1,1,0,0,0-.18-0.08c-0.16-1.25-.28-2.5-0.39-3.75C364.52,682.19,365.47,682.56,365.55,683.51Zm-1.93-4.21q-0.17-3-.17-6a3.81,3.81,0,0,1,1.34,3C364.81,677.19,364.59,678.92,363.62,679.31Zm1.15-29.78a2.64,2.64,0,0,1,1.2,2.67,5.58,5.58,0,0,1-1.26,3c0.07-.86.14-1.71,0.18-2.57A19.64,19.64,0,0,0,364.77,649.52Zm-0.36,8.92a8.37,8.37,0,0,1,.15,2.38,2.38,2.38,0,0,1-.58,1.81C364.11,661.24,364.26,659.84,364.41,658.44Zm-0.68,7a4.57,4.57,0,0,1,1.63,2.56,2.22,2.22,0,0,1-1.85,2.25C363.55,668.65,363.62,667,363.73,665.45Zm11.86-13.57a1.7,1.7,0,0,0,.33.13c0.72,1,1.53,1.89,2.34,2.8C376.44,655.1,375.5,653.53,375.59,651.88Zm3.65,4.76a1.07,1.07,0,0,0,.38-0.23v0c0.7,0.88,1.34,1.78,1.93,2.7C379.8,660.63,376.77,657.49,379.24,656.63Zm2.45,7.17c-0.43-.7.29-2.34,1.09-2.68,0.53,0.92,1.05,1.84,1.57,2.78a0.9,0.9,0,0,0-.15,0C383.6,664,382.1,664.47,381.69,663.81Zm2.42,4.49c-0.56-.58-0.29-2.2.53-2.44a0.89,0.89,0,0,0,.58-0.38l0.62,1.13c0.38,0.67.72,1.3,1,1.91C386,668.7,384.74,669,384.11,668.3Zm3.86,2.59a16.83,16.83,0,0,1,.77,2.45,2,2,0,0,1-1.76-.12C386.45,672.66,387.26,671.28,388,670.89Zm0.12,21.53a2.25,2.25,0,0,1-.68-1.53c-0.09-.83,0-2.12.73-2.66A40.68,40.68,0,0,0,388.09,692.42Zm0.29-6.78c0,0.11,0,.24,0,0.35-0.91,0-1.19-1.18-1.16-2.09a2.69,2.69,0,0,1,.12-0.73,1.41,1.41,0,0,1,.26-0.48c0.05-.06,0-0.07.12,0a3.82,3.82,0,0,1,.59.4,1,1,0,0,0,.42.23C388.61,684.06,388.5,684.83,388.39,685.63Zm0.66-5.19a2.77,2.77,0,0,1-1.76-1.81c-0.32-1.45,0-2.83,1.7-2.48a1,1,0,0,0,.16,0c0,0.41,0,.83,0,1.28C389.2,678.47,389.13,679.46,389,680.44Zm9.77-5.23a1,1,0,0,0-1-.49c-1.27.22-.81,2.17,0.45,1.95a0.89,0.89,0,0,0,.47-0.24c-0.45,3.59-1.29,7.14-1.95,10.7-0.4,2.18-.55,4.4-0.9,6.58-0.1.59-1.36,7.92-1.92,8.09-2.5.79-2.73-14.49-2.56-15.66,0.59-4,1.2-7.9.79-12-0.45-4.55-3.21-8.18-5.33-12.1-2.34-4.33-6-7.77-8.52-11.85a4.69,4.69,0,0,1-1-.89l-0.33-.27a1.23,1.23,0,0,0-.34-0.91c-1.74-2-1.44-4.67-3-6.76a5.76,5.76,0,0,0-5.94-2.56c-2.34.31-4.24,0.92-5.56,3s-1.91,3.92-.78,6.16a1.59,1.59,0,0,0,.16.25h0a21.65,21.65,0,0,1,.28,4.79c-0.24,3.65-.69,7.26-1,10.92a111.62,111.62,0,0,0,.11,20.28,77.08,77.08,0,0,0,1.66,9.36h-0.12a0.89,0.89,0,0,0-.79,1.11h-0.09c-1.28.14-1,2.11,0.32,2a0.89,0.89,0,0,0,.79-1.11h0.09a0.94,0.94,0,0,0,.24-0.08c0.9,3.72,1.89,7.42,2.66,11.18,0.7,3.47,1.47,6.82,1.85,10.35,0.13,1.27,1.83,8.36.72,9.29-2.06,1.73-8.15-11.43-9.41-13.18-2.33-3.25-4.86-6.46-6.42-10.18-1.35-3.22-1.85-6.63-2.85-9.94-2.15-7.13-3.77-14.21-5.27-21.51s-1.5-14.78-2.11-22.18c0.18-1.9.38-3.44-1.57-4.83s-5.24-1.41-7.62-1a11.2,11.2,0,0,0-7.22,4.61c-1.44,2.16-3,5.67-3,8.27a1.34,1.34,0,0,0,.25.86c0.3,5.62-1.64,11.7-2.5,17.15-0.94,6,.57,11.12,2.28,16.78,1.92,6.37,3.81,11.7,7.31,17.42,1.63,2.67,3.8,5,5.43,7.63,1.21,2,4.15,12.77-.54,11.14-1.19-.41-3.5-6.35-4.13-7.46a47.6,47.6,0,0,0-4.57-6.91,1,1,0,0,0,.66.12c1.27-.22.81-2.17-0.45-1.95a0.89,0.89,0,0,0-.68,1.26c-2.44-2.85-4.84-5.6-7-8.58a1,1,0,0,0-.58-1.9,0.87,0.87,0,0,0-.51.29,36.83,36.83,0,0,1-3.09-5.7,34.38,34.38,0,0,1-2.2-8.87,1,1,0,0,0,.35,0c1.27-.22.81-2.17-0.45-1.95a0.9,0.9,0,0,0-.12,0c-0.27-2.47-.45-4.93-0.68-7.22a93.94,93.94,0,0,1-.66-10.55c0-2.84.64-5.63,0.41-8.44h0a1.6,1.6,0,0,0,.07-0.44c0-4.52.16-6.59,3.66-9.74a65.09,65.09,0,0,0,5.08-5.65c5.22-6,11.8-6.82,19.2-7.48,2.8-.25,4.8-1.63,7.54-2.3,3.94-1,8.44-.86,12.49-0.65a89.92,89.92,0,0,1,10.44,1.4,1.54,1.54,0,0,0,.53.23c4,0.91,8.58.23,12.53,1.62,2.65,0.94,4.32,3.32,5.48,5.67a20.54,20.54,0,0,0,2.15,3h0a2.68,2.68,0,0,0,1.05,1.54,1.78,1.78,0,0,0,.46.27l0.35,0.56a1,1,0,0,0,.91,1.58c0.54,1,1,1.93,1.49,2.82a1,1,0,0,0,.48,1.94,1,1,0,0,0,.35-0.14c2.05,4.83,2.92,10.85,3.33,15.93A31.36,31.36,0,0,1,398.81,675.22Z" transform="translate(-308.02 -630.15)"/><path d="M394.79,672.2c-1.27.22-.81,2.17,0.45,1.95S396.05,672,394.79,672.2Z" transform="translate(-308.02 -630.15)"/><path d="M395.71,674.58c-1.27.22-.81,2.17,0.45,1.95S397,674.36,395.71,674.58Z" transform="translate(-308.02 -630.15)"/><path d="M396.9,678.43c-1.27.22-.81,2.17,0.45,1.95S398.16,678.21,396.9,678.43Z" transform="translate(-308.02 -630.15)"/><path d="M393.12,659.81c-1.27.22-.81,2.17,0.45,1.95S394.38,659.58,393.12,659.81Z" transform="translate(-308.02 -630.15)"/><path d="M395.55,656.33c-1.27.22-.81,2.17,0.45,1.95S396.82,656.11,395.55,656.33Z" transform="translate(-308.02 -630.15)"/><path d="M392.51,656.36c-1.27.22-.81,2.17,0.45,1.95S393.77,656.14,392.51,656.36Z" transform="translate(-308.02 -630.15)"/><path class="cls-1" d="M388.75,673.34a2,2,0,0,1-1.76-.12c-0.53-.56.28-1.94,1-2.33A16.83,16.83,0,0,1,388.75,673.34Z" transform="translate(-308.02 -630.15)"/><path class="cls-1" d="M375.59,651.88a1.7,1.7,0,0,0,.33.13c0.72,1,1.53,1.89,2.34,2.8C376.44,655.1,375.5,653.53,375.59,651.88Z" transform="translate(-308.02 -630.15)"/><path class="cls-1" d="M379.24,656.63a1.07,1.07,0,0,0,.38-0.23v0c0.7,0.88,1.34,1.78,1.93,2.7C379.8,660.63,376.77,657.49,379.24,656.63Z" transform="translate(-308.02 -630.15)"/><path class="cls-1" d="M381.69,663.81c-0.43-.7.29-2.34,1.09-2.68,0.53,0.92,1.05,1.84,1.57,2.78a0.91,0.91,0,0,0-.15,0C383.6,664,382.1,664.47,381.69,663.81Z" transform="translate(-308.02 -630.15)"/><path class="cls-1" d="M384.11,668.3c-0.56-.58-0.29-2.2.53-2.44a0.89,0.89,0,0,0,.58-0.38l0.62,1.13c0.38,0.67.72,1.3,1,1.91C386,668.7,384.74,669,384.11,668.3Z" transform="translate(-308.02 -630.15)"/><path class="cls-1" d="M388.09,692.42a2.25,2.25,0,0,1-.68-1.53c-0.09-.83,0-2.12.73-2.66A40.68,40.68,0,0,0,388.09,692.42Z" transform="translate(-308.02 -630.15)"/><path class="cls-1" d="M388.39,685.63c0,0.11,0,.24,0,0.35-0.91,0-1.19-1.18-1.16-2.09a2.69,2.69,0,0,1,.12-0.73,1.41,1.41,0,0,1,.26-0.48c0.05-.06,0-0.07.12,0a3.82,3.82,0,0,1,.59.4,1,1,0,0,0,.42.23C388.61,684.06,388.5,684.83,388.39,685.63Z" transform="translate(-308.02 -630.15)"/><path class="cls-1" d="M387.29,678.64c-0.32-1.45,0-2.83,1.7-2.48a1,1,0,0,0,.16,0c0,0.41,0,.83,0,1.28,0,1-.06,2-0.15,3A2.77,2.77,0,0,1,387.29,678.64Z" transform="translate(-308.02 -630.15)"/></svg>