<svg id="valokala" xmlns="http://www.w3.org/2000/svg" viewBox="0 0 211.94 131.9"><defs><style>.cls-1,.cls-2{fill:none;stroke:#000;stroke-miterlimit:10;}.cls-1{stroke-width:2px;}.cls-2{stroke-width:3px;}</style></defs><title>valokala</title><path d="M258.43,1391.63c-1.27,1.82-3.22,2.44-4.74,4-2.41,2.48-3.4,5.2-6.76,6.79a12.19,12.19,0,0,0-6.41,6c-1.23,2.22-1.36,4.41-2.36,6.66-1.36,3-4.52,3.84-7,5.53-3.36,2.33-1.84,5.25-1.28,8.58,0.32,1.89,3.32,1.69,3-.21a19.87,19.87,0,0,1-.39-3,1.7,1.7,0,0,0,.05-0.84,3.62,3.62,0,0,1,1.57-2.55c1.21-.86,2.64-0.82,3.89-1.88,3.22-2.75,3.26-7.47,5.17-10.94,2.15-3.89,5.81-4.08,8.81-6.85,1.93-1.78,2.94-4.36,5-6.11,1.45-1.25,2.58-1.55,3.7-3.16S259.54,1390,258.43,1391.63Z" transform="translate(-216.98 -1351.22)"/><path d="M428.5,1441a8.41,8.41,0,0,1-2.63-5.07,7.74,7.74,0,0,1,.89-3.42,4.18,4.18,0,0,0,0-1.66c-0.74-2.62-4.07-3.84-5-6.69-0.81-2.39.08-5.66-1.38-7.82-1.81-2.7-5.72-3.48-6.74-7a1.32,1.32,0,0,0-1.82-.89,1.24,1.24,0,0,0-1-.63,17.51,17.51,0,0,1-7.92-2.79c-1.86-1.25-2.47-3.12-4-4.44-2.17-1.9-6.32-.52-9-1.17-3.82-.94-4.61-2.42-8.42-0.78a31.83,31.83,0,0,0-9.64,6.24c-1.39-1.85-1.25-4.56-2.8-6.48a4,4,0,0,0-1.05-.55,1.59,1.59,0,0,1-.19-2.37,5.5,5.5,0,0,0,0-1.85c-0.29-.73-0.89-0.77-1.42-1.27a47.35,47.35,0,0,1-3.12-3.57,5.84,5.84,0,0,0-1.75-1.29q-0.87-.12-1.74-0.17a5.79,5.79,0,0,1-3.16-2.33c-2.69-1.37-3.33.34-6.58-.06-2.67-.33-4.27-2.06-7-0.75-2.44,1.16-3.36,3.27-4.69,5.41a19.54,19.54,0,0,1-3.07,4c-1.64,1.3-1.21.9-2.95,0.46a1.44,1.44,0,0,0-.69,0c-4.48-2.13-7.84-6-12.76-7.29-5.23-1.32-11-.44-16.26-0.66-6.07-.25-11.17-2.58-17.38-1.36-5.87,1.15-11.19,2.91-17.14,3.47a1.51,1.51,0,0,0-.65-0.08,17.45,17.45,0,0,0-6,1.47c-1.25.57-3.06,1.38-3.16,3-0.13,1.9,2.81,2.51,2.94.59,0-.32,1.59-0.89,2-1.07a12.32,12.32,0,0,1,3.37-.85,1.53,1.53,0,0,0,.6.08,65.94,65.94,0,0,0,13.58-2.19,35.21,35.21,0,0,1,8.93-1.77c3.89-.08,7.09,1.5,10.87,1.76,5.34,0.36,10.84-.45,16.16.36,4.85,0.74,8.55,4.67,12.87,6.94a1.65,1.65,0,0,0,.19.2c5.48,4.79,9.44,10.92,14.7,15.89,4.16,3.93,8.67,8.2,14.61,7.84h0c0.36,2.51.65,5.06,0.88,7.57a0.92,0.92,0,0,0-.73-0.25,1,1,0,0,0,.14,2,0.91,0.91,0,0,0,.71-0.38c0.06,0.68.11,1.35,0.16,2,0.16,2.37,1,10.73-1.88,12.22a1.51,1.51,0,0,0-.87.21,151.11,151.11,0,0,0-12.82,8.07,62.33,62.33,0,0,0-10.86,10.19c-2.41.67-4.72,1.85-7.08,2.66-4.07,1.39-8.27,2.38-12.4,3.54-7.72,2.17-15.3,4.68-23.17,6.29-7,1.43-13.82,2.5-20.43-.68-5-2.43-10.82-4.75-15.54-8a1.56,1.56,0,0,0-1.1-1.34c-1.12-.36-2.87-2.3-3.79-3.08-2-1.66-3.57-3.63-5.8-5a12.36,12.36,0,0,0-5.24-1.72c-1.86-.2-5.4,1-6.34-1a1.92,1.92,0,0,1-.12-0.66,0.92,0.92,0,0,0,.22-0.68c-0.35-5.2,8.72-8,6.42-13.33-1-2.23-3.41-4.12-4.76-6.2a13.32,13.32,0,0,1-2.16-6.16c-0.16-1.27-2.16-1.14-2,.14,0,0.27.07,0.53,0.12,0.78a1.44,1.44,0,0,0-.91,1.47c0.14,0.75-.36,1.73-0.43,2.64a1.85,1.85,0,0,0,.3,1.19,1.67,1.67,0,0,0,0,.35c0.05,2,0,3.72,1,5.44,0.45,0.75,1.59,1.31,1.81,2.1,0.63,2.31-1,2.41-1.52,3.94-0.74,2.12-.5,3.83-0.69,6.11-0.13,1.59-.64,3.33,0,4.89,1.54,3.82,6.58,1.42,9.73,2.07,4.56,0.94,7,5.18,10.39,7.83a1.47,1.47,0,0,0,.42.57c5,4.24,11.28,6.33,17.05,9.35,6.52,3.41,11.86,3.85,19.16,2.8a145.63,145.63,0,0,0,23.05-5.76c4.12-1.32,8.31-2.36,12.47-3.54,3.68-1.05,7.46-3,11.21-4a1.5,1.5,0,0,0,.58.16,1.48,1.48,0,0,0,.31.37c5.29,4.6,10.7,8.72,14.83,14.42,2.16,3,7.18,3.64,10.71,2.91,1.83-.38,2.92-1.83,4.16-3.12,1.57-1.63,3.37-3.1,4.84-4.81s2.11-2.79,2.14-4.81c0-.23-0.92-4.31-0.62-6.18l0.45,0.43c0.11,0.13.21,0.25,0.32,0.38a1.52,1.52,0,0,0,.32.26,10.27,10.27,0,0,1,.72.78c0.8,1,1.12,2.14,2,3,1.09,1,2.71,1.2,4,1.92,2.45,1.38,3.06,3.31,4.73,5.23a1.51,1.51,0,0,0,1.34.65c2.35-.48,4.2-1.76,6.7-1.87a14.94,14.94,0,0,1,6.52,1.33,8,8,0,0,0,2.32.91c2.36,0.15,4.87-2.12,6.65-3.28,3.83-2.52,7-4.65,11.54-5.58,5-1,3.45-6,5.45-10.09,1.18-2.4,3.79-3.36,4.6-5.76a6.72,6.72,0,0,0,0-2.54,35.49,35.49,0,0,1,.41-6.27A25.75,25.75,0,0,0,428.5,1441Zm-196-8.09c0.83,1.47,1.85,2.91,3,4.74,2,3.2.66,5.38-1.05,7.58a11.31,11.31,0,0,0,1.41-2.7c0.45-1.5.14-1.84-.63-3.09-1.6-2.63-2.61-3.1-2.69-6.44C232.54,1432.94,232.52,1432.92,232.52,1432.89Zm189.25-2.55a0.86,0.86,0,0,0,.64-0.27,4.57,4.57,0,0,1,1.23,1.35c0.22,0.56-.71,2.59-0.77,3.16a8.23,8.23,0,0,0,0,.93c-4.38-.1-8.68.48-13.06-0.14a106.3,106.3,0,0,0-14.58-1c-5.21,0-10.38.33-15.58,0.62s-12.22,1.29-16.92-1.31a1,1,0,0,0-.45-0.13q-0.09-1.59-.2-3.18a0.93,0.93,0,0,0,.59.17c4.23-.25,8.33-0.81,12.5-1.43,3.48-.52,6.93-0.51,10.34-1a1,1,0,0,0,.75.37c6.33,0.35,12.59,1.24,18.92.65C410.73,1428.67,416.15,1430.4,421.78,1430.33Zm-4-10.88c0.93,2.67.58,5.8,2.35,8.45a3.5,3.5,0,0,0,.33.41c-5.24-.16-10.17-1.61-15.44-1.12a82.35,82.35,0,0,1-14.11-.32,149.31,149.31,0,0,1,26.45-7.25A1,1,0,0,0,417.77,1419.45Zm-6.38-7.74c1.16,2.1,3.22,3.5,4.89,5.23a6.23,6.23,0,0,1,.6.74c-8.17,1.36-16,4.19-24,6.37-2.76.76-5.08,2-8,2.3-2.74.3-5.55,0.15-8.3,0.5-4.72.6-9.3,1.42-14.08,1.7a0.9,0.9,0,0,0-.57.24c-0.06-.74-0.1-1.48-0.17-2.22a1,1,0,0,0,.2,0,47.68,47.68,0,0,0,10.29-5.07,1,1,0,0,0,.37,0c7.11-2.21,14.05-4.7,21.07-7.2,4.25-1.51,8-1.25,12.35-1.23C408.34,1413,409.87,1413,411.39,1411.71Zm-14.29-8.25,0.22,0.17c1.18,1,1.86,2.49,3.19,3.47a19.85,19.85,0,0,0,8.86,3.51c-2.67,1.28-7,0-9.73.24-3.15.25-5.78,1.38-8.75,2.32-4.36,1.4-8.66,3-13,4.44,1.19-.88,2.34-1.76,3.44-2.62,5.32-4.16,9-8.79,15.41-11.3A1,1,0,0,0,397.09,1403.46Zm-23,4.28a1.36,1.36,0,0,0,.32-1.27c2.78-2.62,7.76-6.15,11.06-5.38,2.66,0.62,5.06,1.65,7.92,1.75a24.62,24.62,0,0,0-3.74,1.77c-2.55,1.57-4.48,4.3-6.65,6.31a74.85,74.85,0,0,1-9.44,7.25,60.07,60.07,0,0,1-12,6.39c-0.16-1.55-.34-3.1-0.56-4.65a1.68,1.68,0,0,0,.15-0.19c1.57-2.41,4.09-3.93,6.1-5.93S372.14,1410,374.11,1407.73Zm-36-7.22a1,1,0,0,0-.4-0.23c-0.82-.9-1.65-1.79-2.5-2.65a4.13,4.13,0,0,0,1-.46c1.87-1.13,3.48-4.45,4.69-6.3,1.82-2.78,1.77-3.85,6.29-3.47a10.6,10.6,0,0,1,1.22.19C346.23,1390.78,338.92,1401.24,338.15,1400.51Zm3.65,4.51q-1.19-1.47-2.43-2.91c4.16-2.18,10.18-12.81,11.25-14.11,0,0,0-.05,0-0.08l0.22,0c0.52,0,2.75-.71,3.19-0.59a2.54,2.54,0,0,1,1.44,1.24,0.83,0.83,0,0,0-.57.36c-2.12,3-3.69,6.29-6.28,8.94-1,1-2,2.06-3,3.19-1.13,1.36-2.13,3.24-3.86,3.92Zm3.93,4.58c-1-1-1.86-2.06-2.65-3,2.63-1.38,4.26-4.54,6.29-6.6,2.93-3,4.7-6.36,7.09-9.73a1,1,0,0,0,.18-0.59,14.14,14.14,0,0,0,1.92.65,13.58,13.58,0,0,1,2,.88c-2.37,3-4.28,6.36-6.61,9.43C351.47,1403.85,348.06,1406.35,345.73,1409.6Zm1.41,1.45c2.34-3.32,5.81-5.85,8.29-9.12,2.29-3,4.18-6.27,6.49-9.26a9.64,9.64,0,0,0,.72.81c-0.35-.38,1.39,1.07,2.09,1.48a7.44,7.44,0,0,0-.36,1.85c-4.59,5.81-9.33,11.48-15.26,16C348.43,1412.28,347.77,1411.68,347.14,1411.05Zm5.7,4.5a21.7,21.7,0,0,1-2.14-1.41c5.5-4.33,10-9.58,14.37-15a11.41,11.41,0,0,1,1.58,1.35,4,4,0,0,1,.79,1.42c-1.8,2.52-4.73,4.8-7,6.87-0.91.82-1.77,1.69-2.65,2.54s-2.88,3.65-4.25,3.84A1,1,0,0,0,352.84,1415.55Zm2.32,1.09c2.08-1.13,3.79-3.73,5.34-5.21,2.38-2.27,5.25-4.37,7.42-6.9a4.47,4.47,0,0,0,.38,1.06,6.1,6.1,0,0,0,1.72,1.81c-0.8.6-1.63,1.17-2.38,1.82-1.25,1.09-2.32,2.35-3.56,3.45a40.75,40.75,0,0,0-4.69,4.48,1,1,0,0,0-.25.1A9.5,9.5,0,0,1,355.16,1416.64Zm-18.38,46.83a1.78,1.78,0,0,0,.07-0.48c0.4-.44.82-0.85,1.23-1.27a1.07,1.07,0,0,0,.22.17c1,0.53,1.34,1.49,2,2.3a26.41,26.41,0,0,1,2.79,3.67c0.36,0.64.75,1.28,1.14,1.94C341.78,1467.64,339.24,1465.6,336.78,1463.47Zm12.83,11.6c-0.3-.34-0.62-0.67-0.93-1a49.77,49.77,0,0,0-4.44-8.21c-1.13-1.87-2.83-4.35-4.73-5.56,0.55-.53,1.1-1.06,1.66-1.56,7.07,4.45,11,13.41,14.22,20.81C352.2,1479.29,351.58,1477.3,349.61,1475.07Zm8,4.49c-3.39-7.9-7.43-17.13-14.86-22.18,1.25-1.07,2.53-2.09,3.84-3.07,4.06,3,5.84,6.59,8.06,11.18,1.88,3.89,5.89,7.67,6.71,11.93a1,1,0,0,0,.27.51A6.78,6.78,0,0,1,357.57,1479.56Zm5.56-3.06c-1.23-4.68-5.18-8.54-7.18-12.94s-4-7.64-7.73-10.48c1.57-1.13,3.19-2.21,4.84-3.26,3.41,3.3,6.11,8.18,8.95,11.87a25,25,0,0,1,3.71,6c0.56,1.46.78,3,1.33,4.43C366.18,1473.9,364.63,1475.06,363.12,1476.5Zm4.54-11.46a22.81,22.81,0,0,0,.06,2.89,14.72,14.72,0,0,0-1.24-3.29,39.52,39.52,0,0,0-3.55-5.16c-2.68-3.35-5.08-7.62-8.13-10.75,1.18-.73,2.37-1.45,3.59-2.16a1.62,1.62,0,0,0,.32.06c2.7,0.27,6,7.25,7.31,9.41,1.06,1.71,1.85,3.43,2.79,5.08A7.27,7.27,0,0,0,367.66,1465Zm17.2,8c-0.54-.25-1.29-2.3-1.81-2.84a14.89,14.89,0,0,0-3.95-2.47,21.42,21.42,0,0,1-5.4-4.55,1.56,1.56,0,0,0-.37-0.68,11.92,11.92,0,0,1-.81-1,1.44,1.44,0,0,0-.92-1.4c-0.69-1.19-1.22-2.44-1.91-3.76-0.94-1.81-2.26-3.37-3.33-5.09-1.34-2.15-3-5.74-5.51-7,1.6,0.53,3.22,2,4.59,2.89a55.15,55.15,0,0,1,6.86,4.77c1.43,1.21,2.92,2.34,4.42,3.45h0c2.48,2.53,4.25,6.13,6.52,8.9s4.78,5,7,7.69C388.27,1472.32,385.47,1473.29,384.86,1473Zm17.1,0.15c-2.49,1-6.14-.87-9.18-1.33-2.55-3.3-5.69-6-8.31-9.29-0.92-1.15-1.75-2.4-2.57-3.64l1.44,1a45.91,45.91,0,0,0,10.8,5.44,30.56,30.56,0,0,1,11.2,6A17.31,17.31,0,0,1,402,1473.16Zm10.94-6.8a34.08,34.08,0,0,0-5.88,3.79,25.12,25.12,0,0,0-9.4-5.7,58.77,58.77,0,0,1-14-6.79c-4.65-3.11-8.79-6.83-13.36-10-2.34-1.62-5.5-4.29-8.44-5.29a9,9,0,0,0,.41-1.59c1.37,0.93,3.81,1.13,5,1.35,4.4,0.83,8.49,1.34,12.78,2.72a77.21,77.21,0,0,1,10.14,4.5c4.18,2.64,8.49,4.89,12.77,7.37a51,51,0,0,1,7.07,5c2.06,1.72,4.37,2.52,6.53,3.88A29.18,29.18,0,0,0,412.9,1466.37Zm6.77-6.06c-0.41,1.39-.32,3.1-1.15,4.25-2.12-1.5-4.54-2.18-6.64-3.82a65.5,65.5,0,0,0-6.74-5c-1.45-.87-2.92-1.7-4.4-2.52,6.56,1.32,13.74,1.63,19.73,4.88A17.52,17.52,0,0,0,419.66,1460.31Zm4.54-7.92a46,46,0,0,0-2.8,3.93c-4.41-2.4-10.43-3.68-15.32-4.56-3.81-.68-7.12-1-10.84-2.36-2.83-1.06-5.08-2.81-7.78-4.07a52.19,52.19,0,0,0-13.84-4.22c-1.17-.18-10.28-1.12-10.36-1.92a1,1,0,0,0-.82-0.86c0-.6,0-1.19,0-1.75,0-.28,0-0.56,0-0.84,3.56,1.72,7.7,1.46,11.59,1.45,1.36,0,2.71,0,4.06-.1a0.88,0.88,0,0,0,.56.32c7.59,1.2,15,3.75,22.63,4.67,2.71,0.33,5.32.34,8,1.11a49.65,49.65,0,0,0,6.13,1.87c3.29,0.53,7.16-.16,10.28,1.18C425.46,1448.55,425.28,1451,424.2,1452.39Zm1.58-9.56c-0.05.4-.09,0.84-0.11,1.29a27.79,27.79,0,0,0-6.77-.89c-5-.32-9.41-2.38-14.41-2.94-6.42-.72-12.69-2.31-19-3.64,2.09-.12,4.18-0.23,6.28-0.26a133.94,133.94,0,0,1,18.53,1.08c4.31,0.53,8.53-.07,12.84,0a12.86,12.86,0,0,0,2.76,5A1.59,1.59,0,0,0,425.78,1442.83Z" transform="translate(-216.98 -1351.22)"/><path d="M362.64,1393.48l0.12,0.12Z" transform="translate(-216.98 -1351.22)"/><path d="M329.46,1422.05c0.09-1.14-.44-1.82-0.65-2.88s-0.06-2.54-.42-3.7a10.19,10.19,0,0,0-1.05-2c-0.72-1.39-1-3.12-1.67-4.45-1.88-3.85-5.69-5.39-8.86-7.65a18.41,18.41,0,0,0-9-2.95c-1.85-.17-3.72-2.25-5.74-1.56-1.83.63-2.59,3.11-3.18,4.7-1.17,3.16-2,6.42-3,9.63s-2.61,6.22-3.83,9.36h0a6.34,6.34,0,0,0-4.33,2.65c-2.4.15-4,.27-5.81,2-1.56,1.42-2.8,3.12-2.52,5.32,0.16,1.27,2.15,1.14,2-.14-0.21-1.72,1-3,2.26-4.05a4.62,4.62,0,0,1,2.68-1c-1,2-1,4-.83,6.43a1,1,0,0,0,2-.14c-0.14-1.84-.39-3.7.55-5.38s2.25-3.44,4.15-3.64a1,1,0,0,0,.36-0.11h0.06a1,1,0,0,0,.45.57,2,2,0,0,0,.75.26,1.07,1.07,0,0,0,.15.71,2.33,2.33,0,0,0,1.54,1c0,0.17,0,.35,0,0.59a0.93,0.93,0,0,0,.47.76,2.78,2.78,0,0,0-.16,2.47,2.55,2.55,0,0,0,.69,1l-0.14.23a1,1,0,0,0,.07,1l0.13,0.17c-0.8.52-.79,1.39-0.39,2.36a1.58,1.58,0,0,0-1.19,1.77c-2.55.39-2.36,2.36-2.14,5.11s0.54,5.43.89,8.13c-1.18-3.37-3.31-6.32-4-9.87-0.25-1.25-2.25-1.12-2,.14a36.22,36.22,0,0,0,3.14,8.18c1,2.18,1.22,5.43,2.5,7.37,2.59,3.9,8,4.95,12.36,4.22a28.13,28.13,0,0,0,5.76-2.28,18,18,0,0,0,2.42-1.67c1.22-.8,2.57-1.22,3.78-2a1.12,1.12,0,0,0,.48-0.35c1.22-.94,2.12-2.28,3.37-3.18,1.06-.76,2.09-0.94,2.93-1.89a14.32,14.32,0,0,0,3.2-6.25c0.33-2.25.1-4.56,0.57-6.84a12.53,12.53,0,0,0,.41-2.69c0-1.8-.88-3.68-0.75-5.45C328,1424.62,329.36,1423.44,329.46,1422.05Zm-8.84-14.81c0.55,0.54,1.77.93,2.18,1.4,1.28,1.45.74,2.59,1.28,4.13a3.09,3.09,0,0,0,.47.82c-3.48,1.64-7,3.39-10.43,5-2.37,1.13-4.66,2.38-7.1,3.4-2.69,1.12-6.83,1.67-9.23,3.23l0,0a0.9,0.9,0,0,0,.27-0.61c2.87-1.15,6.16-4.2,7.42-5.06,3.14-2.14,5.93-5,8.74-7.53,2-1.8,4.19-3.37,6.08-5.27A2.14,2.14,0,0,0,320.62,1407.24Zm-26.64,14c1.8-4.83,3.64-9.49,5.27-14.42,0.42-1.25,1.08-4.32,1.84-5.39q0.49-2.24,3.34-1.88a4.79,4.79,0,0,0,.92.75,11.05,11.05,0,0,1,1.58.17C304.56,1404.89,295.63,1422.12,294,1421.22Zm2,2.43a0.81,0.81,0,0,0,.06-1.18c1.71-1.38,3.22-4.08,3.94-5.24,3.26-5.25,5.86-10.95,8.93-16.3,0.44,0.14.87,0.28,1.25,0.43,1.89,0.74,3.7.88,5.25,1.93a12.57,12.57,0,0,0,1.53,1.29c0.09,0,1.92.22,2.1,0.33l0.1,0.08c-3.16,3.45-7.38,6.55-10.91,9.62C304.46,1417.91,299.58,1420.27,296,1423.65Zm6.47,32.62c-3,0-4.82-.73-6-2.06-0.36-2.76-.85-5.51-1.18-8.28-0.18-1.57-1.3-7.23.12-8.4,0.21,0.66.46,1.28,0.66,1.78,1,2.62,1.63,5.76,3.54,7.89a28.21,28.21,0,0,1,4.59,6.25c0.42,0.83.75,1.69,1.15,2.52A14.22,14.22,0,0,1,302.49,1456.27Zm4.77-.78c-1.94-2.83-3-6.24-5.32-8.95-1.92-2.28-2.59-4.45-3.71-7.15-0.15-.36-1.4-3.86-1.33-3.85a1,1,0,0,0,.38,0,27.76,27.76,0,0,0,2.7,3c2.69,2.66,5.54,5.1,8.13,7.85,2.2,2.32,4.64,3.45,7.09,5.11A32.32,32.32,0,0,1,307.26,1455.49Zm11.87-6.82c-0.7.54-1.44,1.09-2.21,1.64-1.39-.85-2.91-1.45-4.27-2.37-2-1.38-3.46-3.56-5.21-5.24-1.56-1.51-3.28-2.85-4.84-4.38-0.5-.48-5-5.44-4.63-5.49l0.09,0c2.84,2.3,7.15,3.52,10.25,4.76,5.37,2.14,11,3.31,16.47,5.24C323.72,1445.36,321.24,1447,319.13,1448.67Zm7.47-17.6c0,1.78-1.06,3.24-1.25,4.9s0.13,3.26-.05,4.9c-4.3-1.51-8.69-2.63-13-4.14-1-.35-14.27-5.52-13.93-6.1a1.06,1.06,0,0,0,.07-0.15c0.73,0,1.52-.07,2.29-0.08,8.37-.1,16.81.4,25.17,0.1a0.88,0.88,0,0,0,.68-0.32C326.58,1430.47,326.59,1430.77,326.6,1431.07Zm-0.42-7.1a13.59,13.59,0,0,0,.2,4.76,0.94,0.94,0,0,0-.64-0.22c-4.75.17-9.53-.12-14.29-0.1q-3.39,0-6.77,0a22.69,22.69,0,0,1-3.71,0c-0.13,0-4.59-.29-2.9-1.38a1,1,0,0,0,.32-0.33c4.45-.07,9.5-2.59,13.19-4.37,4.74-2.29,9.42-4.84,14.2-7.09l0.06,0.11c0.57,1.25.18,1.57,0.53,2.86a9,9,0,0,0,.8,2.17A4.14,4.14,0,0,1,326.18,1424Z" transform="translate(-216.98 -1351.22)"/><path d="M243.51,1440.53a1,1,0,0,0,.14,2A1,1,0,0,0,243.51,1440.53Z" transform="translate(-216.98 -1351.22)"/><path d="M248.52,1440.51a1,1,0,0,0,.14,2A1,1,0,0,0,248.52,1440.51Z" transform="translate(-216.98 -1351.22)"/><path d="M253.15,1439.84a1,1,0,0,0,.14,2A1,1,0,0,0,253.15,1439.84Z" transform="translate(-216.98 -1351.22)"/><path d="M258,1437.49a1,1,0,0,0,.14,2A1,1,0,0,0,258,1437.49Z" transform="translate(-216.98 -1351.22)"/><path d="M261.79,1434.55a1,1,0,0,0,.14,2A1,1,0,0,0,261.79,1434.55Z" transform="translate(-216.98 -1351.22)"/><path d="M266.07,1433.57a1,1,0,0,0,.14,2A1,1,0,0,0,266.07,1433.57Z" transform="translate(-216.98 -1351.22)"/><path d="M263.53,1393.32a1,1,0,0,0,.14,2A1,1,0,0,0,263.53,1393.32Z" transform="translate(-216.98 -1351.22)"/><path d="M266.07,1396.14a1,1,0,0,0,.14,2A1,1,0,0,0,266.07,1396.14Z" transform="translate(-216.98 -1351.22)"/><path d="M267.26,1398.73a1,1,0,0,0,.14,2A1,1,0,0,0,267.26,1398.73Z" transform="translate(-216.98 -1351.22)"/><path d="M269.23,1402.94a1,1,0,0,0,.14,2A1,1,0,0,0,269.23,1402.94Z" transform="translate(-216.98 -1351.22)"/><path d="M269.8,1406.24a1,1,0,0,0,.14,2A1,1,0,0,0,269.8,1406.24Z" transform="translate(-216.98 -1351.22)"/><path d="M270.7,1409.51a1,1,0,0,0,.14,2A1,1,0,0,0,270.7,1409.51Z" transform="translate(-216.98 -1351.22)"/><path d="M271.77,1415.12a1,1,0,0,0,.14,2A1,1,0,0,0,271.77,1415.12Z" transform="translate(-216.98 -1351.22)"/><path d="M272.05,1419.11a1,1,0,0,0,.14,2A1,1,0,0,0,272.05,1419.11Z" transform="translate(-216.98 -1351.22)"/><path d="M272.29,1422.43a1,1,0,0,0,.14,2A1,1,0,0,0,272.29,1422.43Z" transform="translate(-216.98 -1351.22)"/><path d="M272.27,1426.78a1,1,0,0,0,.14,2A1,1,0,0,0,272.27,1426.78Z" transform="translate(-216.98 -1351.22)"/><path d="M272,1431.81a1,1,0,0,0,.14,2A1,1,0,0,0,272,1431.81Z" transform="translate(-216.98 -1351.22)"/><path d="M271.22,1435.54a1,1,0,0,0,.14,2A1,1,0,0,0,271.22,1435.54Z" transform="translate(-216.98 -1351.22)"/><path d="M271.15,1439.22a1,1,0,0,0,.14,2A1,1,0,0,0,271.15,1439.22Z" transform="translate(-216.98 -1351.22)"/><path d="M271.41,1442.88a1,1,0,0,0,.14,2A1,1,0,0,0,271.41,1442.88Z" transform="translate(-216.98 -1351.22)"/><path d="M271.74,1447.54a1,1,0,0,0,.14,2A1,1,0,0,0,271.74,1447.54Z" transform="translate(-216.98 -1351.22)"/><path d="M272.05,1451.86a1,1,0,0,0,.14,2A1,1,0,0,0,272.05,1451.86Z" transform="translate(-216.98 -1351.22)"/><path d="M273.76,1457.08a1,1,0,0,0,.14,2A1,1,0,0,0,273.76,1457.08Z" transform="translate(-216.98 -1351.22)"/><path d="M274.71,1461a1,1,0,0,0,.14,2A1,1,0,0,0,274.71,1461Z" transform="translate(-216.98 -1351.22)"/><path d="M276.4,1465.92a1,1,0,0,0,.14,2A1,1,0,0,0,276.4,1465.92Z" transform="translate(-216.98 -1351.22)"/><path d="M277.4,1470.53a1,1,0,0,0,.14,2A1,1,0,0,0,277.4,1470.53Z" transform="translate(-216.98 -1351.22)"/><path d="M276.73,1442.5a1,1,0,0,0,.14,2A1,1,0,0,0,276.73,1442.5Z" transform="translate(-216.98 -1351.22)"/><path d="M277,1446.16a1,1,0,0,0,.14,2A1,1,0,0,0,277,1446.16Z" transform="translate(-216.98 -1351.22)"/><path d="M278.06,1451.76a1,1,0,0,0,.14,2A1,1,0,0,0,278.06,1451.76Z" transform="translate(-216.98 -1351.22)"/><path d="M254.88,1445.4a1,1,0,1,0,1,.93A0.95,0.95,0,0,0,254.88,1445.4Z" transform="translate(-216.98 -1351.22)"/><path d="M259.37,1442.74a1,1,0,0,0,.14,2A1,1,0,0,0,259.37,1442.74Z" transform="translate(-216.98 -1351.22)"/><path d="M246.5,1421.6a1,1,0,0,0,.14,2A1,1,0,0,0,246.5,1421.6Z" transform="translate(-216.98 -1351.22)"/><path d="M273.38,1405a1,1,0,0,0,.14,2A1,1,0,0,0,273.38,1405Z" transform="translate(-216.98 -1351.22)"/><path d="M275.55,1402.48a1,1,0,0,0,.14,2A1,1,0,0,0,275.55,1402.48Z" transform="translate(-216.98 -1351.22)"/><path d="M278.42,1400.61a1,1,0,0,0,.14,2A1,1,0,0,0,278.42,1400.61Z" transform="translate(-216.98 -1351.22)"/><path d="M283.22,1397.59a0.89,0.89,0,0,0-.79.54,0.94,0.94,0,0,0-.52-0.12,1,1,0,0,0,.14,2,0.89,0.89,0,0,0,.79-0.54,0.94,0.94,0,0,0,.52.12A1,1,0,0,0,283.22,1397.59Z" transform="translate(-216.98 -1351.22)"/><path d="M287.33,1394.29a1,1,0,0,0,.14,2A1,1,0,0,0,287.33,1394.29Z" transform="translate(-216.98 -1351.22)"/><path d="M290.84,1392a1,1,0,0,0,.14,2A1,1,0,0,0,290.84,1392Z" transform="translate(-216.98 -1351.22)"/><path d="M293.41,1390.52a1,1,0,0,0,.14,2A1,1,0,0,0,293.41,1390.52Z" transform="translate(-216.98 -1351.22)"/><path d="M296.66,1389.28a1,1,0,0,0,.14,2A1,1,0,0,0,296.66,1389.28Z" transform="translate(-216.98 -1351.22)"/><path d="M275.4,1391.13a1,1,0,0,0,.14,2A1,1,0,0,0,275.4,1391.13Z" transform="translate(-216.98 -1351.22)"/><path d="M276,1394.43a1,1,0,0,0,.14,2A1,1,0,0,0,276,1394.43Z" transform="translate(-216.98 -1351.22)"/><path d="M276.45,1396.41a1,1,0,0,0,.14,2A1,1,0,0,0,276.45,1396.41Z" transform="translate(-216.98 -1351.22)"/><path d="M276.61,1398.73a1,1,0,0,0,.14,2A1,1,0,0,0,276.61,1398.73Z" transform="translate(-216.98 -1351.22)"/><path d="M286.71,1413.72a1,1,0,0,0,.14,2A1,1,0,0,0,286.71,1413.72Z" transform="translate(-216.98 -1351.22)"/><path d="M331,1429.94a1,1,0,0,0,.14,2A1,1,0,0,0,331,1429.94Z" transform="translate(-216.98 -1351.22)"/><path d="M334.61,1429.35a1,1,0,0,0,.14,2A1,1,0,0,0,334.61,1429.35Z" transform="translate(-216.98 -1351.22)"/><path d="M338.29,1429.42a1,1,0,0,0,.14,2A1,1,0,0,0,338.29,1429.42Z" transform="translate(-216.98 -1351.22)"/><path d="M344.65,1429.63a1,1,0,0,0,.14,2A1,1,0,0,0,344.65,1429.63Z" transform="translate(-216.98 -1351.22)"/><path d="M351.41,1430.11l-0.36-.31a1,1,0,0,0-1.31,1.51l0.36,0.31A1,1,0,0,0,351.41,1430.11Z" transform="translate(-216.98 -1351.22)"/><path d="M356,1429.16l-0.33,0a1,1,0,0,1-1.64.45l-0.66,0a1,1,0,0,0,.14,2l0.66,0a1,1,0,0,1,1.64-.45l0.33,0A1,1,0,0,0,356,1429.16Z" transform="translate(-216.98 -1351.22)"/><circle class="cls-1" cx="226.07" cy="1378.66" r="8.08" transform="translate(-729.09 -1158.69) rotate(-22.58)"/><circle class="cls-2" cx="253.78" cy="1415.86" r="8.08" transform="translate(-741.25 -1145.19) rotate(-22.58)"/><path class="cls-1" d="M283.4,1386.55s-12.72-33.51-29.45-34.32c-6-.29-13.78,4-20.39,9.37" transform="translate(-216.98 -1351.22)"/><path class="cls-1" d="M242.73,1359.38a15.31,15.31,0,0,1,11.85-4.19c15.12,2.18,24.93,31.64,24.93,31.64" transform="translate(-216.98 -1351.22)"/><path d="M234.59,1360.1c-0.53-.26-0.87.19-1.34,0.46-0.85.48-5.25,4.19-6.67,5.16-1.05.73-1.88,1.61-3,2.24a12.18,12.18,0,0,0-5.22,5,1,1,0,0,0,1.79.88c1.41-2.63,4-3.52,6.17-5.24,1.9-1.49,5.79-4.84,5.83-4.9a20.87,20.87,0,0,0,3.36-2.41C235.8,1360.82,235,1360.32,234.59,1360.1Z" transform="translate(-216.98 -1351.22)"/><path d="M243.23,1357.68c-1.67,1.57-3.51,1.91-4.89,3.83a15.81,15.81,0,0,0-2.43,5.82c-0.26,1.15-1,12.31-2.66,12.81a1,1,0,0,0,.67,1.89c2.09-.87,2.29-4.47,2.57-6.49a69.18,69.18,0,0,1,1.52-8.44c1.16-4.33,3.73-5.27,6.74-8.11C245.68,1358.1,244.16,1356.8,243.23,1357.68Z" transform="translate(-216.98 -1351.22)"/></svg>